M48
;GenerationSoftware,Autodesk,EAGLE,9.6.2*%
;CreationDate,2021-04-12T13:39:28Z*%
FMAT,2
ICI,OFF
METRIC,TZ,000.000
T3C0.400
T2C0.720
T1C1.016
%
G90
M71
T1
X10478Y34290
X10478Y36830
X13017Y36830
X15557Y36830
X18098Y36830
X20638Y36830
X13017Y34290
X15557Y34290
X18098Y34290
X20638Y34290
T2
X1045Y37599
X1045Y36819
X7845Y36819
X7845Y37599
T3
X9843Y11589
X11747Y26194
X3651Y21114
X794Y19209
X20638Y32702
X16034Y9208
X8255Y9843
X11747Y9208
X15081Y29845
X1746Y9684
X6826Y16192
X14287Y32226
X1746Y32861
X18098Y20161
X14129Y21431
X2381Y15081
X1746Y29369
X19844Y26987
X3016Y16986
X4921Y26670
X2699Y16034
X5080Y31274
X12224Y19209
X21114Y31909
X11906Y17780
X20796Y16669
X17621Y25082
X10954Y24765
X7620Y15399
X8890Y21273
X3810Y17780
X4604Y29527
X10160Y21273
X4604Y16986
X9525Y24765
X7620Y16986
X11747Y28892
X5715Y29527
X10319Y26194
X794Y794
X6985Y31274
X13017Y28892
X4128Y12859
X7461Y12859
X2381Y26670
X15716Y25082
X21114Y25082
X3651Y26670
X7779Y21273
X794Y21114
X5715Y12859
X21431Y8573
X4921Y24606
X7779Y26194
X9049Y29210
X6985Y29210
M30