G04 EAGLE Gerber RS-274X export*
G75*
%MOMM*%
%FSLAX34Y34*%
%LPD*%
%INBottom Silkscreen*%
%IPPOS*%
%AMOC8*
5,1,8,0,0,1.08239X$1,22.5*%
G01*
%ADD10C,0.000000*%
%ADD11C,0.076200*%
%ADD12R,0.025400X0.012700*%
%ADD13R,0.088900X0.012700*%
%ADD14R,0.012700X0.012700*%
%ADD15R,0.152400X0.012700*%
%ADD16R,0.215900X0.012700*%
%ADD17R,0.063500X0.012700*%
%ADD18R,0.279400X0.012700*%
%ADD19R,0.127000X0.012700*%
%ADD20R,0.330200X0.012700*%
%ADD21R,0.165100X0.012700*%
%ADD22R,0.381000X0.012700*%
%ADD23R,0.431800X0.012700*%
%ADD24R,0.266700X0.012700*%
%ADD25R,0.457200X0.012700*%
%ADD26R,0.317500X0.012700*%
%ADD27R,0.495300X0.012700*%
%ADD28R,0.342900X0.012700*%
%ADD29R,0.533400X0.012700*%
%ADD30R,0.584200X0.012700*%
%ADD31R,0.419100X0.012700*%
%ADD32R,0.571500X0.012700*%
%ADD33R,0.444500X0.012700*%
%ADD34R,0.482600X0.012700*%
%ADD35R,0.508000X0.012700*%
%ADD36R,0.609600X0.012700*%
%ADD37R,0.038100X0.012700*%
%ADD38R,0.660400X0.012700*%
%ADD39R,0.596900X0.012700*%
%ADD40R,0.673100X0.012700*%
%ADD41R,0.647700X0.012700*%
%ADD42R,0.685800X0.012700*%
%ADD43R,0.723900X0.012700*%
%ADD44R,0.736600X0.012700*%
%ADD45R,0.749300X0.012700*%
%ADD46R,0.635000X0.012700*%
%ADD47R,0.762000X0.012700*%
%ADD48R,0.774700X0.012700*%
%ADD49R,0.787400X0.012700*%
%ADD50R,0.812800X0.012700*%
%ADD51R,0.825500X0.012700*%
%ADD52R,0.838200X0.012700*%
%ADD53R,0.863600X0.012700*%
%ADD54R,0.876300X0.012700*%
%ADD55R,0.901700X0.012700*%
%ADD56R,0.914400X0.012700*%
%ADD57R,0.927100X0.012700*%
%ADD58R,0.076200X0.012700*%
%ADD59R,0.952500X0.012700*%
%ADD60R,0.965200X0.012700*%
%ADD61R,0.101600X0.012700*%
%ADD62R,0.990600X0.012700*%
%ADD63R,0.114300X0.012700*%
%ADD64R,1.016000X0.012700*%
%ADD65R,0.139700X0.012700*%
%ADD66R,0.939800X0.012700*%
%ADD67R,0.177800X0.012700*%
%ADD68R,0.190500X0.012700*%
%ADD69R,0.203200X0.012700*%
%ADD70R,0.241300X0.012700*%
%ADD71R,0.254000X0.012700*%
%ADD72R,1.054100X0.012700*%
%ADD73R,1.041400X0.012700*%
%ADD74R,0.292100X0.012700*%
%ADD75R,0.304800X0.012700*%
%ADD76R,1.066800X0.012700*%
%ADD77R,1.092200X0.012700*%
%ADD78R,1.079500X0.012700*%
%ADD79R,0.355600X0.012700*%
%ADD80R,1.104900X0.012700*%
%ADD81R,0.368300X0.012700*%
%ADD82R,1.117600X0.012700*%
%ADD83R,1.130300X0.012700*%
%ADD84R,0.393700X0.012700*%
%ADD85R,1.143000X0.012700*%
%ADD86R,0.406400X0.012700*%
%ADD87R,0.050800X0.012700*%
%ADD88R,0.546100X0.012700*%
%ADD89R,0.622300X0.012700*%
%ADD90R,0.711200X0.012700*%
%ADD91R,0.698500X0.012700*%
%ADD92R,0.800100X0.012700*%
%ADD93R,0.889000X0.012700*%
%ADD94R,0.850900X0.012700*%
%ADD95R,0.977900X0.012700*%
%ADD96R,1.028700X0.012700*%
%ADD97R,1.003300X0.012700*%
%ADD98R,1.193800X0.012700*%
%ADD99R,0.469900X0.012700*%
%ADD100R,1.155700X0.012700*%
%ADD101R,1.168400X0.012700*%
%ADD102R,1.206500X0.012700*%
%ADD103R,1.181100X0.012700*%
%ADD104R,1.219200X0.012700*%
%ADD105R,0.228600X0.012700*%
%ADD106R,1.270000X0.012700*%
%ADD107R,1.244600X0.012700*%
%ADD108R,1.231900X0.012700*%
%ADD109R,1.282700X0.012700*%
%ADD110R,0.558800X0.012700*%
%ADD111R,1.257300X0.012700*%
%ADD112R,1.295400X0.012700*%
%ADD113R,1.358900X0.012700*%
%ADD114R,1.333500X0.012700*%
%ADD115R,1.346200X0.012700*%
%ADD116R,1.308100X0.012700*%
%ADD117R,1.320800X0.012700*%
%ADD118R,1.384300X0.012700*%
%ADD119R,1.371600X0.012700*%
%ADD120R,1.447800X0.012700*%
%ADD121R,1.409700X0.012700*%
%ADD122R,1.422400X0.012700*%
%ADD123R,1.397000X0.012700*%
%ADD124R,1.574800X0.012700*%
%ADD125R,1.612900X0.012700*%
%ADD126R,1.600200X0.012700*%
%ADD127R,1.562100X0.012700*%
%ADD128R,1.549400X0.012700*%
%ADD129R,1.587500X0.012700*%
%ADD130R,1.841500X0.012700*%
%ADD131R,1.828800X0.012700*%
%ADD132R,1.790700X0.012700*%
%ADD133R,1.778000X0.012700*%
%ADD134R,1.752600X0.012700*%
%ADD135R,1.765300X0.012700*%
%ADD136R,1.803400X0.012700*%
%ADD137R,1.993900X0.012700*%
%ADD138R,2.070100X0.012700*%
%ADD139R,2.032000X0.012700*%
%ADD140R,2.019300X0.012700*%
%ADD141R,2.006600X0.012700*%
%ADD142R,2.057400X0.012700*%
%ADD143R,2.197100X0.012700*%
%ADD144R,2.349500X0.012700*%
%ADD145R,2.324100X0.012700*%
%ADD146R,2.298700X0.012700*%
%ADD147R,2.286000X0.012700*%
%ADD148R,2.273300X0.012700*%
%ADD149R,2.260600X0.012700*%
%ADD150R,2.679700X0.012700*%
%ADD151R,2.641600X0.012700*%
%ADD152R,2.603500X0.012700*%
%ADD153R,2.590800X0.012700*%
%ADD154R,2.578100X0.012700*%
%ADD155R,2.552700X0.012700*%
%ADD156R,2.565400X0.012700*%
%ADD157R,2.933700X0.012700*%
%ADD158R,3.035300X0.012700*%
%ADD159R,3.048000X0.012700*%
%ADD160R,3.022600X0.012700*%
%ADD161R,3.009900X0.012700*%
%ADD162R,2.997200X0.012700*%
%ADD163R,2.971800X0.012700*%
%ADD164R,2.959100X0.012700*%
%ADD165R,2.946400X0.012700*%
%ADD166R,2.895600X0.012700*%
%ADD167R,2.870200X0.012700*%
%ADD168R,2.832100X0.012700*%
%ADD169R,2.794000X0.012700*%
%ADD170R,2.755900X0.012700*%
%ADD171R,2.717800X0.012700*%
%ADD172R,2.692400X0.012700*%
%ADD173R,2.514600X0.012700*%
%ADD174R,2.476500X0.012700*%
%ADD175R,2.438400X0.012700*%
%ADD176R,2.387600X0.012700*%
%ADD177R,2.336800X0.012700*%
%ADD178R,2.184400X0.012700*%
%ADD179R,2.159000X0.012700*%
%ADD180R,2.095500X0.012700*%
%ADD181R,1.981200X0.012700*%
%ADD182R,1.930400X0.012700*%
%ADD183R,1.854200X0.012700*%
%ADD184R,1.727200X0.012700*%
%ADD185R,1.663700X0.012700*%
%ADD186R,1.511300X0.012700*%
%ADD187R,1.435100X0.012700*%


D10*
X0Y0D02*
X222125Y0D01*
X222125Y393600D01*
X0Y393600D01*
X0Y0D01*
D11*
X110737Y381191D02*
X110737Y388557D01*
X109919Y388557D02*
X111555Y388557D01*
X111555Y381191D02*
X109919Y381191D01*
X114787Y381191D02*
X114787Y388557D01*
X118879Y388557D02*
X114787Y381191D01*
X118879Y381191D02*
X118879Y388557D01*
X123904Y388557D02*
X123904Y381191D01*
X121858Y381191D02*
X125950Y381191D01*
X128945Y388557D02*
X132219Y388557D01*
X128945Y388557D02*
X128945Y381191D01*
X132219Y381191D01*
X131401Y384464D02*
X128945Y384464D01*
X135321Y381191D02*
X135321Y388557D01*
X135321Y381191D02*
X137367Y381191D01*
X137456Y381193D01*
X137545Y381199D01*
X137634Y381209D01*
X137722Y381222D01*
X137810Y381239D01*
X137897Y381261D01*
X137982Y381286D01*
X138067Y381314D01*
X138150Y381347D01*
X138232Y381383D01*
X138312Y381422D01*
X138390Y381465D01*
X138466Y381511D01*
X138541Y381561D01*
X138613Y381614D01*
X138682Y381670D01*
X138749Y381729D01*
X138814Y381790D01*
X138875Y381855D01*
X138934Y381922D01*
X138990Y381991D01*
X139043Y382063D01*
X139093Y382138D01*
X139139Y382214D01*
X139182Y382292D01*
X139221Y382372D01*
X139257Y382454D01*
X139290Y382537D01*
X139318Y382622D01*
X139343Y382707D01*
X139365Y382794D01*
X139382Y382882D01*
X139395Y382970D01*
X139405Y383059D01*
X139411Y383148D01*
X139413Y383237D01*
X139411Y383326D01*
X139405Y383415D01*
X139395Y383504D01*
X139382Y383592D01*
X139365Y383680D01*
X139343Y383767D01*
X139318Y383852D01*
X139290Y383937D01*
X139257Y384020D01*
X139221Y384102D01*
X139182Y384182D01*
X139139Y384260D01*
X139093Y384336D01*
X139043Y384411D01*
X138990Y384483D01*
X138934Y384552D01*
X138875Y384619D01*
X138814Y384684D01*
X138749Y384745D01*
X138682Y384804D01*
X138613Y384860D01*
X138541Y384913D01*
X138466Y384963D01*
X138390Y385009D01*
X138312Y385052D01*
X138232Y385091D01*
X138150Y385127D01*
X138067Y385160D01*
X137982Y385188D01*
X137897Y385213D01*
X137810Y385235D01*
X137722Y385252D01*
X137634Y385265D01*
X137545Y385275D01*
X137456Y385281D01*
X137367Y385283D01*
X135321Y385283D01*
X137776Y385283D02*
X139413Y388557D01*
X142844Y388557D02*
X142844Y381191D01*
X146118Y381191D01*
X146118Y384464D02*
X142844Y384464D01*
X148515Y388557D02*
X150970Y381191D01*
X153426Y388557D01*
X152812Y386715D02*
X149129Y386715D01*
X157853Y388557D02*
X159490Y388557D01*
X157853Y388557D02*
X157775Y388555D01*
X157697Y388550D01*
X157620Y388540D01*
X157543Y388527D01*
X157467Y388511D01*
X157392Y388491D01*
X157318Y388467D01*
X157245Y388440D01*
X157173Y388409D01*
X157103Y388375D01*
X157035Y388338D01*
X156968Y388297D01*
X156903Y388253D01*
X156841Y388207D01*
X156781Y388157D01*
X156723Y388105D01*
X156668Y388050D01*
X156616Y387992D01*
X156566Y387932D01*
X156520Y387870D01*
X156476Y387805D01*
X156435Y387739D01*
X156398Y387670D01*
X156364Y387600D01*
X156333Y387528D01*
X156306Y387455D01*
X156282Y387381D01*
X156262Y387306D01*
X156246Y387230D01*
X156233Y387153D01*
X156223Y387076D01*
X156218Y386998D01*
X156216Y386920D01*
X156216Y382827D01*
X156218Y382747D01*
X156224Y382667D01*
X156234Y382587D01*
X156247Y382508D01*
X156265Y382429D01*
X156286Y382352D01*
X156312Y382276D01*
X156341Y382201D01*
X156373Y382127D01*
X156409Y382055D01*
X156449Y381985D01*
X156492Y381918D01*
X156538Y381852D01*
X156588Y381789D01*
X156640Y381728D01*
X156695Y381669D01*
X156754Y381614D01*
X156814Y381562D01*
X156878Y381512D01*
X156943Y381466D01*
X157011Y381423D01*
X157081Y381383D01*
X157153Y381347D01*
X157227Y381315D01*
X157301Y381286D01*
X157378Y381261D01*
X157455Y381239D01*
X157534Y381221D01*
X157613Y381208D01*
X157692Y381198D01*
X157773Y381192D01*
X157853Y381190D01*
X157853Y381191D02*
X159490Y381191D01*
X162595Y388557D02*
X165869Y388557D01*
X162595Y388557D02*
X162595Y381191D01*
X165869Y381191D01*
X165050Y384464D02*
X162595Y384464D01*
X172655Y385692D02*
X177566Y385692D01*
X175110Y388147D02*
X175110Y383237D01*
X185352Y381191D02*
X185352Y388557D01*
X186170Y388557D02*
X184533Y388557D01*
X184533Y381191D02*
X186170Y381191D01*
X193006Y386920D02*
X193004Y386998D01*
X192999Y387076D01*
X192989Y387153D01*
X192976Y387230D01*
X192960Y387306D01*
X192940Y387381D01*
X192916Y387455D01*
X192889Y387528D01*
X192858Y387600D01*
X192824Y387670D01*
X192787Y387739D01*
X192746Y387805D01*
X192702Y387870D01*
X192656Y387932D01*
X192606Y387992D01*
X192554Y388050D01*
X192499Y388105D01*
X192441Y388157D01*
X192381Y388207D01*
X192319Y388253D01*
X192254Y388297D01*
X192188Y388338D01*
X192119Y388375D01*
X192049Y388409D01*
X191977Y388440D01*
X191904Y388467D01*
X191830Y388491D01*
X191755Y388511D01*
X191679Y388527D01*
X191602Y388540D01*
X191525Y388550D01*
X191447Y388555D01*
X191369Y388557D01*
X191255Y388555D01*
X191142Y388550D01*
X191028Y388540D01*
X190915Y388527D01*
X190803Y388510D01*
X190691Y388490D01*
X190580Y388466D01*
X190469Y388438D01*
X190360Y388407D01*
X190252Y388372D01*
X190145Y388333D01*
X190039Y388291D01*
X189935Y388246D01*
X189832Y388197D01*
X189731Y388144D01*
X189632Y388089D01*
X189534Y388030D01*
X189439Y387968D01*
X189346Y387903D01*
X189254Y387835D01*
X189166Y387764D01*
X189079Y387690D01*
X188995Y387613D01*
X188914Y387534D01*
X189118Y382827D02*
X189120Y382749D01*
X189125Y382671D01*
X189135Y382594D01*
X189148Y382517D01*
X189164Y382441D01*
X189184Y382366D01*
X189208Y382292D01*
X189235Y382219D01*
X189266Y382147D01*
X189300Y382077D01*
X189337Y382009D01*
X189378Y381942D01*
X189422Y381877D01*
X189468Y381815D01*
X189518Y381755D01*
X189570Y381697D01*
X189625Y381642D01*
X189683Y381590D01*
X189743Y381540D01*
X189805Y381494D01*
X189870Y381450D01*
X189937Y381409D01*
X190005Y381372D01*
X190075Y381338D01*
X190147Y381307D01*
X190220Y381280D01*
X190294Y381256D01*
X190369Y381236D01*
X190445Y381220D01*
X190522Y381207D01*
X190599Y381197D01*
X190677Y381192D01*
X190755Y381190D01*
X190755Y381191D02*
X190865Y381193D01*
X190974Y381199D01*
X191084Y381209D01*
X191192Y381222D01*
X191301Y381240D01*
X191408Y381261D01*
X191515Y381287D01*
X191621Y381316D01*
X191726Y381348D01*
X191829Y381385D01*
X191931Y381425D01*
X192032Y381469D01*
X192131Y381517D01*
X192228Y381567D01*
X192323Y381622D01*
X192416Y381680D01*
X192507Y381741D01*
X192596Y381805D01*
X189937Y384259D02*
X189871Y384217D01*
X189806Y384173D01*
X189744Y384125D01*
X189684Y384075D01*
X189626Y384022D01*
X189571Y383966D01*
X189518Y383908D01*
X189469Y383847D01*
X189422Y383784D01*
X189378Y383719D01*
X189338Y383652D01*
X189301Y383583D01*
X189267Y383512D01*
X189236Y383440D01*
X189209Y383366D01*
X189185Y383291D01*
X189165Y383216D01*
X189149Y383139D01*
X189136Y383062D01*
X189126Y382984D01*
X189121Y382905D01*
X189119Y382827D01*
X192188Y385487D02*
X192255Y385529D01*
X192320Y385573D01*
X192382Y385621D01*
X192442Y385671D01*
X192500Y385724D01*
X192555Y385780D01*
X192607Y385839D01*
X192657Y385899D01*
X192704Y385963D01*
X192747Y386028D01*
X192788Y386095D01*
X192825Y386164D01*
X192859Y386235D01*
X192890Y386307D01*
X192917Y386381D01*
X192941Y386455D01*
X192961Y386531D01*
X192977Y386608D01*
X192990Y386685D01*
X193000Y386763D01*
X193005Y386842D01*
X193007Y386920D01*
X192188Y385487D02*
X189937Y384260D01*
X196347Y381191D02*
X196347Y388557D01*
X196347Y381191D02*
X198393Y381191D01*
X198482Y381193D01*
X198571Y381199D01*
X198660Y381209D01*
X198748Y381222D01*
X198836Y381239D01*
X198923Y381261D01*
X199008Y381286D01*
X199093Y381314D01*
X199176Y381347D01*
X199258Y381383D01*
X199338Y381422D01*
X199416Y381465D01*
X199492Y381511D01*
X199567Y381561D01*
X199639Y381614D01*
X199708Y381670D01*
X199775Y381729D01*
X199840Y381790D01*
X199901Y381855D01*
X199960Y381922D01*
X200016Y381991D01*
X200069Y382063D01*
X200119Y382138D01*
X200165Y382214D01*
X200208Y382292D01*
X200247Y382372D01*
X200283Y382454D01*
X200316Y382537D01*
X200344Y382622D01*
X200369Y382707D01*
X200391Y382794D01*
X200408Y382882D01*
X200421Y382970D01*
X200431Y383059D01*
X200437Y383148D01*
X200439Y383237D01*
X200437Y383326D01*
X200431Y383415D01*
X200421Y383504D01*
X200408Y383592D01*
X200391Y383680D01*
X200369Y383767D01*
X200344Y383852D01*
X200316Y383937D01*
X200283Y384020D01*
X200247Y384102D01*
X200208Y384182D01*
X200165Y384260D01*
X200119Y384336D01*
X200069Y384411D01*
X200016Y384483D01*
X199960Y384552D01*
X199901Y384619D01*
X199840Y384684D01*
X199775Y384745D01*
X199708Y384804D01*
X199639Y384860D01*
X199567Y384913D01*
X199492Y384963D01*
X199416Y385009D01*
X199338Y385052D01*
X199258Y385091D01*
X199176Y385127D01*
X199093Y385160D01*
X199008Y385188D01*
X198923Y385213D01*
X198836Y385235D01*
X198748Y385252D01*
X198660Y385265D01*
X198571Y385275D01*
X198482Y385281D01*
X198393Y385283D01*
X196347Y385283D01*
X163132Y62442D02*
X161904Y57531D01*
X160676Y60805D01*
X159449Y57531D01*
X158221Y62442D01*
X155329Y62442D02*
X154101Y57531D01*
X152873Y60805D01*
X151646Y57531D01*
X150418Y62442D01*
X147526Y62442D02*
X146298Y57531D01*
X145071Y60805D01*
X143843Y57531D01*
X142615Y62442D01*
X139911Y57940D02*
X139911Y57531D01*
X139911Y57940D02*
X139501Y57940D01*
X139501Y57531D01*
X139911Y57531D01*
X135482Y57531D02*
X133436Y57531D01*
X135482Y57531D02*
X135551Y57533D01*
X135619Y57539D01*
X135688Y57548D01*
X135755Y57562D01*
X135822Y57579D01*
X135888Y57600D01*
X135952Y57624D01*
X136015Y57653D01*
X136076Y57684D01*
X136135Y57719D01*
X136193Y57757D01*
X136248Y57799D01*
X136300Y57843D01*
X136350Y57891D01*
X136398Y57941D01*
X136442Y57993D01*
X136484Y58048D01*
X136522Y58106D01*
X136557Y58165D01*
X136588Y58226D01*
X136617Y58289D01*
X136641Y58353D01*
X136662Y58419D01*
X136679Y58486D01*
X136693Y58553D01*
X136702Y58622D01*
X136708Y58690D01*
X136710Y58759D01*
X136710Y60805D01*
X136708Y60884D01*
X136702Y60963D01*
X136693Y61042D01*
X136680Y61120D01*
X136662Y61197D01*
X136642Y61273D01*
X136617Y61348D01*
X136589Y61422D01*
X136558Y61495D01*
X136522Y61566D01*
X136484Y61635D01*
X136442Y61702D01*
X136397Y61767D01*
X136349Y61830D01*
X136298Y61891D01*
X136244Y61948D01*
X136188Y62004D01*
X136129Y62056D01*
X136067Y62106D01*
X136003Y62152D01*
X135937Y62196D01*
X135869Y62236D01*
X135799Y62272D01*
X135727Y62306D01*
X135653Y62336D01*
X135579Y62362D01*
X135503Y62385D01*
X135426Y62403D01*
X135349Y62419D01*
X135270Y62430D01*
X135192Y62438D01*
X135113Y62442D01*
X135033Y62442D01*
X134954Y62438D01*
X134876Y62430D01*
X134797Y62419D01*
X134720Y62403D01*
X134643Y62385D01*
X134567Y62362D01*
X134493Y62336D01*
X134419Y62306D01*
X134347Y62272D01*
X134277Y62236D01*
X134209Y62196D01*
X134143Y62152D01*
X134079Y62106D01*
X134017Y62056D01*
X133958Y62004D01*
X133902Y61948D01*
X133848Y61891D01*
X133797Y61830D01*
X133749Y61767D01*
X133704Y61702D01*
X133662Y61635D01*
X133624Y61566D01*
X133588Y61495D01*
X133557Y61422D01*
X133529Y61348D01*
X133504Y61273D01*
X133484Y61197D01*
X133466Y61120D01*
X133453Y61042D01*
X133444Y60963D01*
X133438Y60884D01*
X133436Y60805D01*
X133436Y59986D01*
X136710Y59986D01*
X130287Y58759D02*
X130287Y64897D01*
X130288Y58759D02*
X130286Y58690D01*
X130280Y58622D01*
X130271Y58553D01*
X130257Y58486D01*
X130240Y58419D01*
X130219Y58353D01*
X130195Y58289D01*
X130166Y58226D01*
X130135Y58165D01*
X130100Y58106D01*
X130062Y58048D01*
X130020Y57993D01*
X129976Y57941D01*
X129928Y57891D01*
X129878Y57843D01*
X129826Y57799D01*
X129771Y57758D01*
X129713Y57719D01*
X129654Y57684D01*
X129593Y57653D01*
X129530Y57624D01*
X129466Y57600D01*
X129400Y57579D01*
X129333Y57562D01*
X129266Y57548D01*
X129198Y57539D01*
X129129Y57533D01*
X129060Y57531D01*
X125241Y57531D02*
X123195Y57531D01*
X125241Y57531D02*
X125310Y57533D01*
X125378Y57539D01*
X125447Y57548D01*
X125514Y57562D01*
X125581Y57579D01*
X125647Y57600D01*
X125711Y57624D01*
X125774Y57653D01*
X125835Y57684D01*
X125894Y57719D01*
X125952Y57757D01*
X126007Y57799D01*
X126059Y57843D01*
X126109Y57891D01*
X126157Y57941D01*
X126201Y57993D01*
X126243Y58048D01*
X126281Y58106D01*
X126316Y58165D01*
X126347Y58226D01*
X126376Y58289D01*
X126400Y58353D01*
X126421Y58419D01*
X126438Y58486D01*
X126452Y58553D01*
X126461Y58622D01*
X126467Y58690D01*
X126469Y58759D01*
X126469Y60805D01*
X126467Y60884D01*
X126461Y60963D01*
X126452Y61042D01*
X126439Y61120D01*
X126421Y61197D01*
X126401Y61273D01*
X126376Y61348D01*
X126348Y61422D01*
X126317Y61495D01*
X126281Y61566D01*
X126243Y61635D01*
X126201Y61702D01*
X126156Y61767D01*
X126108Y61830D01*
X126057Y61891D01*
X126003Y61948D01*
X125947Y62004D01*
X125888Y62056D01*
X125826Y62106D01*
X125762Y62152D01*
X125696Y62196D01*
X125628Y62236D01*
X125558Y62272D01*
X125486Y62306D01*
X125412Y62336D01*
X125338Y62362D01*
X125262Y62385D01*
X125185Y62403D01*
X125108Y62419D01*
X125029Y62430D01*
X124951Y62438D01*
X124872Y62442D01*
X124792Y62442D01*
X124713Y62438D01*
X124635Y62430D01*
X124556Y62419D01*
X124479Y62403D01*
X124402Y62385D01*
X124326Y62362D01*
X124252Y62336D01*
X124178Y62306D01*
X124106Y62272D01*
X124036Y62236D01*
X123968Y62196D01*
X123902Y62152D01*
X123838Y62106D01*
X123776Y62056D01*
X123717Y62004D01*
X123661Y61948D01*
X123607Y61891D01*
X123556Y61830D01*
X123508Y61767D01*
X123463Y61702D01*
X123421Y61635D01*
X123383Y61566D01*
X123347Y61495D01*
X123316Y61422D01*
X123288Y61348D01*
X123263Y61273D01*
X123243Y61197D01*
X123225Y61120D01*
X123212Y61042D01*
X123203Y60963D01*
X123197Y60884D01*
X123195Y60805D01*
X123195Y59986D01*
X126469Y59986D01*
X119791Y57531D02*
X119791Y64897D01*
X116517Y62442D02*
X119791Y59986D01*
X118359Y61009D02*
X116517Y57531D01*
X114420Y62442D02*
X111964Y62442D01*
X113601Y64897D02*
X113601Y58759D01*
X113599Y58690D01*
X113593Y58622D01*
X113584Y58553D01*
X113570Y58486D01*
X113553Y58419D01*
X113532Y58353D01*
X113508Y58289D01*
X113479Y58226D01*
X113448Y58165D01*
X113413Y58106D01*
X113375Y58048D01*
X113333Y57993D01*
X113289Y57941D01*
X113241Y57891D01*
X113191Y57843D01*
X113139Y57799D01*
X113084Y57758D01*
X113026Y57719D01*
X112967Y57684D01*
X112906Y57653D01*
X112843Y57624D01*
X112779Y57600D01*
X112713Y57579D01*
X112646Y57562D01*
X112579Y57548D01*
X112511Y57539D01*
X112442Y57533D01*
X112373Y57531D01*
X111964Y57531D01*
X108866Y57531D02*
X108866Y62442D01*
X106411Y62442D01*
X106411Y61623D01*
X104036Y60805D02*
X104036Y59168D01*
X104036Y60805D02*
X104034Y60884D01*
X104028Y60963D01*
X104019Y61042D01*
X104006Y61120D01*
X103988Y61197D01*
X103968Y61273D01*
X103943Y61348D01*
X103915Y61422D01*
X103884Y61495D01*
X103848Y61566D01*
X103810Y61635D01*
X103768Y61702D01*
X103723Y61767D01*
X103675Y61830D01*
X103624Y61891D01*
X103570Y61948D01*
X103514Y62004D01*
X103455Y62056D01*
X103393Y62106D01*
X103329Y62152D01*
X103263Y62196D01*
X103195Y62236D01*
X103125Y62272D01*
X103053Y62306D01*
X102979Y62336D01*
X102905Y62362D01*
X102829Y62385D01*
X102752Y62403D01*
X102675Y62419D01*
X102596Y62430D01*
X102518Y62438D01*
X102439Y62442D01*
X102359Y62442D01*
X102280Y62438D01*
X102202Y62430D01*
X102123Y62419D01*
X102046Y62403D01*
X101969Y62385D01*
X101893Y62362D01*
X101819Y62336D01*
X101745Y62306D01*
X101673Y62272D01*
X101603Y62236D01*
X101535Y62196D01*
X101469Y62152D01*
X101405Y62106D01*
X101343Y62056D01*
X101284Y62004D01*
X101228Y61948D01*
X101174Y61891D01*
X101123Y61830D01*
X101075Y61767D01*
X101030Y61702D01*
X100988Y61635D01*
X100950Y61566D01*
X100914Y61495D01*
X100883Y61422D01*
X100855Y61348D01*
X100830Y61273D01*
X100810Y61197D01*
X100792Y61120D01*
X100779Y61042D01*
X100770Y60963D01*
X100764Y60884D01*
X100762Y60805D01*
X100762Y59168D01*
X100764Y59089D01*
X100770Y59010D01*
X100779Y58931D01*
X100792Y58853D01*
X100810Y58776D01*
X100830Y58700D01*
X100855Y58625D01*
X100883Y58551D01*
X100914Y58478D01*
X100950Y58407D01*
X100988Y58338D01*
X101030Y58271D01*
X101075Y58206D01*
X101123Y58143D01*
X101174Y58082D01*
X101228Y58025D01*
X101284Y57969D01*
X101343Y57917D01*
X101405Y57867D01*
X101469Y57821D01*
X101535Y57777D01*
X101603Y57737D01*
X101673Y57701D01*
X101745Y57667D01*
X101819Y57637D01*
X101893Y57611D01*
X101969Y57588D01*
X102046Y57570D01*
X102123Y57554D01*
X102202Y57543D01*
X102280Y57535D01*
X102359Y57531D01*
X102439Y57531D01*
X102518Y57535D01*
X102596Y57543D01*
X102675Y57554D01*
X102752Y57570D01*
X102829Y57588D01*
X102905Y57611D01*
X102979Y57637D01*
X103053Y57667D01*
X103125Y57701D01*
X103195Y57737D01*
X103263Y57777D01*
X103329Y57821D01*
X103393Y57867D01*
X103455Y57917D01*
X103514Y57969D01*
X103570Y58025D01*
X103624Y58082D01*
X103675Y58143D01*
X103723Y58206D01*
X103768Y58271D01*
X103810Y58338D01*
X103848Y58407D01*
X103884Y58478D01*
X103915Y58551D01*
X103943Y58625D01*
X103968Y58700D01*
X103988Y58776D01*
X104006Y58853D01*
X104019Y58931D01*
X104028Y59010D01*
X104034Y59089D01*
X104036Y59168D01*
X97452Y57531D02*
X97452Y62442D01*
X95406Y62442D01*
X95337Y62440D01*
X95269Y62434D01*
X95200Y62425D01*
X95133Y62411D01*
X95066Y62394D01*
X95000Y62373D01*
X94936Y62349D01*
X94873Y62320D01*
X94812Y62289D01*
X94753Y62254D01*
X94695Y62216D01*
X94640Y62174D01*
X94588Y62130D01*
X94538Y62082D01*
X94490Y62032D01*
X94446Y61980D01*
X94405Y61925D01*
X94366Y61867D01*
X94331Y61808D01*
X94300Y61747D01*
X94271Y61684D01*
X94247Y61620D01*
X94226Y61554D01*
X94209Y61487D01*
X94195Y61420D01*
X94186Y61352D01*
X94180Y61283D01*
X94178Y61214D01*
X94178Y57531D01*
X90938Y57531D02*
X90938Y62442D01*
X91143Y64488D02*
X91143Y64897D01*
X90734Y64897D01*
X90734Y64488D01*
X91143Y64488D01*
X87604Y64897D02*
X87604Y57531D01*
X87604Y59986D02*
X84331Y62442D01*
X86172Y61009D02*
X84331Y57531D01*
X80211Y60396D02*
X78370Y60396D01*
X80211Y60395D02*
X80286Y60393D01*
X80361Y60387D01*
X80435Y60377D01*
X80509Y60364D01*
X80582Y60346D01*
X80654Y60325D01*
X80724Y60300D01*
X80793Y60271D01*
X80861Y60239D01*
X80927Y60203D01*
X80991Y60164D01*
X81053Y60122D01*
X81112Y60076D01*
X81169Y60027D01*
X81224Y59976D01*
X81275Y59921D01*
X81324Y59864D01*
X81370Y59805D01*
X81412Y59743D01*
X81451Y59679D01*
X81487Y59613D01*
X81519Y59545D01*
X81548Y59476D01*
X81573Y59406D01*
X81594Y59334D01*
X81612Y59261D01*
X81625Y59187D01*
X81635Y59113D01*
X81641Y59038D01*
X81643Y58963D01*
X81641Y58888D01*
X81635Y58813D01*
X81625Y58739D01*
X81612Y58665D01*
X81594Y58592D01*
X81573Y58520D01*
X81548Y58450D01*
X81519Y58381D01*
X81487Y58313D01*
X81451Y58247D01*
X81412Y58183D01*
X81370Y58121D01*
X81324Y58062D01*
X81275Y58005D01*
X81224Y57950D01*
X81169Y57899D01*
X81112Y57850D01*
X81053Y57804D01*
X80991Y57762D01*
X80927Y57723D01*
X80861Y57687D01*
X80793Y57655D01*
X80724Y57626D01*
X80654Y57601D01*
X80582Y57580D01*
X80509Y57562D01*
X80435Y57549D01*
X80361Y57539D01*
X80286Y57533D01*
X80211Y57531D01*
X78370Y57531D01*
X78370Y61214D01*
X78369Y61214D02*
X78371Y61283D01*
X78377Y61351D01*
X78386Y61420D01*
X78400Y61487D01*
X78417Y61554D01*
X78438Y61620D01*
X78462Y61684D01*
X78491Y61747D01*
X78522Y61808D01*
X78557Y61867D01*
X78595Y61925D01*
X78637Y61980D01*
X78681Y62032D01*
X78729Y62082D01*
X78779Y62130D01*
X78831Y62174D01*
X78886Y62216D01*
X78944Y62254D01*
X79003Y62289D01*
X79064Y62320D01*
X79127Y62349D01*
X79191Y62373D01*
X79257Y62394D01*
X79324Y62411D01*
X79391Y62425D01*
X79460Y62434D01*
X79528Y62440D01*
X79597Y62442D01*
X81234Y62442D01*
X75293Y57940D02*
X75293Y57531D01*
X75293Y57940D02*
X74884Y57940D01*
X74884Y57531D01*
X75293Y57531D01*
X71808Y57531D02*
X71808Y64897D01*
X71808Y57531D02*
X69762Y57531D01*
X69693Y57533D01*
X69625Y57539D01*
X69556Y57548D01*
X69489Y57562D01*
X69422Y57579D01*
X69356Y57600D01*
X69292Y57624D01*
X69229Y57653D01*
X69168Y57684D01*
X69109Y57719D01*
X69051Y57757D01*
X68996Y57799D01*
X68944Y57843D01*
X68894Y57891D01*
X68846Y57941D01*
X68802Y57993D01*
X68760Y58048D01*
X68722Y58106D01*
X68687Y58165D01*
X68656Y58226D01*
X68627Y58289D01*
X68603Y58353D01*
X68582Y58419D01*
X68565Y58486D01*
X68551Y58553D01*
X68542Y58622D01*
X68536Y58690D01*
X68534Y58759D01*
X68534Y61214D01*
X68536Y61283D01*
X68542Y61351D01*
X68551Y61420D01*
X68565Y61487D01*
X68582Y61554D01*
X68603Y61620D01*
X68627Y61684D01*
X68656Y61747D01*
X68687Y61808D01*
X68722Y61867D01*
X68760Y61925D01*
X68802Y61980D01*
X68846Y62032D01*
X68894Y62082D01*
X68944Y62130D01*
X68996Y62174D01*
X69051Y62216D01*
X69109Y62254D01*
X69168Y62289D01*
X69229Y62320D01*
X69292Y62349D01*
X69356Y62373D01*
X69422Y62394D01*
X69489Y62411D01*
X69556Y62425D01*
X69625Y62434D01*
X69693Y62440D01*
X69762Y62442D01*
X71808Y62442D01*
X64118Y60396D02*
X62276Y60396D01*
X64118Y60395D02*
X64193Y60393D01*
X64268Y60387D01*
X64342Y60377D01*
X64416Y60364D01*
X64489Y60346D01*
X64561Y60325D01*
X64631Y60300D01*
X64700Y60271D01*
X64768Y60239D01*
X64834Y60203D01*
X64898Y60164D01*
X64960Y60122D01*
X65019Y60076D01*
X65076Y60027D01*
X65131Y59976D01*
X65182Y59921D01*
X65231Y59864D01*
X65277Y59805D01*
X65319Y59743D01*
X65358Y59679D01*
X65394Y59613D01*
X65426Y59545D01*
X65455Y59476D01*
X65480Y59406D01*
X65501Y59334D01*
X65519Y59261D01*
X65532Y59187D01*
X65542Y59113D01*
X65548Y59038D01*
X65550Y58963D01*
X65548Y58888D01*
X65542Y58813D01*
X65532Y58739D01*
X65519Y58665D01*
X65501Y58592D01*
X65480Y58520D01*
X65455Y58450D01*
X65426Y58381D01*
X65394Y58313D01*
X65358Y58247D01*
X65319Y58183D01*
X65277Y58121D01*
X65231Y58062D01*
X65182Y58005D01*
X65131Y57950D01*
X65076Y57899D01*
X65019Y57850D01*
X64960Y57804D01*
X64898Y57762D01*
X64834Y57723D01*
X64768Y57687D01*
X64700Y57655D01*
X64631Y57626D01*
X64561Y57601D01*
X64489Y57580D01*
X64416Y57562D01*
X64342Y57549D01*
X64268Y57539D01*
X64193Y57533D01*
X64118Y57531D01*
X62276Y57531D01*
X62276Y61214D01*
X62278Y61283D01*
X62284Y61351D01*
X62293Y61420D01*
X62307Y61487D01*
X62324Y61554D01*
X62345Y61620D01*
X62369Y61684D01*
X62398Y61747D01*
X62429Y61808D01*
X62464Y61867D01*
X62502Y61925D01*
X62544Y61980D01*
X62588Y62032D01*
X62636Y62082D01*
X62686Y62130D01*
X62738Y62174D01*
X62793Y62216D01*
X62851Y62254D01*
X62910Y62289D01*
X62971Y62320D01*
X63034Y62349D01*
X63098Y62373D01*
X63164Y62394D01*
X63231Y62411D01*
X63298Y62425D01*
X63367Y62434D01*
X63435Y62440D01*
X63504Y62442D01*
X65141Y62442D01*
D12*
X142811Y67692D03*
D13*
X143256Y67819D03*
D14*
X144399Y67946D03*
D15*
X143446Y67946D03*
D14*
X135255Y67946D03*
D16*
X143891Y68073D03*
D17*
X135001Y68073D03*
D14*
X134493Y68073D03*
D18*
X144081Y68200D03*
D19*
X134683Y68200D03*
D14*
X133858Y68200D03*
D20*
X144335Y68327D03*
D21*
X134493Y68327D03*
D14*
X133477Y68327D03*
D22*
X144589Y68454D03*
D16*
X134239Y68454D03*
D23*
X144843Y68581D03*
D24*
X133985Y68581D03*
D25*
X144970Y68708D03*
D26*
X133731Y68708D03*
D27*
X145161Y68835D03*
D28*
X133604Y68835D03*
D29*
X145351Y68962D03*
D14*
X141732Y68962D03*
D22*
X133413Y68962D03*
D30*
X145605Y69089D03*
D31*
X133223Y69089D03*
D32*
X145542Y69216D03*
D33*
X133096Y69216D03*
D14*
X130683Y69216D03*
D32*
X145542Y69343D03*
D34*
X132905Y69343D03*
D32*
X145542Y69470D03*
D14*
X141732Y69470D03*
D35*
X132778Y69470D03*
D30*
X145478Y69597D03*
D14*
X141732Y69597D03*
D29*
X132524Y69597D03*
D36*
X145351Y69724D03*
D37*
X141859Y69724D03*
D30*
X132397Y69724D03*
D38*
X144970Y69851D03*
D39*
X132334Y69851D03*
D40*
X145034Y69978D03*
D36*
X132143Y69978D03*
D40*
X145034Y70105D03*
D41*
X132080Y70105D03*
D38*
X144970Y70232D03*
D42*
X131889Y70232D03*
D41*
X145034Y70359D03*
D42*
X131762Y70359D03*
D40*
X145034Y70486D03*
D43*
X131699Y70486D03*
D38*
X144970Y70613D03*
D44*
X131508Y70613D03*
D38*
X144970Y70740D03*
D45*
X131445Y70740D03*
D38*
X144970Y70867D03*
D45*
X131064Y70867D03*
D41*
X144907Y70994D03*
D43*
X130810Y70994D03*
D41*
X144907Y71121D03*
D43*
X130556Y71121D03*
D46*
X144843Y71248D03*
D44*
X130492Y71248D03*
D46*
X144843Y71375D03*
D47*
X130238Y71375D03*
D41*
X144907Y71502D03*
D48*
X130302Y71502D03*
D46*
X144843Y71629D03*
D49*
X130111Y71629D03*
D46*
X144843Y71756D03*
D50*
X129984Y71756D03*
D46*
X144843Y71883D03*
D51*
X129921Y71883D03*
D46*
X144843Y72010D03*
D52*
X129857Y72010D03*
D41*
X144780Y72137D03*
D53*
X129730Y72137D03*
D46*
X144843Y72264D03*
D54*
X129667Y72264D03*
D38*
X144716Y72391D03*
D14*
X141224Y72391D03*
X140970Y72391D03*
D55*
X129540Y72391D03*
D14*
X154559Y72518D03*
D44*
X144208Y72518D03*
D56*
X129476Y72518D03*
D37*
X154559Y72645D03*
D45*
X144272Y72645D03*
D57*
X129286Y72645D03*
D37*
X154686Y72772D03*
D45*
X144272Y72772D03*
D57*
X129286Y72772D03*
D58*
X154749Y72899D03*
D45*
X144272Y72899D03*
D59*
X129159Y72899D03*
D58*
X154876Y73026D03*
D45*
X144145Y73026D03*
D60*
X129095Y73026D03*
D61*
X154876Y73153D03*
D47*
X144208Y73153D03*
D62*
X128968Y73153D03*
D63*
X154940Y73280D03*
D47*
X144208Y73280D03*
D62*
X128968Y73280D03*
D19*
X155003Y73407D03*
D47*
X144208Y73407D03*
D64*
X128841Y73407D03*
D65*
X155194Y73534D03*
D47*
X144208Y73534D03*
D12*
X133540Y73534D03*
D14*
X133223Y73534D03*
D66*
X128333Y73534D03*
D21*
X155194Y73661D03*
D45*
X144145Y73661D03*
D66*
X128206Y73661D03*
D67*
X155257Y73788D03*
D47*
X144208Y73788D03*
D60*
X128079Y73788D03*
D68*
X155321Y73915D03*
D47*
X144208Y73915D03*
D60*
X128079Y73915D03*
D69*
X155384Y74042D03*
D47*
X144208Y74042D03*
D60*
X127952Y74042D03*
D16*
X155448Y74169D03*
D44*
X144208Y74169D03*
D62*
X127825Y74169D03*
D16*
X155575Y74296D03*
D45*
X144272Y74296D03*
D62*
X127825Y74296D03*
D70*
X155575Y74423D03*
D45*
X144272Y74423D03*
D64*
X127698Y74423D03*
D71*
X155638Y74550D03*
D45*
X144145Y74550D03*
D64*
X127698Y74550D03*
D24*
X155702Y74677D03*
D43*
X144145Y74677D03*
D72*
X127635Y74677D03*
D18*
X155765Y74804D03*
D14*
X147447Y74804D03*
X147066Y74804D03*
D41*
X143637Y74804D03*
D73*
X127571Y74804D03*
D74*
X155829Y74931D03*
D42*
X143446Y74931D03*
D14*
X139827Y74931D03*
D72*
X127381Y74931D03*
D75*
X155892Y75058D03*
D45*
X143129Y75058D03*
D76*
X127444Y75058D03*
D26*
X155956Y75185D03*
D44*
X143065Y75185D03*
D76*
X127317Y75185D03*
D20*
X156019Y75312D03*
D44*
X143065Y75312D03*
D77*
X127190Y75312D03*
D20*
X156146Y75439D03*
D45*
X143002Y75439D03*
D78*
X127127Y75439D03*
D79*
X156146Y75566D03*
D45*
X143002Y75566D03*
D80*
X127127Y75566D03*
D81*
X156210Y75693D03*
D45*
X143002Y75693D03*
D82*
X127063Y75693D03*
D22*
X156273Y75820D03*
D47*
X142938Y75820D03*
D83*
X127000Y75820D03*
D84*
X156337Y75947D03*
D45*
X143002Y75947D03*
D85*
X126936Y75947D03*
D86*
X156400Y76074D03*
D47*
X142938Y76074D03*
D82*
X126682Y76074D03*
D23*
X156273Y76201D03*
D87*
X153733Y76201D03*
D14*
X153289Y76201D03*
D47*
X142938Y76201D03*
D73*
X126301Y76201D03*
D29*
X155892Y76328D03*
D47*
X142938Y76328D03*
D76*
X126174Y76328D03*
D88*
X155956Y76455D03*
D45*
X142875Y76455D03*
D72*
X126111Y76455D03*
D32*
X155956Y76582D03*
D45*
X143002Y76582D03*
D78*
X126111Y76582D03*
D30*
X156019Y76709D03*
D44*
X142938Y76709D03*
D78*
X125984Y76709D03*
D30*
X156019Y76836D03*
D44*
X142938Y76836D03*
D77*
X125920Y76836D03*
D39*
X156083Y76963D03*
D45*
X143002Y76963D03*
D77*
X125920Y76963D03*
D36*
X156146Y77090D03*
D45*
X142875Y77090D03*
D82*
X125793Y77090D03*
D89*
X156210Y77217D03*
D44*
X142938Y77217D03*
D82*
X125920Y77217D03*
D89*
X156210Y77344D03*
D44*
X142811Y77344D03*
D85*
X125793Y77344D03*
D46*
X156273Y77471D03*
D43*
X141986Y77471D03*
D14*
X138176Y77471D03*
X131445Y77471D03*
X131191Y77471D03*
D76*
X125285Y77471D03*
D41*
X156337Y77598D03*
D47*
X141795Y77598D03*
D72*
X125222Y77598D03*
D38*
X156400Y77725D03*
D47*
X141795Y77725D03*
D72*
X125095Y77725D03*
D41*
X156464Y77852D03*
D45*
X141732Y77852D03*
D76*
X125031Y77852D03*
D40*
X156464Y77979D03*
D45*
X141732Y77979D03*
D76*
X125031Y77979D03*
D40*
X156591Y78106D03*
D45*
X141732Y78106D03*
D76*
X124904Y78106D03*
D42*
X156527Y78233D03*
D45*
X141732Y78233D03*
D78*
X124968Y78233D03*
D42*
X156654Y78360D03*
D45*
X141732Y78360D03*
D80*
X124841Y78360D03*
D90*
X156654Y78487D03*
D45*
X141732Y78487D03*
D80*
X124841Y78487D03*
D91*
X156718Y78614D03*
D47*
X141668Y78614D03*
D82*
X124777Y78614D03*
D48*
X156464Y78741D03*
D14*
X152400Y78741D03*
D92*
X141478Y78741D03*
D80*
X124714Y78741D03*
D52*
X156273Y78868D03*
D49*
X141414Y78868D03*
D80*
X124587Y78868D03*
D52*
X156273Y78995D03*
D92*
X141478Y78995D03*
D82*
X124523Y78995D03*
D53*
X156273Y79122D03*
D48*
X141478Y79122D03*
D80*
X124460Y79122D03*
D53*
X156400Y79249D03*
D48*
X141478Y79249D03*
D80*
X124333Y79249D03*
D54*
X156337Y79376D03*
D48*
X141478Y79376D03*
D82*
X124396Y79376D03*
D93*
X156400Y79503D03*
D49*
X141414Y79503D03*
D83*
X124333Y79503D03*
D93*
X156400Y79630D03*
D49*
X141414Y79630D03*
D85*
X124269Y79630D03*
D56*
X156400Y79757D03*
D50*
X141287Y79757D03*
D14*
X136906Y79757D03*
D85*
X124269Y79757D03*
D56*
X156400Y79884D03*
D94*
X140843Y79884D03*
D14*
X129667Y79884D03*
D80*
X123952Y79884D03*
D57*
X156464Y80011D03*
D47*
X140398Y80011D03*
D73*
X123634Y80011D03*
D66*
X156527Y80138D03*
D47*
X140398Y80138D03*
D72*
X123571Y80138D03*
D66*
X156527Y80265D03*
D47*
X140398Y80265D03*
D72*
X123444Y80265D03*
D66*
X156654Y80392D03*
D45*
X140335Y80392D03*
D72*
X123444Y80392D03*
D59*
X156591Y80519D03*
D45*
X140335Y80519D03*
D72*
X123444Y80519D03*
D60*
X156654Y80646D03*
D45*
X140335Y80646D03*
D76*
X123380Y80646D03*
D95*
X156718Y80773D03*
D45*
X140335Y80773D03*
D78*
X123317Y80773D03*
D95*
X156718Y80900D03*
D47*
X140398Y80900D03*
D78*
X123317Y80900D03*
D95*
X156718Y81027D03*
D47*
X140398Y81027D03*
D80*
X123317Y81027D03*
D62*
X156781Y81154D03*
D48*
X140208Y81154D03*
D14*
X135382Y81154D03*
X128524Y81154D03*
D72*
X123063Y81154D03*
D96*
X156591Y81281D03*
D37*
X151130Y81281D03*
D93*
X139763Y81281D03*
D97*
X122682Y81281D03*
D80*
X156337Y81408D03*
D53*
X139763Y81408D03*
D62*
X122618Y81408D03*
D80*
X156337Y81535D03*
D37*
X143891Y81535D03*
D50*
X139509Y81535D03*
D60*
X122491Y81535D03*
D80*
X156337Y81662D03*
D49*
X139509Y81662D03*
D62*
X122491Y81662D03*
D80*
X156337Y81789D03*
D48*
X139446Y81789D03*
D97*
X122428Y81789D03*
D80*
X156337Y81916D03*
D48*
X139446Y81916D03*
D62*
X122364Y81916D03*
D82*
X156273Y82043D03*
D48*
X139446Y82043D03*
D62*
X122364Y82043D03*
D82*
X156273Y82170D03*
D92*
X139446Y82170D03*
D64*
X122364Y82170D03*
D80*
X156210Y82297D03*
D50*
X139509Y82297D03*
D64*
X122364Y82297D03*
D14*
X161290Y82424D03*
D72*
X155829Y82424D03*
D92*
X139319Y82424D03*
D14*
X127381Y82424D03*
D62*
X122237Y82424D03*
D96*
X155575Y82551D03*
D94*
X138557Y82551D03*
D66*
X121729Y82551D03*
D96*
X155575Y82678D03*
D94*
X138557Y82678D03*
D56*
X121729Y82678D03*
D97*
X155575Y82805D03*
D94*
X138557Y82805D03*
D56*
X121602Y82805D03*
D64*
X155638Y82932D03*
D51*
X138557Y82932D03*
D55*
X121539Y82932D03*
D64*
X155511Y83059D03*
D51*
X138557Y83059D03*
D56*
X121475Y83059D03*
D64*
X155638Y83186D03*
D51*
X138557Y83186D03*
D56*
X121475Y83186D03*
D64*
X155638Y83313D03*
D52*
X138493Y83313D03*
D57*
X121412Y83313D03*
D96*
X155575Y83440D03*
D52*
X138493Y83440D03*
D66*
X121475Y83440D03*
D96*
X155575Y83567D03*
D94*
X138430Y83567D03*
D66*
X121475Y83567D03*
D96*
X155448Y83694D03*
D12*
X142430Y83694D03*
D50*
X138112Y83694D03*
D14*
X126111Y83694D03*
D57*
X121285Y83694D03*
D85*
X155003Y83821D03*
D52*
X137477Y83821D03*
D94*
X120904Y83821D03*
D85*
X155003Y83948D03*
D52*
X137350Y83948D03*
X120840Y83948D03*
D83*
X155067Y84075D03*
D51*
X137414Y84075D03*
D94*
X120777Y84075D03*
D82*
X155003Y84202D03*
D50*
X137477Y84202D03*
D52*
X120713Y84202D03*
D83*
X155067Y84329D03*
D50*
X137477Y84329D03*
D52*
X120713Y84329D03*
D82*
X155003Y84456D03*
D50*
X137350Y84456D03*
D94*
X120650Y84456D03*
D82*
X155003Y84583D03*
D51*
X137414Y84583D03*
D94*
X120650Y84583D03*
D82*
X155003Y84710D03*
D52*
X137350Y84710D03*
D94*
X120650Y84710D03*
D83*
X154940Y84837D03*
D94*
X137287Y84837D03*
D54*
X120650Y84837D03*
D12*
X159956Y84964D03*
D14*
X159639Y84964D03*
D64*
X154368Y84964D03*
D54*
X137287Y84964D03*
D12*
X124777Y84964D03*
D51*
X120396Y84964D03*
D96*
X154305Y85091D03*
D87*
X148780Y85091D03*
D14*
X148336Y85091D03*
D93*
X136207Y85091D03*
D47*
X120078Y85091D03*
D80*
X153797Y85218D03*
D53*
X136207Y85218D03*
D44*
X119951Y85218D03*
D80*
X153797Y85345D03*
D52*
X136207Y85345D03*
D45*
X119888Y85345D03*
D80*
X153797Y85472D03*
D52*
X136207Y85472D03*
D44*
X119824Y85472D03*
D80*
X153797Y85599D03*
D52*
X136207Y85599D03*
D44*
X119824Y85599D03*
D77*
X153733Y85726D03*
D52*
X136207Y85726D03*
D45*
X119761Y85726D03*
D77*
X153733Y85853D03*
D94*
X136144Y85853D03*
D45*
X119761Y85853D03*
D80*
X153797Y85980D03*
D94*
X136144Y85980D03*
D45*
X119761Y85980D03*
D82*
X153733Y86107D03*
D54*
X136017Y86107D03*
D47*
X119824Y86107D03*
D37*
X159004Y86234D03*
D76*
X153352Y86234D03*
D54*
X136017Y86234D03*
D14*
X123444Y86234D03*
D44*
X119570Y86234D03*
D77*
X152844Y86361D03*
D14*
X140081Y86361D03*
D56*
X135191Y86361D03*
D38*
X119189Y86361D03*
D78*
X152781Y86488D03*
D54*
X135001Y86488D03*
D46*
X119062Y86488D03*
D76*
X152844Y86615D03*
D94*
X135001Y86615D03*
D36*
X118935Y86615D03*
D73*
X152844Y86742D03*
D94*
X135001Y86742D03*
D36*
X118808Y86742D03*
D72*
X152908Y86869D03*
D94*
X135001Y86869D03*
D36*
X118808Y86869D03*
D72*
X152781Y86996D03*
D94*
X135001Y86996D03*
D36*
X118808Y86996D03*
D72*
X152781Y87123D03*
D94*
X135001Y87123D03*
D36*
X118808Y87123D03*
D76*
X152844Y87250D03*
D53*
X134937Y87250D03*
D36*
X118808Y87250D03*
D80*
X152654Y87377D03*
D54*
X134874Y87377D03*
D41*
X118872Y87377D03*
D83*
X152527Y87504D03*
D93*
X134810Y87504D03*
D12*
X121856Y87504D03*
D39*
X118618Y87504D03*
D98*
X152082Y87631D03*
D14*
X138938Y87631D03*
D59*
X133985Y87631D03*
D35*
X118173Y87631D03*
D98*
X152082Y87758D03*
D55*
X133731Y87758D03*
D99*
X117983Y87758D03*
D82*
X151828Y87885D03*
D93*
X133667Y87885D03*
D25*
X117919Y87885D03*
D77*
X151828Y88012D03*
D53*
X133667Y88012D03*
D25*
X117919Y88012D03*
D77*
X151828Y88139D03*
D53*
X133667Y88139D03*
D25*
X117792Y88139D03*
D78*
X151765Y88266D03*
D53*
X133667Y88266D03*
D25*
X117792Y88266D03*
D78*
X151765Y88393D03*
D54*
X133604Y88393D03*
D25*
X117792Y88393D03*
D82*
X151701Y88520D03*
D54*
X133604Y88520D03*
D99*
X117856Y88520D03*
D100*
X151638Y88647D03*
D55*
X133604Y88647D03*
D99*
X117856Y88647D03*
D100*
X151384Y88774D03*
D55*
X133477Y88774D03*
D14*
X120142Y88774D03*
D25*
X117665Y88774D03*
D98*
X150812Y88901D03*
D57*
X132334Y88901D03*
D20*
X117157Y88901D03*
D98*
X150812Y89028D03*
D56*
X132270Y89028D03*
D26*
X116967Y89028D03*
D101*
X150812Y89155D03*
D93*
X132143Y89155D03*
D26*
X116967Y89155D03*
D100*
X150749Y89282D03*
D54*
X132207Y89282D03*
D75*
X116903Y89282D03*
D83*
X150749Y89409D03*
D54*
X132207Y89409D03*
D75*
X116903Y89409D03*
D85*
X150685Y89536D03*
D54*
X132207Y89536D03*
D75*
X116903Y89536D03*
D100*
X150749Y89663D03*
D54*
X132207Y89663D03*
D75*
X116903Y89663D03*
D101*
X150685Y89790D03*
D93*
X132143Y89790D03*
D75*
X116903Y89790D03*
D102*
X150495Y89917D03*
D56*
X132143Y89917D03*
D20*
X116903Y89917D03*
D14*
X156464Y90044D03*
X156210Y90044D03*
D12*
X155892Y90044D03*
D83*
X149987Y90044D03*
D55*
X131953Y90044D03*
D12*
X118300Y90044D03*
D24*
X116713Y90044D03*
D58*
X163766Y90171D03*
D103*
X149733Y90171D03*
D14*
X143637Y90171D03*
D57*
X130810Y90171D03*
D14*
X125984Y90171D03*
D67*
X116141Y90171D03*
D61*
X163766Y90298D03*
D103*
X149606Y90298D03*
D56*
X130619Y90298D03*
D63*
X115951Y90298D03*
D58*
X163766Y90425D03*
D100*
X149606Y90425D03*
D55*
X130683Y90425D03*
D14*
X116078Y90425D03*
D17*
X115570Y90425D03*
D58*
X163766Y90552D03*
D83*
X149606Y90552D03*
D93*
X130619Y90552D03*
D12*
X115379Y90552D03*
D13*
X163830Y90679D03*
D85*
X149542Y90679D03*
D54*
X130683Y90679D03*
D12*
X115379Y90679D03*
D13*
X163830Y90806D03*
D83*
X149606Y90806D03*
D93*
X130619Y90806D03*
D14*
X115316Y90806D03*
D58*
X163766Y90933D03*
D85*
X149542Y90933D03*
D93*
X130619Y90933D03*
D14*
X115316Y90933D03*
D61*
X163766Y91060D03*
D100*
X149479Y91060D03*
D55*
X130556Y91060D03*
D37*
X115443Y91060D03*
D13*
X163703Y91187D03*
D98*
X149415Y91187D03*
D57*
X130556Y91187D03*
D13*
X115697Y91187D03*
D63*
X163703Y91314D03*
D104*
X149161Y91314D03*
D14*
X135128Y91314D03*
D59*
X130175Y91314D03*
D16*
X163195Y91441D03*
D98*
X148272Y91441D03*
D59*
X129286Y91441D03*
D87*
X124142Y91441D03*
D16*
X163195Y91568D03*
D98*
X148272Y91568D03*
D95*
X128905Y91568D03*
D16*
X163195Y91695D03*
D100*
X148336Y91695D03*
D59*
X128778Y91695D03*
D69*
X163258Y91822D03*
D85*
X148272Y91822D03*
D66*
X128714Y91822D03*
D16*
X163195Y91949D03*
D85*
X148272Y91949D03*
D57*
X128778Y91949D03*
D69*
X163258Y92076D03*
D85*
X148272Y92076D03*
D66*
X128714Y92076D03*
D16*
X163195Y92203D03*
D100*
X148209Y92203D03*
D66*
X128714Y92203D03*
D16*
X163195Y92330D03*
D100*
X148209Y92330D03*
D59*
X128778Y92330D03*
D105*
X163131Y92457D03*
D98*
X148145Y92457D03*
D95*
X128778Y92457D03*
D105*
X163131Y92584D03*
D14*
X153797Y92584D03*
D103*
X147701Y92584D03*
D14*
X133477Y92584D03*
X133223Y92584D03*
D66*
X128333Y92584D03*
D28*
X162560Y92711D03*
D104*
X146875Y92711D03*
D14*
X132334Y92711D03*
D97*
X127127Y92711D03*
D20*
X162496Y92838D03*
D104*
X146875Y92838D03*
D60*
X126936Y92838D03*
D28*
X162560Y92965D03*
D103*
X146812Y92965D03*
D66*
X126936Y92965D03*
D20*
X162623Y93092D03*
D103*
X146812Y93092D03*
D56*
X126936Y93092D03*
D20*
X162623Y93219D03*
D100*
X146812Y93219D03*
D56*
X126936Y93219D03*
D20*
X162496Y93346D03*
D103*
X146812Y93346D03*
D56*
X126936Y93346D03*
D20*
X162623Y93473D03*
D101*
X146748Y93473D03*
D57*
X126873Y93473D03*
D20*
X162496Y93600D03*
D98*
X146748Y93600D03*
D66*
X126809Y93600D03*
D79*
X162496Y93727D03*
D104*
X146748Y93727D03*
D60*
X126809Y93727D03*
D79*
X162369Y93854D03*
D14*
X152654Y93854D03*
D98*
X146494Y93854D03*
D14*
X131572Y93854D03*
D62*
X126428Y93854D03*
D25*
X161861Y93981D03*
D106*
X145351Y93981D03*
D73*
X124904Y93981D03*
D25*
X161861Y94108D03*
D107*
X145351Y94108D03*
D64*
X124777Y94108D03*
D25*
X161861Y94235D03*
D104*
X145224Y94235D03*
D97*
X124841Y94235D03*
D33*
X161925Y94362D03*
D102*
X145161Y94362D03*
D62*
X124777Y94362D03*
D25*
X161861Y94489D03*
D98*
X145224Y94489D03*
D95*
X124841Y94489D03*
D33*
X161925Y94616D03*
D98*
X145224Y94616D03*
D95*
X124841Y94616D03*
D25*
X161861Y94743D03*
D102*
X145161Y94743D03*
D95*
X124841Y94743D03*
D33*
X161798Y94870D03*
D104*
X145224Y94870D03*
D97*
X124714Y94870D03*
D99*
X161798Y94997D03*
D108*
X145161Y94997D03*
D96*
X124714Y94997D03*
D25*
X161734Y95124D03*
D14*
X151257Y95124D03*
X151003Y95124D03*
D102*
X144780Y95124D03*
D14*
X129667Y95124D03*
X129413Y95124D03*
D64*
X124142Y95124D03*
D32*
X161163Y95251D03*
D14*
X150114Y95251D03*
D109*
X143510Y95251D03*
D97*
X122936Y95251D03*
D87*
X117538Y95251D03*
D32*
X161163Y95378D03*
D107*
X143446Y95378D03*
D73*
X122618Y95378D03*
D110*
X161226Y95505D03*
D102*
X143383Y95505D03*
D64*
X122618Y95505D03*
D110*
X161226Y95632D03*
D102*
X143383Y95632D03*
D97*
X122555Y95632D03*
D88*
X161163Y95759D03*
D98*
X143446Y95759D03*
D97*
X122555Y95759D03*
D110*
X161226Y95886D03*
D102*
X143383Y95886D03*
D97*
X122555Y95886D03*
D88*
X161163Y96013D03*
D102*
X143383Y96013D03*
D97*
X122555Y96013D03*
D110*
X161099Y96140D03*
D104*
X143319Y96140D03*
D64*
X122491Y96140D03*
D110*
X161099Y96267D03*
D107*
X143319Y96267D03*
D72*
X122428Y96267D03*
D32*
X161036Y96394D03*
D14*
X149352Y96394D03*
X149098Y96394D03*
D104*
X142811Y96394D03*
D14*
X127508Y96394D03*
D12*
X127190Y96394D03*
D97*
X121920Y96394D03*
D12*
X116649Y96394D03*
D38*
X160591Y96521D03*
D12*
X157035Y96521D03*
D104*
X142049Y96521D03*
D37*
X135636Y96521D03*
D73*
X120967Y96521D03*
D42*
X160337Y96648D03*
D111*
X141732Y96648D03*
D97*
X120650Y96648D03*
D42*
X160337Y96775D03*
D104*
X141668Y96775D03*
D60*
X120586Y96775D03*
D40*
X160401Y96902D03*
D104*
X141668Y96902D03*
D60*
X120586Y96902D03*
D40*
X160401Y97029D03*
D104*
X141668Y97029D03*
D59*
X120523Y97029D03*
D38*
X160337Y97156D03*
D102*
X141605Y97156D03*
D59*
X120523Y97156D03*
D40*
X160401Y97283D03*
D104*
X141668Y97283D03*
D59*
X120523Y97283D03*
D40*
X160274Y97410D03*
D108*
X141605Y97410D03*
D59*
X120650Y97410D03*
D42*
X160210Y97537D03*
D107*
X141668Y97537D03*
D60*
X120713Y97537D03*
D40*
X160147Y97664D03*
D14*
X147828Y97664D03*
D12*
X147510Y97664D03*
D102*
X141224Y97664D03*
D12*
X125285Y97664D03*
X124904Y97664D03*
D54*
X120269Y97664D03*
D52*
X159448Y97791D03*
D111*
X140208Y97791D03*
D17*
X133477Y97791D03*
D47*
X119697Y97791D03*
D50*
X159448Y97918D03*
D112*
X139636Y97918D03*
D91*
X119507Y97918D03*
D92*
X159512Y98045D03*
D107*
X139636Y98045D03*
D40*
X119380Y98045D03*
D92*
X159512Y98172D03*
D108*
X139573Y98172D03*
D40*
X119380Y98172D03*
D49*
X159448Y98299D03*
D108*
X139573Y98299D03*
D40*
X119380Y98299D03*
D49*
X159448Y98426D03*
D108*
X139573Y98426D03*
D41*
X119380Y98426D03*
D49*
X159448Y98553D03*
D108*
X139573Y98553D03*
D41*
X119380Y98553D03*
D92*
X159385Y98680D03*
D107*
X139509Y98680D03*
D38*
X119443Y98680D03*
D92*
X159258Y98807D03*
D112*
X139382Y98807D03*
D40*
X119507Y98807D03*
D52*
X159067Y98934D03*
D14*
X154686Y98934D03*
X145796Y98934D03*
X145542Y98934D03*
D107*
X139128Y98934D03*
D87*
X122618Y98934D03*
D14*
X122174Y98934D03*
D32*
X119126Y98934D03*
D95*
X158369Y99061D03*
D14*
X153289Y99061D03*
D113*
X137541Y99061D03*
D86*
X118300Y99061D03*
D62*
X158178Y99188D03*
D114*
X137414Y99188D03*
D28*
X117983Y99188D03*
D95*
X158242Y99315D03*
D109*
X137414Y99315D03*
D74*
X117856Y99315D03*
D59*
X158369Y99442D03*
D111*
X137541Y99442D03*
D24*
X117729Y99442D03*
D59*
X158242Y99569D03*
D111*
X137414Y99569D03*
D24*
X117729Y99569D03*
D60*
X158178Y99696D03*
D111*
X137414Y99696D03*
D71*
X117792Y99696D03*
D60*
X158178Y99823D03*
D106*
X137350Y99823D03*
D71*
X117792Y99823D03*
D60*
X158178Y99950D03*
D112*
X137350Y99950D03*
D24*
X117856Y99950D03*
D60*
X158051Y100077D03*
D115*
X137223Y100077D03*
D18*
X118046Y100077D03*
D62*
X157924Y100204D03*
D14*
X143764Y100204D03*
X143510Y100204D03*
X143256Y100204D03*
D112*
X136588Y100204D03*
D87*
X119316Y100204D03*
D105*
X117792Y100204D03*
D72*
X157480Y100331D03*
D17*
X151765Y100331D03*
D113*
X135001Y100331D03*
D82*
X157162Y100458D03*
D115*
X134937Y100458D03*
D80*
X157226Y100585D03*
D116*
X135001Y100585D03*
D77*
X157162Y100712D03*
D109*
X135001Y100712D03*
D77*
X157162Y100839D03*
D112*
X134937Y100839D03*
D77*
X157162Y100966D03*
D109*
X135001Y100966D03*
D77*
X157035Y101093D03*
D112*
X134937Y101093D03*
D77*
X157035Y101220D03*
D116*
X134874Y101220D03*
D77*
X156908Y101347D03*
D115*
X134810Y101347D03*
D83*
X156718Y101474D03*
D14*
X150876Y101474D03*
X141478Y101474D03*
D12*
X141160Y101474D03*
D117*
X134302Y101474D03*
D112*
X155765Y101601D03*
D118*
X132207Y101601D03*
D109*
X155829Y101728D03*
D119*
X132270Y101728D03*
D106*
X155892Y101855D03*
D115*
X132143Y101855D03*
D111*
X155829Y101982D03*
D117*
X132270Y101982D03*
D111*
X155829Y102109D03*
D117*
X132143Y102109D03*
D107*
X155765Y102236D03*
D117*
X132143Y102236D03*
D107*
X155765Y102363D03*
D114*
X132080Y102363D03*
D107*
X155638Y102490D03*
D115*
X132143Y102490D03*
D111*
X155575Y102617D03*
D119*
X132143Y102617D03*
D109*
X155448Y102744D03*
D14*
X138938Y102744D03*
X138684Y102744D03*
X138430Y102744D03*
D117*
X131635Y102744D03*
D119*
X154749Y102871D03*
D17*
X147447Y102871D03*
D119*
X129730Y102871D03*
D17*
X122428Y102871D03*
D120*
X154495Y102998D03*
D121*
X129286Y102998D03*
D122*
X154495Y103125D03*
D119*
X129222Y103125D03*
D121*
X154432Y103252D03*
D119*
X129222Y103252D03*
D121*
X154432Y103379D03*
D119*
X129222Y103379D03*
D123*
X154368Y103506D03*
D113*
X129159Y103506D03*
D121*
X154305Y103633D03*
D113*
X129159Y103633D03*
D121*
X154305Y103760D03*
D118*
X129159Y103760D03*
D123*
X154114Y103887D03*
D122*
X129095Y103887D03*
X153987Y104014D03*
D14*
X136144Y104014D03*
X135890Y104014D03*
X135636Y104014D03*
X135382Y104014D03*
D113*
X128397Y104014D03*
D124*
X153225Y104141D03*
D37*
X145034Y104141D03*
D122*
X126555Y104141D03*
D14*
X119253Y104141D03*
D125*
X152908Y104268D03*
D120*
X126047Y104268D03*
D126*
X152971Y104395D03*
D122*
X125920Y104395D03*
D124*
X152971Y104522D03*
D121*
X125857Y104522D03*
D127*
X152908Y104649D03*
D123*
X125793Y104649D03*
D128*
X152844Y104776D03*
D123*
X125793Y104776D03*
D127*
X152781Y104903D03*
D118*
X125857Y104903D03*
D127*
X152781Y105030D03*
D123*
X125920Y105030D03*
D127*
X152654Y105157D03*
D123*
X126047Y105157D03*
D129*
X152400Y105284D03*
D14*
X132969Y105284D03*
D12*
X132651Y105284D03*
D14*
X132334Y105284D03*
D12*
X132016Y105284D03*
D111*
X125476Y105284D03*
D130*
X151003Y105411D03*
D78*
X124587Y105411D03*
D131*
X151066Y105538D03*
D97*
X124333Y105538D03*
D132*
X151130Y105665D03*
D59*
X124206Y105665D03*
D133*
X151193Y105792D03*
D93*
X123888Y105792D03*
D134*
X151193Y105919D03*
D94*
X123825Y105919D03*
D134*
X151066Y106046D03*
D51*
X123825Y106046D03*
D134*
X150939Y106173D03*
D52*
X123888Y106173D03*
D135*
X150876Y106300D03*
D14*
X128651Y106300D03*
X128397Y106300D03*
D52*
X124015Y106300D03*
D133*
X150685Y106427D03*
D56*
X124523Y106427D03*
D136*
X150431Y106554D03*
D37*
X128778Y106554D03*
D87*
X128206Y106554D03*
D12*
X127698Y106554D03*
D44*
X123761Y106554D03*
D137*
X149352Y106681D03*
D58*
X138874Y106681D03*
D14*
X124841Y106681D03*
X124587Y106681D03*
D23*
X122237Y106681D03*
D138*
X148971Y106808D03*
D18*
X121602Y106808D03*
D139*
X149034Y106935D03*
D105*
X121475Y106935D03*
D140*
X148971Y107062D03*
D69*
X121475Y107062D03*
D137*
X148971Y107189D03*
D69*
X121475Y107189D03*
D141*
X148907Y107316D03*
D67*
X121475Y107316D03*
D137*
X148844Y107443D03*
D67*
X121602Y107443D03*
D137*
X148717Y107570D03*
D21*
X121666Y107570D03*
D140*
X148463Y107697D03*
D67*
X121856Y107697D03*
D142*
X148145Y107824D03*
D37*
X122555Y107824D03*
D61*
X121729Y107824D03*
D14*
X121031Y107824D03*
D143*
X147320Y107951D03*
D15*
X135445Y107951D03*
D144*
X146558Y108078D03*
D145*
X146558Y108205D03*
D146*
X146558Y108332D03*
D147*
X146494Y108459D03*
D148*
X146431Y108586D03*
D149*
X146367Y108713D03*
D148*
X146177Y108840D03*
D146*
X146050Y108967D03*
X145796Y109094D03*
D150*
X143891Y109221D03*
D151*
X143827Y109348D03*
D152*
X143891Y109475D03*
D153*
X143827Y109602D03*
D154*
X143891Y109729D03*
D155*
X143764Y109856D03*
D156*
X143573Y109983D03*
D155*
X143510Y110110D03*
D156*
X143319Y110237D03*
D153*
X142938Y110364D03*
D157*
X141224Y110491D03*
D58*
X126047Y110491D03*
D14*
X125476Y110491D03*
D158*
X140462Y110618D03*
D159*
X140398Y110745D03*
D160*
X140271Y110872D03*
D161*
X140208Y110999D03*
D162*
X140144Y111126D03*
D163*
X140017Y111253D03*
D164*
X139954Y111380D03*
D165*
X139890Y111507D03*
D157*
X139827Y111634D03*
D166*
X139763Y111761D03*
D167*
X139763Y111888D03*
D168*
X139700Y112015D03*
D169*
X139763Y112142D03*
D170*
X139700Y112269D03*
D171*
X139763Y112396D03*
D172*
X139763Y112523D03*
D151*
X139763Y112650D03*
D152*
X139700Y112777D03*
D156*
X139763Y112904D03*
D173*
X139763Y113031D03*
D174*
X139700Y113158D03*
D175*
X139763Y113285D03*
D176*
X139763Y113412D03*
D177*
X139763Y113539D03*
D147*
X139763Y113666D03*
D149*
X139763Y113793D03*
D178*
X139763Y113920D03*
D179*
X139763Y114047D03*
D180*
X139700Y114174D03*
D139*
X139763Y114301D03*
D181*
X139763Y114428D03*
D182*
X139763Y114555D03*
D183*
X139763Y114682D03*
D136*
X139763Y114809D03*
D184*
X139763Y114936D03*
D185*
X139700Y115063D03*
D126*
X139763Y115190D03*
D186*
X139827Y115317D03*
D187*
X139700Y115444D03*
D115*
X139763Y115571D03*
D111*
X139827Y115698D03*
D85*
X139763Y115825D03*
D72*
X139700Y115952D03*
D57*
X139700Y116079D03*
D48*
X139827Y116206D03*
D14*
X135763Y116206D03*
X142875Y116333D03*
D30*
X139763Y116333D03*
D14*
X141478Y116460D03*
X141224Y116460D03*
D24*
X139700Y116460D03*
D14*
X138176Y116460D03*
X137922Y116460D03*
M02*
