G04 EAGLE Gerber RS-274X export*
G75*
%MOMM*%
%FSLAX34Y34*%
%LPD*%
%INBottom Copper*%
%IPPOS*%
%AMOC8*
5,1,8,0,0,1.08239X$1,22.5*%
G01*
%ADD10C,0.000000*%
%ADD11P,1.649562X8X22.500000*%
%ADD12C,1.228000*%
%ADD13C,0.704800*%
%ADD14C,0.304800*%
%ADD15C,0.203200*%

G36*
X218627Y2549D02*
X218627Y2549D01*
X218685Y2547D01*
X218767Y2569D01*
X218851Y2581D01*
X218904Y2604D01*
X218960Y2619D01*
X219033Y2662D01*
X219110Y2697D01*
X219155Y2735D01*
X219205Y2764D01*
X219263Y2826D01*
X219327Y2880D01*
X219359Y2929D01*
X219399Y2972D01*
X219438Y3047D01*
X219485Y3117D01*
X219502Y3173D01*
X219529Y3225D01*
X219540Y3293D01*
X219570Y3388D01*
X219573Y3488D01*
X219584Y3556D01*
X219584Y284978D01*
X219580Y285007D01*
X219583Y285036D01*
X219560Y285147D01*
X219544Y285259D01*
X219532Y285286D01*
X219527Y285315D01*
X219475Y285415D01*
X219428Y285519D01*
X219409Y285541D01*
X219396Y285567D01*
X219318Y285649D01*
X219245Y285736D01*
X219220Y285752D01*
X219200Y285773D01*
X219102Y285830D01*
X219008Y285893D01*
X218980Y285902D01*
X218955Y285917D01*
X218845Y285945D01*
X218737Y285979D01*
X218707Y285980D01*
X218679Y285987D01*
X218566Y285983D01*
X218453Y285986D01*
X218424Y285979D01*
X218395Y285978D01*
X218287Y285943D01*
X218178Y285914D01*
X218152Y285899D01*
X218124Y285890D01*
X218061Y285845D01*
X217933Y285769D01*
X217890Y285723D01*
X217851Y285695D01*
X203784Y271628D01*
X203731Y271558D01*
X203671Y271494D01*
X203646Y271445D01*
X203613Y271401D01*
X203582Y271319D01*
X203542Y271241D01*
X203534Y271194D01*
X203511Y271135D01*
X203499Y270987D01*
X203486Y270910D01*
X203486Y267784D01*
X200529Y264826D01*
X196346Y264826D01*
X193389Y267784D01*
X193389Y271966D01*
X196346Y274924D01*
X199473Y274924D01*
X199559Y274936D01*
X199647Y274939D01*
X199699Y274956D01*
X199754Y274964D01*
X199834Y274999D01*
X199917Y275026D01*
X199956Y275054D01*
X200013Y275080D01*
X200127Y275176D01*
X200190Y275221D01*
X215731Y290762D01*
X215783Y290831D01*
X215843Y290895D01*
X215869Y290945D01*
X215902Y290989D01*
X215933Y291070D01*
X215973Y291148D01*
X215981Y291196D01*
X216003Y291254D01*
X216015Y291402D01*
X216028Y291479D01*
X216028Y314387D01*
X216024Y314416D01*
X216027Y314446D01*
X216004Y314557D01*
X215988Y314669D01*
X215976Y314695D01*
X215971Y314724D01*
X215918Y314825D01*
X215872Y314928D01*
X215853Y314951D01*
X215840Y314977D01*
X215762Y315059D01*
X215689Y315145D01*
X215664Y315161D01*
X215644Y315183D01*
X215546Y315240D01*
X215452Y315303D01*
X215424Y315312D01*
X215399Y315326D01*
X215289Y315354D01*
X215181Y315389D01*
X215151Y315389D01*
X215123Y315397D01*
X215010Y315393D01*
X214897Y315396D01*
X214868Y315388D01*
X214839Y315387D01*
X214731Y315353D01*
X214622Y315324D01*
X214596Y315309D01*
X214568Y315300D01*
X214504Y315254D01*
X214377Y315179D01*
X214334Y315133D01*
X214295Y315105D01*
X213229Y314039D01*
X210102Y314039D01*
X210016Y314027D01*
X209928Y314024D01*
X209876Y314007D01*
X209821Y313999D01*
X209741Y313963D01*
X209658Y313936D01*
X209619Y313908D01*
X209562Y313883D01*
X209448Y313787D01*
X209385Y313741D01*
X131426Y235782D01*
X131373Y235713D01*
X131313Y235649D01*
X131288Y235599D01*
X131255Y235555D01*
X131224Y235474D01*
X131184Y235396D01*
X131176Y235348D01*
X131153Y235290D01*
X131147Y235218D01*
X131142Y235201D01*
X131141Y235138D01*
X131128Y235065D01*
X131128Y197385D01*
X127584Y193840D01*
X127531Y193771D01*
X127471Y193707D01*
X127446Y193657D01*
X127413Y193613D01*
X127382Y193532D01*
X127342Y193454D01*
X127334Y193406D01*
X127311Y193348D01*
X127299Y193200D01*
X127286Y193123D01*
X127286Y189996D01*
X124329Y187039D01*
X120146Y187039D01*
X117189Y189996D01*
X117189Y190520D01*
X117185Y190549D01*
X117187Y190578D01*
X117165Y190689D01*
X117149Y190801D01*
X117137Y190828D01*
X117131Y190857D01*
X117079Y190957D01*
X117033Y191061D01*
X117014Y191083D01*
X117000Y191109D01*
X116922Y191191D01*
X116849Y191278D01*
X116825Y191294D01*
X116804Y191315D01*
X116707Y191372D01*
X116612Y191435D01*
X116584Y191444D01*
X116559Y191459D01*
X116450Y191487D01*
X116341Y191521D01*
X116312Y191522D01*
X116284Y191529D01*
X116171Y191525D01*
X116057Y191528D01*
X116029Y191521D01*
X115999Y191520D01*
X115892Y191485D01*
X115782Y191456D01*
X115757Y191441D01*
X115729Y191432D01*
X115665Y191387D01*
X115538Y191311D01*
X115495Y191265D01*
X115456Y191237D01*
X81491Y157273D01*
X81455Y157226D01*
X81413Y157185D01*
X81370Y157113D01*
X81320Y157045D01*
X81299Y156991D01*
X81269Y156940D01*
X81249Y156858D01*
X81219Y156780D01*
X81214Y156721D01*
X81199Y156664D01*
X81202Y156580D01*
X81195Y156496D01*
X81207Y156439D01*
X81208Y156380D01*
X81234Y156300D01*
X81249Y156228D01*
X81249Y151896D01*
X78291Y148939D01*
X74109Y148939D01*
X71151Y151896D01*
X71151Y156079D01*
X74109Y159036D01*
X75648Y159036D01*
X75734Y159048D01*
X75822Y159051D01*
X75874Y159068D01*
X75929Y159076D01*
X76009Y159112D01*
X76092Y159139D01*
X76131Y159167D01*
X76188Y159192D01*
X76302Y159288D01*
X76365Y159334D01*
X117812Y200780D01*
X117864Y200850D01*
X117924Y200914D01*
X117950Y200963D01*
X117983Y201007D01*
X118014Y201089D01*
X118054Y201167D01*
X118062Y201214D01*
X118084Y201273D01*
X118090Y201345D01*
X118095Y201362D01*
X118097Y201424D01*
X118109Y201498D01*
X118109Y235065D01*
X118102Y235118D01*
X118103Y235149D01*
X118096Y235173D01*
X118094Y235239D01*
X118077Y235291D01*
X118069Y235346D01*
X118034Y235426D01*
X118007Y235509D01*
X117979Y235548D01*
X117953Y235605D01*
X117857Y235719D01*
X117812Y235782D01*
X111290Y242304D01*
X111221Y242356D01*
X111157Y242416D01*
X111107Y242442D01*
X111063Y242475D01*
X110982Y242506D01*
X110904Y242546D01*
X110856Y242554D01*
X110798Y242576D01*
X110650Y242588D01*
X110573Y242601D01*
X107446Y242601D01*
X104489Y245559D01*
X104489Y249741D01*
X107446Y252699D01*
X111629Y252699D01*
X114586Y249741D01*
X114586Y246615D01*
X114598Y246528D01*
X114601Y246441D01*
X114618Y246388D01*
X114626Y246333D01*
X114662Y246254D01*
X114689Y246170D01*
X114717Y246131D01*
X114742Y246074D01*
X114838Y245961D01*
X114884Y245897D01*
X123191Y237590D01*
X123191Y199085D01*
X123195Y199056D01*
X123192Y199027D01*
X123215Y198916D01*
X123231Y198803D01*
X123243Y198777D01*
X123248Y198748D01*
X123301Y198647D01*
X123347Y198544D01*
X123366Y198522D01*
X123379Y198496D01*
X123457Y198413D01*
X123530Y198327D01*
X123555Y198311D01*
X123575Y198289D01*
X123673Y198232D01*
X123767Y198169D01*
X123795Y198161D01*
X123820Y198146D01*
X123930Y198118D01*
X124038Y198084D01*
X124068Y198083D01*
X124096Y198076D01*
X124209Y198079D01*
X124322Y198076D01*
X124351Y198084D01*
X124380Y198085D01*
X124488Y198120D01*
X124597Y198148D01*
X124623Y198163D01*
X124651Y198172D01*
X124715Y198218D01*
X124842Y198293D01*
X124885Y198339D01*
X124924Y198367D01*
X125749Y199193D01*
X125802Y199262D01*
X125862Y199326D01*
X125887Y199376D01*
X125920Y199420D01*
X125951Y199501D01*
X125991Y199579D01*
X125999Y199627D01*
X126022Y199685D01*
X126034Y199833D01*
X126047Y199910D01*
X126047Y237590D01*
X205791Y317335D01*
X205844Y317404D01*
X205904Y317468D01*
X205929Y317518D01*
X205962Y317562D01*
X205993Y317643D01*
X206033Y317721D01*
X206041Y317769D01*
X206064Y317827D01*
X206076Y317975D01*
X206089Y318052D01*
X206089Y321179D01*
X209046Y324136D01*
X213229Y324136D01*
X214295Y323070D01*
X214319Y323052D01*
X214338Y323030D01*
X214432Y322967D01*
X214522Y322899D01*
X214550Y322889D01*
X214574Y322872D01*
X214682Y322838D01*
X214788Y322798D01*
X214817Y322795D01*
X214845Y322786D01*
X214959Y322784D01*
X215071Y322774D01*
X215100Y322780D01*
X215129Y322779D01*
X215239Y322808D01*
X215350Y322830D01*
X215376Y322844D01*
X215404Y322851D01*
X215502Y322909D01*
X215602Y322961D01*
X215624Y322981D01*
X215649Y322996D01*
X215726Y323079D01*
X215808Y323157D01*
X215823Y323182D01*
X215843Y323204D01*
X215895Y323304D01*
X215952Y323402D01*
X215959Y323431D01*
X215973Y323457D01*
X215986Y323534D01*
X216022Y323678D01*
X216020Y323740D01*
X216028Y323788D01*
X216028Y337170D01*
X216024Y337199D01*
X216027Y337228D01*
X216004Y337339D01*
X215988Y337451D01*
X215976Y337478D01*
X215971Y337507D01*
X215919Y337607D01*
X215872Y337711D01*
X215853Y337733D01*
X215840Y337759D01*
X215762Y337841D01*
X215689Y337928D01*
X215664Y337944D01*
X215644Y337965D01*
X215546Y338022D01*
X215452Y338085D01*
X215424Y338094D01*
X215399Y338109D01*
X215289Y338137D01*
X215181Y338171D01*
X215151Y338172D01*
X215123Y338179D01*
X215010Y338175D01*
X214897Y338178D01*
X214868Y338171D01*
X214839Y338170D01*
X214731Y338135D01*
X214622Y338106D01*
X214596Y338091D01*
X214568Y338082D01*
X214505Y338037D01*
X214377Y337961D01*
X214334Y337916D01*
X214295Y337888D01*
X210163Y333755D01*
X202495Y333755D01*
X202450Y333781D01*
X202369Y333802D01*
X202290Y333832D01*
X202231Y333837D01*
X202175Y333851D01*
X202090Y333849D01*
X202006Y333856D01*
X201949Y333844D01*
X201890Y333842D01*
X201810Y333817D01*
X201728Y333800D01*
X201676Y333773D01*
X201620Y333755D01*
X201564Y333715D01*
X201475Y333669D01*
X201403Y333600D01*
X201347Y333560D01*
X189084Y321297D01*
X189083Y321297D01*
X187000Y319214D01*
X147387Y319214D01*
X147300Y319202D01*
X147213Y319199D01*
X147160Y319182D01*
X147105Y319174D01*
X147025Y319138D01*
X146942Y319111D01*
X146903Y319083D01*
X146846Y319058D01*
X146733Y318962D01*
X146669Y318916D01*
X144966Y317214D01*
X140784Y317214D01*
X137826Y320171D01*
X137826Y321374D01*
X137819Y321425D01*
X137820Y321446D01*
X137819Y321450D01*
X137820Y321490D01*
X137798Y321571D01*
X137786Y321655D01*
X137763Y321708D01*
X137748Y321765D01*
X137705Y321837D01*
X137670Y321914D01*
X137632Y321959D01*
X137603Y322009D01*
X137541Y322067D01*
X137487Y322131D01*
X137438Y322164D01*
X137395Y322204D01*
X137320Y322242D01*
X137250Y322289D01*
X137194Y322307D01*
X137142Y322333D01*
X137074Y322345D01*
X136979Y322375D01*
X136879Y322377D01*
X136811Y322389D01*
X19375Y322389D01*
X18497Y323266D01*
X18427Y323319D01*
X18363Y323379D01*
X18314Y323404D01*
X18270Y323437D01*
X18188Y323468D01*
X18110Y323508D01*
X18063Y323516D01*
X18004Y323539D01*
X17856Y323551D01*
X17779Y323564D01*
X15371Y323564D01*
X12414Y326521D01*
X12414Y330704D01*
X15371Y333661D01*
X19554Y333661D01*
X22511Y330704D01*
X22511Y329501D01*
X22519Y329444D01*
X22518Y329385D01*
X22539Y329304D01*
X22551Y329220D01*
X22575Y329167D01*
X22590Y329110D01*
X22633Y329038D01*
X22667Y328961D01*
X22705Y328916D01*
X22735Y328866D01*
X22797Y328808D01*
X22851Y328744D01*
X22900Y328711D01*
X22942Y328671D01*
X23017Y328633D01*
X23088Y328586D01*
X23143Y328568D01*
X23195Y328542D01*
X23263Y328530D01*
X23359Y328500D01*
X23458Y328498D01*
X23526Y328486D01*
X140963Y328486D01*
X141840Y327609D01*
X141910Y327556D01*
X141974Y327496D01*
X142024Y327471D01*
X142068Y327438D01*
X142149Y327407D01*
X142227Y327367D01*
X142275Y327359D01*
X142333Y327336D01*
X142481Y327324D01*
X142558Y327311D01*
X144966Y327311D01*
X146669Y325609D01*
X146739Y325556D01*
X146803Y325496D01*
X146852Y325471D01*
X146896Y325438D01*
X146978Y325407D01*
X147056Y325367D01*
X147103Y325359D01*
X147162Y325336D01*
X147309Y325324D01*
X147387Y325311D01*
X184054Y325311D01*
X184141Y325323D01*
X184228Y325326D01*
X184281Y325343D01*
X184336Y325351D01*
X184415Y325387D01*
X184499Y325414D01*
X184538Y325442D01*
X184595Y325467D01*
X184708Y325563D01*
X184772Y325609D01*
X197035Y337872D01*
X197052Y337895D01*
X197074Y337913D01*
X197090Y337938D01*
X197113Y337959D01*
X197155Y338031D01*
X197206Y338099D01*
X197217Y338127D01*
X197232Y338150D01*
X197240Y338176D01*
X197256Y338204D01*
X197277Y338286D01*
X197307Y338364D01*
X197310Y338397D01*
X197317Y338421D01*
X197318Y338447D01*
X197326Y338480D01*
X197324Y338564D01*
X197331Y338648D01*
X197324Y338681D01*
X197325Y338705D01*
X197318Y338729D01*
X197317Y338764D01*
X197291Y338844D01*
X197275Y338926D01*
X197259Y338957D01*
X197253Y338980D01*
X197241Y339000D01*
X197230Y339033D01*
X197230Y346688D01*
X202587Y352045D01*
X210163Y352045D01*
X214295Y347912D01*
X214319Y347895D01*
X214338Y347872D01*
X214432Y347810D01*
X214522Y347742D01*
X214550Y347731D01*
X214574Y347715D01*
X214682Y347681D01*
X214788Y347640D01*
X214817Y347638D01*
X214845Y347629D01*
X214959Y347626D01*
X215071Y347617D01*
X215100Y347623D01*
X215129Y347622D01*
X215239Y347650D01*
X215350Y347673D01*
X215376Y347686D01*
X215404Y347694D01*
X215502Y347751D01*
X215602Y347804D01*
X215624Y347824D01*
X215649Y347839D01*
X215726Y347921D01*
X215808Y347999D01*
X215823Y348025D01*
X215843Y348046D01*
X215895Y348147D01*
X215952Y348245D01*
X215959Y348273D01*
X215973Y348299D01*
X215986Y348377D01*
X216022Y348520D01*
X216020Y348583D01*
X216028Y348630D01*
X216028Y361133D01*
X216024Y361162D01*
X216027Y361191D01*
X216004Y361302D01*
X215988Y361414D01*
X215976Y361441D01*
X215971Y361470D01*
X215919Y361570D01*
X215872Y361674D01*
X215853Y361696D01*
X215840Y361722D01*
X215762Y361804D01*
X215689Y361891D01*
X215664Y361907D01*
X215644Y361928D01*
X215546Y361985D01*
X215452Y362048D01*
X215424Y362057D01*
X215399Y362072D01*
X215289Y362100D01*
X215181Y362134D01*
X215151Y362135D01*
X215123Y362142D01*
X215010Y362138D01*
X214897Y362141D01*
X214868Y362134D01*
X214839Y362133D01*
X214731Y362098D01*
X214622Y362070D01*
X214596Y362055D01*
X214568Y362046D01*
X214505Y362000D01*
X214377Y361924D01*
X214334Y361879D01*
X214295Y361851D01*
X210584Y358139D01*
X208406Y358139D01*
X208406Y367284D01*
X208398Y367342D01*
X208400Y367400D01*
X208378Y367482D01*
X208366Y367565D01*
X208342Y367619D01*
X208328Y367675D01*
X208285Y367748D01*
X208250Y367825D01*
X208212Y367869D01*
X208182Y367920D01*
X208121Y367977D01*
X208066Y368042D01*
X208018Y368074D01*
X207975Y368114D01*
X207900Y368153D01*
X207830Y368199D01*
X207774Y368217D01*
X207722Y368244D01*
X207654Y368255D01*
X207559Y368285D01*
X207459Y368288D01*
X207391Y368299D01*
X206374Y368299D01*
X206374Y368301D01*
X207391Y368301D01*
X207449Y368309D01*
X207507Y368308D01*
X207589Y368329D01*
X207672Y368341D01*
X207726Y368365D01*
X207782Y368379D01*
X207855Y368422D01*
X207932Y368457D01*
X207977Y368495D01*
X208027Y368525D01*
X208085Y368586D01*
X208149Y368641D01*
X208181Y368689D01*
X208221Y368732D01*
X208260Y368807D01*
X208306Y368877D01*
X208324Y368933D01*
X208351Y368985D01*
X208362Y369053D01*
X208392Y369148D01*
X208395Y369248D01*
X208406Y369316D01*
X208406Y378461D01*
X210584Y378461D01*
X214295Y374749D01*
X214319Y374732D01*
X214338Y374709D01*
X214432Y374646D01*
X214522Y374578D01*
X214550Y374568D01*
X214574Y374552D01*
X214682Y374517D01*
X214788Y374477D01*
X214817Y374475D01*
X214845Y374466D01*
X214959Y374463D01*
X215071Y374454D01*
X215100Y374459D01*
X215129Y374459D01*
X215239Y374487D01*
X215350Y374509D01*
X215376Y374523D01*
X215404Y374530D01*
X215502Y374588D01*
X215602Y374640D01*
X215624Y374661D01*
X215649Y374676D01*
X215726Y374758D01*
X215808Y374836D01*
X215823Y374862D01*
X215843Y374883D01*
X215895Y374984D01*
X215952Y375082D01*
X215959Y375110D01*
X215973Y375136D01*
X215986Y375213D01*
X216022Y375357D01*
X216020Y375420D01*
X216028Y375467D01*
X216028Y377940D01*
X216016Y378026D01*
X216013Y378114D01*
X215996Y378166D01*
X215988Y378221D01*
X215953Y378301D01*
X215926Y378384D01*
X215898Y378423D01*
X215872Y378480D01*
X215776Y378594D01*
X215731Y378657D01*
X208289Y386099D01*
X208219Y386152D01*
X208155Y386212D01*
X208106Y386237D01*
X208062Y386270D01*
X207980Y386301D01*
X207902Y386341D01*
X207855Y386349D01*
X207796Y386372D01*
X207648Y386384D01*
X207571Y386397D01*
X147523Y386397D01*
X147436Y386385D01*
X147349Y386382D01*
X147296Y386365D01*
X147241Y386357D01*
X147162Y386321D01*
X147078Y386294D01*
X147039Y386266D01*
X146982Y386241D01*
X146869Y386145D01*
X146805Y386099D01*
X145713Y385007D01*
X145661Y384938D01*
X145601Y384874D01*
X145575Y384824D01*
X145542Y384780D01*
X145519Y384718D01*
X145515Y384714D01*
X145510Y384697D01*
X145471Y384621D01*
X145463Y384573D01*
X145441Y384515D01*
X145437Y384465D01*
X145430Y384443D01*
X145428Y384360D01*
X145416Y384290D01*
X145416Y373524D01*
X145420Y373495D01*
X145417Y373466D01*
X145440Y373355D01*
X145456Y373243D01*
X145468Y373216D01*
X145473Y373187D01*
X145525Y373087D01*
X145572Y372983D01*
X145591Y372961D01*
X145604Y372935D01*
X145682Y372853D01*
X145755Y372766D01*
X145780Y372750D01*
X145800Y372729D01*
X145898Y372672D01*
X145992Y372609D01*
X146020Y372600D01*
X146045Y372585D01*
X146155Y372557D01*
X146263Y372523D01*
X146293Y372522D01*
X146321Y372515D01*
X146434Y372519D01*
X146547Y372516D01*
X146576Y372523D01*
X146605Y372524D01*
X146713Y372559D01*
X146822Y372588D01*
X146848Y372603D01*
X146876Y372612D01*
X146939Y372657D01*
X147067Y372733D01*
X147110Y372778D01*
X147149Y372806D01*
X151787Y377445D01*
X159363Y377445D01*
X164720Y372088D01*
X164720Y364512D01*
X159363Y359155D01*
X151787Y359155D01*
X147149Y363794D01*
X147125Y363811D01*
X147106Y363834D01*
X147012Y363896D01*
X146922Y363964D01*
X146894Y363975D01*
X146870Y363991D01*
X146762Y364025D01*
X146656Y364066D01*
X146627Y364068D01*
X146599Y364077D01*
X146485Y364080D01*
X146373Y364089D01*
X146344Y364083D01*
X146315Y364084D01*
X146205Y364056D01*
X146094Y364033D01*
X146068Y364020D01*
X146040Y364012D01*
X145942Y363955D01*
X145842Y363902D01*
X145820Y363882D01*
X145795Y363867D01*
X145718Y363785D01*
X145636Y363707D01*
X145621Y363681D01*
X145601Y363660D01*
X145549Y363559D01*
X145492Y363461D01*
X145485Y363433D01*
X145471Y363407D01*
X145458Y363329D01*
X145422Y363186D01*
X145424Y363123D01*
X145416Y363076D01*
X145416Y357073D01*
X145428Y356986D01*
X145431Y356899D01*
X145448Y356846D01*
X145456Y356791D01*
X145491Y356712D01*
X145518Y356628D01*
X145546Y356589D01*
X145572Y356532D01*
X145668Y356419D01*
X145713Y356355D01*
X150187Y351881D01*
X150234Y351846D01*
X150274Y351803D01*
X150347Y351761D01*
X150415Y351710D01*
X150469Y351689D01*
X150520Y351659D01*
X150601Y351639D01*
X150680Y351609D01*
X150739Y351604D01*
X150795Y351589D01*
X150879Y351592D01*
X150964Y351585D01*
X151021Y351597D01*
X151079Y351598D01*
X151160Y351624D01*
X151242Y351641D01*
X151294Y351668D01*
X151350Y351686D01*
X151406Y351726D01*
X151495Y351772D01*
X151567Y351841D01*
X151623Y351881D01*
X151787Y352045D01*
X159363Y352045D01*
X164720Y346688D01*
X164720Y339112D01*
X159363Y333755D01*
X151787Y333755D01*
X146430Y339112D01*
X146430Y346688D01*
X146594Y346852D01*
X146629Y346899D01*
X146672Y346939D01*
X146714Y347012D01*
X146765Y347079D01*
X146786Y347134D01*
X146816Y347184D01*
X146836Y347266D01*
X146866Y347345D01*
X146871Y347403D01*
X146886Y347460D01*
X146883Y347544D01*
X146890Y347628D01*
X146878Y347685D01*
X146877Y347744D01*
X146851Y347824D01*
X146834Y347907D01*
X146807Y347959D01*
X146789Y348014D01*
X146749Y348071D01*
X146703Y348159D01*
X146634Y348231D01*
X146594Y348288D01*
X140334Y354548D01*
X140334Y363076D01*
X140330Y363105D01*
X140333Y363134D01*
X140310Y363245D01*
X140294Y363357D01*
X140282Y363384D01*
X140277Y363413D01*
X140225Y363513D01*
X140178Y363617D01*
X140159Y363639D01*
X140146Y363665D01*
X140068Y363747D01*
X139995Y363834D01*
X139970Y363850D01*
X139950Y363871D01*
X139852Y363928D01*
X139758Y363991D01*
X139730Y364000D01*
X139705Y364015D01*
X139595Y364043D01*
X139487Y364077D01*
X139457Y364078D01*
X139429Y364085D01*
X139316Y364081D01*
X139203Y364084D01*
X139174Y364077D01*
X139145Y364076D01*
X139037Y364041D01*
X138928Y364012D01*
X138902Y363997D01*
X138874Y363988D01*
X138811Y363943D01*
X138683Y363867D01*
X138640Y363822D01*
X138601Y363794D01*
X133963Y359155D01*
X126387Y359155D01*
X121030Y364512D01*
X121030Y372088D01*
X126387Y377445D01*
X133963Y377445D01*
X138601Y372806D01*
X138625Y372789D01*
X138644Y372766D01*
X138738Y372704D01*
X138828Y372636D01*
X138856Y372625D01*
X138880Y372609D01*
X138988Y372575D01*
X139094Y372534D01*
X139123Y372532D01*
X139151Y372523D01*
X139265Y372520D01*
X139377Y372511D01*
X139406Y372517D01*
X139435Y372516D01*
X139545Y372544D01*
X139656Y372567D01*
X139682Y372580D01*
X139710Y372588D01*
X139808Y372645D01*
X139908Y372698D01*
X139930Y372718D01*
X139955Y372733D01*
X140032Y372815D01*
X140114Y372893D01*
X140129Y372919D01*
X140149Y372940D01*
X140201Y373041D01*
X140258Y373139D01*
X140265Y373167D01*
X140279Y373193D01*
X140292Y373271D01*
X140328Y373414D01*
X140326Y373477D01*
X140334Y373524D01*
X140334Y384290D01*
X140326Y384345D01*
X140328Y384391D01*
X140321Y384417D01*
X140319Y384464D01*
X140302Y384516D01*
X140294Y384571D01*
X140261Y384645D01*
X140256Y384666D01*
X140251Y384674D01*
X140232Y384734D01*
X140204Y384773D01*
X140178Y384830D01*
X140111Y384910D01*
X140111Y384911D01*
X140110Y384911D01*
X140082Y384944D01*
X140037Y385007D01*
X138945Y386099D01*
X138875Y386152D01*
X138811Y386212D01*
X138762Y386237D01*
X138718Y386270D01*
X138636Y386301D01*
X138558Y386341D01*
X138511Y386349D01*
X138452Y386372D01*
X138304Y386384D01*
X138227Y386397D01*
X80923Y386397D01*
X80880Y386391D01*
X80837Y386393D01*
X80740Y386371D01*
X80641Y386357D01*
X80602Y386339D01*
X80560Y386330D01*
X80473Y386281D01*
X80382Y386241D01*
X80349Y386213D01*
X80311Y386192D01*
X80241Y386121D01*
X80165Y386057D01*
X80141Y386021D01*
X80111Y385991D01*
X80063Y385903D01*
X80007Y385820D01*
X79994Y385779D01*
X79974Y385741D01*
X79952Y385644D01*
X79922Y385549D01*
X79921Y385506D01*
X79911Y385464D01*
X79917Y385365D01*
X79914Y385265D01*
X79925Y385223D01*
X79928Y385180D01*
X79961Y385086D01*
X79986Y384990D01*
X80008Y384953D01*
X80023Y384912D01*
X80081Y384831D01*
X80131Y384746D01*
X80163Y384716D01*
X80188Y384681D01*
X80266Y384619D01*
X80339Y384551D01*
X80377Y384532D01*
X80411Y384505D01*
X80483Y384478D01*
X80592Y384422D01*
X80660Y384410D01*
X80725Y384386D01*
X80982Y384335D01*
X82562Y383680D01*
X83984Y382730D01*
X85193Y381521D01*
X86143Y380099D01*
X86797Y378520D01*
X86943Y377787D01*
X83055Y377787D01*
X82928Y377769D01*
X82801Y377754D01*
X82788Y377749D01*
X82774Y377747D01*
X82657Y377694D01*
X82538Y377645D01*
X82527Y377636D01*
X82515Y377631D01*
X82416Y377547D01*
X82316Y377467D01*
X82308Y377456D01*
X82298Y377447D01*
X82226Y377340D01*
X82152Y377235D01*
X82148Y377222D01*
X82140Y377210D01*
X82101Y377088D01*
X82059Y376967D01*
X82058Y376953D01*
X82054Y376939D01*
X82051Y376811D01*
X82044Y376683D01*
X82047Y376669D01*
X82047Y376655D01*
X82079Y376531D01*
X82108Y376406D01*
X82115Y376393D01*
X82119Y376380D01*
X82184Y376270D01*
X82247Y376157D01*
X82256Y376149D01*
X82264Y376136D01*
X82471Y375941D01*
X82483Y375935D01*
X82491Y375927D01*
X83984Y374930D01*
X84428Y374486D01*
X84498Y374433D01*
X84562Y374373D01*
X84611Y374348D01*
X84656Y374315D01*
X84737Y374284D01*
X84815Y374244D01*
X84863Y374236D01*
X84921Y374213D01*
X85069Y374201D01*
X85146Y374188D01*
X86943Y374188D01*
X86797Y373455D01*
X86391Y372476D01*
X86370Y372391D01*
X86339Y372309D01*
X86336Y372280D01*
X86330Y372260D01*
X86329Y372235D01*
X86321Y372201D01*
X86323Y372113D01*
X86316Y372026D01*
X86323Y371995D01*
X86323Y371975D01*
X86328Y371957D01*
X86329Y371917D01*
X86374Y371775D01*
X86391Y371699D01*
X86797Y370720D01*
X86943Y369987D01*
X85146Y369987D01*
X85060Y369975D01*
X84972Y369972D01*
X84920Y369955D01*
X84865Y369947D01*
X84785Y369911D01*
X84702Y369884D01*
X84662Y369856D01*
X84605Y369831D01*
X84492Y369735D01*
X84428Y369689D01*
X83984Y369245D01*
X82491Y368248D01*
X82396Y368162D01*
X82297Y368079D01*
X82290Y368067D01*
X82279Y368058D01*
X82211Y367950D01*
X82140Y367842D01*
X82136Y367829D01*
X82128Y367817D01*
X82093Y367694D01*
X82054Y367571D01*
X82054Y367557D01*
X82050Y367544D01*
X82050Y367416D01*
X82047Y367287D01*
X82050Y367274D01*
X82050Y367260D01*
X82086Y367136D01*
X82119Y367012D01*
X82126Y367000D01*
X82130Y366987D01*
X82198Y366878D01*
X82264Y366768D01*
X82274Y366758D01*
X82281Y366746D01*
X82377Y366661D01*
X82471Y366573D01*
X82484Y366567D01*
X82494Y366558D01*
X82609Y366502D01*
X82724Y366444D01*
X82737Y366442D01*
X82750Y366435D01*
X83031Y366388D01*
X83044Y366390D01*
X83055Y366388D01*
X86943Y366388D01*
X86797Y365655D01*
X86143Y364076D01*
X85193Y362654D01*
X83984Y361445D01*
X82562Y360495D01*
X80982Y359840D01*
X80249Y359695D01*
X80249Y367403D01*
X80241Y367461D01*
X80243Y367520D01*
X80221Y367601D01*
X80209Y367685D01*
X80186Y367738D01*
X80171Y367795D01*
X80128Y367867D01*
X80093Y367944D01*
X80055Y367989D01*
X80026Y368039D01*
X79964Y368097D01*
X79910Y368161D01*
X79874Y368185D01*
X79928Y368242D01*
X79992Y368296D01*
X80024Y368345D01*
X80064Y368388D01*
X80103Y368463D01*
X80150Y368533D01*
X80167Y368589D01*
X80194Y368641D01*
X80205Y368709D01*
X80235Y368804D01*
X80238Y368904D01*
X80249Y368972D01*
X80249Y375203D01*
X80243Y375251D01*
X80243Y375254D01*
X80242Y375258D01*
X80241Y375261D01*
X80243Y375320D01*
X80221Y375401D01*
X80209Y375485D01*
X80186Y375538D01*
X80171Y375595D01*
X80128Y375667D01*
X80093Y375744D01*
X80055Y375789D01*
X80026Y375839D01*
X79964Y375897D01*
X79910Y375961D01*
X79861Y375994D01*
X79818Y376034D01*
X79743Y376072D01*
X79673Y376119D01*
X79617Y376136D01*
X79565Y376163D01*
X79497Y376174D01*
X79402Y376205D01*
X79302Y376207D01*
X79234Y376219D01*
X77666Y376219D01*
X77608Y376210D01*
X77550Y376212D01*
X77468Y376191D01*
X77384Y376179D01*
X77331Y376155D01*
X77275Y376140D01*
X77202Y376097D01*
X77125Y376062D01*
X77080Y376025D01*
X77030Y375995D01*
X76972Y375933D01*
X76908Y375879D01*
X76876Y375830D01*
X76836Y375787D01*
X76797Y375712D01*
X76750Y375642D01*
X76733Y375586D01*
X76706Y375534D01*
X76695Y375466D01*
X76665Y375371D01*
X76662Y375271D01*
X76651Y375203D01*
X76651Y368972D01*
X76659Y368914D01*
X76657Y368855D01*
X76679Y368774D01*
X76691Y368690D01*
X76714Y368637D01*
X76729Y368580D01*
X76772Y368508D01*
X76807Y368431D01*
X76845Y368386D01*
X76874Y368336D01*
X76936Y368278D01*
X76990Y368214D01*
X77026Y368190D01*
X76972Y368133D01*
X76908Y368079D01*
X76876Y368030D01*
X76836Y367987D01*
X76797Y367912D01*
X76750Y367842D01*
X76733Y367786D01*
X76706Y367734D01*
X76695Y367666D01*
X76665Y367571D01*
X76662Y367471D01*
X76651Y367403D01*
X76651Y359695D01*
X75918Y359840D01*
X74338Y360495D01*
X72916Y361445D01*
X71707Y362654D01*
X70757Y364076D01*
X70103Y365655D01*
X69957Y366388D01*
X73845Y366388D01*
X73972Y366406D01*
X74100Y366421D01*
X74112Y366426D01*
X74126Y366428D01*
X74243Y366481D01*
X74362Y366530D01*
X74373Y366539D01*
X74386Y366544D01*
X74483Y366627D01*
X74584Y366708D01*
X74592Y366719D01*
X74603Y366728D01*
X74674Y366835D01*
X74748Y366940D01*
X74752Y366953D01*
X74760Y366965D01*
X74799Y367088D01*
X74841Y367208D01*
X74842Y367222D01*
X74846Y367236D01*
X74849Y367364D01*
X74856Y367492D01*
X74853Y367506D01*
X74853Y367520D01*
X74821Y367644D01*
X74792Y367769D01*
X74785Y367782D01*
X74781Y367795D01*
X74716Y367905D01*
X74653Y368018D01*
X74644Y368026D01*
X74636Y368039D01*
X74429Y368234D01*
X74417Y368240D01*
X74409Y368248D01*
X72916Y369245D01*
X72472Y369689D01*
X72402Y369742D01*
X72338Y369802D01*
X72289Y369827D01*
X72244Y369860D01*
X72163Y369891D01*
X72085Y369931D01*
X72037Y369939D01*
X71979Y369962D01*
X71831Y369974D01*
X71754Y369987D01*
X69957Y369987D01*
X70103Y370720D01*
X70509Y371699D01*
X70530Y371784D01*
X70561Y371866D01*
X70565Y371906D01*
X70570Y371924D01*
X70570Y371939D01*
X70579Y371974D01*
X70577Y372062D01*
X70584Y372149D01*
X70577Y372181D01*
X70577Y372208D01*
X70572Y372228D01*
X70571Y372258D01*
X70533Y372379D01*
X70517Y372439D01*
X70509Y372476D01*
X70103Y373455D01*
X69957Y374188D01*
X71754Y374188D01*
X71840Y374200D01*
X71928Y374203D01*
X71980Y374220D01*
X72035Y374228D01*
X72115Y374264D01*
X72198Y374291D01*
X72238Y374319D01*
X72295Y374344D01*
X72408Y374440D01*
X72472Y374486D01*
X72916Y374930D01*
X74409Y375927D01*
X74505Y376013D01*
X74603Y376096D01*
X74610Y376108D01*
X74621Y376117D01*
X74689Y376226D01*
X74760Y376333D01*
X74764Y376346D01*
X74772Y376358D01*
X74807Y376481D01*
X74846Y376604D01*
X74846Y376618D01*
X74850Y376631D01*
X74850Y376759D01*
X74853Y376888D01*
X74850Y376901D01*
X74850Y376915D01*
X74814Y377039D01*
X74781Y377163D01*
X74774Y377175D01*
X74770Y377188D01*
X74701Y377297D01*
X74636Y377407D01*
X74626Y377417D01*
X74619Y377429D01*
X74522Y377514D01*
X74429Y377602D01*
X74416Y377608D01*
X74406Y377617D01*
X74290Y377673D01*
X74176Y377731D01*
X74163Y377733D01*
X74150Y377740D01*
X73869Y377786D01*
X73856Y377785D01*
X73845Y377787D01*
X69957Y377787D01*
X70103Y378520D01*
X70757Y380099D01*
X71707Y381521D01*
X72916Y382730D01*
X74338Y383680D01*
X75918Y384335D01*
X76175Y384386D01*
X76216Y384400D01*
X76259Y384406D01*
X76349Y384447D01*
X76443Y384480D01*
X76479Y384505D01*
X76518Y384522D01*
X76594Y384587D01*
X76675Y384644D01*
X76702Y384678D01*
X76735Y384706D01*
X76790Y384789D01*
X76852Y384867D01*
X76869Y384907D01*
X76893Y384943D01*
X76923Y385038D01*
X76961Y385130D01*
X76965Y385172D01*
X76978Y385214D01*
X76981Y385313D01*
X76992Y385412D01*
X76985Y385455D01*
X76986Y385498D01*
X76960Y385594D01*
X76944Y385692D01*
X76925Y385731D01*
X76914Y385773D01*
X76863Y385858D01*
X76819Y385948D01*
X76791Y385980D01*
X76769Y386017D01*
X76696Y386086D01*
X76629Y386159D01*
X76593Y386182D01*
X76561Y386212D01*
X76473Y386257D01*
X76388Y386310D01*
X76346Y386322D01*
X76308Y386341D01*
X76233Y386354D01*
X76115Y386387D01*
X76045Y386385D01*
X75977Y386397D01*
X57035Y386397D01*
X56949Y386385D01*
X56861Y386382D01*
X56809Y386365D01*
X56754Y386357D01*
X56674Y386321D01*
X56591Y386294D01*
X56552Y386266D01*
X56495Y386241D01*
X56381Y386145D01*
X56318Y386099D01*
X7601Y337382D01*
X7548Y337313D01*
X7488Y337249D01*
X7463Y337199D01*
X7430Y337155D01*
X7399Y337074D01*
X7359Y336996D01*
X7351Y336948D01*
X7328Y336890D01*
X7316Y336742D01*
X7303Y336665D01*
X7303Y307860D01*
X7315Y307774D01*
X7318Y307686D01*
X7335Y307634D01*
X7343Y307579D01*
X7379Y307499D01*
X7406Y307416D01*
X7434Y307377D01*
X7459Y307320D01*
X7555Y307206D01*
X7601Y307143D01*
X15710Y299034D01*
X15779Y298981D01*
X15843Y298921D01*
X15893Y298896D01*
X15937Y298863D01*
X16018Y298832D01*
X16096Y298792D01*
X16144Y298784D01*
X16202Y298761D01*
X16350Y298749D01*
X16427Y298736D01*
X19554Y298736D01*
X22511Y295779D01*
X22511Y291596D01*
X19554Y288639D01*
X17843Y288639D01*
X17786Y288631D01*
X17727Y288632D01*
X17646Y288611D01*
X17562Y288599D01*
X17509Y288575D01*
X17452Y288560D01*
X17380Y288517D01*
X17303Y288483D01*
X17258Y288445D01*
X17208Y288415D01*
X17150Y288353D01*
X17086Y288299D01*
X17053Y288250D01*
X17013Y288208D01*
X16975Y288133D01*
X16928Y288062D01*
X16910Y288007D01*
X16884Y287955D01*
X16872Y287887D01*
X16842Y287791D01*
X16840Y287692D01*
X16828Y287624D01*
X16828Y161810D01*
X16840Y161724D01*
X16843Y161636D01*
X16860Y161584D01*
X16868Y161529D01*
X16904Y161449D01*
X16931Y161366D01*
X16959Y161327D01*
X16984Y161270D01*
X17080Y161156D01*
X17126Y161093D01*
X20206Y158013D01*
X20229Y157995D01*
X20248Y157972D01*
X20342Y157910D01*
X20433Y157842D01*
X20460Y157831D01*
X20485Y157815D01*
X20593Y157781D01*
X20698Y157740D01*
X20728Y157738D01*
X20756Y157729D01*
X20869Y157726D01*
X20982Y157717D01*
X21010Y157723D01*
X21040Y157722D01*
X21149Y157750D01*
X21261Y157773D01*
X21287Y157786D01*
X21315Y157794D01*
X21412Y157851D01*
X21513Y157904D01*
X21534Y157924D01*
X21559Y157939D01*
X21637Y158021D01*
X21719Y158099D01*
X21734Y158125D01*
X21754Y158146D01*
X21805Y158247D01*
X21863Y158345D01*
X21870Y158373D01*
X21883Y158399D01*
X21896Y158477D01*
X21933Y158620D01*
X21931Y158683D01*
X21939Y158730D01*
X21939Y161373D01*
X21927Y161459D01*
X21924Y161547D01*
X21907Y161599D01*
X21899Y161654D01*
X21863Y161734D01*
X21836Y161817D01*
X21808Y161856D01*
X21783Y161913D01*
X21687Y162027D01*
X21641Y162090D01*
X19684Y164048D01*
X19684Y253465D01*
X31166Y264947D01*
X31219Y265017D01*
X31279Y265081D01*
X31304Y265130D01*
X31337Y265174D01*
X31368Y265256D01*
X31408Y265334D01*
X31416Y265381D01*
X31439Y265440D01*
X31451Y265588D01*
X31464Y265665D01*
X31464Y268791D01*
X34421Y271749D01*
X38604Y271749D01*
X41561Y268791D01*
X41561Y264609D01*
X38604Y261651D01*
X35477Y261651D01*
X35391Y261639D01*
X35303Y261636D01*
X35251Y261619D01*
X35196Y261611D01*
X35116Y261576D01*
X35033Y261549D01*
X34994Y261521D01*
X34937Y261495D01*
X34823Y261399D01*
X34760Y261354D01*
X25063Y251657D01*
X25011Y251588D01*
X24951Y251524D01*
X24925Y251474D01*
X24892Y251430D01*
X24861Y251349D01*
X24821Y251271D01*
X24813Y251223D01*
X24791Y251165D01*
X24779Y251017D01*
X24766Y250940D01*
X24766Y174057D01*
X24770Y174028D01*
X24767Y173998D01*
X24790Y173887D01*
X24806Y173775D01*
X24818Y173749D01*
X24823Y173720D01*
X24876Y173619D01*
X24922Y173516D01*
X24941Y173493D01*
X24954Y173467D01*
X25032Y173385D01*
X25105Y173299D01*
X25130Y173283D01*
X25150Y173261D01*
X25248Y173204D01*
X25342Y173141D01*
X25370Y173132D01*
X25395Y173118D01*
X25505Y173090D01*
X25613Y173055D01*
X25643Y173055D01*
X25671Y173047D01*
X25784Y173051D01*
X25897Y173048D01*
X25926Y173056D01*
X25955Y173057D01*
X26063Y173091D01*
X26172Y173120D01*
X26198Y173135D01*
X26226Y173144D01*
X26290Y173190D01*
X26417Y173265D01*
X26460Y173311D01*
X26499Y173339D01*
X27324Y174164D01*
X27377Y174234D01*
X27437Y174298D01*
X27462Y174347D01*
X27495Y174392D01*
X27526Y174473D01*
X27566Y174551D01*
X27574Y174599D01*
X27597Y174657D01*
X27609Y174805D01*
X27622Y174882D01*
X27622Y243940D01*
X29407Y245726D01*
X45509Y261827D01*
X45544Y261874D01*
X45587Y261914D01*
X45630Y261987D01*
X45680Y262055D01*
X45701Y262109D01*
X45731Y262160D01*
X45751Y262241D01*
X45781Y262320D01*
X45786Y262379D01*
X45801Y262435D01*
X45798Y262520D01*
X45805Y262604D01*
X45793Y262661D01*
X45792Y262719D01*
X45766Y262800D01*
X45749Y262882D01*
X45722Y262934D01*
X45704Y262990D01*
X45664Y263046D01*
X45618Y263135D01*
X45549Y263207D01*
X45509Y263263D01*
X44164Y264609D01*
X44164Y268791D01*
X47121Y271749D01*
X51304Y271749D01*
X54261Y268791D01*
X54261Y264609D01*
X52051Y262398D01*
X51998Y262328D01*
X51938Y262264D01*
X51913Y262215D01*
X51880Y262171D01*
X51849Y262089D01*
X51809Y262011D01*
X51801Y261964D01*
X51778Y261905D01*
X51766Y261758D01*
X51753Y261680D01*
X51753Y260885D01*
X33001Y242132D01*
X32948Y242063D01*
X32888Y241999D01*
X32863Y241949D01*
X32830Y241905D01*
X32799Y241824D01*
X32759Y241746D01*
X32751Y241698D01*
X32728Y241640D01*
X32716Y241492D01*
X32703Y241415D01*
X32703Y181994D01*
X32707Y181965D01*
X32705Y181936D01*
X32727Y181825D01*
X32743Y181713D01*
X32755Y181686D01*
X32761Y181657D01*
X32813Y181557D01*
X32859Y181453D01*
X32878Y181431D01*
X32892Y181405D01*
X32970Y181323D01*
X33043Y181236D01*
X33067Y181220D01*
X33088Y181199D01*
X33185Y181142D01*
X33280Y181079D01*
X33308Y181070D01*
X33333Y181055D01*
X33442Y181027D01*
X33551Y180993D01*
X33580Y180992D01*
X33608Y180985D01*
X33721Y180989D01*
X33835Y180986D01*
X33863Y180993D01*
X33893Y180994D01*
X34000Y181029D01*
X34110Y181057D01*
X34135Y181072D01*
X34163Y181081D01*
X34227Y181127D01*
X34354Y181203D01*
X34397Y181248D01*
X34436Y181276D01*
X36009Y182849D01*
X40191Y182849D01*
X42402Y180638D01*
X42472Y180586D01*
X42536Y180526D01*
X42585Y180500D01*
X42629Y180467D01*
X42711Y180436D01*
X42789Y180396D01*
X42836Y180388D01*
X42895Y180366D01*
X43042Y180354D01*
X43120Y180341D01*
X52502Y180341D01*
X52589Y180353D01*
X52676Y180356D01*
X52729Y180373D01*
X52784Y180381D01*
X52863Y180416D01*
X52947Y180443D01*
X52986Y180471D01*
X53043Y180497D01*
X53156Y180593D01*
X53220Y180638D01*
X83554Y210972D01*
X83569Y210992D01*
X83586Y211007D01*
X83617Y211054D01*
X83666Y211106D01*
X83692Y211155D01*
X83725Y211199D01*
X83739Y211236D01*
X83744Y211243D01*
X83755Y211277D01*
X83756Y211281D01*
X83796Y211359D01*
X83804Y211406D01*
X83826Y211465D01*
X83838Y211613D01*
X83851Y211690D01*
X83851Y214816D01*
X86062Y217027D01*
X86114Y217097D01*
X86174Y217161D01*
X86200Y217210D01*
X86233Y217254D01*
X86264Y217336D01*
X86304Y217414D01*
X86312Y217461D01*
X86334Y217520D01*
X86340Y217588D01*
X86345Y217606D01*
X86347Y217671D01*
X86359Y217745D01*
X86359Y228715D01*
X86347Y228801D01*
X86344Y228889D01*
X86327Y228941D01*
X86319Y228996D01*
X86284Y229076D01*
X86257Y229159D01*
X86229Y229198D01*
X86203Y229255D01*
X86107Y229369D01*
X86062Y229432D01*
X64134Y251360D01*
X64134Y273165D01*
X64122Y273251D01*
X64119Y273339D01*
X64102Y273391D01*
X64094Y273446D01*
X64059Y273526D01*
X64032Y273609D01*
X64004Y273648D01*
X63978Y273705D01*
X63882Y273819D01*
X63837Y273882D01*
X47790Y289929D01*
X47721Y289981D01*
X47657Y290041D01*
X47607Y290067D01*
X47563Y290100D01*
X47482Y290131D01*
X47404Y290171D01*
X47356Y290179D01*
X47298Y290201D01*
X47150Y290213D01*
X47073Y290226D01*
X43946Y290226D01*
X40989Y293184D01*
X40989Y297366D01*
X43946Y300324D01*
X48129Y300324D01*
X50876Y297577D01*
X50923Y297542D01*
X50963Y297499D01*
X51036Y297456D01*
X51103Y297406D01*
X51158Y297385D01*
X51208Y297355D01*
X51290Y297335D01*
X51369Y297305D01*
X51427Y297300D01*
X51484Y297285D01*
X51568Y297288D01*
X51652Y297281D01*
X51709Y297292D01*
X51768Y297294D01*
X51848Y297320D01*
X51931Y297337D01*
X51983Y297364D01*
X52038Y297382D01*
X52095Y297422D01*
X52183Y297468D01*
X52255Y297537D01*
X52312Y297577D01*
X54312Y299577D01*
X54364Y299647D01*
X54424Y299711D01*
X54450Y299760D01*
X54483Y299804D01*
X54514Y299886D01*
X54554Y299964D01*
X54562Y300011D01*
X54584Y300070D01*
X54596Y300217D01*
X54609Y300295D01*
X54609Y301090D01*
X60860Y307341D01*
X65656Y307341D01*
X65685Y307345D01*
X65714Y307342D01*
X65825Y307365D01*
X65937Y307381D01*
X65964Y307393D01*
X65993Y307398D01*
X66093Y307451D01*
X66197Y307497D01*
X66219Y307516D01*
X66245Y307529D01*
X66327Y307607D01*
X66414Y307680D01*
X66430Y307705D01*
X66451Y307725D01*
X66508Y307823D01*
X66571Y307917D01*
X66580Y307945D01*
X66595Y307970D01*
X66623Y308080D01*
X66657Y308188D01*
X66658Y308218D01*
X66665Y308246D01*
X66661Y308359D01*
X66664Y308472D01*
X66657Y308501D01*
X66656Y308530D01*
X66621Y308638D01*
X66593Y308747D01*
X66578Y308773D01*
X66569Y308801D01*
X66523Y308864D01*
X66447Y308992D01*
X66402Y309035D01*
X66374Y309074D01*
X64801Y310646D01*
X64801Y314829D01*
X67759Y317786D01*
X71941Y317786D01*
X74152Y315576D01*
X74222Y315523D01*
X74286Y315463D01*
X74335Y315438D01*
X74379Y315405D01*
X74461Y315374D01*
X74539Y315334D01*
X74586Y315326D01*
X74645Y315303D01*
X74792Y315291D01*
X74870Y315278D01*
X118527Y315278D01*
X132716Y301090D01*
X132716Y293945D01*
X132728Y293858D01*
X132731Y293771D01*
X132748Y293718D01*
X132756Y293663D01*
X132791Y293583D01*
X132818Y293500D01*
X132846Y293461D01*
X132872Y293404D01*
X132947Y293315D01*
X132967Y293282D01*
X132989Y293261D01*
X133013Y293227D01*
X135224Y291016D01*
X135224Y286834D01*
X132266Y283876D01*
X128084Y283876D01*
X125126Y286834D01*
X125126Y291016D01*
X127337Y293227D01*
X127346Y293239D01*
X127350Y293242D01*
X127360Y293258D01*
X127389Y293297D01*
X127449Y293361D01*
X127475Y293410D01*
X127508Y293454D01*
X127539Y293536D01*
X127579Y293614D01*
X127587Y293661D01*
X127609Y293720D01*
X127621Y293867D01*
X127634Y293945D01*
X127634Y298565D01*
X127622Y298651D01*
X127619Y298739D01*
X127602Y298791D01*
X127594Y298846D01*
X127559Y298926D01*
X127532Y299009D01*
X127504Y299048D01*
X127478Y299105D01*
X127382Y299219D01*
X127337Y299282D01*
X116720Y309899D01*
X116650Y309952D01*
X116586Y310012D01*
X116537Y310037D01*
X116493Y310070D01*
X116411Y310101D01*
X116333Y310141D01*
X116286Y310149D01*
X116227Y310172D01*
X116079Y310184D01*
X116002Y310197D01*
X74870Y310197D01*
X74783Y310185D01*
X74696Y310182D01*
X74643Y310165D01*
X74588Y310157D01*
X74508Y310121D01*
X74425Y310094D01*
X74386Y310066D01*
X74329Y310041D01*
X74216Y309945D01*
X74152Y309899D01*
X73326Y309074D01*
X73309Y309050D01*
X73286Y309031D01*
X73224Y308937D01*
X73155Y308847D01*
X73145Y308819D01*
X73129Y308795D01*
X73095Y308687D01*
X73054Y308581D01*
X73052Y308552D01*
X73043Y308524D01*
X73040Y308410D01*
X73031Y308298D01*
X73036Y308269D01*
X73036Y308240D01*
X73064Y308130D01*
X73087Y308019D01*
X73100Y307993D01*
X73107Y307965D01*
X73165Y307867D01*
X73218Y307767D01*
X73238Y307745D01*
X73253Y307720D01*
X73335Y307643D01*
X73413Y307561D01*
X73439Y307546D01*
X73460Y307526D01*
X73561Y307474D01*
X73659Y307417D01*
X73687Y307410D01*
X73713Y307396D01*
X73791Y307383D01*
X73934Y307347D01*
X73997Y307349D01*
X74044Y307341D01*
X102652Y307341D01*
X115722Y294271D01*
X115792Y294219D01*
X115856Y294159D01*
X115905Y294133D01*
X115949Y294100D01*
X116031Y294069D01*
X116109Y294029D01*
X116156Y294021D01*
X116215Y293999D01*
X116363Y293987D01*
X116440Y293974D01*
X119566Y293974D01*
X122524Y291016D01*
X122524Y286834D01*
X119566Y283876D01*
X115384Y283876D01*
X112426Y286834D01*
X112426Y289960D01*
X112414Y290047D01*
X112411Y290134D01*
X112394Y290187D01*
X112386Y290242D01*
X112351Y290321D01*
X112324Y290405D01*
X112296Y290444D01*
X112270Y290501D01*
X112174Y290614D01*
X112129Y290678D01*
X100845Y301962D01*
X100775Y302014D01*
X100711Y302074D01*
X100662Y302100D01*
X100618Y302133D01*
X100536Y302164D01*
X100458Y302204D01*
X100411Y302212D01*
X100352Y302234D01*
X100204Y302246D01*
X100127Y302259D01*
X63385Y302259D01*
X63299Y302247D01*
X63211Y302244D01*
X63159Y302227D01*
X63104Y302219D01*
X63024Y302184D01*
X62941Y302157D01*
X62902Y302129D01*
X62845Y302103D01*
X62731Y302007D01*
X62668Y301962D01*
X60853Y300148D01*
X60818Y300101D01*
X60776Y300061D01*
X60733Y299988D01*
X60682Y299920D01*
X60661Y299866D01*
X60632Y299815D01*
X60611Y299734D01*
X60581Y299655D01*
X60576Y299596D01*
X60562Y299540D01*
X60565Y299455D01*
X60558Y299371D01*
X60569Y299314D01*
X60571Y299256D01*
X60597Y299175D01*
X60613Y299093D01*
X60640Y299041D01*
X60658Y298985D01*
X60698Y298929D01*
X60744Y298840D01*
X60813Y298768D01*
X60853Y298712D01*
X62199Y297366D01*
X62199Y293184D01*
X59241Y290226D01*
X57130Y290226D01*
X57101Y290222D01*
X57072Y290225D01*
X56961Y290202D01*
X56849Y290186D01*
X56822Y290174D01*
X56793Y290169D01*
X56693Y290117D01*
X56589Y290070D01*
X56567Y290051D01*
X56541Y290038D01*
X56459Y289960D01*
X56372Y289887D01*
X56356Y289862D01*
X56335Y289842D01*
X56278Y289744D01*
X56215Y289650D01*
X56206Y289622D01*
X56191Y289597D01*
X56163Y289487D01*
X56129Y289379D01*
X56128Y289349D01*
X56121Y289321D01*
X56125Y289208D01*
X56122Y289095D01*
X56129Y289066D01*
X56130Y289037D01*
X56165Y288929D01*
X56194Y288820D01*
X56209Y288794D01*
X56218Y288766D01*
X56263Y288703D01*
X56339Y288575D01*
X56385Y288532D01*
X56413Y288493D01*
X67430Y277476D01*
X67430Y277475D01*
X69216Y275690D01*
X69216Y253885D01*
X69228Y253799D01*
X69231Y253711D01*
X69248Y253659D01*
X69256Y253604D01*
X69291Y253524D01*
X69318Y253441D01*
X69346Y253402D01*
X69372Y253345D01*
X69468Y253231D01*
X69513Y253168D01*
X91441Y231240D01*
X91441Y217745D01*
X91448Y217691D01*
X91447Y217657D01*
X91454Y217633D01*
X91456Y217571D01*
X91473Y217518D01*
X91481Y217463D01*
X91516Y217383D01*
X91543Y217300D01*
X91571Y217261D01*
X91597Y217204D01*
X91693Y217091D01*
X91738Y217027D01*
X93949Y214816D01*
X93949Y211118D01*
X93953Y211089D01*
X93950Y211060D01*
X93973Y210949D01*
X93989Y210836D01*
X94001Y210810D01*
X94006Y210781D01*
X94058Y210680D01*
X94105Y210577D01*
X94124Y210555D01*
X94137Y210529D01*
X94215Y210446D01*
X94288Y210360D01*
X94313Y210344D01*
X94333Y210322D01*
X94431Y210265D01*
X94525Y210202D01*
X94553Y210194D01*
X94578Y210179D01*
X94688Y210151D01*
X94796Y210117D01*
X94826Y210116D01*
X94854Y210109D01*
X94967Y210112D01*
X95080Y210109D01*
X95109Y210117D01*
X95138Y210118D01*
X95246Y210153D01*
X95355Y210181D01*
X95381Y210196D01*
X95409Y210205D01*
X95472Y210251D01*
X95600Y210326D01*
X95643Y210372D01*
X95682Y210400D01*
X96254Y210972D01*
X96269Y210992D01*
X96286Y211007D01*
X96317Y211054D01*
X96366Y211106D01*
X96392Y211155D01*
X96425Y211199D01*
X96439Y211236D01*
X96444Y211243D01*
X96455Y211278D01*
X96456Y211281D01*
X96496Y211359D01*
X96504Y211406D01*
X96526Y211465D01*
X96538Y211613D01*
X96551Y211690D01*
X96551Y214816D01*
X99509Y217774D01*
X103691Y217774D01*
X106649Y214816D01*
X106649Y210634D01*
X103691Y207676D01*
X100565Y207676D01*
X100478Y207664D01*
X100391Y207661D01*
X100338Y207644D01*
X100283Y207636D01*
X100204Y207601D01*
X100120Y207574D01*
X100081Y207546D01*
X100024Y207520D01*
X99911Y207424D01*
X99847Y207379D01*
X59790Y167322D01*
X51057Y167322D01*
X50971Y167310D01*
X50883Y167307D01*
X50831Y167290D01*
X50776Y167282D01*
X50696Y167246D01*
X50613Y167219D01*
X50573Y167191D01*
X50516Y167166D01*
X50403Y167070D01*
X50339Y167024D01*
X48129Y164814D01*
X43946Y164814D01*
X40989Y167771D01*
X40989Y171736D01*
X40981Y171794D01*
X40982Y171852D01*
X40961Y171934D01*
X40949Y172018D01*
X40925Y172071D01*
X40910Y172127D01*
X40867Y172200D01*
X40833Y172277D01*
X40795Y172322D01*
X40765Y172372D01*
X40703Y172430D01*
X40649Y172494D01*
X40600Y172526D01*
X40558Y172566D01*
X40483Y172605D01*
X40412Y172652D01*
X40357Y172669D01*
X40305Y172696D01*
X40237Y172707D01*
X40141Y172737D01*
X40042Y172740D01*
X39974Y172751D01*
X36226Y172751D01*
X36169Y172743D01*
X36110Y172745D01*
X36029Y172723D01*
X35945Y172711D01*
X35892Y172688D01*
X35835Y172673D01*
X35763Y172630D01*
X35686Y172595D01*
X35641Y172557D01*
X35591Y172528D01*
X35533Y172466D01*
X35469Y172412D01*
X35436Y172363D01*
X35396Y172320D01*
X35358Y172245D01*
X35311Y172175D01*
X35293Y172119D01*
X35267Y172067D01*
X35255Y171999D01*
X35225Y171904D01*
X35223Y171804D01*
X35211Y171736D01*
X35211Y167771D01*
X32254Y164814D01*
X32102Y164814D01*
X32073Y164810D01*
X32044Y164812D01*
X31933Y164790D01*
X31821Y164774D01*
X31794Y164762D01*
X31765Y164756D01*
X31665Y164704D01*
X31561Y164658D01*
X31539Y164639D01*
X31513Y164625D01*
X31431Y164547D01*
X31344Y164474D01*
X31328Y164450D01*
X31307Y164429D01*
X31250Y164332D01*
X31187Y164237D01*
X31178Y164209D01*
X31163Y164184D01*
X31135Y164074D01*
X31101Y163966D01*
X31100Y163937D01*
X31093Y163909D01*
X31097Y163796D01*
X31094Y163682D01*
X31101Y163654D01*
X31102Y163624D01*
X31137Y163516D01*
X31165Y163407D01*
X31180Y163382D01*
X31189Y163354D01*
X31235Y163290D01*
X31311Y163163D01*
X31356Y163120D01*
X31384Y163081D01*
X32036Y162429D01*
X32036Y158246D01*
X29079Y155289D01*
X28927Y155289D01*
X28898Y155285D01*
X28869Y155287D01*
X28758Y155265D01*
X28646Y155249D01*
X28619Y155237D01*
X28590Y155231D01*
X28490Y155179D01*
X28386Y155133D01*
X28364Y155114D01*
X28338Y155100D01*
X28256Y155022D01*
X28169Y154949D01*
X28153Y154925D01*
X28132Y154904D01*
X28075Y154807D01*
X28012Y154712D01*
X28003Y154684D01*
X27988Y154659D01*
X27960Y154549D01*
X27926Y154441D01*
X27925Y154412D01*
X27918Y154384D01*
X27922Y154271D01*
X27919Y154157D01*
X27926Y154129D01*
X27927Y154099D01*
X27962Y153991D01*
X27990Y153882D01*
X28005Y153857D01*
X28014Y153829D01*
X28060Y153765D01*
X28136Y153638D01*
X28181Y153595D01*
X28209Y153556D01*
X28861Y152904D01*
X28861Y148721D01*
X25904Y145764D01*
X21721Y145764D01*
X18764Y148721D01*
X18764Y151848D01*
X18757Y151895D01*
X18757Y151899D01*
X18756Y151904D01*
X18752Y151934D01*
X18749Y152022D01*
X18732Y152074D01*
X18724Y152129D01*
X18688Y152209D01*
X18661Y152292D01*
X18633Y152331D01*
X18608Y152388D01*
X18512Y152502D01*
X18466Y152565D01*
X11747Y159285D01*
X11747Y291565D01*
X12116Y291935D01*
X12169Y292004D01*
X12229Y292068D01*
X12254Y292118D01*
X12287Y292162D01*
X12318Y292243D01*
X12358Y292321D01*
X12366Y292369D01*
X12389Y292427D01*
X12401Y292575D01*
X12414Y292652D01*
X12414Y294723D01*
X12402Y294809D01*
X12399Y294897D01*
X12382Y294949D01*
X12374Y295004D01*
X12338Y295084D01*
X12311Y295167D01*
X12283Y295206D01*
X12258Y295263D01*
X12162Y295377D01*
X12116Y295440D01*
X4274Y303283D01*
X4250Y303301D01*
X4231Y303323D01*
X4137Y303386D01*
X4047Y303454D01*
X4019Y303464D01*
X3995Y303481D01*
X3887Y303515D01*
X3781Y303555D01*
X3752Y303558D01*
X3724Y303566D01*
X3610Y303569D01*
X3498Y303579D01*
X3469Y303573D01*
X3440Y303574D01*
X3330Y303545D01*
X3219Y303523D01*
X3193Y303509D01*
X3165Y303502D01*
X3067Y303444D01*
X2967Y303392D01*
X2945Y303372D01*
X2920Y303357D01*
X2843Y303274D01*
X2761Y303196D01*
X2746Y303171D01*
X2726Y303149D01*
X2674Y303048D01*
X2617Y302951D01*
X2610Y302922D01*
X2596Y302896D01*
X2583Y302819D01*
X2547Y302675D01*
X2549Y302613D01*
X2541Y302565D01*
X2541Y3556D01*
X2549Y3498D01*
X2547Y3440D01*
X2569Y3358D01*
X2581Y3274D01*
X2604Y3221D01*
X2619Y3165D01*
X2662Y3092D01*
X2697Y3015D01*
X2735Y2970D01*
X2764Y2920D01*
X2826Y2862D01*
X2880Y2798D01*
X2929Y2766D01*
X2972Y2726D01*
X3047Y2687D01*
X3117Y2640D01*
X3173Y2623D01*
X3225Y2596D01*
X3293Y2585D01*
X3388Y2555D01*
X3488Y2552D01*
X3556Y2541D01*
X218569Y2541D01*
X218627Y2549D01*
G37*
G36*
X3559Y340954D02*
X3559Y340954D01*
X3672Y340951D01*
X3701Y340959D01*
X3730Y340960D01*
X3838Y340995D01*
X3947Y341023D01*
X3973Y341038D01*
X4001Y341047D01*
X4064Y341093D01*
X4192Y341168D01*
X4235Y341214D01*
X4274Y341242D01*
X52358Y389326D01*
X52376Y389350D01*
X52398Y389369D01*
X52461Y389463D01*
X52529Y389553D01*
X52539Y389581D01*
X52556Y389605D01*
X52590Y389713D01*
X52630Y389819D01*
X52633Y389848D01*
X52641Y389876D01*
X52644Y389990D01*
X52654Y390102D01*
X52648Y390131D01*
X52649Y390160D01*
X52620Y390270D01*
X52598Y390381D01*
X52584Y390407D01*
X52577Y390435D01*
X52519Y390533D01*
X52467Y390633D01*
X52447Y390655D01*
X52432Y390680D01*
X52349Y390757D01*
X52271Y390839D01*
X52246Y390854D01*
X52224Y390874D01*
X52123Y390926D01*
X52026Y390983D01*
X51997Y390990D01*
X51971Y391004D01*
X51894Y391017D01*
X51750Y391053D01*
X51688Y391051D01*
X51640Y391059D01*
X3556Y391059D01*
X3498Y391051D01*
X3440Y391053D01*
X3358Y391031D01*
X3274Y391019D01*
X3221Y390996D01*
X3165Y390981D01*
X3092Y390938D01*
X3015Y390903D01*
X2970Y390865D01*
X2920Y390836D01*
X2862Y390774D01*
X2798Y390720D01*
X2766Y390671D01*
X2726Y390628D01*
X2687Y390553D01*
X2640Y390483D01*
X2623Y390427D01*
X2596Y390375D01*
X2585Y390307D01*
X2555Y390212D01*
X2552Y390112D01*
X2541Y390044D01*
X2541Y382806D01*
X2545Y382777D01*
X2542Y382747D01*
X2565Y382636D01*
X2581Y382524D01*
X2593Y382497D01*
X2598Y382469D01*
X2651Y382368D01*
X2697Y382265D01*
X2716Y382242D01*
X2729Y382216D01*
X2807Y382134D01*
X2880Y382048D01*
X2905Y382031D01*
X2925Y382010D01*
X3023Y381953D01*
X3117Y381890D01*
X3145Y381881D01*
X3170Y381866D01*
X3280Y381839D01*
X3388Y381804D01*
X3418Y381804D01*
X3446Y381796D01*
X3559Y381800D01*
X3672Y381797D01*
X3701Y381804D01*
X3730Y381805D01*
X3838Y381840D01*
X3947Y381869D01*
X3973Y381884D01*
X4001Y381893D01*
X4065Y381939D01*
X4192Y382014D01*
X4235Y382060D01*
X4274Y382088D01*
X4916Y382730D01*
X6338Y383680D01*
X7918Y384335D01*
X8651Y384480D01*
X8651Y376772D01*
X8659Y376714D01*
X8657Y376655D01*
X8679Y376574D01*
X8691Y376490D01*
X8714Y376437D01*
X8729Y376380D01*
X8772Y376308D01*
X8807Y376231D01*
X8845Y376186D01*
X8874Y376136D01*
X8936Y376078D01*
X8990Y376014D01*
X9026Y375990D01*
X8972Y375933D01*
X8908Y375879D01*
X8876Y375830D01*
X8836Y375787D01*
X8797Y375712D01*
X8750Y375642D01*
X8733Y375586D01*
X8706Y375534D01*
X8695Y375466D01*
X8665Y375371D01*
X8662Y375271D01*
X8651Y375203D01*
X8651Y368972D01*
X8659Y368914D01*
X8657Y368855D01*
X8679Y368774D01*
X8691Y368690D01*
X8714Y368637D01*
X8729Y368580D01*
X8772Y368508D01*
X8807Y368431D01*
X8845Y368386D01*
X8874Y368336D01*
X8936Y368278D01*
X8990Y368214D01*
X9026Y368190D01*
X8972Y368133D01*
X8908Y368079D01*
X8876Y368030D01*
X8836Y367987D01*
X8797Y367912D01*
X8750Y367842D01*
X8733Y367786D01*
X8706Y367734D01*
X8695Y367666D01*
X8665Y367571D01*
X8662Y367471D01*
X8651Y367403D01*
X8651Y359695D01*
X7918Y359840D01*
X6338Y360495D01*
X4916Y361445D01*
X4274Y362087D01*
X4250Y362105D01*
X4231Y362127D01*
X4137Y362190D01*
X4047Y362258D01*
X4019Y362269D01*
X3995Y362285D01*
X3887Y362319D01*
X3781Y362359D01*
X3752Y362362D01*
X3724Y362371D01*
X3610Y362374D01*
X3498Y362383D01*
X3469Y362377D01*
X3440Y362378D01*
X3330Y362349D01*
X3219Y362327D01*
X3193Y362313D01*
X3165Y362306D01*
X3067Y362248D01*
X2967Y362196D01*
X2945Y362176D01*
X2920Y362161D01*
X2843Y362078D01*
X2761Y362000D01*
X2746Y361975D01*
X2726Y361954D01*
X2674Y361853D01*
X2617Y361755D01*
X2610Y361727D01*
X2596Y361700D01*
X2583Y361623D01*
X2547Y361479D01*
X2549Y361417D01*
X2541Y361369D01*
X2541Y341960D01*
X2545Y341931D01*
X2542Y341902D01*
X2565Y341791D01*
X2581Y341678D01*
X2593Y341652D01*
X2598Y341623D01*
X2650Y341522D01*
X2697Y341419D01*
X2716Y341397D01*
X2729Y341371D01*
X2807Y341288D01*
X2880Y341202D01*
X2905Y341186D01*
X2925Y341164D01*
X3023Y341107D01*
X3117Y341044D01*
X3145Y341036D01*
X3170Y341021D01*
X3280Y340993D01*
X3388Y340959D01*
X3418Y340958D01*
X3446Y340951D01*
X3559Y340954D01*
G37*
%LPC*%
G36*
X205871Y161639D02*
X205871Y161639D01*
X202914Y164596D01*
X202914Y167723D01*
X202902Y167809D01*
X202899Y167897D01*
X202882Y167949D01*
X202874Y168004D01*
X202838Y168084D01*
X202811Y168167D01*
X202783Y168206D01*
X202758Y168263D01*
X202662Y168377D01*
X202616Y168440D01*
X196095Y174962D01*
X196025Y175014D01*
X195961Y175074D01*
X195912Y175100D01*
X195868Y175133D01*
X195786Y175164D01*
X195708Y175204D01*
X195661Y175212D01*
X195602Y175234D01*
X195454Y175246D01*
X195377Y175259D01*
X124082Y175259D01*
X123996Y175247D01*
X123908Y175244D01*
X123856Y175227D01*
X123801Y175219D01*
X123721Y175184D01*
X123638Y175157D01*
X123598Y175129D01*
X123541Y175103D01*
X123428Y175007D01*
X123364Y174962D01*
X121154Y172751D01*
X116971Y172751D01*
X114014Y175709D01*
X114014Y179891D01*
X116971Y182849D01*
X121154Y182849D01*
X123364Y180638D01*
X123434Y180586D01*
X123498Y180526D01*
X123547Y180500D01*
X123592Y180467D01*
X123673Y180436D01*
X123751Y180396D01*
X123799Y180388D01*
X123857Y180366D01*
X124005Y180354D01*
X124082Y180341D01*
X197902Y180341D01*
X199688Y178555D01*
X203689Y174555D01*
X203712Y174537D01*
X203731Y174514D01*
X203825Y174452D01*
X203916Y174384D01*
X203943Y174373D01*
X203968Y174357D01*
X204076Y174323D01*
X204181Y174282D01*
X204211Y174280D01*
X204239Y174271D01*
X204352Y174268D01*
X204465Y174259D01*
X204493Y174265D01*
X204523Y174264D01*
X204632Y174292D01*
X204744Y174315D01*
X204770Y174328D01*
X204798Y174336D01*
X204895Y174393D01*
X204996Y174446D01*
X205017Y174466D01*
X205042Y174481D01*
X205120Y174563D01*
X205202Y174641D01*
X205217Y174667D01*
X205237Y174688D01*
X205288Y174789D01*
X205346Y174887D01*
X205353Y174915D01*
X205366Y174941D01*
X205379Y175019D01*
X205416Y175162D01*
X205414Y175225D01*
X205422Y175272D01*
X205422Y217602D01*
X205410Y217689D01*
X205407Y217776D01*
X205390Y217829D01*
X205382Y217884D01*
X205346Y217963D01*
X205319Y218047D01*
X205291Y218086D01*
X205266Y218143D01*
X205170Y218256D01*
X205124Y218320D01*
X177965Y245479D01*
X177896Y245531D01*
X177832Y245591D01*
X177782Y245617D01*
X177738Y245650D01*
X177657Y245681D01*
X177579Y245721D01*
X177531Y245729D01*
X177473Y245751D01*
X177325Y245763D01*
X177248Y245776D01*
X174121Y245776D01*
X171164Y248734D01*
X171164Y252916D01*
X174121Y255874D01*
X178304Y255874D01*
X181261Y252916D01*
X181261Y249790D01*
X181273Y249703D01*
X181276Y249616D01*
X181293Y249563D01*
X181301Y249508D01*
X181337Y249429D01*
X181364Y249345D01*
X181392Y249306D01*
X181417Y249249D01*
X181513Y249136D01*
X181559Y249072D01*
X210503Y220127D01*
X210503Y171707D01*
X210515Y171621D01*
X210518Y171533D01*
X210535Y171481D01*
X210543Y171426D01*
X210579Y171346D01*
X210606Y171263D01*
X210634Y171223D01*
X210659Y171166D01*
X210755Y171053D01*
X210801Y170989D01*
X213011Y168779D01*
X213011Y164596D01*
X210054Y161639D01*
X205871Y161639D01*
G37*
%LPD*%
%LPC*%
G36*
X74109Y164814D02*
X74109Y164814D01*
X71151Y167771D01*
X71151Y171954D01*
X74109Y174911D01*
X77235Y174911D01*
X77322Y174923D01*
X77409Y174926D01*
X77462Y174943D01*
X77517Y174951D01*
X77596Y174987D01*
X77680Y175014D01*
X77719Y175042D01*
X77776Y175067D01*
X77889Y175163D01*
X77953Y175209D01*
X109874Y207130D01*
X109927Y207200D01*
X109987Y207264D01*
X110012Y207313D01*
X110045Y207357D01*
X110076Y207439D01*
X110116Y207517D01*
X110124Y207564D01*
X110147Y207623D01*
X110159Y207771D01*
X110172Y207848D01*
X110172Y228715D01*
X110160Y228801D01*
X110157Y228889D01*
X110140Y228941D01*
X110132Y228996D01*
X110096Y229076D01*
X110069Y229159D01*
X110041Y229198D01*
X110016Y229255D01*
X109920Y229369D01*
X109874Y229432D01*
X97003Y242304D01*
X96933Y242356D01*
X96869Y242416D01*
X96820Y242442D01*
X96776Y242475D01*
X96694Y242506D01*
X96616Y242546D01*
X96569Y242554D01*
X96510Y242576D01*
X96362Y242588D01*
X96285Y242601D01*
X93159Y242601D01*
X90201Y245559D01*
X90201Y249741D01*
X93159Y252699D01*
X97341Y252699D01*
X100299Y249741D01*
X100299Y246615D01*
X100311Y246528D01*
X100314Y246441D01*
X100331Y246388D01*
X100339Y246333D01*
X100374Y246254D01*
X100401Y246170D01*
X100429Y246131D01*
X100455Y246074D01*
X100551Y245961D01*
X100596Y245897D01*
X115253Y231240D01*
X115253Y205323D01*
X81546Y171615D01*
X81494Y171546D01*
X81434Y171482D01*
X81408Y171432D01*
X81375Y171388D01*
X81344Y171307D01*
X81304Y171229D01*
X81296Y171181D01*
X81274Y171123D01*
X81262Y170975D01*
X81249Y170898D01*
X81249Y167771D01*
X78291Y164814D01*
X74109Y164814D01*
G37*
%LPD*%
%LPC*%
G36*
X178884Y196564D02*
X178884Y196564D01*
X175926Y199521D01*
X175926Y201929D01*
X175914Y202016D01*
X175911Y202103D01*
X175894Y202156D01*
X175886Y202211D01*
X175851Y202290D01*
X175824Y202374D01*
X175796Y202413D01*
X175770Y202470D01*
X175674Y202583D01*
X175629Y202647D01*
X167310Y210966D01*
X167240Y211019D01*
X167176Y211079D01*
X167126Y211104D01*
X167082Y211137D01*
X167001Y211168D01*
X166923Y211208D01*
X166875Y211216D01*
X166817Y211239D01*
X166669Y211251D01*
X166592Y211264D01*
X145799Y211264D01*
X145713Y211252D01*
X145625Y211249D01*
X145573Y211232D01*
X145518Y211224D01*
X145438Y211188D01*
X145355Y211161D01*
X145315Y211133D01*
X145258Y211108D01*
X145145Y211012D01*
X145081Y210966D01*
X143379Y209264D01*
X139196Y209264D01*
X136239Y212221D01*
X136239Y216404D01*
X139196Y219361D01*
X143379Y219361D01*
X145081Y217659D01*
X145151Y217606D01*
X145215Y217546D01*
X145264Y217521D01*
X145309Y217488D01*
X145390Y217457D01*
X145468Y217417D01*
X145516Y217409D01*
X145574Y217386D01*
X145722Y217374D01*
X145799Y217361D01*
X169538Y217361D01*
X179940Y206959D01*
X180010Y206906D01*
X180074Y206846D01*
X180124Y206821D01*
X180168Y206788D01*
X180249Y206757D01*
X180327Y206717D01*
X180375Y206709D01*
X180433Y206686D01*
X180581Y206674D01*
X180658Y206661D01*
X183066Y206661D01*
X186024Y203704D01*
X186024Y199521D01*
X183066Y196564D01*
X178884Y196564D01*
G37*
%LPD*%
%LPC*%
G36*
X101096Y256889D02*
X101096Y256889D01*
X98131Y259854D01*
X98127Y259884D01*
X98124Y259972D01*
X98107Y260024D01*
X98099Y260079D01*
X98063Y260159D01*
X98036Y260242D01*
X98008Y260281D01*
X97983Y260338D01*
X97887Y260452D01*
X97841Y260515D01*
X71603Y286754D01*
X71533Y286806D01*
X71469Y286866D01*
X71420Y286892D01*
X71376Y286925D01*
X71294Y286956D01*
X71216Y286996D01*
X71169Y287004D01*
X71110Y287026D01*
X70962Y287038D01*
X70885Y287051D01*
X67759Y287051D01*
X64801Y290009D01*
X64801Y294191D01*
X67759Y297149D01*
X71941Y297149D01*
X74899Y294191D01*
X74899Y291065D01*
X74911Y290978D01*
X74914Y290891D01*
X74931Y290838D01*
X74939Y290783D01*
X74974Y290704D01*
X75001Y290620D01*
X75029Y290581D01*
X75055Y290524D01*
X75151Y290411D01*
X75196Y290347D01*
X99109Y266434D01*
X99155Y266399D01*
X99196Y266357D01*
X99268Y266314D01*
X99336Y266264D01*
X99390Y266243D01*
X99441Y266213D01*
X99523Y266192D01*
X99602Y266162D01*
X99660Y266157D01*
X99716Y266143D01*
X99801Y266146D01*
X99885Y266139D01*
X99942Y266150D01*
X100001Y266152D01*
X100081Y266178D01*
X100164Y266195D01*
X100215Y266222D01*
X100271Y266240D01*
X100327Y266280D01*
X100416Y266326D01*
X100488Y266394D01*
X100544Y266434D01*
X101096Y266986D01*
X105279Y266986D01*
X108236Y264029D01*
X108236Y259846D01*
X105279Y256889D01*
X101096Y256889D01*
G37*
%LPD*%
%LPC*%
G36*
X100987Y359155D02*
X100987Y359155D01*
X95630Y364512D01*
X95630Y372088D01*
X100987Y377445D01*
X108563Y377445D01*
X113920Y372088D01*
X113920Y364512D01*
X108563Y359155D01*
X100987Y359155D01*
G37*
%LPD*%
%LPC*%
G36*
X177187Y359155D02*
X177187Y359155D01*
X171830Y364512D01*
X171830Y372088D01*
X177187Y377445D01*
X184763Y377445D01*
X190120Y372088D01*
X190120Y364512D01*
X184763Y359155D01*
X177187Y359155D01*
G37*
%LPD*%
%LPC*%
G36*
X177187Y333755D02*
X177187Y333755D01*
X171830Y339112D01*
X171830Y346688D01*
X177187Y352045D01*
X184763Y352045D01*
X190120Y346688D01*
X190120Y339112D01*
X184763Y333755D01*
X177187Y333755D01*
G37*
%LPD*%
%LPC*%
G36*
X100987Y333755D02*
X100987Y333755D01*
X95630Y339112D01*
X95630Y346688D01*
X100987Y352045D01*
X108563Y352045D01*
X113920Y346688D01*
X113920Y339112D01*
X108563Y333755D01*
X100987Y333755D01*
G37*
%LPD*%
%LPC*%
G36*
X12249Y367403D02*
X12249Y367403D01*
X12241Y367461D01*
X12243Y367520D01*
X12221Y367601D01*
X12209Y367685D01*
X12186Y367738D01*
X12171Y367795D01*
X12128Y367867D01*
X12093Y367944D01*
X12055Y367989D01*
X12026Y368039D01*
X11964Y368097D01*
X11910Y368161D01*
X11874Y368185D01*
X11928Y368242D01*
X11992Y368296D01*
X12024Y368345D01*
X12064Y368388D01*
X12103Y368463D01*
X12150Y368533D01*
X12167Y368589D01*
X12194Y368641D01*
X12205Y368709D01*
X12235Y368804D01*
X12238Y368904D01*
X12249Y368972D01*
X12249Y375203D01*
X12243Y375251D01*
X12243Y375254D01*
X12242Y375258D01*
X12241Y375261D01*
X12243Y375320D01*
X12221Y375401D01*
X12209Y375485D01*
X12186Y375538D01*
X12171Y375595D01*
X12128Y375667D01*
X12093Y375744D01*
X12055Y375789D01*
X12026Y375839D01*
X11964Y375897D01*
X11910Y375961D01*
X11874Y375985D01*
X11928Y376042D01*
X11992Y376096D01*
X12024Y376145D01*
X12064Y376188D01*
X12103Y376263D01*
X12150Y376333D01*
X12167Y376389D01*
X12194Y376441D01*
X12205Y376509D01*
X12235Y376604D01*
X12238Y376704D01*
X12249Y376772D01*
X12249Y384480D01*
X12982Y384335D01*
X14562Y383680D01*
X15984Y382730D01*
X17193Y381521D01*
X18143Y380099D01*
X18797Y378520D01*
X18943Y377787D01*
X15055Y377787D01*
X14928Y377769D01*
X14800Y377754D01*
X14788Y377749D01*
X14774Y377747D01*
X14657Y377694D01*
X14538Y377645D01*
X14527Y377636D01*
X14514Y377631D01*
X14416Y377547D01*
X14316Y377467D01*
X14308Y377456D01*
X14297Y377447D01*
X14226Y377340D01*
X14152Y377235D01*
X14148Y377222D01*
X14140Y377210D01*
X14101Y377087D01*
X14059Y376966D01*
X14058Y376953D01*
X14054Y376939D01*
X14051Y376811D01*
X14044Y376683D01*
X14047Y376669D01*
X14047Y376655D01*
X14079Y376531D01*
X14108Y376406D01*
X14115Y376394D01*
X14119Y376380D01*
X14184Y376270D01*
X14247Y376157D01*
X14256Y376149D01*
X14264Y376136D01*
X14471Y375941D01*
X14483Y375935D01*
X14491Y375927D01*
X15984Y374930D01*
X16428Y374486D01*
X16498Y374433D01*
X16562Y374373D01*
X16611Y374348D01*
X16656Y374315D01*
X16737Y374284D01*
X16815Y374244D01*
X16863Y374236D01*
X16921Y374213D01*
X17069Y374201D01*
X17146Y374188D01*
X18943Y374188D01*
X18797Y373455D01*
X18391Y372476D01*
X18370Y372391D01*
X18339Y372309D01*
X18336Y372280D01*
X18330Y372260D01*
X18329Y372235D01*
X18321Y372201D01*
X18323Y372113D01*
X18316Y372026D01*
X18323Y371995D01*
X18323Y371975D01*
X18328Y371956D01*
X18329Y371917D01*
X18374Y371775D01*
X18391Y371699D01*
X18797Y370720D01*
X18943Y369987D01*
X17146Y369987D01*
X17060Y369975D01*
X16972Y369972D01*
X16919Y369955D01*
X16865Y369947D01*
X16785Y369911D01*
X16702Y369884D01*
X16662Y369856D01*
X16605Y369831D01*
X16492Y369735D01*
X16428Y369689D01*
X15984Y369245D01*
X14491Y368248D01*
X14395Y368162D01*
X14297Y368079D01*
X14290Y368067D01*
X14279Y368058D01*
X14211Y367949D01*
X14140Y367842D01*
X14136Y367829D01*
X14128Y367817D01*
X14093Y367694D01*
X14054Y367571D01*
X14054Y367557D01*
X14050Y367544D01*
X14050Y367416D01*
X14047Y367287D01*
X14050Y367274D01*
X14050Y367260D01*
X14086Y367136D01*
X14119Y367012D01*
X14126Y367000D01*
X14130Y366987D01*
X14198Y366878D01*
X14264Y366768D01*
X14274Y366758D01*
X14281Y366746D01*
X14377Y366661D01*
X14471Y366573D01*
X14484Y366567D01*
X14494Y366558D01*
X14610Y366502D01*
X14724Y366444D01*
X14737Y366442D01*
X14750Y366435D01*
X15031Y366388D01*
X15044Y366390D01*
X15055Y366388D01*
X18943Y366388D01*
X18797Y365655D01*
X18143Y364076D01*
X17193Y362654D01*
X15984Y361445D01*
X14562Y360495D01*
X12982Y359840D01*
X12249Y359695D01*
X12249Y367403D01*
G37*
%LPD*%
%LPC*%
G36*
X132206Y344931D02*
X132206Y344931D01*
X132206Y353061D01*
X134384Y353061D01*
X140336Y347109D01*
X140336Y344931D01*
X132206Y344931D01*
G37*
%LPD*%
%LPC*%
G36*
X196214Y370331D02*
X196214Y370331D01*
X196214Y372509D01*
X202166Y378461D01*
X204344Y378461D01*
X204344Y370331D01*
X196214Y370331D01*
G37*
%LPD*%
%LPC*%
G36*
X120014Y344931D02*
X120014Y344931D01*
X120014Y347109D01*
X125966Y353061D01*
X128144Y353061D01*
X128144Y344931D01*
X120014Y344931D01*
G37*
%LPD*%
%LPC*%
G36*
X132206Y332739D02*
X132206Y332739D01*
X132206Y340869D01*
X140336Y340869D01*
X140336Y338691D01*
X134384Y332739D01*
X132206Y332739D01*
G37*
%LPD*%
%LPC*%
G36*
X202166Y358139D02*
X202166Y358139D01*
X196214Y364091D01*
X196214Y366269D01*
X204344Y366269D01*
X204344Y358139D01*
X202166Y358139D01*
G37*
%LPD*%
%LPC*%
G36*
X125966Y332739D02*
X125966Y332739D01*
X120014Y338691D01*
X120014Y340869D01*
X128144Y340869D01*
X128144Y332739D01*
X125966Y332739D01*
G37*
%LPD*%
%LPC*%
G36*
X130174Y342899D02*
X130174Y342899D01*
X130174Y342901D01*
X130176Y342901D01*
X130176Y342899D01*
X130174Y342899D01*
G37*
%LPD*%
D10*
X0Y0D02*
X222125Y0D01*
X222125Y393600D01*
X0Y393600D01*
X0Y0D01*
D11*
X104775Y368300D03*
X130175Y368300D03*
X155575Y368300D03*
X180975Y368300D03*
X206375Y368300D03*
X104775Y342900D03*
X130175Y342900D03*
X155575Y342900D03*
X180975Y342900D03*
X206375Y342900D03*
D12*
X10450Y368188D03*
X78450Y368188D03*
X78450Y375988D03*
X10450Y375988D03*
D13*
X7938Y7938D03*
X41275Y128588D03*
X74613Y128588D03*
X23813Y266700D03*
X157163Y250825D03*
X211138Y250825D03*
X77788Y212725D03*
X7938Y211138D03*
X50800Y312738D03*
X57150Y128588D03*
X214313Y85725D03*
X49213Y246063D03*
X77788Y261938D03*
X90488Y292100D03*
X98425Y115888D03*
X117475Y261938D03*
X36513Y211138D03*
X7938Y192088D03*
X206375Y327025D03*
X160338Y92075D03*
X82550Y98425D03*
X117475Y92075D03*
X150813Y298450D03*
X17463Y96838D03*
X68263Y161925D03*
X142875Y322263D03*
X17463Y328613D03*
D14*
X139700Y325438D02*
X142875Y322263D01*
X139700Y325438D02*
X20638Y325438D01*
X17463Y328613D01*
D13*
X180975Y201613D03*
X141288Y214313D03*
D14*
X168275Y214313D01*
X180975Y201613D01*
X185738Y322263D02*
X206375Y342900D01*
X185738Y322263D02*
X142875Y322263D01*
D13*
X23813Y150813D03*
D15*
X142875Y355600D02*
X142875Y385763D01*
X142875Y355600D02*
X155575Y342900D01*
D13*
X17463Y293688D03*
X198438Y269875D03*
D15*
X218569Y290007D01*
X218569Y379413D01*
X14288Y160338D02*
X23813Y150813D01*
X14288Y160338D02*
X14288Y290513D01*
X17463Y293688D01*
X4763Y306388D01*
X4763Y338138D01*
X55563Y388938D01*
X139700Y388938D01*
X142875Y385763D01*
X146050Y388938D01*
X209044Y388938D02*
X218569Y379413D01*
X209044Y388938D02*
X146050Y388938D01*
D13*
X30163Y169863D03*
D15*
X30163Y242888D01*
D13*
X49213Y266700D03*
D15*
X49213Y261938D01*
X30163Y242888D01*
D13*
X26988Y160338D03*
D15*
X22225Y165100D01*
X22225Y252413D02*
X36513Y266700D01*
X22225Y252413D02*
X22225Y165100D01*
D13*
X36513Y266700D03*
X122238Y192088D03*
D15*
X128588Y198438D01*
X128588Y236538D01*
X211138Y319088D01*
D13*
X211138Y319088D03*
X119063Y177800D03*
X207963Y166688D03*
D15*
X196850Y177800D01*
X119063Y177800D01*
D13*
X176213Y250825D03*
D15*
X207963Y219075D01*
X207963Y166688D01*
D13*
X109538Y247650D03*
X76200Y153988D03*
D15*
X120650Y236538D02*
X109538Y247650D01*
X120650Y236538D02*
X120650Y200025D01*
X76200Y155575D01*
X76200Y153988D01*
D13*
X88900Y212725D03*
X38100Y177800D03*
D15*
X53975Y177800D01*
X88900Y212725D01*
D13*
X46038Y295275D03*
D15*
X66675Y274638D01*
X88900Y230188D02*
X88900Y212725D01*
X88900Y230188D02*
X66675Y252413D01*
X66675Y274638D01*
D13*
X101600Y212725D03*
X46038Y169863D03*
D15*
X58738Y169863D01*
X101600Y212725D01*
D13*
X95250Y247650D03*
X76200Y169863D03*
D15*
X112713Y230188D02*
X95250Y247650D01*
X112713Y230188D02*
X112713Y206375D01*
X76200Y169863D01*
D13*
X117475Y288925D03*
X57150Y295275D03*
D15*
X101600Y304800D02*
X117475Y288925D01*
X101600Y304800D02*
X61913Y304800D01*
X57150Y300038D01*
X57150Y295275D01*
D13*
X103188Y261938D03*
X69850Y292100D03*
D15*
X100013Y261938D02*
X103188Y261938D01*
X100013Y261938D02*
X69850Y292100D01*
D13*
X69850Y312738D03*
X130175Y288925D03*
D15*
X117475Y312738D02*
X69850Y312738D01*
X130175Y300038D02*
X130175Y288925D01*
X130175Y300038D02*
X117475Y312738D01*
M02*
