G04 EAGLE Gerber RS-274X export*
G75*
%MOMM*%
%FSLAX34Y34*%
%LPD*%
%INTop Paste*%
%IPPOS*%
%AMOC8*
5,1,8,0,0,1.08239X$1,22.5*%
G01*
%ADD10R,0.558800X1.270000*%
%ADD11R,1.270000X0.558800*%
%ADD12R,1.200000X1.200000*%
%ADD13R,0.500000X0.900000*%
%ADD14R,1.000000X1.100000*%
%ADD15R,2.200000X2.600000*%
%ADD16R,0.584200X1.524000*%
%ADD17R,2.540000X0.889000*%
%ADD18R,1.600000X2.300000*%
%ADD19R,0.400000X1.800000*%
%ADD20R,1.400000X1.400000*%
%ADD21R,1.400000X1.000000*%
%ADD22R,1.300000X1.100000*%
%ADD23R,1.100000X1.000000*%
%ADD24R,1.800000X0.400000*%
%ADD25R,1.200000X2.000000*%
%ADD26R,3.800000X2.300000*%
%ADD27R,2.200000X0.600000*%
%ADD28R,1.700000X0.800000*%
%ADD29R,1.000000X1.400000*%
%ADD30R,1.300000X1.500000*%
%ADD31R,0.900000X0.500000*%
%ADD32R,0.889000X2.540000*%
%ADD33R,2.300000X1.600000*%
%ADD34R,1.100000X1.300000*%
%ADD35R,1.200000X1.500000*%
%ADD36R,1.500000X1.200000*%
%ADD37R,0.600000X2.200000*%
%ADD38R,1.200000X1.800000*%
%ADD39R,2.300000X1.500000*%
%ADD40R,1.300000X1.400000*%


D10*
X25975Y111062D03*
X33975Y111062D03*
X41975Y111062D03*
X49975Y111062D03*
X57975Y111062D03*
X65975Y111062D03*
X73975Y111062D03*
X81975Y111062D03*
D11*
X96901Y125988D03*
X96901Y133988D03*
X96901Y141988D03*
X96901Y149988D03*
X96901Y157988D03*
X96901Y165988D03*
X96901Y173988D03*
X96901Y181988D03*
D10*
X81975Y196914D03*
X73975Y196914D03*
X65975Y196914D03*
X57975Y196914D03*
X49975Y196914D03*
X41975Y196914D03*
X33975Y196914D03*
X25975Y196914D03*
D11*
X11049Y181988D03*
X11049Y173988D03*
X11049Y165988D03*
X11049Y157988D03*
X11049Y149988D03*
X11049Y141988D03*
X11049Y133988D03*
X11049Y125988D03*
D12*
X210525Y69850D03*
X189525Y69850D03*
X210525Y47625D03*
X189525Y47625D03*
X210525Y25400D03*
X189525Y25400D03*
D13*
X210438Y120713D03*
X202438Y120713D03*
X194438Y120713D03*
X186438Y120713D03*
X186438Y104713D03*
X194438Y104713D03*
X202438Y104713D03*
X210438Y104713D03*
D14*
X114300Y104213D03*
X114300Y121213D03*
X168275Y104213D03*
X168275Y121213D03*
X63500Y276788D03*
X63500Y259788D03*
D13*
X18163Y304738D03*
X26163Y304738D03*
X34163Y304738D03*
X42163Y304738D03*
X42163Y320738D03*
X34163Y320738D03*
X26163Y320738D03*
X18163Y320738D03*
D15*
X157163Y226875D03*
X157163Y276875D03*
D14*
X63500Y243450D03*
X63500Y226450D03*
D16*
X23813Y226413D03*
X23813Y278413D03*
X11113Y226413D03*
X36513Y226413D03*
X49213Y226413D03*
X11113Y278413D03*
X36513Y278413D03*
X49213Y278413D03*
D17*
X139100Y179388D03*
X191100Y179388D03*
X139100Y192088D03*
X139100Y166688D03*
X139100Y153988D03*
X191100Y192088D03*
X191100Y166688D03*
X191100Y153988D03*
D18*
X23813Y79125D03*
X23813Y16125D03*
X63500Y79125D03*
X63500Y16125D03*
X103188Y79125D03*
X103188Y16125D03*
X142875Y16125D03*
X142875Y79125D03*
D16*
X103188Y278413D03*
X103188Y226413D03*
X115888Y278413D03*
X90488Y278413D03*
X77788Y278413D03*
X115888Y226413D03*
X90488Y226413D03*
X77788Y226413D03*
D19*
X37950Y344388D03*
X31450Y344388D03*
X50950Y344388D03*
X57450Y344388D03*
X44450Y344388D03*
D20*
X11950Y346888D03*
X76450Y346888D03*
D14*
X130175Y276788D03*
X130175Y259788D03*
D21*
X142763Y312738D03*
X120763Y303238D03*
X120763Y322238D03*
D14*
X130175Y228038D03*
X130175Y245038D03*
D13*
X102488Y320738D03*
X94488Y320738D03*
X86488Y320738D03*
X78488Y320738D03*
X78488Y304738D03*
X86488Y304738D03*
X94488Y304738D03*
X102488Y304738D03*
D18*
X198438Y283913D03*
X198438Y220913D03*
D22*
X129788Y121713D03*
X152788Y103713D03*
X152788Y121713D03*
X129788Y103713D03*
D12*
X165713Y306388D03*
X186713Y306388D03*
D14*
X184713Y320675D03*
X167713Y320675D03*
D12*
X428963Y476550D03*
X428963Y450550D03*
X367963Y450550D03*
X367963Y476550D03*
D23*
X430775Y419100D03*
X413775Y419100D03*
X419663Y220663D03*
X402663Y220663D03*
D24*
X328713Y349100D03*
X328713Y342600D03*
X328713Y362100D03*
X328713Y368600D03*
X328713Y355600D03*
D20*
X326213Y323100D03*
X326213Y387600D03*
D10*
X562550Y192024D03*
X570550Y192024D03*
X578550Y192024D03*
X586550Y192024D03*
X594550Y192024D03*
X602550Y192024D03*
X610550Y192024D03*
X618550Y192024D03*
D11*
X633476Y206950D03*
X633476Y214950D03*
X633476Y222950D03*
X633476Y230950D03*
X633476Y238950D03*
X633476Y246950D03*
X633476Y254950D03*
X633476Y262950D03*
D10*
X618550Y277876D03*
X610550Y277876D03*
X602550Y277876D03*
X594550Y277876D03*
X586550Y277876D03*
X578550Y277876D03*
X570550Y277876D03*
X562550Y277876D03*
D11*
X547624Y262950D03*
X547624Y254950D03*
X547624Y246950D03*
X547624Y238950D03*
X547624Y230950D03*
X547624Y222950D03*
X547624Y214950D03*
X547624Y206950D03*
D25*
X498893Y418080D03*
X475893Y418080D03*
X452893Y418080D03*
D26*
X475893Y481580D03*
D27*
X385163Y261938D03*
X437163Y261938D03*
X385163Y274638D03*
X385163Y249238D03*
X385163Y236538D03*
X437163Y274638D03*
X437163Y249238D03*
X437163Y236538D03*
D28*
X376578Y42555D03*
X376578Y55305D03*
X376578Y68055D03*
X376578Y80805D03*
X376578Y93555D03*
X376578Y106055D03*
X376578Y118805D03*
X376578Y131555D03*
X447078Y42555D03*
X447078Y55305D03*
X447078Y68055D03*
X447078Y80805D03*
X447078Y93555D03*
X447078Y106055D03*
X447078Y118805D03*
X447078Y131555D03*
D12*
X761388Y173038D03*
X740388Y173038D03*
X761388Y147638D03*
X740388Y147638D03*
X761388Y122238D03*
X740388Y122238D03*
D13*
X502538Y146113D03*
X494538Y146113D03*
X486538Y146113D03*
X478538Y146113D03*
X478538Y130113D03*
X486538Y130113D03*
X494538Y130113D03*
X502538Y130113D03*
X700975Y204850D03*
X692975Y204850D03*
X684975Y204850D03*
X676975Y204850D03*
X676975Y188850D03*
X684975Y188850D03*
X692975Y188850D03*
X700975Y188850D03*
D14*
X646113Y151838D03*
X646113Y168838D03*
X601663Y151838D03*
X601663Y168838D03*
D23*
X589988Y301625D03*
X606988Y301625D03*
X518550Y417513D03*
X535550Y417513D03*
D29*
X534988Y436675D03*
X525488Y458675D03*
X544488Y458675D03*
D30*
X390475Y419100D03*
X371475Y419100D03*
D23*
X402663Y150813D03*
X419663Y150813D03*
D21*
X465025Y306388D03*
X443025Y296888D03*
X443025Y315888D03*
D23*
X400050Y297888D03*
X400050Y314888D03*
D14*
X422275Y297888D03*
X422275Y314888D03*
D31*
X498538Y294388D03*
X498538Y302388D03*
X498538Y310388D03*
X498538Y318388D03*
X482538Y318388D03*
X482538Y310388D03*
X482538Y302388D03*
X482538Y294388D03*
D14*
X543488Y479425D03*
X526488Y479425D03*
X587375Y151838D03*
X587375Y168838D03*
D27*
X385163Y192088D03*
X437163Y192088D03*
X385163Y204788D03*
X385163Y179388D03*
X385163Y166688D03*
X437163Y204788D03*
X437163Y179388D03*
X437163Y166688D03*
D32*
X679450Y341913D03*
X679450Y289913D03*
X692150Y341913D03*
X666750Y341913D03*
X654050Y341913D03*
X692150Y289913D03*
X666750Y289913D03*
X654050Y289913D03*
D33*
X562225Y331788D03*
X625225Y331788D03*
D34*
X614888Y148838D03*
X632888Y171838D03*
X614888Y171838D03*
X632888Y148838D03*
D14*
X912813Y113275D03*
X912813Y96275D03*
D23*
X994800Y173038D03*
X1011800Y173038D03*
X994800Y71438D03*
X1011800Y71438D03*
D35*
X1011238Y223625D03*
X1011238Y252625D03*
D36*
X893975Y112713D03*
X864975Y112713D03*
D27*
X872525Y68263D03*
X924525Y68263D03*
X872525Y80963D03*
X872525Y55563D03*
X872525Y42863D03*
X924525Y80963D03*
X924525Y55563D03*
X924525Y42863D03*
D37*
X987425Y96238D03*
X987425Y148238D03*
X974725Y96238D03*
X1000125Y96238D03*
X1012825Y96238D03*
X974725Y148238D03*
X1000125Y148238D03*
X1012825Y148238D03*
D38*
X944463Y203275D03*
X944463Y133275D03*
X912463Y203275D03*
X912463Y133275D03*
X890463Y203275D03*
X890463Y133275D03*
X868463Y203275D03*
X868463Y133275D03*
D12*
X945175Y28575D03*
X966175Y28575D03*
D14*
X947175Y68263D03*
X964175Y68263D03*
X947175Y44450D03*
X964175Y44450D03*
X947175Y12700D03*
X964175Y12700D03*
D21*
X931975Y104775D03*
X953975Y114275D03*
X953975Y95275D03*
D35*
X969500Y207488D03*
X969500Y178488D03*
X862013Y223625D03*
X862013Y252625D03*
D23*
X887975Y96838D03*
X870975Y96838D03*
D39*
X996950Y51338D03*
D40*
X985450Y12838D03*
X1008450Y12838D03*
D30*
X1011213Y196850D03*
X992213Y196850D03*
M02*
