M48
;GenerationSoftware,Autodesk,EAGLE,9.6.2*%
;CreationDate,2021-04-15T18:53:24Z*%
FMAT,2
ICI,OFF
METRIC,TZ,000.000
T7C0.400
T6C0.550
T5C0.600
T4C0.720
T3C0.813
T2C1.016
T1C1.200
%
G90
M71
T1
X31432Y43656
X31432Y20354
X31432Y2521
X31432Y16676
X31432Y27154
X31432Y23654
X31432Y12998
X31432Y9877
X31432Y47156
X31432Y6199
T2
X60998Y8490
X56477Y8490
X60998Y1988
X56477Y1988
X53696Y8490
X49174Y8490
X53696Y1988
X49174Y1988
X63779Y1988
X60642Y37783
X71596Y47942
X63659Y47942
X89376Y1905
X86836Y1905
X88582Y24447
X71082Y8490
X66993Y40005
X66993Y42545
X66993Y45085
X66993Y47625
X75089Y47939
X75089Y45399
X75089Y28099
X75089Y25559
X75089Y23019
X75089Y20479
X91122Y24447
X93662Y24447
X96202Y24447
X20638Y36830
X20638Y34290
X18098Y34290
X15557Y34290
X13017Y34290
X10478Y34290
X10478Y36830
X18098Y36830
X15557Y36830
X13017Y36830
X68301Y1988
X63779Y8490
X68301Y8490
X71082Y1988
X75603Y1988
X75603Y8490
X60642Y40323
X58102Y47942
X60642Y47942
X58102Y45402
X60642Y45402
X58102Y42863
X60642Y42863
X58102Y40323
X98742Y24447
X58102Y37783
T3
X52705Y39265
X39053Y34131
X39053Y39211
X52705Y34185
X45879Y39211
X45879Y34131
T4
X29711Y38960
X30491Y38960
X30491Y32160
X7845Y37599
X29711Y32160
X7845Y36819
X1045Y37599
X1045Y36819
T5
X56356Y25400
X50959Y17939
X49054Y19844
X65246Y18574
X58737Y13176
X54610Y31432
X65405Y26670
X45720Y19685
X49689Y34131
X59452Y20796
X47149Y21749
X69215Y26670
X50959Y28257
X55721Y35719
X53022Y31750
X51911Y30797
X48101Y20796
X65405Y36513
X73819Y36513
X46037Y27464
X46037Y24924
X56991Y29686
X52864Y16034
X54769Y29686
X51911Y16986
X65246Y20320
X54769Y27305
X50006Y18891
T6
X100965Y11906
X97790Y11906
X94456Y8255
X99377Y11906
X90011Y9684
X93186Y2064
X87947Y16828
T7
X1746Y29369
X2381Y15081
X14129Y21431
X1746Y32861
X14287Y32226
X794Y19209
X3651Y21114
X11747Y26194
X9843Y11589
X9049Y29210
X7779Y26194
X4921Y24606
X21431Y8573
X5715Y12859
X5080Y31274
X794Y21114
X7779Y21114
X21114Y25082
X15716Y25082
X2381Y26670
X7461Y12859
X4128Y12859
X794Y794
X20955Y32226
X12224Y19209
X3651Y26670
X2699Y16034
X4921Y26670
X18098Y20161
X3016Y16986
X13017Y28892
X6985Y31274
X6985Y29527
X10319Y26194
X5715Y29527
X11747Y28892
X7620Y16986
X9684Y24765
X4604Y16986
X10319Y21114
X4604Y29527
X3810Y17780
X9049Y21114
X19844Y26987
X7302Y15557
X10954Y24765
X17621Y25082
X20796Y16669
X11906Y17780
M30