M48
;GenerationSoftware,Autodesk,EAGLE,9.6.2*%
;CreationDate,2021-04-11T09:57:26Z*%
FMAT,2
ICI,OFF
METRIC,TZ,000.000
T5C0.600
T4C0.720
T3C0.813
T2C1.016
T1C1.200
%
G90
M71
T1
X3651Y12998
X3651Y9877
X3651Y6199
X3651Y2521
X3651Y27154
X3651Y23654
X3651Y43656
X3651Y47156
X3651Y20354
X3651Y16676
T2
X47625Y45399
X47822Y8490
X39211Y47625
X39211Y45085
X39211Y42545
X39211Y40005
X35878Y47942
X43815Y47942
X21393Y1988
X25914Y1988
X21393Y8490
X25914Y8490
X47625Y47939
X28696Y1988
X33217Y1988
X28696Y8490
X33217Y8490
X35998Y1988
X40519Y1988
X35998Y8490
X40519Y8490
X43301Y1988
X47822Y1988
X43301Y8490
X30321Y47942
X32861Y47942
X30321Y45402
X32861Y45402
X30321Y42863
X32861Y42863
X30321Y40323
X32861Y40323
X30321Y37783
X32861Y37783
X47625Y20479
X47625Y23019
X47625Y25559
X47625Y28099
T3
X24924Y39265
X24924Y34185
X18098Y34131
X18098Y39211
X11271Y39211
X11271Y34131
T4
X1930Y38960
X2710Y38960
X1930Y32160
X2710Y32160
T5
X16986Y47625
X13335Y3492
X16034Y22066
X10636Y15081
X10636Y22066
X33893Y20796
X36830Y13811
X33893Y25876
X19368Y21749
X41434Y26670
X23177Y28257
X27940Y35719
X25241Y31750
X21273Y19844
X24130Y30797
X20320Y20796
X37624Y36513
X46037Y36513
X18256Y27464
X18256Y24924
X29210Y29686
X25082Y16034
X26987Y29686
X36830Y18415
X32385Y13811
X26829Y31432
X37624Y26670
X17939Y19685
X21907Y34131
X31671Y20796
X22701Y48895
X23177Y17939
X28575Y25400
X16034Y15081
X22225Y18891
X22701Y47625
X16986Y48895
X37465Y20320
X24130Y16986
X26987Y27305
M30