G04 EAGLE Gerber RS-274X export*
G75*
%MOMM*%
%FSLAX34Y34*%
%LPD*%
%INTop Soldermask*%
%IPPOS*%
%AMOC8*
5,1,8,0,0,1.08239X$1,22.5*%
G01*
%ADD10R,1.301600X1.301600*%
%ADD11R,1.201600X1.101600*%
%ADD12R,1.901600X0.501600*%
%ADD13R,1.501600X1.501600*%
%ADD14C,1.329600*%
%ADD15C,1.625600*%
%ADD16R,0.660400X1.371600*%
%ADD17R,1.371600X0.660400*%
%ADD18R,1.301600X2.101600*%
%ADD19R,3.901600X2.401600*%
%ADD20R,2.301600X0.701600*%
%ADD21R,1.801600X0.901600*%
%ADD22R,0.600000X1.000000*%
%ADD23R,2.133600X2.133600*%
%ADD24C,2.133600*%
%ADD25R,1.101600X1.201600*%
%ADD26R,1.101600X1.501600*%
%ADD27R,1.401600X1.601600*%
%ADD28R,1.501600X1.101600*%
%ADD29C,2.006600*%
%ADD30P,2.171924X8X292.500000*%
%ADD31R,1.000000X0.600000*%
%ADD32P,1.759533X8X22.500000*%
%ADD33P,2.171924X8X112.500000*%
%ADD34R,0.990600X2.641600*%
%ADD35P,1.759533X8X292.500000*%
%ADD36R,2.401600X1.701600*%
%ADD37R,1.201600X1.401600*%


D10*
X151150Y476550D03*
X151150Y450550D03*
X90150Y450550D03*
X90150Y476550D03*
D11*
X152963Y419100D03*
X135963Y419100D03*
X141850Y220663D03*
X124850Y220663D03*
D12*
X50900Y349100D03*
X50900Y342600D03*
X50900Y362100D03*
X50900Y368600D03*
X50900Y355600D03*
D13*
X48400Y323100D03*
X48400Y387600D03*
D14*
X27100Y321600D03*
X27100Y389600D03*
X19300Y389600D03*
X19300Y321600D03*
D15*
X468630Y204788D02*
X483870Y204788D01*
X483870Y230188D02*
X468630Y230188D01*
X468630Y255588D02*
X483870Y255588D01*
X483870Y280988D02*
X468630Y280988D01*
X468630Y453988D02*
X483870Y453988D01*
X483870Y479388D02*
X468630Y479388D01*
X399733Y476250D02*
X384493Y476250D01*
X384493Y450850D02*
X399733Y450850D01*
X399733Y425450D02*
X384493Y425450D01*
X384493Y400050D02*
X399733Y400050D01*
D16*
X284738Y192024D03*
X292738Y192024D03*
X300738Y192024D03*
X308738Y192024D03*
X316738Y192024D03*
X324738Y192024D03*
X332738Y192024D03*
X340738Y192024D03*
D17*
X355664Y206950D03*
X355664Y214950D03*
X355664Y222950D03*
X355664Y230950D03*
X355664Y238950D03*
X355664Y246950D03*
X355664Y254950D03*
X355664Y262950D03*
D16*
X340738Y277876D03*
X332738Y277876D03*
X324738Y277876D03*
X316738Y277876D03*
X308738Y277876D03*
X300738Y277876D03*
X292738Y277876D03*
X284738Y277876D03*
D17*
X269812Y262950D03*
X269812Y254950D03*
X269812Y246950D03*
X269812Y238950D03*
X269812Y230950D03*
X269812Y222950D03*
X269812Y214950D03*
X269812Y206950D03*
D18*
X221080Y418080D03*
X198080Y418080D03*
X175080Y418080D03*
D19*
X198080Y481580D03*
D20*
X107350Y261938D03*
X159350Y261938D03*
X107350Y274638D03*
X107350Y249238D03*
X107350Y236538D03*
X159350Y274638D03*
X159350Y249238D03*
X159350Y236538D03*
D21*
X98765Y42555D03*
X98765Y55305D03*
X98765Y68055D03*
X98765Y80805D03*
X98765Y93555D03*
X98765Y106055D03*
X98765Y118805D03*
X98765Y131555D03*
X169265Y42555D03*
X169265Y55305D03*
X169265Y68055D03*
X169265Y80805D03*
X169265Y93555D03*
X169265Y106055D03*
X169265Y118805D03*
X169265Y131555D03*
D10*
X483575Y173038D03*
X462575Y173038D03*
X483575Y147638D03*
X462575Y147638D03*
X483575Y122238D03*
X462575Y122238D03*
D22*
X224725Y146113D03*
X216725Y146113D03*
X208725Y146113D03*
X200725Y146113D03*
X200725Y130113D03*
X208725Y130113D03*
X216725Y130113D03*
X224725Y130113D03*
X423163Y204850D03*
X415163Y204850D03*
X407163Y204850D03*
X399163Y204850D03*
X399163Y188850D03*
X407163Y188850D03*
X415163Y188850D03*
X423163Y188850D03*
D23*
X36513Y25210D03*
D24*
X36513Y61988D03*
X36513Y98766D03*
D23*
X36513Y129985D03*
D24*
X36513Y166763D03*
X36513Y203541D03*
D25*
X368300Y151838D03*
X368300Y168838D03*
X323850Y151838D03*
X323850Y168838D03*
D11*
X312175Y301625D03*
X329175Y301625D03*
D23*
X36513Y436563D03*
D24*
X36513Y471563D03*
D11*
X240738Y417513D03*
X257738Y417513D03*
D26*
X257175Y436675D03*
X247675Y458675D03*
X266675Y458675D03*
D27*
X112663Y419100D03*
X93663Y419100D03*
D11*
X124850Y150813D03*
X141850Y150813D03*
D28*
X187213Y306388D03*
X165213Y296888D03*
X165213Y315888D03*
D11*
X122238Y297888D03*
X122238Y314888D03*
D25*
X144463Y297888D03*
X144463Y314888D03*
D29*
X112713Y392113D03*
D30*
X112713Y341313D03*
D31*
X220725Y294388D03*
X220725Y302388D03*
X220725Y310388D03*
X220725Y318388D03*
X204725Y318388D03*
X204725Y310388D03*
X204725Y302388D03*
X204725Y294388D03*
D23*
X36513Y236538D03*
D24*
X36513Y271538D03*
D32*
X358775Y479425D03*
X438150Y479425D03*
D25*
X265675Y479425D03*
X248675Y479425D03*
D29*
X249238Y392650D03*
D30*
X249238Y341850D03*
D15*
X213932Y27496D02*
X213932Y12256D01*
X259144Y12256D02*
X259144Y27496D01*
X213932Y77280D02*
X213932Y92520D01*
X259144Y92520D02*
X259144Y77280D01*
X286957Y27496D02*
X286957Y12256D01*
X332169Y12256D02*
X332169Y27496D01*
X286957Y77280D02*
X286957Y92520D01*
X332169Y92520D02*
X332169Y77280D01*
X359982Y27496D02*
X359982Y12256D01*
X405194Y12256D02*
X405194Y27496D01*
X359982Y77280D02*
X359982Y92520D01*
X405194Y92520D02*
X405194Y77280D01*
X433007Y27496D02*
X433007Y12256D01*
X478219Y12256D02*
X478219Y27496D01*
X433007Y77280D02*
X433007Y92520D01*
X478219Y92520D02*
X478219Y77280D01*
D25*
X309563Y151838D03*
X309563Y168838D03*
D20*
X107350Y192088D03*
X159350Y192088D03*
X107350Y204788D03*
X107350Y179388D03*
X107350Y166688D03*
X159350Y204788D03*
X159350Y179388D03*
X159350Y166688D03*
D29*
X180975Y341313D03*
D33*
X180975Y392113D03*
D34*
X401638Y341913D03*
X401638Y289913D03*
X414338Y341913D03*
X388938Y341913D03*
X376238Y341913D03*
X414338Y289913D03*
X388938Y289913D03*
X376238Y289913D03*
D35*
X303213Y479425D03*
X328613Y479425D03*
X303213Y454025D03*
X328613Y454025D03*
X303213Y428625D03*
X328613Y428625D03*
X303213Y403225D03*
X328613Y403225D03*
X303213Y377825D03*
X328613Y377825D03*
D36*
X284413Y331788D03*
X347413Y331788D03*
D37*
X337075Y148838D03*
X355075Y171838D03*
X337075Y171838D03*
X355075Y148838D03*
M02*
