G04 EAGLE Gerber RS-274X export*
G75*
%MOMM*%
%FSLAX34Y34*%
%LPD*%
%INBottom Copper*%
%IPPOS*%
%AMOC8*
5,1,8,0,0,1.08239X$1,22.5*%
G01*
%ADD10C,0.000000*%
%ADD11C,1.228000*%
%ADD12C,1.524000*%
%ADD13R,2.032000X2.032000*%
%ADD14C,2.032000*%
%ADD15C,1.905000*%
%ADD16P,2.061953X8X292.500000*%
%ADD17P,1.649562X8X22.500000*%
%ADD18P,2.061953X8X112.500000*%
%ADD19P,1.649562X8X292.500000*%
%ADD20C,0.904800*%
%ADD21C,0.304800*%

G36*
X207681Y2542D02*
X207681Y2542D01*
X207689Y2541D01*
X207803Y2562D01*
X207916Y2580D01*
X207923Y2584D01*
X207931Y2586D01*
X208032Y2642D01*
X208134Y2696D01*
X208139Y2701D01*
X208146Y2705D01*
X208224Y2790D01*
X208303Y2874D01*
X208306Y2881D01*
X208312Y2887D01*
X208358Y2992D01*
X208407Y3097D01*
X208407Y3105D01*
X208411Y3112D01*
X208421Y3227D01*
X208434Y3341D01*
X208432Y3349D01*
X208433Y3357D01*
X208406Y3470D01*
X208381Y3582D01*
X208377Y3589D01*
X208375Y3596D01*
X208314Y3694D01*
X208255Y3793D01*
X208249Y3798D01*
X208245Y3805D01*
X208121Y3918D01*
X207312Y4505D01*
X206181Y5636D01*
X205241Y6930D01*
X204515Y8355D01*
X204021Y9876D01*
X203771Y11456D01*
X203771Y18352D01*
X213169Y18352D01*
X213189Y18355D01*
X213209Y18353D01*
X213310Y18375D01*
X213412Y18392D01*
X213430Y18401D01*
X213449Y18406D01*
X213538Y18459D01*
X213629Y18507D01*
X213643Y18522D01*
X213660Y18532D01*
X213728Y18610D01*
X213799Y18685D01*
X213807Y18703D01*
X213820Y18719D01*
X213859Y18815D01*
X213902Y18909D01*
X213905Y18928D01*
X213912Y18947D01*
X213931Y19114D01*
X213931Y19876D01*
X213932Y19876D01*
X213932Y19114D01*
X213936Y19094D01*
X213933Y19074D01*
X213955Y18973D01*
X213972Y18871D01*
X213981Y18853D01*
X213986Y18834D01*
X214039Y18745D01*
X214087Y18653D01*
X214102Y18640D01*
X214112Y18623D01*
X214191Y18555D01*
X214266Y18484D01*
X214284Y18476D01*
X214299Y18463D01*
X214395Y18424D01*
X214489Y18380D01*
X214508Y18378D01*
X214527Y18371D01*
X214694Y18352D01*
X224092Y18352D01*
X224092Y11456D01*
X223842Y9876D01*
X223348Y8355D01*
X222622Y6930D01*
X221682Y5636D01*
X220551Y4505D01*
X219742Y3918D01*
X219736Y3912D01*
X219729Y3908D01*
X219651Y3825D01*
X219569Y3743D01*
X219566Y3736D01*
X219560Y3730D01*
X219512Y3626D01*
X219461Y3522D01*
X219460Y3514D01*
X219456Y3507D01*
X219444Y3393D01*
X219429Y3278D01*
X219430Y3270D01*
X219429Y3263D01*
X219454Y3150D01*
X219476Y3037D01*
X219480Y3030D01*
X219482Y3022D01*
X219541Y2923D01*
X219598Y2823D01*
X219604Y2818D01*
X219608Y2811D01*
X219695Y2736D01*
X219781Y2659D01*
X219789Y2656D01*
X219795Y2651D01*
X219901Y2608D01*
X220007Y2563D01*
X220015Y2562D01*
X220023Y2559D01*
X220190Y2541D01*
X254874Y2541D01*
X254970Y2556D01*
X255067Y2566D01*
X255091Y2576D01*
X255116Y2580D01*
X255202Y2626D01*
X255291Y2666D01*
X255311Y2683D01*
X255334Y2696D01*
X255401Y2766D01*
X255473Y2832D01*
X255485Y2855D01*
X255503Y2874D01*
X255544Y2962D01*
X255591Y3048D01*
X255596Y3073D01*
X255607Y3097D01*
X255618Y3194D01*
X255635Y3290D01*
X255631Y3316D01*
X255634Y3341D01*
X255613Y3436D01*
X255599Y3533D01*
X255587Y3556D01*
X255582Y3582D01*
X255532Y3666D01*
X255488Y3752D01*
X255469Y3770D01*
X255455Y3793D01*
X255381Y3856D01*
X255312Y3924D01*
X255283Y3940D01*
X255269Y3953D01*
X255238Y3965D01*
X255165Y4005D01*
X253963Y4503D01*
X251391Y7075D01*
X249999Y10437D01*
X249999Y29314D01*
X251391Y32676D01*
X253963Y35248D01*
X257325Y36640D01*
X260962Y36640D01*
X264324Y35248D01*
X266896Y32676D01*
X268288Y29314D01*
X268288Y10437D01*
X266896Y7075D01*
X264324Y4503D01*
X263122Y4005D01*
X263039Y3954D01*
X262953Y3908D01*
X262935Y3889D01*
X262913Y3876D01*
X262851Y3801D01*
X262784Y3730D01*
X262773Y3706D01*
X262756Y3686D01*
X262721Y3595D01*
X262680Y3507D01*
X262677Y3481D01*
X262668Y3457D01*
X262664Y3359D01*
X262653Y3263D01*
X262659Y3237D01*
X262658Y3211D01*
X262685Y3117D01*
X262705Y3022D01*
X262719Y3000D01*
X262726Y2975D01*
X262782Y2895D01*
X262832Y2811D01*
X262851Y2794D01*
X262866Y2773D01*
X262944Y2714D01*
X263018Y2651D01*
X263043Y2641D01*
X263064Y2626D01*
X263156Y2596D01*
X263247Y2559D01*
X263279Y2556D01*
X263298Y2550D01*
X263331Y2550D01*
X263413Y2541D01*
X280698Y2541D01*
X280706Y2542D01*
X280714Y2541D01*
X280828Y2562D01*
X280941Y2580D01*
X280948Y2584D01*
X280956Y2586D01*
X281057Y2642D01*
X281159Y2696D01*
X281164Y2701D01*
X281171Y2705D01*
X281249Y2790D01*
X281328Y2874D01*
X281331Y2881D01*
X281337Y2887D01*
X281383Y2992D01*
X281432Y3097D01*
X281432Y3105D01*
X281436Y3112D01*
X281446Y3227D01*
X281459Y3341D01*
X281457Y3349D01*
X281458Y3357D01*
X281431Y3470D01*
X281406Y3582D01*
X281402Y3589D01*
X281400Y3596D01*
X281339Y3694D01*
X281280Y3793D01*
X281274Y3798D01*
X281270Y3805D01*
X281146Y3918D01*
X280337Y4505D01*
X279206Y5636D01*
X278266Y6930D01*
X277540Y8355D01*
X277046Y9876D01*
X276796Y11456D01*
X276796Y18352D01*
X286194Y18352D01*
X286214Y18355D01*
X286234Y18353D01*
X286335Y18375D01*
X286437Y18392D01*
X286455Y18401D01*
X286474Y18406D01*
X286563Y18459D01*
X286654Y18507D01*
X286668Y18522D01*
X286685Y18532D01*
X286753Y18610D01*
X286824Y18685D01*
X286832Y18703D01*
X286845Y18719D01*
X286884Y18815D01*
X286927Y18909D01*
X286930Y18928D01*
X286937Y18947D01*
X286956Y19114D01*
X286956Y19876D01*
X286957Y19876D01*
X286957Y19114D01*
X286961Y19094D01*
X286958Y19074D01*
X286980Y18973D01*
X286997Y18871D01*
X287006Y18853D01*
X287011Y18834D01*
X287064Y18745D01*
X287112Y18653D01*
X287127Y18640D01*
X287137Y18623D01*
X287216Y18555D01*
X287291Y18484D01*
X287309Y18476D01*
X287324Y18463D01*
X287420Y18424D01*
X287514Y18380D01*
X287533Y18378D01*
X287552Y18371D01*
X287719Y18352D01*
X297117Y18352D01*
X297117Y11456D01*
X296867Y9876D01*
X296373Y8355D01*
X295647Y6930D01*
X294707Y5636D01*
X293576Y4505D01*
X292767Y3918D01*
X292761Y3912D01*
X292754Y3908D01*
X292676Y3825D01*
X292594Y3743D01*
X292591Y3736D01*
X292585Y3730D01*
X292537Y3626D01*
X292486Y3522D01*
X292485Y3514D01*
X292481Y3507D01*
X292469Y3393D01*
X292454Y3278D01*
X292455Y3270D01*
X292454Y3263D01*
X292479Y3150D01*
X292501Y3037D01*
X292505Y3030D01*
X292507Y3022D01*
X292566Y2923D01*
X292623Y2823D01*
X292629Y2818D01*
X292633Y2811D01*
X292720Y2736D01*
X292806Y2659D01*
X292814Y2656D01*
X292820Y2651D01*
X292926Y2608D01*
X293032Y2563D01*
X293040Y2562D01*
X293048Y2559D01*
X293215Y2541D01*
X327899Y2541D01*
X327995Y2556D01*
X328092Y2566D01*
X328116Y2576D01*
X328141Y2580D01*
X328227Y2626D01*
X328316Y2666D01*
X328336Y2683D01*
X328359Y2696D01*
X328426Y2766D01*
X328498Y2832D01*
X328510Y2855D01*
X328528Y2874D01*
X328569Y2962D01*
X328616Y3048D01*
X328621Y3073D01*
X328632Y3097D01*
X328643Y3194D01*
X328660Y3290D01*
X328656Y3316D01*
X328659Y3341D01*
X328638Y3437D01*
X328624Y3533D01*
X328612Y3556D01*
X328607Y3582D01*
X328557Y3665D01*
X328513Y3752D01*
X328494Y3771D01*
X328480Y3793D01*
X328406Y3856D01*
X328337Y3924D01*
X328308Y3940D01*
X328294Y3953D01*
X328263Y3965D01*
X328190Y4005D01*
X326988Y4503D01*
X324416Y7075D01*
X323024Y10437D01*
X323024Y29314D01*
X324416Y32676D01*
X326988Y35248D01*
X330350Y36640D01*
X333987Y36640D01*
X337349Y35248D01*
X339921Y32676D01*
X341313Y29314D01*
X341313Y10437D01*
X339921Y7075D01*
X337349Y4503D01*
X336147Y4005D01*
X336064Y3954D01*
X335978Y3908D01*
X335960Y3889D01*
X335938Y3876D01*
X335876Y3801D01*
X335809Y3730D01*
X335798Y3706D01*
X335781Y3686D01*
X335746Y3595D01*
X335705Y3507D01*
X335702Y3481D01*
X335693Y3457D01*
X335689Y3359D01*
X335678Y3263D01*
X335684Y3237D01*
X335683Y3211D01*
X335710Y3117D01*
X335730Y3022D01*
X335744Y3000D01*
X335751Y2975D01*
X335807Y2895D01*
X335857Y2811D01*
X335876Y2794D01*
X335891Y2773D01*
X335969Y2714D01*
X336043Y2651D01*
X336068Y2641D01*
X336089Y2626D01*
X336181Y2596D01*
X336272Y2559D01*
X336304Y2556D01*
X336323Y2550D01*
X336356Y2550D01*
X336438Y2541D01*
X353723Y2541D01*
X353731Y2542D01*
X353739Y2541D01*
X353853Y2562D01*
X353966Y2580D01*
X353973Y2584D01*
X353981Y2586D01*
X354082Y2642D01*
X354184Y2696D01*
X354189Y2701D01*
X354196Y2705D01*
X354274Y2790D01*
X354353Y2874D01*
X354356Y2881D01*
X354362Y2887D01*
X354408Y2993D01*
X354457Y3097D01*
X354457Y3105D01*
X354461Y3112D01*
X354471Y3227D01*
X354484Y3341D01*
X354482Y3349D01*
X354483Y3357D01*
X354456Y3470D01*
X354431Y3582D01*
X354427Y3589D01*
X354425Y3596D01*
X354364Y3695D01*
X354305Y3793D01*
X354299Y3798D01*
X354295Y3805D01*
X354171Y3918D01*
X353362Y4505D01*
X352231Y5636D01*
X351291Y6930D01*
X350565Y8355D01*
X350071Y9876D01*
X349821Y11456D01*
X349821Y18352D01*
X359219Y18352D01*
X359239Y18355D01*
X359259Y18353D01*
X359360Y18375D01*
X359462Y18392D01*
X359480Y18401D01*
X359499Y18406D01*
X359588Y18459D01*
X359679Y18507D01*
X359693Y18522D01*
X359710Y18532D01*
X359778Y18610D01*
X359849Y18685D01*
X359857Y18703D01*
X359870Y18719D01*
X359909Y18815D01*
X359952Y18909D01*
X359955Y18928D01*
X359962Y18947D01*
X359981Y19114D01*
X359981Y19876D01*
X359982Y19876D01*
X359982Y19114D01*
X359986Y19094D01*
X359983Y19074D01*
X360005Y18973D01*
X360022Y18871D01*
X360031Y18853D01*
X360036Y18834D01*
X360089Y18745D01*
X360137Y18653D01*
X360152Y18640D01*
X360162Y18623D01*
X360241Y18555D01*
X360316Y18484D01*
X360334Y18476D01*
X360349Y18463D01*
X360445Y18424D01*
X360539Y18380D01*
X360558Y18378D01*
X360577Y18371D01*
X360744Y18352D01*
X370142Y18352D01*
X370142Y11456D01*
X369892Y9876D01*
X369398Y8355D01*
X368672Y6930D01*
X367732Y5636D01*
X366601Y4505D01*
X365792Y3918D01*
X365787Y3912D01*
X365779Y3908D01*
X365701Y3825D01*
X365619Y3743D01*
X365616Y3736D01*
X365610Y3730D01*
X365562Y3626D01*
X365511Y3522D01*
X365510Y3514D01*
X365506Y3507D01*
X365494Y3393D01*
X365479Y3278D01*
X365480Y3270D01*
X365479Y3263D01*
X365504Y3150D01*
X365526Y3037D01*
X365530Y3030D01*
X365532Y3022D01*
X365591Y2923D01*
X365648Y2823D01*
X365654Y2818D01*
X365658Y2811D01*
X365746Y2736D01*
X365831Y2659D01*
X365839Y2656D01*
X365845Y2651D01*
X365952Y2608D01*
X366057Y2563D01*
X366065Y2562D01*
X366073Y2559D01*
X366240Y2541D01*
X400924Y2541D01*
X401020Y2556D01*
X401117Y2566D01*
X401141Y2576D01*
X401166Y2580D01*
X401252Y2626D01*
X401341Y2666D01*
X401361Y2683D01*
X401384Y2696D01*
X401451Y2766D01*
X401523Y2832D01*
X401535Y2855D01*
X401553Y2874D01*
X401594Y2962D01*
X401641Y3048D01*
X401646Y3073D01*
X401657Y3097D01*
X401668Y3194D01*
X401685Y3290D01*
X401681Y3316D01*
X401684Y3341D01*
X401663Y3437D01*
X401649Y3533D01*
X401637Y3556D01*
X401632Y3582D01*
X401582Y3665D01*
X401538Y3752D01*
X401519Y3771D01*
X401505Y3793D01*
X401431Y3856D01*
X401362Y3924D01*
X401333Y3940D01*
X401319Y3953D01*
X401288Y3965D01*
X401215Y4005D01*
X400013Y4503D01*
X397441Y7075D01*
X396049Y10437D01*
X396049Y29314D01*
X397441Y32676D01*
X400013Y35248D01*
X403375Y36640D01*
X407012Y36640D01*
X410374Y35248D01*
X412946Y32676D01*
X414338Y29314D01*
X414338Y10437D01*
X412946Y7075D01*
X410374Y4503D01*
X409172Y4005D01*
X409089Y3954D01*
X409003Y3908D01*
X408985Y3889D01*
X408963Y3876D01*
X408901Y3801D01*
X408834Y3730D01*
X408823Y3706D01*
X408806Y3686D01*
X408771Y3595D01*
X408730Y3507D01*
X408727Y3481D01*
X408718Y3457D01*
X408714Y3359D01*
X408703Y3263D01*
X408709Y3237D01*
X408708Y3211D01*
X408735Y3117D01*
X408755Y3022D01*
X408769Y3000D01*
X408776Y2975D01*
X408832Y2895D01*
X408882Y2811D01*
X408901Y2794D01*
X408916Y2773D01*
X408994Y2714D01*
X409068Y2651D01*
X409093Y2641D01*
X409114Y2626D01*
X409206Y2596D01*
X409297Y2559D01*
X409329Y2556D01*
X409348Y2550D01*
X409381Y2550D01*
X409463Y2541D01*
X428737Y2541D01*
X428833Y2556D01*
X428930Y2566D01*
X428954Y2576D01*
X428979Y2580D01*
X429065Y2626D01*
X429154Y2666D01*
X429174Y2683D01*
X429197Y2696D01*
X429264Y2766D01*
X429336Y2832D01*
X429348Y2855D01*
X429366Y2874D01*
X429407Y2962D01*
X429454Y3048D01*
X429459Y3073D01*
X429470Y3097D01*
X429481Y3194D01*
X429498Y3290D01*
X429494Y3316D01*
X429497Y3341D01*
X429476Y3436D01*
X429462Y3533D01*
X429450Y3556D01*
X429445Y3582D01*
X429395Y3666D01*
X429351Y3752D01*
X429332Y3770D01*
X429318Y3793D01*
X429244Y3856D01*
X429175Y3924D01*
X429146Y3940D01*
X429132Y3953D01*
X429101Y3965D01*
X429028Y4005D01*
X427826Y4503D01*
X425254Y7075D01*
X423862Y10437D01*
X423862Y29314D01*
X425254Y32676D01*
X427826Y35248D01*
X431188Y36640D01*
X434825Y36640D01*
X438187Y35248D01*
X440759Y32676D01*
X442151Y29314D01*
X442151Y10437D01*
X440759Y7075D01*
X438187Y4503D01*
X436985Y4005D01*
X436902Y3954D01*
X436816Y3908D01*
X436798Y3889D01*
X436776Y3876D01*
X436714Y3801D01*
X436647Y3730D01*
X436636Y3706D01*
X436619Y3686D01*
X436584Y3595D01*
X436543Y3507D01*
X436540Y3481D01*
X436531Y3457D01*
X436527Y3359D01*
X436516Y3263D01*
X436522Y3237D01*
X436521Y3211D01*
X436548Y3117D01*
X436568Y3022D01*
X436582Y3000D01*
X436589Y2975D01*
X436645Y2895D01*
X436695Y2811D01*
X436714Y2794D01*
X436729Y2773D01*
X436807Y2714D01*
X436881Y2651D01*
X436906Y2641D01*
X436927Y2626D01*
X437019Y2596D01*
X437110Y2559D01*
X437142Y2556D01*
X437161Y2550D01*
X437194Y2550D01*
X437276Y2541D01*
X471960Y2541D01*
X471968Y2542D01*
X471976Y2541D01*
X472090Y2562D01*
X472203Y2580D01*
X472210Y2584D01*
X472218Y2586D01*
X472319Y2642D01*
X472421Y2696D01*
X472426Y2701D01*
X472433Y2705D01*
X472511Y2790D01*
X472590Y2874D01*
X472593Y2881D01*
X472599Y2887D01*
X472645Y2992D01*
X472694Y3097D01*
X472694Y3105D01*
X472698Y3112D01*
X472708Y3227D01*
X472721Y3341D01*
X472719Y3349D01*
X472720Y3357D01*
X472693Y3470D01*
X472668Y3582D01*
X472664Y3589D01*
X472662Y3596D01*
X472601Y3694D01*
X472542Y3793D01*
X472536Y3798D01*
X472532Y3805D01*
X472408Y3918D01*
X471599Y4505D01*
X470468Y5636D01*
X469528Y6930D01*
X468802Y8355D01*
X468308Y9876D01*
X468058Y11456D01*
X468058Y18352D01*
X477456Y18352D01*
X477476Y18355D01*
X477496Y18353D01*
X477597Y18375D01*
X477699Y18392D01*
X477717Y18401D01*
X477736Y18406D01*
X477825Y18459D01*
X477916Y18507D01*
X477930Y18522D01*
X477947Y18532D01*
X478015Y18610D01*
X478086Y18685D01*
X478094Y18703D01*
X478107Y18719D01*
X478146Y18815D01*
X478189Y18909D01*
X478192Y18928D01*
X478199Y18947D01*
X478218Y19114D01*
X478218Y19876D01*
X478219Y19876D01*
X478219Y19114D01*
X478223Y19094D01*
X478220Y19074D01*
X478242Y18973D01*
X478259Y18871D01*
X478268Y18853D01*
X478273Y18834D01*
X478326Y18745D01*
X478374Y18653D01*
X478389Y18640D01*
X478399Y18623D01*
X478478Y18555D01*
X478553Y18484D01*
X478571Y18476D01*
X478586Y18463D01*
X478682Y18424D01*
X478776Y18380D01*
X478795Y18378D01*
X478814Y18371D01*
X478981Y18352D01*
X488379Y18352D01*
X488379Y11456D01*
X488129Y9876D01*
X487635Y8355D01*
X486909Y6930D01*
X485969Y5636D01*
X484838Y4505D01*
X484029Y3918D01*
X484023Y3912D01*
X484016Y3908D01*
X483938Y3825D01*
X483856Y3743D01*
X483853Y3736D01*
X483847Y3730D01*
X483799Y3626D01*
X483748Y3522D01*
X483747Y3514D01*
X483743Y3507D01*
X483731Y3393D01*
X483716Y3278D01*
X483717Y3270D01*
X483716Y3263D01*
X483741Y3150D01*
X483763Y3037D01*
X483767Y3030D01*
X483769Y3022D01*
X483828Y2923D01*
X483885Y2823D01*
X483891Y2818D01*
X483895Y2811D01*
X483982Y2736D01*
X484068Y2659D01*
X484076Y2656D01*
X484082Y2651D01*
X484188Y2608D01*
X484294Y2563D01*
X484302Y2562D01*
X484310Y2559D01*
X484477Y2541D01*
X496636Y2541D01*
X496655Y2544D01*
X496675Y2542D01*
X496776Y2564D01*
X496878Y2580D01*
X496896Y2590D01*
X496915Y2594D01*
X497004Y2647D01*
X497096Y2696D01*
X497109Y2710D01*
X497126Y2720D01*
X497194Y2799D01*
X497265Y2874D01*
X497273Y2892D01*
X497286Y2907D01*
X497325Y3003D01*
X497369Y3097D01*
X497371Y3117D01*
X497378Y3135D01*
X497397Y3302D01*
X497397Y495073D01*
X497394Y495091D01*
X497396Y495109D01*
X497395Y495110D01*
X497396Y495112D01*
X497374Y495214D01*
X497357Y495316D01*
X497348Y495333D01*
X497343Y495353D01*
X497290Y495442D01*
X497242Y495533D01*
X497228Y495547D01*
X497217Y495564D01*
X497139Y495631D01*
X497064Y495703D01*
X497046Y495711D01*
X497030Y495724D01*
X496934Y495763D01*
X496841Y495806D01*
X496821Y495808D01*
X496802Y495816D01*
X496636Y495834D01*
X3302Y495834D01*
X3282Y495831D01*
X3263Y495833D01*
X3161Y495811D01*
X3059Y495795D01*
X3042Y495785D01*
X3022Y495781D01*
X2933Y495728D01*
X2842Y495679D01*
X2828Y495665D01*
X2811Y495655D01*
X2744Y495576D01*
X2672Y495501D01*
X2664Y495483D01*
X2651Y495468D01*
X2612Y495372D01*
X2569Y495278D01*
X2567Y495258D01*
X2559Y495240D01*
X2541Y495073D01*
X2541Y3302D01*
X2544Y3282D01*
X2542Y3263D01*
X2564Y3161D01*
X2580Y3059D01*
X2590Y3042D01*
X2594Y3022D01*
X2647Y2933D01*
X2696Y2842D01*
X2710Y2828D01*
X2720Y2811D01*
X2799Y2744D01*
X2874Y2672D01*
X2892Y2664D01*
X2907Y2651D01*
X3003Y2612D01*
X3097Y2569D01*
X3117Y2567D01*
X3135Y2559D01*
X3302Y2541D01*
X207673Y2541D01*
X207681Y2542D01*
G37*
%LPC*%
G36*
X249622Y154289D02*
X249622Y154289D01*
X247399Y155210D01*
X245697Y156911D01*
X244776Y159134D01*
X244776Y161541D01*
X245680Y163723D01*
X245697Y163793D01*
X245722Y163860D01*
X245725Y163912D01*
X245736Y163963D01*
X245730Y164034D01*
X245733Y164106D01*
X245718Y164156D01*
X245713Y164208D01*
X245684Y164273D01*
X245664Y164342D01*
X245635Y164385D01*
X245613Y164432D01*
X245565Y164485D01*
X245524Y164544D01*
X245482Y164575D01*
X245447Y164613D01*
X245384Y164648D01*
X245327Y164691D01*
X245277Y164707D01*
X245231Y164732D01*
X245161Y164745D01*
X245093Y164767D01*
X245041Y164766D01*
X244989Y164776D01*
X244918Y164765D01*
X244847Y164765D01*
X244778Y164745D01*
X244746Y164740D01*
X244725Y164729D01*
X244686Y164718D01*
X242503Y163814D01*
X240097Y163814D01*
X237874Y164735D01*
X236172Y166436D01*
X235251Y168659D01*
X235251Y171066D01*
X236155Y173248D01*
X236172Y173318D01*
X236197Y173385D01*
X236200Y173437D01*
X236211Y173488D01*
X236205Y173559D01*
X236208Y173631D01*
X236193Y173681D01*
X236188Y173733D01*
X236159Y173798D01*
X236139Y173867D01*
X236110Y173910D01*
X236088Y173957D01*
X236040Y174010D01*
X235999Y174069D01*
X235957Y174100D01*
X235922Y174138D01*
X235859Y174173D01*
X235802Y174216D01*
X235752Y174232D01*
X235706Y174257D01*
X235636Y174270D01*
X235568Y174292D01*
X235516Y174291D01*
X235464Y174301D01*
X235393Y174290D01*
X235322Y174290D01*
X235253Y174270D01*
X235221Y174265D01*
X235200Y174254D01*
X235161Y174243D01*
X232978Y173339D01*
X230572Y173339D01*
X228349Y174260D01*
X226647Y175961D01*
X225726Y178184D01*
X225726Y180591D01*
X226630Y182773D01*
X226647Y182843D01*
X226672Y182910D01*
X226675Y182962D01*
X226686Y183013D01*
X226680Y183084D01*
X226683Y183156D01*
X226668Y183206D01*
X226663Y183258D01*
X226634Y183323D01*
X226614Y183392D01*
X226585Y183435D01*
X226563Y183482D01*
X226515Y183535D01*
X226474Y183594D01*
X226432Y183625D01*
X226397Y183663D01*
X226334Y183698D01*
X226277Y183741D01*
X226227Y183757D01*
X226181Y183782D01*
X226111Y183795D01*
X226043Y183817D01*
X225991Y183816D01*
X225939Y183826D01*
X225868Y183815D01*
X225797Y183815D01*
X225728Y183795D01*
X225696Y183790D01*
X225675Y183779D01*
X225636Y183768D01*
X223453Y182864D01*
X221047Y182864D01*
X218824Y183785D01*
X217122Y185486D01*
X216201Y187709D01*
X216201Y190116D01*
X217105Y192298D01*
X217122Y192368D01*
X217147Y192435D01*
X217150Y192487D01*
X217161Y192538D01*
X217155Y192609D01*
X217158Y192681D01*
X217143Y192731D01*
X217138Y192783D01*
X217109Y192848D01*
X217089Y192917D01*
X217060Y192960D01*
X217038Y193007D01*
X216990Y193060D01*
X216949Y193119D01*
X216907Y193150D01*
X216872Y193188D01*
X216809Y193223D01*
X216752Y193266D01*
X216702Y193282D01*
X216656Y193307D01*
X216586Y193320D01*
X216518Y193342D01*
X216466Y193341D01*
X216414Y193351D01*
X216343Y193340D01*
X216272Y193340D01*
X216203Y193320D01*
X216171Y193315D01*
X216150Y193304D01*
X216111Y193293D01*
X213928Y192389D01*
X211522Y192389D01*
X209299Y193310D01*
X207597Y195011D01*
X206676Y197234D01*
X206676Y199641D01*
X207580Y201823D01*
X207597Y201893D01*
X207622Y201960D01*
X207625Y202012D01*
X207636Y202063D01*
X207630Y202134D01*
X207633Y202206D01*
X207618Y202256D01*
X207613Y202308D01*
X207584Y202373D01*
X207564Y202442D01*
X207535Y202485D01*
X207513Y202532D01*
X207465Y202585D01*
X207424Y202644D01*
X207382Y202675D01*
X207347Y202713D01*
X207284Y202748D01*
X207227Y202791D01*
X207177Y202807D01*
X207131Y202832D01*
X207061Y202845D01*
X206993Y202867D01*
X206941Y202866D01*
X206889Y202876D01*
X206818Y202865D01*
X206747Y202865D01*
X206678Y202845D01*
X206646Y202840D01*
X206625Y202829D01*
X206586Y202818D01*
X204403Y201914D01*
X201997Y201914D01*
X199774Y202835D01*
X198072Y204536D01*
X197151Y206759D01*
X197151Y209166D01*
X198055Y211348D01*
X198072Y211418D01*
X198097Y211485D01*
X198100Y211537D01*
X198111Y211588D01*
X198105Y211659D01*
X198108Y211731D01*
X198093Y211781D01*
X198088Y211833D01*
X198059Y211898D01*
X198039Y211967D01*
X198010Y212010D01*
X197988Y212057D01*
X197940Y212110D01*
X197899Y212169D01*
X197857Y212200D01*
X197822Y212238D01*
X197759Y212273D01*
X197702Y212316D01*
X197652Y212332D01*
X197606Y212357D01*
X197536Y212370D01*
X197468Y212392D01*
X197416Y212391D01*
X197364Y212401D01*
X197293Y212390D01*
X197222Y212390D01*
X197153Y212370D01*
X197121Y212365D01*
X197100Y212354D01*
X197061Y212343D01*
X194878Y211439D01*
X192472Y211439D01*
X190249Y212360D01*
X188547Y214061D01*
X187626Y216284D01*
X187626Y218691D01*
X188547Y220914D01*
X190249Y222615D01*
X192472Y223536D01*
X194945Y223536D01*
X195013Y223519D01*
X195019Y223520D01*
X195025Y223518D01*
X195142Y223529D01*
X195258Y223538D01*
X195264Y223541D01*
X195270Y223541D01*
X195378Y223589D01*
X195484Y223635D01*
X195490Y223639D01*
X195495Y223641D01*
X195508Y223654D01*
X195615Y223739D01*
X201516Y229640D01*
X201561Y229703D01*
X201583Y229726D01*
X201588Y229736D01*
X201628Y229783D01*
X201641Y229813D01*
X201659Y229840D01*
X201686Y229927D01*
X201720Y230011D01*
X201725Y230052D01*
X201732Y230075D01*
X201731Y230107D01*
X201739Y230178D01*
X201739Y347338D01*
X239793Y385392D01*
X239804Y385408D01*
X239820Y385421D01*
X239876Y385508D01*
X239936Y385591D01*
X239942Y385611D01*
X239953Y385628D01*
X239978Y385728D01*
X240009Y385826D01*
X240008Y385847D01*
X240013Y385866D01*
X240005Y385969D01*
X240002Y386072D01*
X239995Y386091D01*
X239994Y386111D01*
X239953Y386206D01*
X239918Y386303D01*
X239905Y386319D01*
X239897Y386338D01*
X239886Y386351D01*
X238188Y390452D01*
X238188Y394848D01*
X239870Y398909D01*
X242978Y402017D01*
X247040Y403700D01*
X251435Y403700D01*
X251525Y403714D01*
X251616Y403722D01*
X251646Y403734D01*
X251678Y403739D01*
X251759Y403782D01*
X251843Y403818D01*
X251875Y403844D01*
X251895Y403855D01*
X251913Y403873D01*
X251915Y403874D01*
X251922Y403881D01*
X251974Y403923D01*
X292425Y444374D01*
X296657Y444374D01*
X296727Y444385D01*
X296799Y444387D01*
X296848Y444405D01*
X296899Y444413D01*
X296963Y444447D01*
X297030Y444472D01*
X297071Y444504D01*
X297117Y444529D01*
X297166Y444581D01*
X297222Y444625D01*
X297250Y444669D01*
X297286Y444707D01*
X297316Y444772D01*
X297355Y444832D01*
X297368Y444883D01*
X297390Y444930D01*
X297398Y445001D01*
X297415Y445071D01*
X297411Y445123D01*
X297417Y445174D01*
X297402Y445245D01*
X297396Y445316D01*
X297376Y445364D01*
X297365Y445415D01*
X297328Y445476D01*
X297300Y445542D01*
X297255Y445598D01*
X297238Y445626D01*
X297221Y445641D01*
X297195Y445673D01*
X293052Y449816D01*
X293052Y452502D01*
X302450Y452502D01*
X302470Y452505D01*
X302490Y452503D01*
X302591Y452525D01*
X302693Y452542D01*
X302711Y452551D01*
X302730Y452555D01*
X302819Y452608D01*
X302910Y452657D01*
X302924Y452671D01*
X302941Y452681D01*
X303009Y452760D01*
X303080Y452835D01*
X303088Y452853D01*
X303101Y452868D01*
X303140Y452964D01*
X303183Y453058D01*
X303186Y453078D01*
X303193Y453096D01*
X303212Y453263D01*
X303212Y454026D01*
X303213Y454026D01*
X303213Y453263D01*
X303217Y453243D01*
X303214Y453224D01*
X303236Y453122D01*
X303253Y453020D01*
X303262Y453003D01*
X303267Y452983D01*
X303320Y452894D01*
X303368Y452803D01*
X303383Y452789D01*
X303393Y452772D01*
X303472Y452705D01*
X303547Y452634D01*
X303565Y452625D01*
X303580Y452612D01*
X303676Y452573D01*
X303770Y452530D01*
X303789Y452528D01*
X303808Y452520D01*
X303975Y452502D01*
X313373Y452502D01*
X313373Y449816D01*
X309230Y445673D01*
X309188Y445615D01*
X309139Y445563D01*
X309117Y445516D01*
X309087Y445474D01*
X309066Y445405D01*
X309035Y445340D01*
X309030Y445288D01*
X309014Y445238D01*
X309016Y445167D01*
X309008Y445096D01*
X309019Y445045D01*
X309021Y444993D01*
X309045Y444925D01*
X309060Y444855D01*
X309087Y444810D01*
X309105Y444762D01*
X309150Y444706D01*
X309187Y444644D01*
X309226Y444610D01*
X309259Y444570D01*
X309319Y444531D01*
X309374Y444484D01*
X309422Y444465D01*
X309466Y444437D01*
X309535Y444419D01*
X309602Y444392D01*
X309673Y444384D01*
X309704Y444376D01*
X309728Y444378D01*
X309768Y444374D01*
X323493Y444374D01*
X323564Y444385D01*
X323636Y444387D01*
X323685Y444405D01*
X323736Y444413D01*
X323799Y444447D01*
X323867Y444472D01*
X323907Y444504D01*
X323954Y444529D01*
X324003Y444581D01*
X324059Y444625D01*
X324087Y444669D01*
X324123Y444707D01*
X324153Y444772D01*
X324192Y444832D01*
X324205Y444883D01*
X324227Y444930D01*
X324234Y445001D01*
X324252Y445071D01*
X324248Y445123D01*
X324254Y445174D01*
X324238Y445245D01*
X324233Y445316D01*
X324212Y445364D01*
X324201Y445415D01*
X324165Y445476D01*
X324136Y445542D01*
X324092Y445598D01*
X324075Y445626D01*
X324057Y445641D01*
X324032Y445673D01*
X319468Y450237D01*
X319468Y457813D01*
X324825Y463170D01*
X332400Y463170D01*
X337757Y457813D01*
X337757Y450237D01*
X333193Y445673D01*
X333151Y445615D01*
X333102Y445563D01*
X333080Y445516D01*
X333050Y445474D01*
X333029Y445405D01*
X332998Y445340D01*
X332993Y445288D01*
X332977Y445238D01*
X332979Y445167D01*
X332971Y445096D01*
X332982Y445045D01*
X332984Y444993D01*
X333008Y444925D01*
X333024Y444855D01*
X333050Y444810D01*
X333068Y444762D01*
X333113Y444706D01*
X333150Y444644D01*
X333189Y444610D01*
X333222Y444570D01*
X333282Y444531D01*
X333337Y444484D01*
X333385Y444465D01*
X333429Y444437D01*
X333498Y444419D01*
X333565Y444392D01*
X333636Y444384D01*
X333667Y444376D01*
X333691Y444378D01*
X333732Y444374D01*
X336225Y444374D01*
X351877Y428722D01*
X351951Y428669D01*
X352021Y428609D01*
X352051Y428597D01*
X352077Y428578D01*
X352164Y428551D01*
X352249Y428517D01*
X352290Y428513D01*
X352312Y428506D01*
X352344Y428507D01*
X352416Y428499D01*
X375348Y428499D01*
X375463Y428518D01*
X375579Y428535D01*
X375585Y428537D01*
X375591Y428538D01*
X375694Y428593D01*
X375799Y428646D01*
X375803Y428651D01*
X375809Y428654D01*
X375888Y428738D01*
X375971Y428822D01*
X375975Y428828D01*
X375978Y428832D01*
X375986Y428849D01*
X376052Y428969D01*
X376740Y430630D01*
X379312Y433203D01*
X382674Y434595D01*
X401551Y434595D01*
X404913Y433203D01*
X407485Y430630D01*
X408173Y428969D01*
X408235Y428869D01*
X408295Y428769D01*
X408300Y428765D01*
X408303Y428760D01*
X408392Y428685D01*
X408482Y428609D01*
X408488Y428607D01*
X408492Y428603D01*
X408600Y428561D01*
X408710Y428517D01*
X408717Y428516D01*
X408722Y428515D01*
X408740Y428514D01*
X408877Y428499D01*
X431475Y428499D01*
X479299Y380675D01*
X479299Y290893D01*
X479302Y290874D01*
X479300Y290854D01*
X479322Y290753D01*
X479338Y290651D01*
X479348Y290633D01*
X479352Y290614D01*
X479405Y290525D01*
X479454Y290433D01*
X479468Y290420D01*
X479478Y290403D01*
X479557Y290335D01*
X479632Y290264D01*
X479650Y290256D01*
X479665Y290243D01*
X479761Y290204D01*
X479855Y290160D01*
X479875Y290158D01*
X479893Y290151D01*
X480060Y290132D01*
X485689Y290132D01*
X489050Y288740D01*
X491623Y286168D01*
X493015Y282806D01*
X493015Y279169D01*
X491623Y275807D01*
X489050Y273235D01*
X485689Y271843D01*
X466811Y271843D01*
X463450Y273235D01*
X460877Y275807D01*
X460189Y277469D01*
X460128Y277568D01*
X460068Y277668D01*
X460063Y277673D01*
X460060Y277678D01*
X459970Y277752D01*
X459881Y277828D01*
X459875Y277831D01*
X459870Y277835D01*
X459762Y277876D01*
X459653Y277920D01*
X459645Y277921D01*
X459641Y277923D01*
X459622Y277924D01*
X459486Y277939D01*
X430203Y277939D01*
X430113Y277924D01*
X430022Y277917D01*
X429992Y277904D01*
X429960Y277899D01*
X429880Y277856D01*
X429796Y277821D01*
X429764Y277795D01*
X429743Y277784D01*
X429721Y277761D01*
X429665Y277716D01*
X420589Y268640D01*
X420521Y268546D01*
X420451Y268451D01*
X420449Y268446D01*
X420446Y268441D01*
X420412Y268329D01*
X420375Y268217D01*
X420375Y268211D01*
X420374Y268206D01*
X420377Y268089D01*
X420378Y267972D01*
X420380Y267965D01*
X420380Y267960D01*
X420386Y267943D01*
X420386Y267942D01*
X420386Y265497D01*
X419465Y263274D01*
X417764Y261572D01*
X415541Y260651D01*
X413134Y260651D01*
X410911Y261572D01*
X409210Y263274D01*
X408289Y265497D01*
X408289Y267903D01*
X409210Y270126D01*
X410911Y271828D01*
X413134Y272749D01*
X415608Y272749D01*
X415675Y272732D01*
X415681Y272732D01*
X415687Y272731D01*
X415805Y272742D01*
X415921Y272751D01*
X415926Y272753D01*
X415932Y272754D01*
X416040Y272802D01*
X416147Y272847D01*
X416153Y272852D01*
X416157Y272854D01*
X416171Y272866D01*
X416278Y272952D01*
X425353Y282027D01*
X427362Y284036D01*
X459486Y284036D01*
X459601Y284055D01*
X459717Y284072D01*
X459723Y284075D01*
X459729Y284076D01*
X459831Y284130D01*
X459936Y284184D01*
X459941Y284188D01*
X459946Y284191D01*
X460026Y284275D01*
X460108Y284359D01*
X460112Y284366D01*
X460115Y284369D01*
X460123Y284386D01*
X460189Y284506D01*
X460877Y286168D01*
X463450Y288740D01*
X466811Y290132D01*
X472440Y290132D01*
X472460Y290135D01*
X472479Y290133D01*
X472581Y290155D01*
X472683Y290172D01*
X472700Y290181D01*
X472720Y290186D01*
X472809Y290239D01*
X472900Y290287D01*
X472914Y290301D01*
X472931Y290312D01*
X472998Y290390D01*
X473070Y290465D01*
X473078Y290483D01*
X473091Y290499D01*
X473130Y290595D01*
X473173Y290688D01*
X473175Y290708D01*
X473183Y290727D01*
X473201Y290893D01*
X473201Y377834D01*
X473196Y377865D01*
X473198Y377876D01*
X473186Y377929D01*
X473179Y378015D01*
X473167Y378045D01*
X473162Y378077D01*
X473149Y378101D01*
X473145Y378117D01*
X473114Y378170D01*
X473083Y378242D01*
X473057Y378274D01*
X473046Y378294D01*
X473030Y378311D01*
X473019Y378328D01*
X473003Y378342D01*
X472978Y378373D01*
X429173Y422178D01*
X429099Y422231D01*
X429029Y422291D01*
X428999Y422303D01*
X428973Y422322D01*
X428886Y422349D01*
X428801Y422383D01*
X428760Y422387D01*
X428738Y422394D01*
X428706Y422393D01*
X428634Y422401D01*
X408877Y422401D01*
X408762Y422382D01*
X408646Y422365D01*
X408640Y422363D01*
X408634Y422362D01*
X408531Y422307D01*
X408426Y422254D01*
X408422Y422249D01*
X408416Y422246D01*
X408337Y422162D01*
X408254Y422078D01*
X408250Y422072D01*
X408247Y422068D01*
X408239Y422051D01*
X408173Y421931D01*
X407485Y420270D01*
X404913Y417697D01*
X401551Y416305D01*
X382674Y416305D01*
X379312Y417697D01*
X376740Y420270D01*
X376052Y421931D01*
X375990Y422031D01*
X375930Y422131D01*
X375925Y422135D01*
X375922Y422140D01*
X375833Y422215D01*
X375743Y422291D01*
X375737Y422293D01*
X375733Y422297D01*
X375625Y422339D01*
X375515Y422383D01*
X375508Y422384D01*
X375503Y422385D01*
X375485Y422386D01*
X375348Y422401D01*
X349575Y422401D01*
X339057Y432919D01*
X338999Y432961D01*
X338947Y433010D01*
X338899Y433032D01*
X338857Y433063D01*
X338789Y433084D01*
X338723Y433114D01*
X338672Y433120D01*
X338622Y433135D01*
X338550Y433133D01*
X338479Y433141D01*
X338428Y433130D01*
X338376Y433129D01*
X338309Y433104D01*
X338239Y433089D01*
X338194Y433062D01*
X338145Y433044D01*
X338089Y432999D01*
X338028Y432963D01*
X337994Y432923D01*
X337953Y432891D01*
X337914Y432830D01*
X337868Y432776D01*
X337848Y432727D01*
X337820Y432684D01*
X337803Y432614D01*
X337776Y432548D01*
X337768Y432476D01*
X337760Y432445D01*
X337762Y432422D01*
X337757Y432381D01*
X337757Y424837D01*
X332400Y419480D01*
X324825Y419480D01*
X319468Y424837D01*
X319468Y432413D01*
X324032Y436977D01*
X324074Y437035D01*
X324123Y437087D01*
X324145Y437134D01*
X324175Y437176D01*
X324196Y437245D01*
X324227Y437310D01*
X324232Y437362D01*
X324248Y437412D01*
X324246Y437483D01*
X324254Y437554D01*
X324243Y437605D01*
X324241Y437657D01*
X324217Y437725D01*
X324201Y437795D01*
X324175Y437840D01*
X324157Y437888D01*
X324112Y437944D01*
X324075Y438006D01*
X324036Y438040D01*
X324003Y438080D01*
X323943Y438119D01*
X323888Y438166D01*
X323840Y438185D01*
X323796Y438213D01*
X323727Y438231D01*
X323660Y438258D01*
X323589Y438266D01*
X323558Y438274D01*
X323534Y438272D01*
X323493Y438276D01*
X308332Y438276D01*
X308261Y438265D01*
X308189Y438263D01*
X308140Y438245D01*
X308089Y438237D01*
X308026Y438203D01*
X307958Y438178D01*
X307918Y438146D01*
X307871Y438121D01*
X307822Y438069D01*
X307766Y438025D01*
X307738Y437981D01*
X307702Y437943D01*
X307672Y437878D01*
X307633Y437818D01*
X307620Y437767D01*
X307598Y437720D01*
X307591Y437649D01*
X307573Y437579D01*
X307577Y437527D01*
X307571Y437476D01*
X307587Y437405D01*
X307592Y437334D01*
X307613Y437286D01*
X307624Y437235D01*
X307660Y437174D01*
X307689Y437108D01*
X307733Y437052D01*
X307750Y437024D01*
X307768Y437009D01*
X307793Y436977D01*
X312357Y432413D01*
X312357Y424837D01*
X307000Y419480D01*
X299421Y419480D01*
X299412Y419492D01*
X299324Y419548D01*
X299241Y419608D01*
X299222Y419614D01*
X299205Y419625D01*
X299104Y419650D01*
X299005Y419681D01*
X298986Y419680D01*
X298966Y419685D01*
X298863Y419677D01*
X298760Y419674D01*
X298741Y419667D01*
X298721Y419666D01*
X298626Y419625D01*
X298529Y419590D01*
X298513Y419577D01*
X298495Y419569D01*
X298364Y419465D01*
X282672Y403773D01*
X282619Y403699D01*
X282559Y403629D01*
X282547Y403599D01*
X282528Y403573D01*
X282501Y403486D01*
X282467Y403401D01*
X282463Y403360D01*
X282456Y403338D01*
X282457Y403306D01*
X282449Y403234D01*
X282449Y362980D01*
X282468Y362865D01*
X282485Y362749D01*
X282487Y362744D01*
X282488Y362738D01*
X282543Y362635D01*
X282596Y362530D01*
X282601Y362526D01*
X282604Y362520D01*
X282688Y362440D01*
X282772Y362358D01*
X282778Y362354D01*
X282782Y362351D01*
X282798Y362343D01*
X284528Y360614D01*
X285449Y358391D01*
X285449Y355984D01*
X284528Y353761D01*
X282826Y352060D01*
X280603Y351139D01*
X278197Y351139D01*
X275974Y352060D01*
X274272Y353761D01*
X273351Y355984D01*
X273351Y356553D01*
X273350Y356560D01*
X273350Y356561D01*
X273348Y356570D01*
X273348Y356572D01*
X273350Y356592D01*
X273328Y356693D01*
X273312Y356795D01*
X273302Y356813D01*
X273298Y356832D01*
X273245Y356921D01*
X273196Y357013D01*
X273182Y357026D01*
X273172Y357043D01*
X273093Y357111D01*
X273018Y357182D01*
X273000Y357190D01*
X272985Y357203D01*
X272889Y357242D01*
X272795Y357286D01*
X272775Y357288D01*
X272757Y357295D01*
X272590Y357314D01*
X239703Y357314D01*
X239613Y357299D01*
X239522Y357292D01*
X239492Y357279D01*
X239460Y357274D01*
X239380Y357231D01*
X239296Y357196D01*
X239264Y357170D01*
X239243Y357159D01*
X239221Y357136D01*
X239165Y357091D01*
X233459Y351385D01*
X233406Y351311D01*
X233347Y351242D01*
X233334Y351212D01*
X233316Y351185D01*
X233289Y351098D01*
X233255Y351014D01*
X233250Y350973D01*
X233243Y350950D01*
X233244Y350918D01*
X233236Y350847D01*
X233236Y289025D01*
X233255Y288911D01*
X233272Y288795D01*
X233275Y288789D01*
X233276Y288783D01*
X233330Y288680D01*
X233384Y288575D01*
X233388Y288571D01*
X233391Y288565D01*
X233475Y288486D01*
X233559Y288403D01*
X233566Y288399D01*
X233569Y288396D01*
X233586Y288388D01*
X233706Y288322D01*
X235201Y287703D01*
X236952Y285952D01*
X237010Y285911D01*
X237062Y285861D01*
X237109Y285839D01*
X237151Y285809D01*
X237220Y285788D01*
X237285Y285758D01*
X237337Y285752D01*
X237387Y285737D01*
X237458Y285738D01*
X237529Y285731D01*
X237580Y285742D01*
X237632Y285743D01*
X237700Y285768D01*
X237770Y285783D01*
X237815Y285809D01*
X237863Y285827D01*
X237919Y285872D01*
X237981Y285909D01*
X238015Y285949D01*
X238055Y285981D01*
X238094Y286041D01*
X238141Y286096D01*
X238160Y286144D01*
X238188Y286188D01*
X238206Y286257D01*
X238233Y286324D01*
X238241Y286395D01*
X238249Y286427D01*
X238247Y286450D01*
X238251Y286491D01*
X238251Y302182D01*
X238232Y302297D01*
X238215Y302413D01*
X238213Y302419D01*
X238212Y302425D01*
X238157Y302528D01*
X238104Y302632D01*
X238099Y302637D01*
X238096Y302642D01*
X238012Y302723D01*
X237928Y302805D01*
X237922Y302808D01*
X237918Y302812D01*
X237902Y302819D01*
X236172Y304549D01*
X235251Y306772D01*
X235251Y309178D01*
X236172Y311401D01*
X237874Y313103D01*
X240097Y314024D01*
X242503Y314024D01*
X244726Y313103D01*
X246428Y311401D01*
X247349Y309178D01*
X247349Y306772D01*
X246428Y304549D01*
X244679Y302800D01*
X244619Y302764D01*
X244615Y302759D01*
X244610Y302756D01*
X244535Y302666D01*
X244459Y302577D01*
X244457Y302571D01*
X244453Y302566D01*
X244411Y302458D01*
X244367Y302349D01*
X244366Y302341D01*
X244365Y302337D01*
X244364Y302319D01*
X244349Y302182D01*
X244349Y244800D01*
X209452Y209903D01*
X209384Y209809D01*
X209314Y209714D01*
X209312Y209708D01*
X209308Y209703D01*
X209274Y209592D01*
X209238Y209480D01*
X209238Y209474D01*
X209236Y209468D01*
X209239Y209351D01*
X209240Y209234D01*
X209242Y209227D01*
X209242Y209222D01*
X209249Y209205D01*
X209249Y206759D01*
X208345Y204577D01*
X208328Y204507D01*
X208303Y204440D01*
X208300Y204388D01*
X208289Y204337D01*
X208295Y204266D01*
X208292Y204194D01*
X208307Y204144D01*
X208312Y204092D01*
X208341Y204027D01*
X208361Y203958D01*
X208390Y203915D01*
X208412Y203868D01*
X208460Y203815D01*
X208501Y203756D01*
X208543Y203725D01*
X208578Y203687D01*
X208641Y203652D01*
X208698Y203609D01*
X208748Y203593D01*
X208794Y203568D01*
X208864Y203555D01*
X208932Y203533D01*
X208984Y203534D01*
X209036Y203524D01*
X209107Y203535D01*
X209178Y203535D01*
X209247Y203555D01*
X209279Y203560D01*
X209300Y203571D01*
X209339Y203582D01*
X211522Y204486D01*
X213996Y204486D01*
X214063Y204469D01*
X214069Y204470D01*
X214075Y204468D01*
X214192Y204479D01*
X214308Y204488D01*
X214314Y204491D01*
X214320Y204491D01*
X214428Y204539D01*
X214534Y204585D01*
X214540Y204589D01*
X214545Y204591D01*
X214559Y204604D01*
X214665Y204690D01*
X249141Y239165D01*
X249194Y239239D01*
X249253Y239308D01*
X249266Y239338D01*
X249284Y239365D01*
X249311Y239452D01*
X249345Y239536D01*
X249350Y239577D01*
X249357Y239600D01*
X249356Y239632D01*
X249364Y239703D01*
X249364Y311707D01*
X249345Y311822D01*
X249328Y311938D01*
X249325Y311944D01*
X249324Y311950D01*
X249269Y312053D01*
X249216Y312157D01*
X249212Y312162D01*
X249209Y312167D01*
X249124Y312248D01*
X249041Y312330D01*
X249034Y312333D01*
X249031Y312337D01*
X249014Y312344D01*
X247285Y314074D01*
X246364Y316297D01*
X246364Y318703D01*
X247285Y320926D01*
X248986Y322628D01*
X251209Y323549D01*
X253616Y323549D01*
X255839Y322628D01*
X257540Y320926D01*
X258461Y318703D01*
X258461Y316297D01*
X257540Y314074D01*
X255791Y312325D01*
X255732Y312289D01*
X255728Y312284D01*
X255722Y312281D01*
X255648Y312191D01*
X255572Y312102D01*
X255569Y312096D01*
X255565Y312091D01*
X255524Y311983D01*
X255480Y311874D01*
X255479Y311866D01*
X255477Y311862D01*
X255476Y311844D01*
X255461Y311707D01*
X255461Y236862D01*
X218977Y200378D01*
X218909Y200284D01*
X218839Y200189D01*
X218837Y200183D01*
X218833Y200178D01*
X218799Y200067D01*
X218763Y199955D01*
X218763Y199949D01*
X218761Y199943D01*
X218764Y199826D01*
X218765Y199709D01*
X218767Y199702D01*
X218767Y199697D01*
X218774Y199680D01*
X218774Y197234D01*
X217870Y195052D01*
X217853Y194982D01*
X217828Y194915D01*
X217825Y194863D01*
X217814Y194812D01*
X217820Y194741D01*
X217817Y194669D01*
X217832Y194619D01*
X217837Y194567D01*
X217866Y194502D01*
X217886Y194433D01*
X217915Y194390D01*
X217937Y194343D01*
X217985Y194290D01*
X218026Y194231D01*
X218068Y194200D01*
X218103Y194162D01*
X218166Y194127D01*
X218223Y194084D01*
X218273Y194068D01*
X218319Y194043D01*
X218389Y194030D01*
X218457Y194008D01*
X218509Y194009D01*
X218561Y193999D01*
X218632Y194010D01*
X218703Y194010D01*
X218772Y194030D01*
X218804Y194035D01*
X218825Y194046D01*
X218864Y194057D01*
X221047Y194961D01*
X223520Y194961D01*
X223588Y194944D01*
X223594Y194945D01*
X223600Y194943D01*
X223717Y194954D01*
X223833Y194963D01*
X223839Y194966D01*
X223845Y194966D01*
X223953Y195014D01*
X224059Y195060D01*
X224065Y195064D01*
X224070Y195066D01*
X224083Y195079D01*
X224190Y195164D01*
X266603Y237577D01*
X266656Y237651D01*
X266716Y237721D01*
X266728Y237751D01*
X266747Y237777D01*
X266774Y237864D01*
X266808Y237949D01*
X266812Y237990D01*
X266819Y238012D01*
X266818Y238044D01*
X266826Y238116D01*
X266826Y267257D01*
X266807Y267372D01*
X266790Y267488D01*
X266788Y267494D01*
X266787Y267500D01*
X266732Y267603D01*
X266679Y267707D01*
X266674Y267712D01*
X266671Y267717D01*
X266587Y267798D01*
X266503Y267880D01*
X266497Y267883D01*
X266493Y267887D01*
X266477Y267894D01*
X264747Y269624D01*
X263826Y271847D01*
X263826Y274253D01*
X264747Y276476D01*
X266449Y278178D01*
X268672Y279099D01*
X271078Y279099D01*
X273301Y278178D01*
X275003Y276476D01*
X275924Y274253D01*
X275924Y271847D01*
X275003Y269624D01*
X273254Y267875D01*
X273194Y267839D01*
X273190Y267834D01*
X273185Y267831D01*
X273110Y267741D01*
X273034Y267652D01*
X273032Y267646D01*
X273028Y267641D01*
X272986Y267533D01*
X272942Y267424D01*
X272941Y267416D01*
X272940Y267412D01*
X272939Y267394D01*
X272924Y267257D01*
X272924Y235275D01*
X270915Y233266D01*
X228502Y190853D01*
X228434Y190759D01*
X228364Y190664D01*
X228362Y190658D01*
X228358Y190653D01*
X228324Y190542D01*
X228288Y190430D01*
X228288Y190424D01*
X228286Y190418D01*
X228289Y190301D01*
X228290Y190184D01*
X228292Y190177D01*
X228292Y190172D01*
X228299Y190155D01*
X228299Y187709D01*
X227395Y185527D01*
X227384Y185483D01*
X227367Y185446D01*
X227364Y185420D01*
X227353Y185390D01*
X227350Y185338D01*
X227339Y185287D01*
X227344Y185234D01*
X227340Y185201D01*
X227344Y185183D01*
X227342Y185144D01*
X227357Y185094D01*
X227362Y185042D01*
X227387Y184986D01*
X227392Y184961D01*
X227399Y184950D01*
X227411Y184908D01*
X227440Y184865D01*
X227462Y184818D01*
X227508Y184768D01*
X227518Y184750D01*
X227524Y184745D01*
X227551Y184706D01*
X227593Y184675D01*
X227628Y184637D01*
X227691Y184602D01*
X227692Y184601D01*
X227705Y184590D01*
X227710Y184588D01*
X227748Y184559D01*
X227798Y184543D01*
X227844Y184518D01*
X227914Y184505D01*
X227920Y184503D01*
X227933Y184498D01*
X227938Y184497D01*
X227982Y184483D01*
X228034Y184484D01*
X228086Y184474D01*
X228157Y184485D01*
X228228Y184485D01*
X228297Y184505D01*
X228329Y184510D01*
X228344Y184518D01*
X228353Y184519D01*
X228364Y184525D01*
X228389Y184532D01*
X230572Y185436D01*
X233046Y185436D01*
X233113Y185419D01*
X233119Y185420D01*
X233125Y185418D01*
X233242Y185429D01*
X233358Y185438D01*
X233364Y185441D01*
X233370Y185441D01*
X233478Y185489D01*
X233584Y185535D01*
X233590Y185539D01*
X233595Y185541D01*
X233609Y185554D01*
X233715Y185640D01*
X282478Y234402D01*
X282531Y234476D01*
X282591Y234546D01*
X282603Y234576D01*
X282622Y234602D01*
X282649Y234689D01*
X282683Y234774D01*
X282687Y234815D01*
X282694Y234837D01*
X282693Y234869D01*
X282701Y234941D01*
X282701Y248207D01*
X282683Y248321D01*
X282665Y248438D01*
X282663Y248444D01*
X282662Y248450D01*
X282607Y248553D01*
X282554Y248657D01*
X282549Y248662D01*
X282546Y248667D01*
X282462Y248748D01*
X282378Y248830D01*
X282372Y248833D01*
X282368Y248837D01*
X282352Y248844D01*
X280622Y250574D01*
X279701Y252797D01*
X279701Y255203D01*
X280622Y257426D01*
X282324Y259128D01*
X284547Y260049D01*
X286953Y260049D01*
X289176Y259128D01*
X290878Y257426D01*
X291318Y256364D01*
X291369Y256281D01*
X291415Y256196D01*
X291433Y256178D01*
X291447Y256155D01*
X291523Y256093D01*
X291593Y256026D01*
X291617Y256015D01*
X291637Y255999D01*
X291728Y255964D01*
X291816Y255923D01*
X291842Y255920D01*
X291866Y255910D01*
X291964Y255906D01*
X292060Y255896D01*
X292086Y255901D01*
X292112Y255900D01*
X292206Y255927D01*
X292301Y255948D01*
X292323Y255961D01*
X292348Y255968D01*
X292428Y256024D01*
X292512Y256074D01*
X292529Y256094D01*
X292550Y256109D01*
X292609Y256187D01*
X292672Y256261D01*
X292682Y256285D01*
X292697Y256306D01*
X292727Y256399D01*
X292764Y256489D01*
X292767Y256521D01*
X292773Y256540D01*
X292773Y256573D01*
X292782Y256656D01*
X292782Y269328D01*
X292768Y269418D01*
X292760Y269509D01*
X292748Y269539D01*
X292743Y269571D01*
X292700Y269652D01*
X292664Y269736D01*
X292638Y269768D01*
X292627Y269788D01*
X292604Y269811D01*
X292559Y269867D01*
X271815Y290611D01*
X271721Y290678D01*
X271626Y290749D01*
X271621Y290751D01*
X271616Y290754D01*
X271505Y290788D01*
X271392Y290825D01*
X271386Y290825D01*
X271381Y290826D01*
X271264Y290823D01*
X271147Y290822D01*
X271140Y290820D01*
X271135Y290820D01*
X271118Y290814D01*
X271117Y290814D01*
X268672Y290814D01*
X266449Y291735D01*
X264747Y293436D01*
X263826Y295659D01*
X263826Y298066D01*
X264747Y300289D01*
X266449Y301990D01*
X268672Y302911D01*
X271078Y302911D01*
X273301Y301990D01*
X275003Y300289D01*
X275924Y298066D01*
X275924Y295592D01*
X275907Y295525D01*
X275907Y295519D01*
X275906Y295513D01*
X275917Y295395D01*
X275926Y295279D01*
X275928Y295274D01*
X275929Y295268D01*
X275977Y295160D01*
X276022Y295053D01*
X276027Y295047D01*
X276029Y295043D01*
X276041Y295029D01*
X276127Y294922D01*
X298880Y272169D01*
X298880Y223131D01*
X296871Y221122D01*
X247552Y171803D01*
X247484Y171709D01*
X247414Y171614D01*
X247412Y171608D01*
X247408Y171603D01*
X247374Y171492D01*
X247338Y171380D01*
X247338Y171374D01*
X247336Y171368D01*
X247339Y171251D01*
X247340Y171134D01*
X247342Y171127D01*
X247342Y171122D01*
X247349Y171105D01*
X247349Y168659D01*
X246445Y166477D01*
X246435Y166437D01*
X246425Y166414D01*
X246422Y166391D01*
X246403Y166340D01*
X246400Y166288D01*
X246389Y166237D01*
X246395Y166166D01*
X246392Y166094D01*
X246407Y166044D01*
X246412Y165992D01*
X246441Y165927D01*
X246461Y165858D01*
X246490Y165815D01*
X246512Y165768D01*
X246560Y165715D01*
X246601Y165656D01*
X246643Y165625D01*
X246678Y165587D01*
X246741Y165552D01*
X246798Y165509D01*
X246848Y165493D01*
X246894Y165468D01*
X246964Y165455D01*
X247032Y165433D01*
X247084Y165434D01*
X247136Y165424D01*
X247207Y165435D01*
X247278Y165435D01*
X247347Y165455D01*
X247379Y165460D01*
X247400Y165471D01*
X247439Y165482D01*
X249622Y166386D01*
X252095Y166386D01*
X252163Y166369D01*
X252169Y166370D01*
X252175Y166368D01*
X252292Y166379D01*
X252408Y166388D01*
X252414Y166391D01*
X252420Y166391D01*
X252528Y166439D01*
X252634Y166485D01*
X252640Y166489D01*
X252645Y166491D01*
X252658Y166504D01*
X252765Y166589D01*
X301528Y215352D01*
X301581Y215426D01*
X301641Y215496D01*
X301653Y215526D01*
X301672Y215552D01*
X301699Y215639D01*
X301733Y215724D01*
X301737Y215765D01*
X301744Y215787D01*
X301743Y215819D01*
X301751Y215891D01*
X301751Y282584D01*
X301737Y282674D01*
X301729Y282765D01*
X301717Y282795D01*
X301712Y282827D01*
X301669Y282908D01*
X301633Y282992D01*
X301607Y283024D01*
X301596Y283044D01*
X301573Y283067D01*
X301528Y283123D01*
X294040Y290611D01*
X293946Y290679D01*
X293851Y290749D01*
X293846Y290751D01*
X293841Y290754D01*
X293729Y290788D01*
X293617Y290825D01*
X293611Y290825D01*
X293606Y290826D01*
X293489Y290823D01*
X293372Y290822D01*
X293365Y290820D01*
X293360Y290820D01*
X293343Y290814D01*
X293342Y290814D01*
X290897Y290814D01*
X288674Y291735D01*
X286972Y293436D01*
X286051Y295659D01*
X286051Y298066D01*
X286972Y300289D01*
X288674Y301990D01*
X290897Y302911D01*
X293303Y302911D01*
X295526Y301990D01*
X297228Y300289D01*
X298149Y298066D01*
X298149Y295592D01*
X298132Y295525D01*
X298132Y295519D01*
X298131Y295513D01*
X298142Y295395D01*
X298151Y295279D01*
X298153Y295274D01*
X298154Y295268D01*
X298202Y295160D01*
X298247Y295053D01*
X298252Y295047D01*
X298254Y295043D01*
X298266Y295029D01*
X298352Y294922D01*
X307849Y285425D01*
X307849Y213050D01*
X305840Y211041D01*
X257077Y162278D01*
X257009Y162184D01*
X256939Y162089D01*
X256937Y162083D01*
X256933Y162078D01*
X256899Y161967D01*
X256863Y161855D01*
X256863Y161849D01*
X256861Y161843D01*
X256864Y161726D01*
X256865Y161609D01*
X256867Y161602D01*
X256867Y161597D01*
X256874Y161580D01*
X256874Y159134D01*
X255953Y156911D01*
X254251Y155210D01*
X252028Y154289D01*
X249622Y154289D01*
G37*
%LPD*%
G36*
X199582Y213060D02*
X199582Y213060D01*
X199653Y213060D01*
X199722Y213080D01*
X199754Y213085D01*
X199775Y213096D01*
X199814Y213107D01*
X201997Y214011D01*
X204471Y214011D01*
X204538Y213994D01*
X204544Y213995D01*
X204550Y213993D01*
X204667Y214004D01*
X204783Y214013D01*
X204789Y214016D01*
X204795Y214016D01*
X204903Y214064D01*
X205009Y214110D01*
X205015Y214114D01*
X205020Y214116D01*
X205034Y214129D01*
X205140Y214215D01*
X238028Y247102D01*
X238081Y247176D01*
X238141Y247246D01*
X238153Y247276D01*
X238172Y247302D01*
X238199Y247389D01*
X238233Y247474D01*
X238237Y247515D01*
X238244Y247537D01*
X238243Y247569D01*
X238251Y247641D01*
X238251Y278659D01*
X238240Y278730D01*
X238238Y278802D01*
X238220Y278851D01*
X238212Y278902D01*
X238178Y278965D01*
X238153Y279033D01*
X238121Y279073D01*
X238096Y279119D01*
X238044Y279169D01*
X238000Y279225D01*
X237956Y279253D01*
X237918Y279289D01*
X237853Y279319D01*
X237793Y279358D01*
X237742Y279370D01*
X237695Y279392D01*
X237624Y279400D01*
X237554Y279418D01*
X237502Y279414D01*
X237451Y279419D01*
X237380Y279404D01*
X237309Y279399D01*
X237261Y279378D01*
X237210Y279367D01*
X237149Y279330D01*
X237083Y279302D01*
X237027Y279258D01*
X236999Y279241D01*
X236984Y279223D01*
X236952Y279198D01*
X235201Y277447D01*
X232978Y276526D01*
X230572Y276526D01*
X228349Y277447D01*
X226647Y279149D01*
X225726Y281372D01*
X225726Y283778D01*
X226647Y286001D01*
X226916Y286270D01*
X226969Y286344D01*
X227028Y286413D01*
X227041Y286444D01*
X227059Y286470D01*
X227086Y286557D01*
X227120Y286642D01*
X227125Y286683D01*
X227132Y286705D01*
X227131Y286737D01*
X227139Y286808D01*
X227139Y353688D01*
X236862Y363411D01*
X275590Y363411D01*
X275610Y363414D01*
X275629Y363412D01*
X275731Y363434D01*
X275833Y363451D01*
X275850Y363460D01*
X275870Y363465D01*
X275959Y363518D01*
X276050Y363566D01*
X276064Y363580D01*
X276081Y363591D01*
X276148Y363669D01*
X276220Y363744D01*
X276228Y363762D01*
X276241Y363778D01*
X276280Y363874D01*
X276323Y363967D01*
X276325Y363987D01*
X276333Y364006D01*
X276351Y364172D01*
X276351Y406075D01*
X278360Y408084D01*
X294052Y423776D01*
X294064Y423792D01*
X294079Y423805D01*
X294135Y423892D01*
X294196Y423976D01*
X294202Y423995D01*
X294212Y424012D01*
X294238Y424112D01*
X294268Y424211D01*
X294268Y424231D01*
X294272Y424250D01*
X294264Y424353D01*
X294262Y424457D01*
X294255Y424476D01*
X294253Y424495D01*
X294213Y424590D01*
X294177Y424688D01*
X294165Y424704D01*
X294157Y424722D01*
X294068Y424833D01*
X294068Y432413D01*
X298632Y436977D01*
X298674Y437035D01*
X298723Y437087D01*
X298745Y437134D01*
X298775Y437176D01*
X298796Y437245D01*
X298827Y437310D01*
X298832Y437362D01*
X298848Y437412D01*
X298846Y437483D01*
X298854Y437554D01*
X298843Y437605D01*
X298841Y437657D01*
X298817Y437725D01*
X298801Y437795D01*
X298775Y437840D01*
X298757Y437888D01*
X298712Y437944D01*
X298675Y438006D01*
X298636Y438040D01*
X298603Y438080D01*
X298543Y438119D01*
X298488Y438166D01*
X298440Y438185D01*
X298396Y438213D01*
X298327Y438231D01*
X298260Y438258D01*
X298189Y438266D01*
X298158Y438274D01*
X298134Y438272D01*
X298093Y438276D01*
X295266Y438276D01*
X295176Y438262D01*
X295085Y438254D01*
X295055Y438242D01*
X295023Y438237D01*
X294942Y438194D01*
X294858Y438158D01*
X294826Y438132D01*
X294806Y438121D01*
X294783Y438098D01*
X294727Y438053D01*
X257632Y400958D01*
X257621Y400942D01*
X257605Y400930D01*
X257549Y400842D01*
X257489Y400759D01*
X257483Y400740D01*
X257472Y400723D01*
X257447Y400622D01*
X257416Y400524D01*
X257417Y400504D01*
X257412Y400484D01*
X257420Y400381D01*
X257423Y400278D01*
X257430Y400259D01*
X257431Y400239D01*
X257472Y400144D01*
X257507Y400047D01*
X257520Y400031D01*
X257528Y400013D01*
X257632Y399882D01*
X258605Y398909D01*
X260287Y394848D01*
X260287Y390452D01*
X258605Y386391D01*
X255497Y383283D01*
X251435Y381600D01*
X247040Y381600D01*
X245802Y382113D01*
X245688Y382140D01*
X245575Y382168D01*
X245568Y382168D01*
X245562Y382169D01*
X245446Y382158D01*
X245329Y382149D01*
X245324Y382147D01*
X245317Y382146D01*
X245210Y382098D01*
X245103Y382053D01*
X245097Y382048D01*
X245093Y382046D01*
X245079Y382033D01*
X244972Y381948D01*
X208059Y345035D01*
X208006Y344961D01*
X207947Y344892D01*
X207934Y344862D01*
X207916Y344835D01*
X207889Y344748D01*
X207855Y344664D01*
X207850Y344623D01*
X207843Y344600D01*
X207844Y344568D01*
X207836Y344497D01*
X207836Y227337D01*
X205827Y225328D01*
X199927Y219428D01*
X199859Y219333D01*
X199789Y219239D01*
X199787Y219233D01*
X199783Y219228D01*
X199749Y219117D01*
X199713Y219005D01*
X199713Y218999D01*
X199711Y218993D01*
X199714Y218876D01*
X199715Y218759D01*
X199717Y218752D01*
X199717Y218747D01*
X199724Y218730D01*
X199724Y216284D01*
X198820Y214102D01*
X198803Y214032D01*
X198778Y213965D01*
X198775Y213913D01*
X198764Y213862D01*
X198770Y213791D01*
X198767Y213719D01*
X198782Y213669D01*
X198787Y213617D01*
X198816Y213552D01*
X198836Y213483D01*
X198865Y213440D01*
X198887Y213393D01*
X198935Y213340D01*
X198976Y213281D01*
X199018Y213250D01*
X199053Y213212D01*
X199116Y213177D01*
X199173Y213134D01*
X199223Y213118D01*
X199269Y213093D01*
X199339Y213080D01*
X199407Y213058D01*
X199459Y213059D01*
X199511Y213049D01*
X199582Y213060D01*
G37*
%LPC*%
G36*
X431188Y68135D02*
X431188Y68135D01*
X427826Y69527D01*
X425254Y72099D01*
X423862Y75461D01*
X423862Y94338D01*
X425254Y97700D01*
X427826Y100272D01*
X429869Y101118D01*
X429968Y101180D01*
X430068Y101240D01*
X430073Y101244D01*
X430078Y101248D01*
X430152Y101338D01*
X430228Y101426D01*
X430231Y101432D01*
X430235Y101437D01*
X430276Y101546D01*
X430320Y101655D01*
X430321Y101662D01*
X430323Y101667D01*
X430324Y101685D01*
X430339Y101821D01*
X430339Y169872D01*
X430324Y169962D01*
X430317Y170053D01*
X430304Y170083D01*
X430299Y170115D01*
X430256Y170195D01*
X430221Y170279D01*
X430195Y170311D01*
X430184Y170332D01*
X430161Y170354D01*
X430116Y170410D01*
X400598Y199928D01*
X400524Y199981D01*
X400454Y200041D01*
X400424Y200053D01*
X400398Y200072D01*
X400311Y200099D01*
X400226Y200133D01*
X400185Y200137D01*
X400163Y200144D01*
X400131Y200143D01*
X400059Y200151D01*
X380443Y200151D01*
X380328Y200132D01*
X380212Y200115D01*
X380206Y200113D01*
X380200Y200112D01*
X380097Y200057D01*
X379993Y200004D01*
X379988Y199999D01*
X379983Y199996D01*
X379902Y199912D01*
X379820Y199828D01*
X379817Y199822D01*
X379813Y199818D01*
X379806Y199802D01*
X378076Y198072D01*
X375853Y197151D01*
X373447Y197151D01*
X371224Y198072D01*
X369522Y199774D01*
X368601Y201997D01*
X368601Y204403D01*
X369522Y206626D01*
X371224Y208328D01*
X373447Y209249D01*
X375853Y209249D01*
X378076Y208328D01*
X379825Y206579D01*
X379861Y206519D01*
X379866Y206515D01*
X379869Y206510D01*
X379959Y206435D01*
X380048Y206359D01*
X380054Y206357D01*
X380059Y206353D01*
X380167Y206311D01*
X380276Y206267D01*
X380284Y206266D01*
X380288Y206265D01*
X380306Y206264D01*
X380443Y206249D01*
X402900Y206249D01*
X436436Y172713D01*
X436436Y101506D01*
X436455Y101391D01*
X436472Y101275D01*
X436475Y101269D01*
X436476Y101263D01*
X436494Y101228D01*
X436495Y101223D01*
X436508Y101202D01*
X436530Y101161D01*
X436584Y101055D01*
X436588Y101051D01*
X436591Y101046D01*
X436616Y101022D01*
X436622Y101012D01*
X436667Y100974D01*
X436676Y100965D01*
X436759Y100883D01*
X436766Y100880D01*
X436769Y100876D01*
X436786Y100868D01*
X436796Y100863D01*
X436809Y100852D01*
X436834Y100842D01*
X436906Y100802D01*
X438187Y100272D01*
X440759Y97700D01*
X442151Y94338D01*
X442151Y75461D01*
X440759Y72099D01*
X438187Y69527D01*
X434825Y68135D01*
X431188Y68135D01*
G37*
%LPD*%
%LPC*%
G36*
X375034Y359076D02*
X375034Y359076D01*
X372811Y359997D01*
X371110Y361699D01*
X370189Y363922D01*
X370189Y366328D01*
X371110Y368551D01*
X372811Y370253D01*
X375034Y371174D01*
X377441Y371174D01*
X379664Y370253D01*
X381413Y368504D01*
X381449Y368444D01*
X381453Y368440D01*
X381457Y368435D01*
X381546Y368360D01*
X381636Y368284D01*
X381641Y368282D01*
X381646Y368278D01*
X381755Y368236D01*
X381864Y368192D01*
X381871Y368191D01*
X381876Y368190D01*
X381894Y368189D01*
X382030Y368174D01*
X454582Y368174D01*
X454697Y368193D01*
X454813Y368210D01*
X454819Y368212D01*
X454825Y368213D01*
X454928Y368268D01*
X455032Y368321D01*
X455037Y368326D01*
X455042Y368329D01*
X455123Y368413D01*
X455205Y368497D01*
X455208Y368503D01*
X455212Y368507D01*
X455219Y368523D01*
X456949Y370253D01*
X459172Y371174D01*
X461578Y371174D01*
X463801Y370253D01*
X465503Y368551D01*
X466424Y366328D01*
X466424Y363922D01*
X465503Y361699D01*
X463801Y359997D01*
X461578Y359076D01*
X459172Y359076D01*
X456949Y359997D01*
X455200Y361746D01*
X455164Y361806D01*
X455159Y361810D01*
X455156Y361815D01*
X455066Y361890D01*
X454977Y361966D01*
X454971Y361968D01*
X454966Y361972D01*
X454858Y362014D01*
X454749Y362058D01*
X454741Y362059D01*
X454737Y362060D01*
X454719Y362061D01*
X454582Y362076D01*
X382030Y362076D01*
X381915Y362057D01*
X381799Y362040D01*
X381794Y362038D01*
X381788Y362037D01*
X381685Y361982D01*
X381580Y361929D01*
X381576Y361924D01*
X381570Y361921D01*
X381490Y361837D01*
X381408Y361753D01*
X381404Y361747D01*
X381401Y361743D01*
X381393Y361727D01*
X379664Y359997D01*
X377441Y359076D01*
X375034Y359076D01*
G37*
%LPD*%
%LPC*%
G36*
X403375Y68135D02*
X403375Y68135D01*
X400013Y69527D01*
X397441Y72099D01*
X396049Y75461D01*
X396049Y94338D01*
X397441Y97700D01*
X400013Y100272D01*
X403375Y101664D01*
X407012Y101664D01*
X410374Y100272D01*
X412946Y97700D01*
X414338Y94338D01*
X414338Y75461D01*
X412946Y72099D01*
X410374Y69527D01*
X407012Y68135D01*
X403375Y68135D01*
G37*
%LPD*%
%LPC*%
G36*
X382674Y441705D02*
X382674Y441705D01*
X379312Y443097D01*
X376740Y445670D01*
X375348Y449031D01*
X375348Y452669D01*
X376740Y456030D01*
X379312Y458603D01*
X382674Y459995D01*
X401551Y459995D01*
X404913Y458603D01*
X407485Y456030D01*
X408877Y452669D01*
X408877Y449031D01*
X407485Y445670D01*
X404913Y443097D01*
X401551Y441705D01*
X382674Y441705D01*
G37*
%LPD*%
%LPC*%
G36*
X466811Y221043D02*
X466811Y221043D01*
X463450Y222435D01*
X460877Y225007D01*
X459485Y228369D01*
X459485Y232006D01*
X460877Y235368D01*
X463450Y237940D01*
X466811Y239332D01*
X485689Y239332D01*
X489050Y237940D01*
X491623Y235368D01*
X493015Y232006D01*
X493015Y228369D01*
X491623Y225007D01*
X489050Y222435D01*
X485689Y221043D01*
X466811Y221043D01*
G37*
%LPD*%
%LPC*%
G36*
X257325Y68135D02*
X257325Y68135D01*
X253963Y69527D01*
X251391Y72099D01*
X249999Y75461D01*
X249999Y94338D01*
X251391Y97700D01*
X253963Y100272D01*
X257325Y101664D01*
X260962Y101664D01*
X264324Y100272D01*
X266896Y97700D01*
X268288Y94338D01*
X268288Y75461D01*
X266896Y72099D01*
X264324Y69527D01*
X260962Y68135D01*
X257325Y68135D01*
G37*
%LPD*%
%LPC*%
G36*
X466811Y470243D02*
X466811Y470243D01*
X463450Y471635D01*
X460877Y474207D01*
X459485Y477569D01*
X459485Y481206D01*
X460877Y484568D01*
X463450Y487140D01*
X466811Y488532D01*
X485689Y488532D01*
X489050Y487140D01*
X491623Y484568D01*
X493015Y481206D01*
X493015Y477569D01*
X491623Y474207D01*
X489050Y471635D01*
X485689Y470243D01*
X466811Y470243D01*
G37*
%LPD*%
%LPC*%
G36*
X382674Y467105D02*
X382674Y467105D01*
X379312Y468497D01*
X376740Y471070D01*
X375348Y474431D01*
X375348Y478069D01*
X376740Y481430D01*
X379312Y484003D01*
X382674Y485395D01*
X401551Y485395D01*
X404913Y484003D01*
X407485Y481430D01*
X408877Y478069D01*
X408877Y474431D01*
X407485Y471070D01*
X404913Y468497D01*
X401551Y467105D01*
X382674Y467105D01*
G37*
%LPD*%
%LPC*%
G36*
X330350Y68135D02*
X330350Y68135D01*
X326988Y69527D01*
X324416Y72099D01*
X323024Y75461D01*
X323024Y94338D01*
X324416Y97700D01*
X326988Y100272D01*
X330350Y101664D01*
X333987Y101664D01*
X337349Y100272D01*
X339921Y97700D01*
X341313Y94338D01*
X341313Y75461D01*
X339921Y72099D01*
X337349Y69527D01*
X333987Y68135D01*
X330350Y68135D01*
G37*
%LPD*%
%LPC*%
G36*
X25721Y118300D02*
X25721Y118300D01*
X24828Y119193D01*
X24828Y140776D01*
X25721Y141669D01*
X47304Y141669D01*
X48197Y140776D01*
X48197Y119193D01*
X47304Y118300D01*
X25721Y118300D01*
G37*
%LPD*%
%LPC*%
G36*
X25721Y13525D02*
X25721Y13525D01*
X24828Y14418D01*
X24828Y36001D01*
X25721Y36894D01*
X47304Y36894D01*
X48197Y36001D01*
X48197Y14418D01*
X47304Y13525D01*
X25721Y13525D01*
G37*
%LPD*%
%LPC*%
G36*
X25721Y424878D02*
X25721Y424878D01*
X24828Y425771D01*
X24828Y447354D01*
X25721Y448247D01*
X47304Y448247D01*
X48197Y447354D01*
X48197Y425771D01*
X47304Y424878D01*
X25721Y424878D01*
G37*
%LPD*%
%LPC*%
G36*
X25721Y224853D02*
X25721Y224853D01*
X24828Y225746D01*
X24828Y247329D01*
X25721Y248222D01*
X47304Y248222D01*
X48197Y247329D01*
X48197Y225746D01*
X47304Y224853D01*
X25721Y224853D01*
G37*
%LPD*%
%LPC*%
G36*
X34188Y459878D02*
X34188Y459878D01*
X29894Y461657D01*
X26607Y464944D01*
X24828Y469238D01*
X24828Y473887D01*
X26607Y478181D01*
X29894Y481468D01*
X34188Y483247D01*
X38837Y483247D01*
X43131Y481468D01*
X46418Y478181D01*
X48197Y473887D01*
X48197Y469238D01*
X46418Y464944D01*
X43131Y461657D01*
X38837Y459878D01*
X34188Y459878D01*
G37*
%LPD*%
%LPC*%
G36*
X34188Y191856D02*
X34188Y191856D01*
X29894Y193635D01*
X26607Y196922D01*
X24828Y201216D01*
X24828Y205865D01*
X26607Y210159D01*
X29894Y213446D01*
X34188Y215225D01*
X38837Y215225D01*
X43131Y213446D01*
X46418Y210159D01*
X48197Y205865D01*
X48197Y201216D01*
X46418Y196922D01*
X43131Y193635D01*
X38837Y191856D01*
X34188Y191856D01*
G37*
%LPD*%
%LPC*%
G36*
X34188Y87081D02*
X34188Y87081D01*
X29894Y88860D01*
X26607Y92147D01*
X24828Y96441D01*
X24828Y101090D01*
X26607Y105384D01*
X29894Y108671D01*
X34188Y110450D01*
X38837Y110450D01*
X43131Y108671D01*
X46418Y105384D01*
X48197Y101090D01*
X48197Y96441D01*
X46418Y92147D01*
X43131Y88860D01*
X38837Y87081D01*
X34188Y87081D01*
G37*
%LPD*%
%LPC*%
G36*
X34188Y259853D02*
X34188Y259853D01*
X29894Y261632D01*
X26607Y264919D01*
X24828Y269213D01*
X24828Y273862D01*
X26607Y278156D01*
X29894Y281443D01*
X34188Y283222D01*
X38837Y283222D01*
X43131Y281443D01*
X46418Y278156D01*
X48197Y273862D01*
X48197Y269213D01*
X46418Y264919D01*
X43131Y261632D01*
X38837Y259853D01*
X34188Y259853D01*
G37*
%LPD*%
%LPC*%
G36*
X34188Y155078D02*
X34188Y155078D01*
X29894Y156857D01*
X26607Y160144D01*
X24828Y164438D01*
X24828Y169087D01*
X26607Y173381D01*
X29894Y176668D01*
X34188Y178447D01*
X38837Y178447D01*
X43131Y176668D01*
X46418Y173381D01*
X48197Y169087D01*
X48197Y164438D01*
X46418Y160144D01*
X43131Y156857D01*
X38837Y155078D01*
X34188Y155078D01*
G37*
%LPD*%
%LPC*%
G36*
X34188Y50303D02*
X34188Y50303D01*
X29894Y52082D01*
X26607Y55369D01*
X24828Y59663D01*
X24828Y64312D01*
X26607Y68606D01*
X29894Y71893D01*
X34188Y73672D01*
X38837Y73672D01*
X43131Y71893D01*
X46418Y68606D01*
X48197Y64312D01*
X48197Y59663D01*
X46418Y55369D01*
X43131Y52082D01*
X38837Y50303D01*
X34188Y50303D01*
G37*
%LPD*%
%LPC*%
G36*
X178777Y330263D02*
X178777Y330263D01*
X174716Y331945D01*
X171608Y335053D01*
X169925Y339115D01*
X169925Y343510D01*
X171608Y347572D01*
X174716Y350680D01*
X178777Y352362D01*
X183173Y352362D01*
X187234Y350680D01*
X190342Y347572D01*
X192025Y343510D01*
X192025Y339115D01*
X190342Y335053D01*
X187234Y331945D01*
X183173Y330263D01*
X178777Y330263D01*
G37*
%LPD*%
%LPC*%
G36*
X110515Y381063D02*
X110515Y381063D01*
X106453Y382745D01*
X103345Y385853D01*
X101663Y389915D01*
X101663Y394310D01*
X103345Y398372D01*
X106453Y401480D01*
X110515Y403162D01*
X114910Y403162D01*
X118972Y401480D01*
X122080Y398372D01*
X123762Y394310D01*
X123762Y389915D01*
X122080Y385853D01*
X118972Y382745D01*
X114910Y381063D01*
X110515Y381063D01*
G37*
%LPD*%
%LPC*%
G36*
X181359Y243189D02*
X181359Y243189D01*
X179136Y244110D01*
X177435Y245811D01*
X176514Y248034D01*
X176514Y250441D01*
X177435Y252664D01*
X179184Y254413D01*
X179243Y254449D01*
X179247Y254453D01*
X179253Y254457D01*
X179327Y254546D01*
X179403Y254636D01*
X179406Y254641D01*
X179410Y254646D01*
X179451Y254755D01*
X179495Y254864D01*
X179496Y254871D01*
X179498Y254876D01*
X179499Y254894D01*
X179514Y255030D01*
X179514Y268845D01*
X179495Y268960D01*
X179478Y269076D01*
X179475Y269081D01*
X179474Y269087D01*
X179419Y269190D01*
X179366Y269295D01*
X179362Y269299D01*
X179359Y269305D01*
X179274Y269385D01*
X179191Y269467D01*
X179184Y269471D01*
X179181Y269474D01*
X179164Y269482D01*
X177435Y271211D01*
X176514Y273434D01*
X176514Y275841D01*
X177435Y278064D01*
X179136Y279765D01*
X181359Y280686D01*
X183766Y280686D01*
X185989Y279765D01*
X187690Y278064D01*
X188611Y275841D01*
X188611Y273434D01*
X187690Y271211D01*
X185941Y269462D01*
X185882Y269426D01*
X185878Y269422D01*
X185872Y269418D01*
X185798Y269328D01*
X185722Y269239D01*
X185719Y269234D01*
X185715Y269229D01*
X185674Y269120D01*
X185630Y269011D01*
X185629Y269004D01*
X185627Y268999D01*
X185626Y268981D01*
X185611Y268845D01*
X185611Y255030D01*
X185630Y254915D01*
X185647Y254799D01*
X185650Y254794D01*
X185651Y254788D01*
X185706Y254684D01*
X185759Y254580D01*
X185763Y254576D01*
X185766Y254570D01*
X185851Y254490D01*
X185934Y254408D01*
X185941Y254404D01*
X185944Y254401D01*
X185961Y254393D01*
X187690Y252664D01*
X188611Y250441D01*
X188611Y248034D01*
X187690Y245811D01*
X185989Y244110D01*
X183766Y243189D01*
X181359Y243189D01*
G37*
%LPD*%
%LPC*%
G36*
X324825Y470280D02*
X324825Y470280D01*
X319468Y475637D01*
X319468Y483213D01*
X324825Y488570D01*
X332400Y488570D01*
X337757Y483213D01*
X337757Y475637D01*
X332400Y470280D01*
X324825Y470280D01*
G37*
%LPD*%
%LPC*%
G36*
X354987Y470280D02*
X354987Y470280D01*
X349630Y475637D01*
X349630Y483213D01*
X354987Y488570D01*
X362563Y488570D01*
X367920Y483213D01*
X367920Y475637D01*
X362563Y470280D01*
X354987Y470280D01*
G37*
%LPD*%
%LPC*%
G36*
X434362Y470280D02*
X434362Y470280D01*
X429005Y475637D01*
X429005Y483213D01*
X434362Y488570D01*
X441938Y488570D01*
X447295Y483213D01*
X447295Y475637D01*
X441938Y470280D01*
X434362Y470280D01*
G37*
%LPD*%
%LPC*%
G36*
X299425Y470280D02*
X299425Y470280D01*
X294068Y475637D01*
X294068Y483213D01*
X299425Y488570D01*
X307000Y488570D01*
X312357Y483213D01*
X312357Y475637D01*
X307000Y470280D01*
X299425Y470280D01*
G37*
%LPD*%
%LPC*%
G36*
X299425Y394080D02*
X299425Y394080D01*
X294068Y399437D01*
X294068Y407013D01*
X299425Y412370D01*
X307000Y412370D01*
X312357Y407013D01*
X312357Y399437D01*
X307000Y394080D01*
X299425Y394080D01*
G37*
%LPD*%
%LPC*%
G36*
X324825Y394080D02*
X324825Y394080D01*
X319468Y399437D01*
X319468Y407013D01*
X324825Y412370D01*
X332400Y412370D01*
X337757Y407013D01*
X337757Y399437D01*
X332400Y394080D01*
X324825Y394080D01*
G37*
%LPD*%
%LPC*%
G36*
X299425Y368680D02*
X299425Y368680D01*
X294068Y374037D01*
X294068Y381613D01*
X299425Y386970D01*
X307000Y386970D01*
X312357Y381613D01*
X312357Y374037D01*
X307000Y368680D01*
X299425Y368680D01*
G37*
%LPD*%
%LPC*%
G36*
X28623Y385597D02*
X28623Y385597D01*
X28608Y385693D01*
X28598Y385790D01*
X28588Y385814D01*
X28583Y385840D01*
X28538Y385926D01*
X28498Y386015D01*
X28481Y386034D01*
X28468Y386057D01*
X28398Y386124D01*
X28332Y386196D01*
X28309Y386209D01*
X28290Y386227D01*
X28202Y386268D01*
X28116Y386315D01*
X28091Y386319D01*
X28067Y386330D01*
X27970Y386341D01*
X27874Y386358D01*
X27848Y386355D01*
X27822Y386358D01*
X27727Y386337D01*
X27631Y386323D01*
X27608Y386311D01*
X27582Y386305D01*
X27499Y386255D01*
X27412Y386211D01*
X27393Y386193D01*
X27371Y386179D01*
X27308Y386105D01*
X27240Y386036D01*
X27224Y386007D01*
X27211Y385992D01*
X27199Y385961D01*
X27159Y385889D01*
X26993Y385488D01*
X26043Y384066D01*
X25800Y383823D01*
X25747Y383749D01*
X25687Y383680D01*
X25675Y383650D01*
X25656Y383624D01*
X25629Y383537D01*
X25595Y383452D01*
X25591Y383411D01*
X25584Y383388D01*
X25585Y383356D01*
X25577Y383285D01*
X25577Y381052D01*
X24568Y381253D01*
X23491Y381699D01*
X23403Y381720D01*
X23316Y381748D01*
X23283Y381748D01*
X23252Y381755D01*
X23161Y381746D01*
X23070Y381746D01*
X23030Y381734D01*
X23007Y381732D01*
X22978Y381719D01*
X22909Y381699D01*
X21832Y381253D01*
X20823Y381052D01*
X20823Y383285D01*
X20808Y383375D01*
X20801Y383466D01*
X20789Y383496D01*
X20783Y383528D01*
X20741Y383608D01*
X20705Y383692D01*
X20679Y383724D01*
X20668Y383745D01*
X20645Y383767D01*
X20600Y383823D01*
X20357Y384066D01*
X19407Y385488D01*
X19241Y385889D01*
X19190Y385972D01*
X19144Y386058D01*
X19126Y386076D01*
X19112Y386098D01*
X19037Y386160D01*
X18966Y386227D01*
X18942Y386238D01*
X18922Y386255D01*
X18831Y386289D01*
X18743Y386331D01*
X18717Y386333D01*
X18693Y386343D01*
X18595Y386347D01*
X18499Y386358D01*
X18473Y386352D01*
X18447Y386353D01*
X18353Y386326D01*
X18258Y386305D01*
X18236Y386292D01*
X18211Y386285D01*
X18131Y386229D01*
X18047Y386179D01*
X18030Y386159D01*
X18009Y386144D01*
X17950Y386066D01*
X17887Y385992D01*
X17877Y385968D01*
X17862Y385947D01*
X17832Y385855D01*
X17795Y385764D01*
X17792Y385732D01*
X17786Y385713D01*
X17786Y385680D01*
X17777Y385597D01*
X17777Y381052D01*
X16768Y381253D01*
X15188Y381907D01*
X13766Y382857D01*
X12557Y384066D01*
X11607Y385488D01*
X10953Y387068D01*
X10752Y388077D01*
X18538Y388077D01*
X18558Y388080D01*
X18577Y388078D01*
X18679Y388100D01*
X18781Y388117D01*
X18798Y388126D01*
X18818Y388130D01*
X18907Y388183D01*
X18998Y388232D01*
X19012Y388246D01*
X19029Y388256D01*
X19096Y388335D01*
X19167Y388410D01*
X19176Y388428D01*
X19189Y388443D01*
X19227Y388539D01*
X19271Y388633D01*
X19273Y388653D01*
X19281Y388671D01*
X19299Y388838D01*
X19299Y390362D01*
X19296Y390382D01*
X19298Y390401D01*
X19276Y390503D01*
X19259Y390605D01*
X19250Y390622D01*
X19246Y390642D01*
X19193Y390731D01*
X19144Y390822D01*
X19130Y390836D01*
X19120Y390853D01*
X19041Y390920D01*
X18966Y390991D01*
X18948Y391000D01*
X18933Y391013D01*
X18837Y391052D01*
X18743Y391095D01*
X18723Y391097D01*
X18705Y391105D01*
X18538Y391123D01*
X10752Y391123D01*
X10953Y392132D01*
X11607Y393712D01*
X12557Y395134D01*
X13766Y396343D01*
X15188Y397293D01*
X16768Y397947D01*
X17777Y398148D01*
X17777Y393603D01*
X17793Y393506D01*
X17802Y393410D01*
X17812Y393386D01*
X17817Y393360D01*
X17862Y393274D01*
X17902Y393185D01*
X17919Y393166D01*
X17932Y393142D01*
X18002Y393075D01*
X18068Y393004D01*
X18091Y392991D01*
X18110Y392973D01*
X18198Y392932D01*
X18284Y392885D01*
X18309Y392880D01*
X18333Y392869D01*
X18430Y392859D01*
X18526Y392841D01*
X18552Y392845D01*
X18577Y392842D01*
X18673Y392863D01*
X18769Y392877D01*
X18792Y392889D01*
X18818Y392895D01*
X18901Y392945D01*
X18988Y392989D01*
X19007Y393007D01*
X19029Y393021D01*
X19092Y393095D01*
X19160Y393164D01*
X19176Y393193D01*
X19189Y393208D01*
X19201Y393238D01*
X19241Y393311D01*
X19407Y393712D01*
X20357Y395134D01*
X20600Y395377D01*
X20653Y395451D01*
X20713Y395520D01*
X20725Y395550D01*
X20744Y395576D01*
X20771Y395663D01*
X20805Y395748D01*
X20809Y395789D01*
X20816Y395811D01*
X20815Y395844D01*
X20823Y395915D01*
X20823Y398148D01*
X21832Y397947D01*
X22909Y397501D01*
X22998Y397480D01*
X23084Y397452D01*
X23117Y397452D01*
X23148Y397445D01*
X23239Y397454D01*
X23330Y397454D01*
X23370Y397466D01*
X23393Y397468D01*
X23423Y397481D01*
X23491Y397501D01*
X24568Y397947D01*
X25577Y398148D01*
X25577Y395915D01*
X25592Y395825D01*
X25599Y395734D01*
X25611Y395704D01*
X25617Y395672D01*
X25659Y395592D01*
X25695Y395508D01*
X25721Y395476D01*
X25732Y395455D01*
X25755Y395433D01*
X25800Y395377D01*
X26043Y395134D01*
X26993Y393712D01*
X27159Y393311D01*
X27210Y393229D01*
X27256Y393143D01*
X27274Y393125D01*
X27288Y393102D01*
X27363Y393040D01*
X27434Y392973D01*
X27458Y392962D01*
X27478Y392946D01*
X27568Y392911D01*
X27657Y392870D01*
X27683Y392867D01*
X27707Y392857D01*
X27805Y392853D01*
X27901Y392842D01*
X27927Y392848D01*
X27953Y392847D01*
X28047Y392874D01*
X28142Y392895D01*
X28164Y392908D01*
X28189Y392915D01*
X28269Y392971D01*
X28353Y393021D01*
X28370Y393041D01*
X28391Y393056D01*
X28449Y393134D01*
X28513Y393208D01*
X28523Y393232D01*
X28538Y393253D01*
X28568Y393345D01*
X28605Y393436D01*
X28608Y393468D01*
X28614Y393487D01*
X28614Y393520D01*
X28623Y393603D01*
X28623Y398148D01*
X29632Y397947D01*
X31212Y397293D01*
X32634Y396343D01*
X33843Y395134D01*
X34793Y393712D01*
X35447Y392132D01*
X35648Y391123D01*
X27862Y391123D01*
X27842Y391120D01*
X27823Y391122D01*
X27721Y391100D01*
X27619Y391083D01*
X27602Y391074D01*
X27582Y391070D01*
X27493Y391017D01*
X27402Y390968D01*
X27388Y390954D01*
X27371Y390944D01*
X27304Y390865D01*
X27233Y390790D01*
X27224Y390772D01*
X27211Y390757D01*
X27173Y390661D01*
X27129Y390567D01*
X27127Y390547D01*
X27119Y390529D01*
X27101Y390362D01*
X27101Y388838D01*
X27104Y388818D01*
X27102Y388799D01*
X27124Y388697D01*
X27141Y388595D01*
X27150Y388578D01*
X27154Y388558D01*
X27207Y388469D01*
X27256Y388378D01*
X27270Y388364D01*
X27280Y388347D01*
X27359Y388280D01*
X27434Y388209D01*
X27452Y388200D01*
X27467Y388187D01*
X27563Y388148D01*
X27657Y388105D01*
X27677Y388103D01*
X27695Y388095D01*
X27862Y388077D01*
X35648Y388077D01*
X35447Y387068D01*
X34793Y385488D01*
X33843Y384066D01*
X32634Y382857D01*
X31212Y381907D01*
X29632Y381253D01*
X28623Y381052D01*
X28623Y385597D01*
G37*
%LPD*%
%LPC*%
G36*
X28623Y317597D02*
X28623Y317597D01*
X28608Y317693D01*
X28598Y317790D01*
X28588Y317814D01*
X28583Y317840D01*
X28538Y317926D01*
X28498Y318015D01*
X28481Y318034D01*
X28468Y318057D01*
X28398Y318124D01*
X28332Y318196D01*
X28309Y318209D01*
X28290Y318227D01*
X28202Y318268D01*
X28116Y318315D01*
X28091Y318319D01*
X28067Y318330D01*
X27970Y318341D01*
X27874Y318358D01*
X27848Y318355D01*
X27822Y318358D01*
X27727Y318337D01*
X27631Y318323D01*
X27608Y318311D01*
X27582Y318305D01*
X27499Y318255D01*
X27412Y318211D01*
X27393Y318193D01*
X27371Y318179D01*
X27308Y318105D01*
X27240Y318036D01*
X27224Y318007D01*
X27211Y317992D01*
X27199Y317961D01*
X27159Y317889D01*
X26993Y317488D01*
X26043Y316066D01*
X25800Y315823D01*
X25747Y315749D01*
X25687Y315680D01*
X25675Y315650D01*
X25656Y315624D01*
X25629Y315537D01*
X25595Y315452D01*
X25591Y315411D01*
X25584Y315388D01*
X25585Y315356D01*
X25577Y315285D01*
X25577Y313052D01*
X24568Y313253D01*
X23491Y313699D01*
X23403Y313720D01*
X23316Y313748D01*
X23283Y313748D01*
X23252Y313755D01*
X23161Y313746D01*
X23070Y313746D01*
X23030Y313734D01*
X23007Y313732D01*
X22978Y313719D01*
X22909Y313699D01*
X21832Y313253D01*
X20823Y313052D01*
X20823Y315285D01*
X20808Y315375D01*
X20801Y315466D01*
X20789Y315496D01*
X20783Y315528D01*
X20741Y315608D01*
X20705Y315692D01*
X20679Y315725D01*
X20668Y315745D01*
X20645Y315767D01*
X20600Y315823D01*
X20357Y316066D01*
X19407Y317488D01*
X19241Y317889D01*
X19190Y317972D01*
X19144Y318058D01*
X19126Y318076D01*
X19112Y318098D01*
X19037Y318160D01*
X18966Y318227D01*
X18942Y318238D01*
X18922Y318255D01*
X18831Y318289D01*
X18743Y318331D01*
X18717Y318333D01*
X18693Y318343D01*
X18595Y318347D01*
X18499Y318358D01*
X18473Y318352D01*
X18447Y318353D01*
X18353Y318326D01*
X18258Y318305D01*
X18236Y318292D01*
X18211Y318285D01*
X18131Y318229D01*
X18047Y318179D01*
X18030Y318159D01*
X18009Y318144D01*
X17951Y318066D01*
X17887Y317992D01*
X17877Y317968D01*
X17862Y317947D01*
X17832Y317855D01*
X17795Y317764D01*
X17792Y317732D01*
X17786Y317713D01*
X17786Y317680D01*
X17777Y317597D01*
X17777Y313052D01*
X16768Y313253D01*
X15188Y313907D01*
X13766Y314857D01*
X12557Y316066D01*
X11607Y317488D01*
X10953Y319068D01*
X10752Y320077D01*
X18538Y320077D01*
X18558Y320080D01*
X18577Y320078D01*
X18679Y320100D01*
X18781Y320117D01*
X18798Y320126D01*
X18818Y320130D01*
X18907Y320183D01*
X18998Y320232D01*
X19012Y320246D01*
X19029Y320256D01*
X19096Y320335D01*
X19167Y320410D01*
X19176Y320428D01*
X19189Y320443D01*
X19227Y320539D01*
X19271Y320633D01*
X19273Y320653D01*
X19281Y320671D01*
X19299Y320838D01*
X19299Y322362D01*
X19296Y322382D01*
X19298Y322401D01*
X19276Y322503D01*
X19259Y322605D01*
X19250Y322622D01*
X19246Y322642D01*
X19193Y322731D01*
X19144Y322822D01*
X19130Y322836D01*
X19120Y322853D01*
X19041Y322920D01*
X18966Y322991D01*
X18948Y323000D01*
X18933Y323013D01*
X18837Y323052D01*
X18743Y323095D01*
X18723Y323097D01*
X18705Y323105D01*
X18538Y323123D01*
X10752Y323123D01*
X10953Y324132D01*
X11607Y325712D01*
X12557Y327134D01*
X13766Y328343D01*
X15188Y329293D01*
X16768Y329947D01*
X17777Y330148D01*
X17777Y325603D01*
X17793Y325506D01*
X17802Y325410D01*
X17812Y325386D01*
X17817Y325360D01*
X17862Y325274D01*
X17902Y325185D01*
X17919Y325166D01*
X17932Y325142D01*
X18002Y325075D01*
X18068Y325004D01*
X18091Y324991D01*
X18110Y324973D01*
X18198Y324932D01*
X18284Y324885D01*
X18309Y324880D01*
X18333Y324869D01*
X18430Y324859D01*
X18526Y324841D01*
X18552Y324845D01*
X18577Y324842D01*
X18673Y324863D01*
X18769Y324877D01*
X18792Y324889D01*
X18818Y324895D01*
X18901Y324945D01*
X18988Y324989D01*
X19007Y325007D01*
X19029Y325021D01*
X19092Y325095D01*
X19160Y325164D01*
X19176Y325193D01*
X19189Y325208D01*
X19201Y325238D01*
X19241Y325311D01*
X19407Y325712D01*
X20357Y327134D01*
X20600Y327377D01*
X20653Y327451D01*
X20713Y327520D01*
X20725Y327550D01*
X20744Y327576D01*
X20771Y327663D01*
X20805Y327748D01*
X20809Y327789D01*
X20816Y327811D01*
X20815Y327844D01*
X20823Y327915D01*
X20823Y330148D01*
X21832Y329947D01*
X22909Y329501D01*
X22998Y329480D01*
X23084Y329452D01*
X23117Y329452D01*
X23148Y329445D01*
X23239Y329454D01*
X23330Y329454D01*
X23370Y329466D01*
X23393Y329468D01*
X23423Y329481D01*
X23491Y329501D01*
X24568Y329947D01*
X25577Y330148D01*
X25577Y327915D01*
X25592Y327825D01*
X25599Y327734D01*
X25611Y327704D01*
X25617Y327672D01*
X25659Y327592D01*
X25695Y327508D01*
X25721Y327476D01*
X25732Y327455D01*
X25755Y327433D01*
X25800Y327377D01*
X26043Y327134D01*
X26993Y325712D01*
X27159Y325311D01*
X27210Y325229D01*
X27256Y325143D01*
X27274Y325125D01*
X27288Y325102D01*
X27363Y325040D01*
X27434Y324973D01*
X27458Y324962D01*
X27478Y324946D01*
X27568Y324911D01*
X27657Y324870D01*
X27683Y324867D01*
X27707Y324857D01*
X27805Y324853D01*
X27901Y324842D01*
X27927Y324848D01*
X27953Y324847D01*
X28047Y324874D01*
X28142Y324895D01*
X28164Y324908D01*
X28189Y324915D01*
X28269Y324971D01*
X28353Y325021D01*
X28370Y325041D01*
X28391Y325056D01*
X28449Y325134D01*
X28513Y325208D01*
X28523Y325232D01*
X28538Y325253D01*
X28568Y325345D01*
X28605Y325436D01*
X28608Y325468D01*
X28614Y325487D01*
X28614Y325520D01*
X28623Y325603D01*
X28623Y330148D01*
X29632Y329947D01*
X31212Y329293D01*
X32634Y328343D01*
X33843Y327134D01*
X34793Y325712D01*
X35447Y324132D01*
X35648Y323123D01*
X27862Y323123D01*
X27842Y323120D01*
X27823Y323122D01*
X27721Y323100D01*
X27619Y323083D01*
X27602Y323074D01*
X27582Y323070D01*
X27493Y323017D01*
X27402Y322968D01*
X27388Y322954D01*
X27371Y322944D01*
X27304Y322865D01*
X27233Y322790D01*
X27224Y322772D01*
X27211Y322757D01*
X27173Y322661D01*
X27129Y322567D01*
X27127Y322547D01*
X27119Y322529D01*
X27101Y322362D01*
X27101Y320838D01*
X27104Y320818D01*
X27102Y320799D01*
X27124Y320697D01*
X27141Y320595D01*
X27150Y320578D01*
X27154Y320558D01*
X27207Y320469D01*
X27256Y320378D01*
X27270Y320364D01*
X27280Y320347D01*
X27359Y320280D01*
X27434Y320209D01*
X27452Y320200D01*
X27467Y320187D01*
X27563Y320148D01*
X27657Y320105D01*
X27677Y320103D01*
X27695Y320095D01*
X27862Y320077D01*
X35648Y320077D01*
X35447Y319068D01*
X34793Y317488D01*
X33843Y316066D01*
X32634Y314857D01*
X31212Y313907D01*
X29632Y313253D01*
X28623Y313052D01*
X28623Y317597D01*
G37*
%LPD*%
%LPC*%
G36*
X215455Y21399D02*
X215455Y21399D01*
X215455Y37542D01*
X216311Y37406D01*
X217832Y36912D01*
X219257Y36186D01*
X220551Y35246D01*
X221682Y34115D01*
X222622Y32821D01*
X223348Y31396D01*
X223842Y29875D01*
X224092Y28295D01*
X224092Y21399D01*
X215455Y21399D01*
G37*
%LPD*%
%LPC*%
G36*
X288480Y21399D02*
X288480Y21399D01*
X288480Y37542D01*
X289336Y37406D01*
X290857Y36912D01*
X292282Y36186D01*
X293576Y35246D01*
X294707Y34115D01*
X295647Y32821D01*
X296373Y31396D01*
X296867Y29875D01*
X297117Y28295D01*
X297117Y21399D01*
X288480Y21399D01*
G37*
%LPD*%
%LPC*%
G36*
X479742Y21399D02*
X479742Y21399D01*
X479742Y37542D01*
X480598Y37406D01*
X482119Y36912D01*
X483544Y36186D01*
X484838Y35246D01*
X485969Y34115D01*
X486909Y32821D01*
X487635Y31396D01*
X488129Y29875D01*
X488379Y28295D01*
X488379Y21399D01*
X479742Y21399D01*
G37*
%LPD*%
%LPC*%
G36*
X361505Y21399D02*
X361505Y21399D01*
X361505Y37542D01*
X362361Y37406D01*
X363882Y36912D01*
X365307Y36186D01*
X366601Y35246D01*
X367732Y34115D01*
X368672Y32821D01*
X369398Y31396D01*
X369892Y29875D01*
X370142Y28295D01*
X370142Y21399D01*
X361505Y21399D01*
G37*
%LPD*%
%LPC*%
G36*
X361505Y86423D02*
X361505Y86423D01*
X361505Y102566D01*
X362361Y102430D01*
X363882Y101936D01*
X365307Y101210D01*
X366601Y100270D01*
X367732Y99139D01*
X368672Y97845D01*
X369398Y96420D01*
X369892Y94899D01*
X370142Y93319D01*
X370142Y86423D01*
X361505Y86423D01*
G37*
%LPD*%
%LPC*%
G36*
X215455Y86423D02*
X215455Y86423D01*
X215455Y102566D01*
X216311Y102430D01*
X217832Y101936D01*
X219257Y101210D01*
X220551Y100270D01*
X221682Y99139D01*
X222622Y97845D01*
X223348Y96420D01*
X223842Y94899D01*
X224092Y93319D01*
X224092Y86423D01*
X215455Y86423D01*
G37*
%LPD*%
%LPC*%
G36*
X479742Y86423D02*
X479742Y86423D01*
X479742Y102566D01*
X480598Y102430D01*
X482119Y101936D01*
X483544Y101210D01*
X484838Y100270D01*
X485969Y99139D01*
X486909Y97845D01*
X487635Y96420D01*
X488129Y94899D01*
X488379Y93319D01*
X488379Y86423D01*
X479742Y86423D01*
G37*
%LPD*%
%LPC*%
G36*
X288480Y86423D02*
X288480Y86423D01*
X288480Y102566D01*
X289336Y102430D01*
X290857Y101936D01*
X292282Y101210D01*
X293576Y100270D01*
X294707Y99139D01*
X295647Y97845D01*
X296373Y96420D01*
X296867Y94899D01*
X297117Y93319D01*
X297117Y86423D01*
X288480Y86423D01*
G37*
%LPD*%
%LPC*%
G36*
X477773Y257111D02*
X477773Y257111D01*
X477773Y265748D01*
X484670Y265748D01*
X486249Y265498D01*
X487770Y265004D01*
X489195Y264278D01*
X490489Y263338D01*
X491620Y262207D01*
X492560Y260913D01*
X493286Y259488D01*
X493781Y257967D01*
X493916Y257111D01*
X477773Y257111D01*
G37*
%LPD*%
%LPC*%
G36*
X393636Y401573D02*
X393636Y401573D01*
X393636Y410211D01*
X400532Y410211D01*
X402112Y409961D01*
X403633Y409466D01*
X405058Y408740D01*
X406352Y407800D01*
X407483Y406669D01*
X408423Y405375D01*
X409149Y403950D01*
X409643Y402429D01*
X409779Y401573D01*
X393636Y401573D01*
G37*
%LPD*%
%LPC*%
G36*
X477773Y206311D02*
X477773Y206311D01*
X477773Y214948D01*
X484670Y214948D01*
X486249Y214698D01*
X487770Y214204D01*
X489195Y213478D01*
X490489Y212538D01*
X491620Y211407D01*
X492560Y210113D01*
X493286Y208688D01*
X493781Y207167D01*
X493916Y206311D01*
X477773Y206311D01*
G37*
%LPD*%
%LPC*%
G36*
X477773Y455511D02*
X477773Y455511D01*
X477773Y464148D01*
X484670Y464148D01*
X486249Y463898D01*
X487770Y463404D01*
X489195Y462678D01*
X490489Y461738D01*
X491620Y460607D01*
X492560Y459313D01*
X493286Y457888D01*
X493781Y456367D01*
X493916Y455511D01*
X477773Y455511D01*
G37*
%LPD*%
%LPC*%
G36*
X458584Y257111D02*
X458584Y257111D01*
X458719Y257967D01*
X459214Y259488D01*
X459940Y260913D01*
X460880Y262207D01*
X462011Y263338D01*
X463305Y264278D01*
X464730Y265004D01*
X466251Y265498D01*
X467830Y265748D01*
X474727Y265748D01*
X474727Y257111D01*
X458584Y257111D01*
G37*
%LPD*%
%LPC*%
G36*
X374446Y401573D02*
X374446Y401573D01*
X374582Y402429D01*
X375076Y403950D01*
X375802Y405375D01*
X376742Y406669D01*
X377873Y407800D01*
X379167Y408740D01*
X380592Y409466D01*
X382113Y409961D01*
X383693Y410211D01*
X390589Y410211D01*
X390589Y401573D01*
X374446Y401573D01*
G37*
%LPD*%
%LPC*%
G36*
X458584Y455511D02*
X458584Y455511D01*
X458719Y456367D01*
X459214Y457888D01*
X459940Y459313D01*
X460880Y460607D01*
X462011Y461738D01*
X463305Y462678D01*
X464730Y463404D01*
X466251Y463898D01*
X467830Y464148D01*
X474727Y464148D01*
X474727Y455511D01*
X458584Y455511D01*
G37*
%LPD*%
%LPC*%
G36*
X458584Y206311D02*
X458584Y206311D01*
X458719Y207167D01*
X459214Y208688D01*
X459940Y210113D01*
X460880Y211407D01*
X462011Y212538D01*
X463305Y213478D01*
X464730Y214204D01*
X466251Y214698D01*
X467830Y214948D01*
X474727Y214948D01*
X474727Y206311D01*
X458584Y206311D01*
G37*
%LPD*%
%LPC*%
G36*
X288480Y83376D02*
X288480Y83376D01*
X297117Y83376D01*
X297117Y76480D01*
X296867Y74900D01*
X296373Y73379D01*
X295647Y71954D01*
X294707Y70660D01*
X293576Y69529D01*
X292282Y68589D01*
X290857Y67863D01*
X289336Y67369D01*
X288480Y67233D01*
X288480Y83376D01*
G37*
%LPD*%
%LPC*%
G36*
X479742Y83376D02*
X479742Y83376D01*
X488379Y83376D01*
X488379Y76480D01*
X488129Y74900D01*
X487635Y73379D01*
X486909Y71954D01*
X485969Y70660D01*
X484838Y69529D01*
X483544Y68589D01*
X482119Y67863D01*
X480598Y67369D01*
X479742Y67233D01*
X479742Y83376D01*
G37*
%LPD*%
%LPC*%
G36*
X215455Y83376D02*
X215455Y83376D01*
X224092Y83376D01*
X224092Y76480D01*
X223842Y74900D01*
X223348Y73379D01*
X222622Y71954D01*
X221682Y70660D01*
X220551Y69529D01*
X219257Y68589D01*
X217832Y67863D01*
X216311Y67369D01*
X215455Y67233D01*
X215455Y83376D01*
G37*
%LPD*%
%LPC*%
G36*
X361505Y83376D02*
X361505Y83376D01*
X370142Y83376D01*
X370142Y76480D01*
X369892Y74900D01*
X369398Y73379D01*
X368672Y71954D01*
X367732Y70660D01*
X366601Y69529D01*
X365307Y68589D01*
X363882Y67863D01*
X362361Y67369D01*
X361505Y67233D01*
X361505Y83376D01*
G37*
%LPD*%
%LPC*%
G36*
X276796Y21399D02*
X276796Y21399D01*
X276796Y28295D01*
X277046Y29875D01*
X277540Y31396D01*
X278266Y32821D01*
X279206Y34115D01*
X280337Y35246D01*
X281631Y36186D01*
X283056Y36912D01*
X284577Y37406D01*
X285433Y37542D01*
X285433Y21399D01*
X276796Y21399D01*
G37*
%LPD*%
%LPC*%
G36*
X349821Y21399D02*
X349821Y21399D01*
X349821Y28295D01*
X350071Y29875D01*
X350565Y31396D01*
X351291Y32821D01*
X352231Y34115D01*
X353362Y35246D01*
X354656Y36186D01*
X356081Y36912D01*
X357602Y37406D01*
X358458Y37542D01*
X358458Y21399D01*
X349821Y21399D01*
G37*
%LPD*%
%LPC*%
G36*
X468058Y21399D02*
X468058Y21399D01*
X468058Y28295D01*
X468308Y29875D01*
X468802Y31396D01*
X469528Y32821D01*
X470468Y34115D01*
X471599Y35246D01*
X472893Y36186D01*
X474318Y36912D01*
X475839Y37406D01*
X476695Y37542D01*
X476695Y21399D01*
X468058Y21399D01*
G37*
%LPD*%
%LPC*%
G36*
X203771Y86423D02*
X203771Y86423D01*
X203771Y93319D01*
X204021Y94899D01*
X204515Y96420D01*
X205241Y97845D01*
X206181Y99139D01*
X207312Y100270D01*
X208606Y101210D01*
X210031Y101936D01*
X211552Y102430D01*
X212408Y102566D01*
X212408Y86423D01*
X203771Y86423D01*
G37*
%LPD*%
%LPC*%
G36*
X393636Y389889D02*
X393636Y389889D01*
X393636Y398527D01*
X409779Y398527D01*
X409643Y397671D01*
X409149Y396150D01*
X408423Y394725D01*
X407483Y393431D01*
X406352Y392300D01*
X405058Y391360D01*
X403633Y390634D01*
X402112Y390139D01*
X400532Y389889D01*
X393636Y389889D01*
G37*
%LPD*%
%LPC*%
G36*
X477773Y443827D02*
X477773Y443827D01*
X477773Y452464D01*
X493916Y452464D01*
X493781Y451608D01*
X493286Y450087D01*
X492560Y448662D01*
X491620Y447368D01*
X490489Y446237D01*
X489195Y445297D01*
X487770Y444571D01*
X486249Y444077D01*
X484670Y443827D01*
X477773Y443827D01*
G37*
%LPD*%
%LPC*%
G36*
X477773Y245427D02*
X477773Y245427D01*
X477773Y254064D01*
X493916Y254064D01*
X493781Y253208D01*
X493286Y251687D01*
X492560Y250262D01*
X491620Y248968D01*
X490489Y247837D01*
X489195Y246897D01*
X487770Y246171D01*
X486249Y245677D01*
X484670Y245427D01*
X477773Y245427D01*
G37*
%LPD*%
%LPC*%
G36*
X477773Y194627D02*
X477773Y194627D01*
X477773Y203264D01*
X493916Y203264D01*
X493781Y202408D01*
X493286Y200887D01*
X492560Y199462D01*
X491620Y198168D01*
X490489Y197037D01*
X489195Y196097D01*
X487770Y195371D01*
X486249Y194877D01*
X484670Y194627D01*
X477773Y194627D01*
G37*
%LPD*%
%LPC*%
G36*
X468058Y86423D02*
X468058Y86423D01*
X468058Y93319D01*
X468308Y94899D01*
X468802Y96420D01*
X469528Y97845D01*
X470468Y99139D01*
X471599Y100270D01*
X472893Y101210D01*
X474318Y101936D01*
X475839Y102430D01*
X476695Y102566D01*
X476695Y86423D01*
X468058Y86423D01*
G37*
%LPD*%
%LPC*%
G36*
X349821Y86423D02*
X349821Y86423D01*
X349821Y93319D01*
X350071Y94899D01*
X350565Y96420D01*
X351291Y97845D01*
X352231Y99139D01*
X353362Y100270D01*
X354656Y101210D01*
X356081Y101936D01*
X357602Y102430D01*
X358458Y102566D01*
X358458Y86423D01*
X349821Y86423D01*
G37*
%LPD*%
%LPC*%
G36*
X276796Y86423D02*
X276796Y86423D01*
X276796Y93319D01*
X277046Y94899D01*
X277540Y96420D01*
X278266Y97845D01*
X279206Y99139D01*
X280337Y100270D01*
X281631Y101210D01*
X283056Y101936D01*
X284577Y102430D01*
X285433Y102566D01*
X285433Y86423D01*
X276796Y86423D01*
G37*
%LPD*%
%LPC*%
G36*
X203771Y21399D02*
X203771Y21399D01*
X203771Y28295D01*
X204021Y29875D01*
X204515Y31396D01*
X205241Y32821D01*
X206181Y34115D01*
X207312Y35246D01*
X208606Y36186D01*
X210031Y36912D01*
X211552Y37406D01*
X212408Y37542D01*
X212408Y21399D01*
X203771Y21399D01*
G37*
%LPD*%
%LPC*%
G36*
X467830Y194627D02*
X467830Y194627D01*
X466251Y194877D01*
X464730Y195371D01*
X463305Y196097D01*
X462011Y197037D01*
X460880Y198168D01*
X459940Y199462D01*
X459214Y200887D01*
X458719Y202408D01*
X458584Y203264D01*
X474727Y203264D01*
X474727Y194627D01*
X467830Y194627D01*
G37*
%LPD*%
%LPC*%
G36*
X467830Y443827D02*
X467830Y443827D01*
X466251Y444077D01*
X464730Y444571D01*
X463305Y445297D01*
X462011Y446237D01*
X460880Y447368D01*
X459940Y448662D01*
X459214Y450087D01*
X458719Y451608D01*
X458584Y452464D01*
X474727Y452464D01*
X474727Y443827D01*
X467830Y443827D01*
G37*
%LPD*%
%LPC*%
G36*
X383693Y389889D02*
X383693Y389889D01*
X382113Y390139D01*
X380592Y390634D01*
X379167Y391360D01*
X377873Y392300D01*
X376742Y393431D01*
X375802Y394725D01*
X375076Y396150D01*
X374582Y397671D01*
X374446Y398527D01*
X390589Y398527D01*
X390589Y389889D01*
X383693Y389889D01*
G37*
%LPD*%
%LPC*%
G36*
X475839Y67369D02*
X475839Y67369D01*
X474318Y67863D01*
X472893Y68589D01*
X471599Y69529D01*
X470468Y70660D01*
X469528Y71954D01*
X468802Y73379D01*
X468308Y74900D01*
X468058Y76480D01*
X468058Y83376D01*
X476695Y83376D01*
X476695Y67233D01*
X475839Y67369D01*
G37*
%LPD*%
%LPC*%
G36*
X467830Y245427D02*
X467830Y245427D01*
X466251Y245677D01*
X464730Y246171D01*
X463305Y246897D01*
X462011Y247837D01*
X460880Y248968D01*
X459940Y250262D01*
X459214Y251687D01*
X458719Y253208D01*
X458584Y254064D01*
X474727Y254064D01*
X474727Y245427D01*
X467830Y245427D01*
G37*
%LPD*%
%LPC*%
G36*
X284577Y67369D02*
X284577Y67369D01*
X283056Y67863D01*
X281631Y68589D01*
X280337Y69529D01*
X279206Y70660D01*
X278266Y71954D01*
X277540Y73379D01*
X277046Y74900D01*
X276796Y76480D01*
X276796Y83376D01*
X285433Y83376D01*
X285433Y67233D01*
X284577Y67369D01*
G37*
%LPD*%
%LPC*%
G36*
X357602Y67369D02*
X357602Y67369D01*
X356081Y67863D01*
X354656Y68589D01*
X353362Y69529D01*
X352231Y70660D01*
X351291Y71954D01*
X350565Y73379D01*
X350071Y74900D01*
X349821Y76480D01*
X349821Y83376D01*
X358458Y83376D01*
X358458Y67233D01*
X357602Y67369D01*
G37*
%LPD*%
%LPC*%
G36*
X211552Y67369D02*
X211552Y67369D01*
X210031Y67863D01*
X208606Y68589D01*
X207312Y69529D01*
X206181Y70660D01*
X205241Y71954D01*
X204515Y73379D01*
X204021Y74900D01*
X203771Y76480D01*
X203771Y83376D01*
X212408Y83376D01*
X212408Y67233D01*
X211552Y67369D01*
G37*
%LPD*%
%LPC*%
G36*
X114236Y342836D02*
X114236Y342836D01*
X114236Y353378D01*
X117710Y353378D01*
X124778Y346310D01*
X124778Y342836D01*
X114236Y342836D01*
G37*
%LPD*%
%LPC*%
G36*
X250761Y343373D02*
X250761Y343373D01*
X250761Y353916D01*
X254235Y353916D01*
X261303Y346848D01*
X261303Y343373D01*
X250761Y343373D01*
G37*
%LPD*%
%LPC*%
G36*
X182498Y393636D02*
X182498Y393636D01*
X182498Y404178D01*
X185973Y404178D01*
X193041Y397110D01*
X193041Y393636D01*
X182498Y393636D01*
G37*
%LPD*%
%LPC*%
G36*
X250761Y329784D02*
X250761Y329784D01*
X250761Y340327D01*
X261303Y340327D01*
X261303Y336852D01*
X254235Y329784D01*
X250761Y329784D01*
G37*
%LPD*%
%LPC*%
G36*
X168909Y393636D02*
X168909Y393636D01*
X168909Y397110D01*
X175977Y404178D01*
X179452Y404178D01*
X179452Y393636D01*
X168909Y393636D01*
G37*
%LPD*%
%LPC*%
G36*
X100647Y342836D02*
X100647Y342836D01*
X100647Y346310D01*
X107715Y353378D01*
X111189Y353378D01*
X111189Y342836D01*
X100647Y342836D01*
G37*
%LPD*%
%LPC*%
G36*
X114236Y329247D02*
X114236Y329247D01*
X114236Y339789D01*
X124778Y339789D01*
X124778Y336315D01*
X117710Y329247D01*
X114236Y329247D01*
G37*
%LPD*%
%LPC*%
G36*
X237172Y343373D02*
X237172Y343373D01*
X237172Y346848D01*
X244240Y353916D01*
X247714Y353916D01*
X247714Y343373D01*
X237172Y343373D01*
G37*
%LPD*%
%LPC*%
G36*
X182498Y380047D02*
X182498Y380047D01*
X182498Y390589D01*
X193041Y390589D01*
X193041Y387115D01*
X185973Y380047D01*
X182498Y380047D01*
G37*
%LPD*%
%LPC*%
G36*
X107715Y329247D02*
X107715Y329247D01*
X100647Y336315D01*
X100647Y339789D01*
X111189Y339789D01*
X111189Y329247D01*
X107715Y329247D01*
G37*
%LPD*%
%LPC*%
G36*
X244240Y329784D02*
X244240Y329784D01*
X237172Y336852D01*
X237172Y340327D01*
X247714Y340327D01*
X247714Y329784D01*
X244240Y329784D01*
G37*
%LPD*%
%LPC*%
G36*
X175977Y380047D02*
X175977Y380047D01*
X168909Y387115D01*
X168909Y390589D01*
X179452Y390589D01*
X179452Y380047D01*
X175977Y380047D01*
G37*
%LPD*%
%LPC*%
G36*
X304736Y455548D02*
X304736Y455548D01*
X304736Y464186D01*
X307421Y464186D01*
X313373Y458234D01*
X313373Y455548D01*
X304736Y455548D01*
G37*
%LPD*%
%LPC*%
G36*
X330136Y379348D02*
X330136Y379348D01*
X330136Y387986D01*
X332821Y387986D01*
X338773Y382034D01*
X338773Y379348D01*
X330136Y379348D01*
G37*
%LPD*%
%LPC*%
G36*
X330136Y376302D02*
X330136Y376302D01*
X338773Y376302D01*
X338773Y373616D01*
X332821Y367664D01*
X330136Y367664D01*
X330136Y376302D01*
G37*
%LPD*%
%LPC*%
G36*
X318452Y379348D02*
X318452Y379348D01*
X318452Y382034D01*
X324404Y387986D01*
X327089Y387986D01*
X327089Y379348D01*
X318452Y379348D01*
G37*
%LPD*%
%LPC*%
G36*
X293052Y455548D02*
X293052Y455548D01*
X293052Y458234D01*
X299004Y464186D01*
X301689Y464186D01*
X301689Y455548D01*
X293052Y455548D01*
G37*
%LPD*%
%LPC*%
G36*
X324404Y367664D02*
X324404Y367664D01*
X318452Y373616D01*
X318452Y376302D01*
X327089Y376302D01*
X327089Y367664D01*
X324404Y367664D01*
G37*
%LPD*%
G36*
X26358Y388080D02*
X26358Y388080D01*
X26377Y388078D01*
X26479Y388100D01*
X26581Y388117D01*
X26598Y388126D01*
X26618Y388130D01*
X26707Y388183D01*
X26798Y388232D01*
X26812Y388246D01*
X26829Y388256D01*
X26896Y388335D01*
X26967Y388410D01*
X26976Y388428D01*
X26989Y388443D01*
X27027Y388539D01*
X27071Y388633D01*
X27073Y388653D01*
X27081Y388671D01*
X27099Y388838D01*
X27099Y390362D01*
X27096Y390382D01*
X27098Y390401D01*
X27076Y390503D01*
X27059Y390605D01*
X27050Y390622D01*
X27046Y390642D01*
X26993Y390731D01*
X26944Y390822D01*
X26930Y390836D01*
X26920Y390853D01*
X26841Y390920D01*
X26766Y390991D01*
X26748Y391000D01*
X26733Y391013D01*
X26637Y391052D01*
X26543Y391095D01*
X26523Y391097D01*
X26505Y391105D01*
X26338Y391123D01*
X20062Y391123D01*
X20042Y391120D01*
X20023Y391122D01*
X19921Y391100D01*
X19819Y391083D01*
X19802Y391074D01*
X19782Y391070D01*
X19693Y391017D01*
X19602Y390968D01*
X19588Y390954D01*
X19571Y390944D01*
X19504Y390865D01*
X19433Y390790D01*
X19424Y390772D01*
X19411Y390757D01*
X19373Y390661D01*
X19329Y390567D01*
X19327Y390547D01*
X19319Y390529D01*
X19301Y390362D01*
X19301Y388838D01*
X19304Y388818D01*
X19302Y388799D01*
X19324Y388697D01*
X19341Y388595D01*
X19350Y388578D01*
X19354Y388558D01*
X19407Y388469D01*
X19456Y388378D01*
X19470Y388364D01*
X19480Y388347D01*
X19559Y388280D01*
X19634Y388209D01*
X19652Y388200D01*
X19667Y388187D01*
X19763Y388148D01*
X19857Y388105D01*
X19877Y388103D01*
X19895Y388095D01*
X20062Y388077D01*
X26338Y388077D01*
X26358Y388080D01*
G37*
G36*
X26358Y320080D02*
X26358Y320080D01*
X26377Y320078D01*
X26479Y320100D01*
X26581Y320117D01*
X26598Y320126D01*
X26618Y320130D01*
X26707Y320183D01*
X26798Y320232D01*
X26812Y320246D01*
X26829Y320256D01*
X26896Y320335D01*
X26967Y320410D01*
X26976Y320428D01*
X26989Y320443D01*
X27027Y320539D01*
X27071Y320633D01*
X27073Y320653D01*
X27081Y320671D01*
X27099Y320838D01*
X27099Y322362D01*
X27096Y322382D01*
X27098Y322401D01*
X27076Y322503D01*
X27059Y322605D01*
X27050Y322622D01*
X27046Y322642D01*
X26993Y322731D01*
X26944Y322822D01*
X26930Y322836D01*
X26920Y322853D01*
X26841Y322920D01*
X26766Y322991D01*
X26748Y323000D01*
X26733Y323013D01*
X26637Y323052D01*
X26543Y323095D01*
X26523Y323097D01*
X26505Y323105D01*
X26338Y323123D01*
X20062Y323123D01*
X20042Y323120D01*
X20023Y323122D01*
X19921Y323100D01*
X19819Y323083D01*
X19802Y323074D01*
X19782Y323070D01*
X19693Y323017D01*
X19602Y322968D01*
X19588Y322954D01*
X19571Y322944D01*
X19504Y322865D01*
X19433Y322790D01*
X19424Y322772D01*
X19411Y322757D01*
X19373Y322661D01*
X19329Y322567D01*
X19327Y322547D01*
X19319Y322529D01*
X19301Y322362D01*
X19301Y320838D01*
X19304Y320818D01*
X19302Y320799D01*
X19324Y320697D01*
X19341Y320595D01*
X19350Y320578D01*
X19354Y320558D01*
X19407Y320469D01*
X19456Y320378D01*
X19470Y320364D01*
X19480Y320347D01*
X19559Y320280D01*
X19634Y320209D01*
X19652Y320200D01*
X19667Y320187D01*
X19763Y320148D01*
X19857Y320105D01*
X19877Y320103D01*
X19895Y320095D01*
X20062Y320077D01*
X26338Y320077D01*
X26358Y320080D01*
G37*
%LPC*%
G36*
X359981Y84899D02*
X359981Y84899D01*
X359981Y84900D01*
X359982Y84900D01*
X359982Y84899D01*
X359981Y84899D01*
G37*
%LPD*%
%LPC*%
G36*
X286956Y84899D02*
X286956Y84899D01*
X286956Y84900D01*
X286957Y84900D01*
X286957Y84899D01*
X286956Y84899D01*
G37*
%LPD*%
%LPC*%
G36*
X328612Y377824D02*
X328612Y377824D01*
X328612Y377826D01*
X328613Y377826D01*
X328613Y377824D01*
X328612Y377824D01*
G37*
%LPD*%
%LPC*%
G36*
X249237Y341849D02*
X249237Y341849D01*
X249237Y341851D01*
X249238Y341851D01*
X249238Y341849D01*
X249237Y341849D01*
G37*
%LPD*%
%LPC*%
G36*
X180974Y392112D02*
X180974Y392112D01*
X180974Y392113D01*
X180976Y392113D01*
X180976Y392112D01*
X180974Y392112D01*
G37*
%LPD*%
%LPC*%
G36*
X112712Y341312D02*
X112712Y341312D01*
X112712Y341313D01*
X112713Y341313D01*
X112713Y341312D01*
X112712Y341312D01*
G37*
%LPD*%
%LPC*%
G36*
X392112Y400049D02*
X392112Y400049D01*
X392112Y400051D01*
X392113Y400051D01*
X392113Y400049D01*
X392112Y400049D01*
G37*
%LPD*%
%LPC*%
G36*
X476249Y453987D02*
X476249Y453987D01*
X476249Y453988D01*
X476251Y453988D01*
X476251Y453987D01*
X476249Y453987D01*
G37*
%LPD*%
%LPC*%
G36*
X476249Y204787D02*
X476249Y204787D01*
X476249Y204788D01*
X476251Y204788D01*
X476251Y204787D01*
X476249Y204787D01*
G37*
%LPD*%
%LPC*%
G36*
X476249Y255587D02*
X476249Y255587D01*
X476249Y255588D01*
X476251Y255588D01*
X476251Y255587D01*
X476249Y255587D01*
G37*
%LPD*%
%LPC*%
G36*
X213931Y84899D02*
X213931Y84899D01*
X213931Y84900D01*
X213932Y84900D01*
X213932Y84899D01*
X213931Y84899D01*
G37*
%LPD*%
%LPC*%
G36*
X478218Y84899D02*
X478218Y84899D01*
X478218Y84900D01*
X478219Y84900D01*
X478219Y84899D01*
X478218Y84899D01*
G37*
%LPD*%
D10*
X0Y0D02*
X499938Y0D01*
X499938Y498375D01*
X0Y498375D01*
X0Y0D01*
D11*
X27100Y321600D03*
X27100Y389600D03*
X19300Y389600D03*
X19300Y321600D03*
D12*
X468630Y204788D02*
X483870Y204788D01*
X483870Y230188D02*
X468630Y230188D01*
X468630Y255588D02*
X483870Y255588D01*
X483870Y280988D02*
X468630Y280988D01*
X468630Y453988D02*
X483870Y453988D01*
X483870Y479388D02*
X468630Y479388D01*
X399733Y476250D02*
X384493Y476250D01*
X384493Y450850D02*
X399733Y450850D01*
X399733Y425450D02*
X384493Y425450D01*
X384493Y400050D02*
X399733Y400050D01*
D13*
X36513Y25210D03*
D14*
X36513Y61988D03*
X36513Y98766D03*
D13*
X36513Y129985D03*
D14*
X36513Y166763D03*
X36513Y203541D03*
D13*
X36513Y436563D03*
D14*
X36513Y471563D03*
D15*
X112713Y392113D03*
D16*
X112713Y341313D03*
D13*
X36513Y236538D03*
D14*
X36513Y271538D03*
D17*
X358775Y479425D03*
X438150Y479425D03*
D15*
X249238Y392650D03*
D16*
X249238Y341850D03*
D12*
X213932Y27496D02*
X213932Y12256D01*
X259144Y12256D02*
X259144Y27496D01*
X213932Y77280D02*
X213932Y92520D01*
X259144Y92520D02*
X259144Y77280D01*
X286957Y27496D02*
X286957Y12256D01*
X332169Y12256D02*
X332169Y27496D01*
X286957Y77280D02*
X286957Y92520D01*
X332169Y92520D02*
X332169Y77280D01*
X359982Y27496D02*
X359982Y12256D01*
X405194Y12256D02*
X405194Y27496D01*
X359982Y77280D02*
X359982Y92520D01*
X405194Y92520D02*
X405194Y77280D01*
X433007Y27496D02*
X433007Y12256D01*
X478219Y12256D02*
X478219Y27496D01*
X433007Y77280D02*
X433007Y92520D01*
X478219Y92520D02*
X478219Y77280D01*
D15*
X180975Y341313D03*
D18*
X180975Y392113D03*
D19*
X303213Y479425D03*
X328613Y479425D03*
X303213Y454025D03*
X328613Y454025D03*
X303213Y428625D03*
X328613Y428625D03*
X303213Y403225D03*
X328613Y403225D03*
X303213Y377825D03*
X328613Y377825D03*
D20*
X368300Y184150D03*
X323850Y138113D03*
X268288Y314325D03*
X376238Y266700D03*
X179388Y196850D03*
X219075Y341313D03*
X316706Y207963D03*
X227013Y488950D03*
X227013Y476250D03*
X169863Y488950D03*
X169863Y476250D03*
X133350Y34925D03*
X160338Y150813D03*
X160338Y220663D03*
X106363Y150813D03*
X106363Y220663D03*
X338931Y207963D03*
X368300Y138113D03*
X338931Y258763D03*
X193675Y217488D03*
D21*
X476250Y280988D02*
X476250Y379413D01*
X430213Y425450D01*
X392113Y425450D01*
X204788Y228600D02*
X193675Y217488D01*
X204788Y228600D02*
X204788Y346075D01*
X249238Y390525D01*
X249238Y392650D01*
X350838Y425450D02*
X392113Y425450D01*
X350838Y425450D02*
X334963Y441325D01*
X293688Y441325D01*
X249238Y396875D02*
X249238Y392650D01*
X249238Y396875D02*
X293688Y441325D01*
D20*
X414338Y266700D03*
D21*
X428625Y280988D01*
X476250Y280988D01*
D20*
X231775Y282575D03*
D21*
X230188Y352425D02*
X238125Y360363D01*
X230188Y352425D02*
X230188Y284163D01*
X231775Y282575D01*
X279400Y404813D02*
X303213Y428625D01*
D20*
X279400Y357188D03*
D21*
X276225Y360363D02*
X238125Y360363D01*
X276225Y360363D02*
X279400Y357188D01*
X279400Y404813D01*
D20*
X252413Y317500D03*
X212725Y198438D03*
D21*
X252413Y238125D01*
X252413Y317500D01*
D20*
X241300Y307975D03*
X203200Y207963D03*
D21*
X241300Y246063D01*
X241300Y307975D01*
D20*
X376238Y365125D03*
X460375Y365125D03*
D21*
X376238Y365125D01*
D20*
X182563Y274638D03*
X182563Y249238D03*
D21*
X182563Y274638D01*
D20*
X292100Y296863D03*
X250825Y160338D03*
D21*
X304800Y214313D01*
X304800Y284163D01*
X292100Y296863D01*
D20*
X269875Y296863D03*
X241300Y169863D03*
D21*
X295831Y224394D01*
X295831Y270907D01*
X269875Y296863D01*
D20*
X374650Y203200D03*
D21*
X401638Y203200D01*
X433388Y171450D01*
X433388Y85281D01*
X433007Y84900D01*
D20*
X269875Y273050D03*
X222250Y188913D03*
D21*
X269875Y236538D01*
X269875Y273050D01*
D20*
X285750Y254000D03*
X231775Y179388D03*
D21*
X285750Y233363D01*
X285750Y254000D01*
M02*
