G04 EAGLE Gerber RS-274X export*
G75*
%MOMM*%
%FSLAX34Y34*%
%LPD*%
%INBottom Silkscreen*%
%IPPOS*%
%AMOC8*
5,1,8,0,0,1.08239X$1,22.5*%
G01*
%ADD10C,0.000000*%
%ADD11C,0.076200*%
%ADD12C,0.304800*%
%ADD13R,0.025400X0.012700*%
%ADD14R,0.088900X0.012700*%
%ADD15R,0.012700X0.012700*%
%ADD16R,0.152400X0.012700*%
%ADD17R,0.215900X0.012700*%
%ADD18R,0.063500X0.012700*%
%ADD19R,0.279400X0.012700*%
%ADD20R,0.127000X0.012700*%
%ADD21R,0.330200X0.012700*%
%ADD22R,0.165100X0.012700*%
%ADD23R,0.381000X0.012700*%
%ADD24R,0.431800X0.012700*%
%ADD25R,0.266700X0.012700*%
%ADD26R,0.457200X0.012700*%
%ADD27R,0.317500X0.012700*%
%ADD28R,0.495300X0.012700*%
%ADD29R,0.342900X0.012700*%
%ADD30R,0.533400X0.012700*%
%ADD31R,0.584200X0.012700*%
%ADD32R,0.419100X0.012700*%
%ADD33R,0.571500X0.012700*%
%ADD34R,0.444500X0.012700*%
%ADD35R,0.482600X0.012700*%
%ADD36R,0.508000X0.012700*%
%ADD37R,0.609600X0.012700*%
%ADD38R,0.038100X0.012700*%
%ADD39R,0.660400X0.012700*%
%ADD40R,0.596900X0.012700*%
%ADD41R,0.673100X0.012700*%
%ADD42R,0.647700X0.012700*%
%ADD43R,0.685800X0.012700*%
%ADD44R,0.723900X0.012700*%
%ADD45R,0.736600X0.012700*%
%ADD46R,0.749300X0.012700*%
%ADD47R,0.635000X0.012700*%
%ADD48R,0.762000X0.012700*%
%ADD49R,0.774700X0.012700*%
%ADD50R,0.787400X0.012700*%
%ADD51R,0.812800X0.012700*%
%ADD52R,0.825500X0.012700*%
%ADD53R,0.838200X0.012700*%
%ADD54R,0.863600X0.012700*%
%ADD55R,0.876300X0.012700*%
%ADD56R,0.901700X0.012700*%
%ADD57R,0.914400X0.012700*%
%ADD58R,0.927100X0.012700*%
%ADD59R,0.076200X0.012700*%
%ADD60R,0.952500X0.012700*%
%ADD61R,0.965200X0.012700*%
%ADD62R,0.101600X0.012700*%
%ADD63R,0.990600X0.012700*%
%ADD64R,0.114300X0.012700*%
%ADD65R,1.016000X0.012700*%
%ADD66R,0.139700X0.012700*%
%ADD67R,0.939800X0.012700*%
%ADD68R,0.177800X0.012700*%
%ADD69R,0.190500X0.012700*%
%ADD70R,0.203200X0.012700*%
%ADD71R,0.241300X0.012700*%
%ADD72R,0.254000X0.012700*%
%ADD73R,1.054100X0.012700*%
%ADD74R,1.041400X0.012700*%
%ADD75R,0.292100X0.012700*%
%ADD76R,0.304800X0.012700*%
%ADD77R,1.066800X0.012700*%
%ADD78R,1.092200X0.012700*%
%ADD79R,1.079500X0.012700*%
%ADD80R,0.355600X0.012700*%
%ADD81R,1.104900X0.012700*%
%ADD82R,0.368300X0.012700*%
%ADD83R,1.117600X0.012700*%
%ADD84R,1.130300X0.012700*%
%ADD85R,0.393700X0.012700*%
%ADD86R,1.143000X0.012700*%
%ADD87R,0.406400X0.012700*%
%ADD88R,0.050800X0.012700*%
%ADD89R,0.546100X0.012700*%
%ADD90R,0.622300X0.012700*%
%ADD91R,0.711200X0.012700*%
%ADD92R,0.698500X0.012700*%
%ADD93R,0.800100X0.012700*%
%ADD94R,0.889000X0.012700*%
%ADD95R,0.850900X0.012700*%
%ADD96R,0.977900X0.012700*%
%ADD97R,1.028700X0.012700*%
%ADD98R,1.003300X0.012700*%
%ADD99R,1.193800X0.012700*%
%ADD100R,0.469900X0.012700*%
%ADD101R,1.155700X0.012700*%
%ADD102R,1.168400X0.012700*%
%ADD103R,1.206500X0.012700*%
%ADD104R,1.181100X0.012700*%
%ADD105R,1.219200X0.012700*%
%ADD106R,0.228600X0.012700*%
%ADD107R,1.270000X0.012700*%
%ADD108R,1.244600X0.012700*%
%ADD109R,1.231900X0.012700*%
%ADD110R,1.282700X0.012700*%
%ADD111R,0.558800X0.012700*%
%ADD112R,1.257300X0.012700*%
%ADD113R,1.295400X0.012700*%
%ADD114R,1.358900X0.012700*%
%ADD115R,1.333500X0.012700*%
%ADD116R,1.346200X0.012700*%
%ADD117R,1.308100X0.012700*%
%ADD118R,1.320800X0.012700*%
%ADD119R,1.384300X0.012700*%
%ADD120R,1.371600X0.012700*%
%ADD121R,1.447800X0.012700*%
%ADD122R,1.409700X0.012700*%
%ADD123R,1.422400X0.012700*%
%ADD124R,1.397000X0.012700*%
%ADD125R,1.574800X0.012700*%
%ADD126R,1.612900X0.012700*%
%ADD127R,1.600200X0.012700*%
%ADD128R,1.562100X0.012700*%
%ADD129R,1.549400X0.012700*%
%ADD130R,1.587500X0.012700*%
%ADD131R,1.841500X0.012700*%
%ADD132R,1.828800X0.012700*%
%ADD133R,1.790700X0.012700*%
%ADD134R,1.778000X0.012700*%
%ADD135R,1.752600X0.012700*%
%ADD136R,1.765300X0.012700*%
%ADD137R,1.803400X0.012700*%
%ADD138R,1.993900X0.012700*%
%ADD139R,2.070100X0.012700*%
%ADD140R,2.032000X0.012700*%
%ADD141R,2.019300X0.012700*%
%ADD142R,2.006600X0.012700*%
%ADD143R,2.057400X0.012700*%
%ADD144R,2.197100X0.012700*%
%ADD145R,2.349500X0.012700*%
%ADD146R,2.324100X0.012700*%
%ADD147R,2.298700X0.012700*%
%ADD148R,2.286000X0.012700*%
%ADD149R,2.273300X0.012700*%
%ADD150R,2.260600X0.012700*%
%ADD151R,2.679700X0.012700*%
%ADD152R,2.641600X0.012700*%
%ADD153R,2.603500X0.012700*%
%ADD154R,2.590800X0.012700*%
%ADD155R,2.578100X0.012700*%
%ADD156R,2.552700X0.012700*%
%ADD157R,2.565400X0.012700*%
%ADD158R,2.933700X0.012700*%
%ADD159R,3.035300X0.012700*%
%ADD160R,3.048000X0.012700*%
%ADD161R,3.022600X0.012700*%
%ADD162R,3.009900X0.012700*%
%ADD163R,2.997200X0.012700*%
%ADD164R,2.971800X0.012700*%
%ADD165R,2.959100X0.012700*%
%ADD166R,2.946400X0.012700*%
%ADD167R,2.895600X0.012700*%
%ADD168R,2.870200X0.012700*%
%ADD169R,2.832100X0.012700*%
%ADD170R,2.794000X0.012700*%
%ADD171R,2.755900X0.012700*%
%ADD172R,2.717800X0.012700*%
%ADD173R,2.692400X0.012700*%
%ADD174R,2.514600X0.012700*%
%ADD175R,2.476500X0.012700*%
%ADD176R,2.438400X0.012700*%
%ADD177R,2.387600X0.012700*%
%ADD178R,2.336800X0.012700*%
%ADD179R,2.184400X0.012700*%
%ADD180R,2.159000X0.012700*%
%ADD181R,2.095500X0.012700*%
%ADD182R,1.981200X0.012700*%
%ADD183R,1.930400X0.012700*%
%ADD184R,1.854200X0.012700*%
%ADD185R,1.727200X0.012700*%
%ADD186R,1.663700X0.012700*%
%ADD187R,1.511300X0.012700*%
%ADD188R,1.435100X0.012700*%


D10*
X0Y0D02*
X499938Y0D01*
X499938Y498375D01*
X0Y498375D01*
X0Y0D01*
D11*
X234929Y424244D02*
X236157Y429154D01*
X233701Y427517D02*
X234929Y424244D01*
X232474Y424244D02*
X233701Y427517D01*
X231246Y429154D02*
X232474Y424244D01*
X227126Y424244D02*
X228354Y429154D01*
X225898Y427517D02*
X227126Y424244D01*
X224671Y424244D02*
X225898Y427517D01*
X223443Y429154D02*
X224671Y424244D01*
X219323Y424244D02*
X220551Y429154D01*
X218096Y427517D02*
X219323Y424244D01*
X216868Y424244D02*
X218096Y427517D01*
X215640Y429154D02*
X216868Y424244D01*
X212936Y424244D02*
X212936Y424653D01*
X212526Y424653D01*
X212526Y424244D01*
X212936Y424244D01*
X208507Y424244D02*
X206461Y424244D01*
X208507Y424243D02*
X208576Y424245D01*
X208644Y424251D01*
X208713Y424260D01*
X208780Y424274D01*
X208847Y424291D01*
X208913Y424312D01*
X208977Y424336D01*
X209040Y424365D01*
X209101Y424396D01*
X209160Y424431D01*
X209218Y424469D01*
X209273Y424511D01*
X209325Y424555D01*
X209375Y424603D01*
X209423Y424653D01*
X209467Y424705D01*
X209509Y424760D01*
X209547Y424818D01*
X209582Y424877D01*
X209613Y424938D01*
X209642Y425001D01*
X209666Y425065D01*
X209687Y425131D01*
X209704Y425198D01*
X209718Y425265D01*
X209727Y425334D01*
X209733Y425402D01*
X209735Y425471D01*
X209735Y427517D01*
X209733Y427596D01*
X209727Y427675D01*
X209718Y427754D01*
X209705Y427832D01*
X209687Y427909D01*
X209667Y427985D01*
X209642Y428060D01*
X209614Y428134D01*
X209583Y428207D01*
X209547Y428278D01*
X209509Y428347D01*
X209467Y428414D01*
X209422Y428479D01*
X209374Y428542D01*
X209323Y428603D01*
X209269Y428660D01*
X209213Y428716D01*
X209154Y428768D01*
X209092Y428818D01*
X209028Y428864D01*
X208962Y428908D01*
X208894Y428948D01*
X208824Y428984D01*
X208752Y429018D01*
X208678Y429048D01*
X208604Y429074D01*
X208528Y429097D01*
X208451Y429115D01*
X208374Y429131D01*
X208295Y429142D01*
X208217Y429150D01*
X208138Y429154D01*
X208058Y429154D01*
X207979Y429150D01*
X207901Y429142D01*
X207822Y429131D01*
X207745Y429115D01*
X207668Y429097D01*
X207592Y429074D01*
X207518Y429048D01*
X207444Y429018D01*
X207372Y428984D01*
X207302Y428948D01*
X207234Y428908D01*
X207168Y428864D01*
X207104Y428818D01*
X207042Y428768D01*
X206983Y428716D01*
X206927Y428660D01*
X206873Y428603D01*
X206822Y428542D01*
X206774Y428479D01*
X206729Y428414D01*
X206687Y428347D01*
X206649Y428278D01*
X206613Y428207D01*
X206582Y428134D01*
X206554Y428060D01*
X206529Y427985D01*
X206509Y427909D01*
X206491Y427832D01*
X206478Y427754D01*
X206469Y427675D01*
X206463Y427596D01*
X206461Y427517D01*
X206461Y426699D01*
X209735Y426699D01*
X203312Y425471D02*
X203312Y431610D01*
X203313Y425471D02*
X203311Y425402D01*
X203305Y425334D01*
X203296Y425265D01*
X203282Y425198D01*
X203265Y425131D01*
X203244Y425065D01*
X203220Y425001D01*
X203191Y424938D01*
X203160Y424877D01*
X203125Y424818D01*
X203087Y424760D01*
X203045Y424705D01*
X203001Y424653D01*
X202953Y424603D01*
X202903Y424555D01*
X202851Y424511D01*
X202796Y424470D01*
X202738Y424431D01*
X202679Y424396D01*
X202618Y424365D01*
X202555Y424336D01*
X202491Y424312D01*
X202425Y424291D01*
X202358Y424274D01*
X202291Y424260D01*
X202223Y424251D01*
X202154Y424245D01*
X202085Y424243D01*
X198266Y424244D02*
X196220Y424244D01*
X198266Y424243D02*
X198335Y424245D01*
X198403Y424251D01*
X198472Y424260D01*
X198539Y424274D01*
X198606Y424291D01*
X198672Y424312D01*
X198736Y424336D01*
X198799Y424365D01*
X198860Y424396D01*
X198919Y424431D01*
X198977Y424469D01*
X199032Y424511D01*
X199084Y424555D01*
X199134Y424603D01*
X199182Y424653D01*
X199226Y424705D01*
X199268Y424760D01*
X199306Y424818D01*
X199341Y424877D01*
X199372Y424938D01*
X199401Y425001D01*
X199425Y425065D01*
X199446Y425131D01*
X199463Y425198D01*
X199477Y425265D01*
X199486Y425334D01*
X199492Y425402D01*
X199494Y425471D01*
X199494Y427517D01*
X199492Y427596D01*
X199486Y427675D01*
X199477Y427754D01*
X199464Y427832D01*
X199446Y427909D01*
X199426Y427985D01*
X199401Y428060D01*
X199373Y428134D01*
X199342Y428207D01*
X199306Y428278D01*
X199268Y428347D01*
X199226Y428414D01*
X199181Y428479D01*
X199133Y428542D01*
X199082Y428603D01*
X199028Y428660D01*
X198972Y428716D01*
X198913Y428768D01*
X198851Y428818D01*
X198787Y428864D01*
X198721Y428908D01*
X198653Y428948D01*
X198583Y428984D01*
X198511Y429018D01*
X198437Y429048D01*
X198363Y429074D01*
X198287Y429097D01*
X198210Y429115D01*
X198133Y429131D01*
X198054Y429142D01*
X197976Y429150D01*
X197897Y429154D01*
X197817Y429154D01*
X197738Y429150D01*
X197660Y429142D01*
X197581Y429131D01*
X197504Y429115D01*
X197427Y429097D01*
X197351Y429074D01*
X197277Y429048D01*
X197203Y429018D01*
X197131Y428984D01*
X197061Y428948D01*
X196993Y428908D01*
X196927Y428864D01*
X196863Y428818D01*
X196801Y428768D01*
X196742Y428716D01*
X196686Y428660D01*
X196632Y428603D01*
X196581Y428542D01*
X196533Y428479D01*
X196488Y428414D01*
X196446Y428347D01*
X196408Y428278D01*
X196372Y428207D01*
X196341Y428134D01*
X196313Y428060D01*
X196288Y427985D01*
X196268Y427909D01*
X196250Y427832D01*
X196237Y427754D01*
X196228Y427675D01*
X196222Y427596D01*
X196220Y427517D01*
X196220Y426699D01*
X199494Y426699D01*
X192816Y424244D02*
X192816Y431610D01*
X189542Y429154D02*
X192816Y426699D01*
X191384Y427722D02*
X189542Y424244D01*
X187445Y429154D02*
X184989Y429154D01*
X186626Y431610D02*
X186626Y425471D01*
X186624Y425402D01*
X186618Y425334D01*
X186609Y425265D01*
X186595Y425198D01*
X186578Y425131D01*
X186557Y425065D01*
X186533Y425001D01*
X186504Y424938D01*
X186473Y424877D01*
X186438Y424818D01*
X186400Y424760D01*
X186358Y424705D01*
X186314Y424653D01*
X186266Y424603D01*
X186216Y424555D01*
X186164Y424511D01*
X186109Y424470D01*
X186051Y424431D01*
X185992Y424396D01*
X185931Y424365D01*
X185868Y424336D01*
X185804Y424312D01*
X185738Y424291D01*
X185671Y424274D01*
X185604Y424260D01*
X185536Y424251D01*
X185467Y424245D01*
X185398Y424243D01*
X185398Y424244D02*
X184989Y424244D01*
X181891Y424244D02*
X181891Y429154D01*
X179436Y429154D01*
X179436Y428336D01*
X177061Y427517D02*
X177061Y425880D01*
X177061Y427517D02*
X177059Y427596D01*
X177053Y427675D01*
X177044Y427754D01*
X177031Y427832D01*
X177013Y427909D01*
X176993Y427985D01*
X176968Y428060D01*
X176940Y428134D01*
X176909Y428207D01*
X176873Y428278D01*
X176835Y428347D01*
X176793Y428414D01*
X176748Y428479D01*
X176700Y428542D01*
X176649Y428603D01*
X176595Y428660D01*
X176539Y428716D01*
X176480Y428768D01*
X176418Y428818D01*
X176354Y428864D01*
X176288Y428908D01*
X176220Y428948D01*
X176150Y428984D01*
X176078Y429018D01*
X176004Y429048D01*
X175930Y429074D01*
X175854Y429097D01*
X175777Y429115D01*
X175700Y429131D01*
X175621Y429142D01*
X175543Y429150D01*
X175464Y429154D01*
X175384Y429154D01*
X175305Y429150D01*
X175227Y429142D01*
X175148Y429131D01*
X175071Y429115D01*
X174994Y429097D01*
X174918Y429074D01*
X174844Y429048D01*
X174770Y429018D01*
X174698Y428984D01*
X174628Y428948D01*
X174560Y428908D01*
X174494Y428864D01*
X174430Y428818D01*
X174368Y428768D01*
X174309Y428716D01*
X174253Y428660D01*
X174199Y428603D01*
X174148Y428542D01*
X174100Y428479D01*
X174055Y428414D01*
X174013Y428347D01*
X173975Y428278D01*
X173939Y428207D01*
X173908Y428134D01*
X173880Y428060D01*
X173855Y427985D01*
X173835Y427909D01*
X173817Y427832D01*
X173804Y427754D01*
X173795Y427675D01*
X173789Y427596D01*
X173787Y427517D01*
X173787Y425880D01*
X173789Y425801D01*
X173795Y425722D01*
X173804Y425643D01*
X173817Y425565D01*
X173835Y425488D01*
X173855Y425412D01*
X173880Y425337D01*
X173908Y425263D01*
X173939Y425190D01*
X173975Y425119D01*
X174013Y425050D01*
X174055Y424983D01*
X174100Y424918D01*
X174148Y424855D01*
X174199Y424794D01*
X174253Y424737D01*
X174309Y424681D01*
X174368Y424629D01*
X174430Y424579D01*
X174494Y424533D01*
X174560Y424489D01*
X174628Y424449D01*
X174698Y424413D01*
X174770Y424379D01*
X174844Y424349D01*
X174918Y424323D01*
X174994Y424300D01*
X175071Y424282D01*
X175148Y424266D01*
X175227Y424255D01*
X175305Y424247D01*
X175384Y424243D01*
X175464Y424243D01*
X175543Y424247D01*
X175621Y424255D01*
X175700Y424266D01*
X175777Y424282D01*
X175854Y424300D01*
X175930Y424323D01*
X176004Y424349D01*
X176078Y424379D01*
X176150Y424413D01*
X176220Y424449D01*
X176288Y424489D01*
X176354Y424533D01*
X176418Y424579D01*
X176480Y424629D01*
X176539Y424681D01*
X176595Y424737D01*
X176649Y424794D01*
X176700Y424855D01*
X176748Y424918D01*
X176793Y424983D01*
X176835Y425050D01*
X176873Y425119D01*
X176909Y425190D01*
X176940Y425263D01*
X176968Y425337D01*
X176993Y425412D01*
X177013Y425488D01*
X177031Y425565D01*
X177044Y425643D01*
X177053Y425722D01*
X177059Y425801D01*
X177061Y425880D01*
X170477Y424244D02*
X170477Y429154D01*
X168431Y429154D01*
X168362Y429152D01*
X168294Y429146D01*
X168225Y429137D01*
X168158Y429123D01*
X168091Y429106D01*
X168025Y429085D01*
X167961Y429061D01*
X167898Y429032D01*
X167837Y429001D01*
X167778Y428966D01*
X167720Y428928D01*
X167665Y428886D01*
X167613Y428842D01*
X167563Y428794D01*
X167515Y428744D01*
X167471Y428692D01*
X167430Y428637D01*
X167391Y428579D01*
X167356Y428520D01*
X167325Y428459D01*
X167296Y428396D01*
X167272Y428332D01*
X167251Y428266D01*
X167234Y428199D01*
X167220Y428132D01*
X167211Y428064D01*
X167205Y427995D01*
X167203Y427926D01*
X167203Y427927D02*
X167203Y424244D01*
X163963Y424244D02*
X163963Y429154D01*
X164168Y431200D02*
X164168Y431610D01*
X163759Y431610D01*
X163759Y431200D01*
X164168Y431200D01*
X160629Y431610D02*
X160629Y424244D01*
X160629Y426699D02*
X157356Y429154D01*
X159197Y427722D02*
X157356Y424244D01*
X153236Y427108D02*
X151395Y427108D01*
X153236Y427108D02*
X153311Y427106D01*
X153386Y427100D01*
X153460Y427090D01*
X153534Y427077D01*
X153607Y427059D01*
X153679Y427038D01*
X153749Y427013D01*
X153818Y426984D01*
X153886Y426952D01*
X153952Y426916D01*
X154016Y426877D01*
X154078Y426835D01*
X154137Y426789D01*
X154194Y426740D01*
X154249Y426689D01*
X154300Y426634D01*
X154349Y426577D01*
X154395Y426518D01*
X154437Y426456D01*
X154476Y426392D01*
X154512Y426326D01*
X154544Y426258D01*
X154573Y426189D01*
X154598Y426119D01*
X154619Y426047D01*
X154637Y425974D01*
X154650Y425900D01*
X154660Y425826D01*
X154666Y425751D01*
X154668Y425676D01*
X154666Y425601D01*
X154660Y425526D01*
X154650Y425452D01*
X154637Y425378D01*
X154619Y425305D01*
X154598Y425233D01*
X154573Y425163D01*
X154544Y425094D01*
X154512Y425026D01*
X154476Y424960D01*
X154437Y424896D01*
X154395Y424834D01*
X154349Y424775D01*
X154300Y424718D01*
X154249Y424663D01*
X154194Y424612D01*
X154137Y424563D01*
X154078Y424517D01*
X154016Y424475D01*
X153952Y424436D01*
X153886Y424400D01*
X153818Y424368D01*
X153749Y424339D01*
X153679Y424314D01*
X153607Y424293D01*
X153534Y424275D01*
X153460Y424262D01*
X153386Y424252D01*
X153311Y424246D01*
X153236Y424244D01*
X151395Y424244D01*
X151395Y427927D01*
X151394Y427927D02*
X151396Y427996D01*
X151402Y428064D01*
X151411Y428133D01*
X151425Y428200D01*
X151442Y428267D01*
X151463Y428333D01*
X151487Y428397D01*
X151516Y428460D01*
X151547Y428521D01*
X151582Y428580D01*
X151620Y428638D01*
X151662Y428693D01*
X151706Y428745D01*
X151754Y428795D01*
X151804Y428843D01*
X151856Y428887D01*
X151911Y428929D01*
X151969Y428967D01*
X152028Y429002D01*
X152089Y429033D01*
X152152Y429062D01*
X152216Y429086D01*
X152282Y429107D01*
X152349Y429124D01*
X152416Y429138D01*
X152485Y429147D01*
X152553Y429153D01*
X152622Y429155D01*
X152622Y429154D02*
X154259Y429154D01*
X148318Y424653D02*
X148318Y424244D01*
X148318Y424653D02*
X147909Y424653D01*
X147909Y424244D01*
X148318Y424244D01*
X144833Y424244D02*
X144833Y431610D01*
X144833Y424244D02*
X142787Y424244D01*
X142787Y424243D02*
X142718Y424245D01*
X142650Y424251D01*
X142581Y424260D01*
X142514Y424274D01*
X142447Y424291D01*
X142381Y424312D01*
X142317Y424336D01*
X142254Y424365D01*
X142193Y424396D01*
X142134Y424431D01*
X142076Y424469D01*
X142021Y424511D01*
X141969Y424555D01*
X141919Y424603D01*
X141871Y424653D01*
X141827Y424705D01*
X141785Y424760D01*
X141747Y424818D01*
X141712Y424877D01*
X141681Y424938D01*
X141652Y425001D01*
X141628Y425065D01*
X141607Y425131D01*
X141590Y425198D01*
X141576Y425265D01*
X141567Y425334D01*
X141561Y425402D01*
X141559Y425471D01*
X141559Y427927D01*
X141561Y427996D01*
X141567Y428064D01*
X141576Y428133D01*
X141590Y428200D01*
X141607Y428267D01*
X141628Y428333D01*
X141652Y428397D01*
X141681Y428460D01*
X141712Y428521D01*
X141747Y428580D01*
X141785Y428638D01*
X141827Y428693D01*
X141871Y428745D01*
X141919Y428795D01*
X141969Y428843D01*
X142021Y428887D01*
X142076Y428929D01*
X142134Y428967D01*
X142193Y429002D01*
X142254Y429033D01*
X142317Y429062D01*
X142381Y429086D01*
X142447Y429107D01*
X142514Y429124D01*
X142581Y429138D01*
X142650Y429147D01*
X142718Y429153D01*
X142787Y429155D01*
X142787Y429154D02*
X144833Y429154D01*
X137143Y427108D02*
X135301Y427108D01*
X137143Y427108D02*
X137218Y427106D01*
X137293Y427100D01*
X137367Y427090D01*
X137441Y427077D01*
X137514Y427059D01*
X137586Y427038D01*
X137656Y427013D01*
X137725Y426984D01*
X137793Y426952D01*
X137859Y426916D01*
X137923Y426877D01*
X137985Y426835D01*
X138044Y426789D01*
X138101Y426740D01*
X138156Y426689D01*
X138207Y426634D01*
X138256Y426577D01*
X138302Y426518D01*
X138344Y426456D01*
X138383Y426392D01*
X138419Y426326D01*
X138451Y426258D01*
X138480Y426189D01*
X138505Y426119D01*
X138526Y426047D01*
X138544Y425974D01*
X138557Y425900D01*
X138567Y425826D01*
X138573Y425751D01*
X138575Y425676D01*
X138573Y425601D01*
X138567Y425526D01*
X138557Y425452D01*
X138544Y425378D01*
X138526Y425305D01*
X138505Y425233D01*
X138480Y425163D01*
X138451Y425094D01*
X138419Y425026D01*
X138383Y424960D01*
X138344Y424896D01*
X138302Y424834D01*
X138256Y424775D01*
X138207Y424718D01*
X138156Y424663D01*
X138101Y424612D01*
X138044Y424563D01*
X137985Y424517D01*
X137923Y424475D01*
X137859Y424436D01*
X137793Y424400D01*
X137725Y424368D01*
X137656Y424339D01*
X137586Y424314D01*
X137514Y424293D01*
X137441Y424275D01*
X137367Y424262D01*
X137293Y424252D01*
X137218Y424246D01*
X137143Y424244D01*
X135301Y424244D01*
X135301Y427927D01*
X135303Y427996D01*
X135309Y428064D01*
X135318Y428133D01*
X135332Y428200D01*
X135349Y428267D01*
X135370Y428333D01*
X135394Y428397D01*
X135423Y428460D01*
X135454Y428521D01*
X135489Y428580D01*
X135527Y428638D01*
X135569Y428693D01*
X135613Y428745D01*
X135661Y428795D01*
X135711Y428843D01*
X135763Y428887D01*
X135818Y428929D01*
X135876Y428967D01*
X135935Y429002D01*
X135996Y429033D01*
X136059Y429062D01*
X136123Y429086D01*
X136189Y429107D01*
X136256Y429124D01*
X136323Y429138D01*
X136392Y429147D01*
X136460Y429153D01*
X136529Y429155D01*
X136529Y429154D02*
X138166Y429154D01*
D12*
X14288Y287338D02*
X14288Y219075D01*
X14288Y149225D01*
X14288Y79375D01*
X14288Y7938D01*
X68263Y7938D01*
X90488Y7938D01*
X90488Y79375D01*
X90488Y149225D01*
X90488Y219075D01*
X90488Y287338D01*
X68263Y287338D01*
D11*
X50546Y272669D02*
X50546Y268492D01*
X59944Y268492D01*
X59944Y272669D01*
X55767Y271625D02*
X55767Y268492D01*
D12*
X68263Y287338D02*
X14288Y287338D01*
X14288Y219075D02*
X90488Y219075D01*
X90488Y149225D02*
X14288Y149225D01*
X14288Y79375D02*
X90488Y79375D01*
D11*
X50546Y235656D02*
X50546Y237744D01*
X50546Y235656D02*
X50548Y235567D01*
X50554Y235479D01*
X50563Y235391D01*
X50576Y235303D01*
X50593Y235216D01*
X50613Y235130D01*
X50638Y235045D01*
X50665Y234960D01*
X50697Y234877D01*
X50731Y234796D01*
X50770Y234716D01*
X50811Y234638D01*
X50856Y234561D01*
X50904Y234487D01*
X50955Y234414D01*
X51009Y234344D01*
X51067Y234277D01*
X51127Y234211D01*
X51189Y234149D01*
X51255Y234089D01*
X51322Y234031D01*
X51392Y233977D01*
X51465Y233926D01*
X51539Y233878D01*
X51616Y233833D01*
X51694Y233792D01*
X51774Y233753D01*
X51855Y233719D01*
X51938Y233687D01*
X52023Y233660D01*
X52108Y233635D01*
X52194Y233615D01*
X52281Y233598D01*
X52369Y233585D01*
X52457Y233576D01*
X52545Y233570D01*
X52634Y233568D01*
X52634Y233567D02*
X57856Y233567D01*
X57856Y233568D02*
X57947Y233570D01*
X58038Y233576D01*
X58129Y233586D01*
X58219Y233600D01*
X58308Y233617D01*
X58396Y233639D01*
X58484Y233665D01*
X58570Y233694D01*
X58655Y233727D01*
X58738Y233764D01*
X58820Y233804D01*
X58900Y233848D01*
X58978Y233895D01*
X59054Y233946D01*
X59127Y233999D01*
X59198Y234056D01*
X59267Y234117D01*
X59332Y234180D01*
X59395Y234245D01*
X59455Y234314D01*
X59513Y234385D01*
X59566Y234458D01*
X59617Y234534D01*
X59664Y234612D01*
X59708Y234692D01*
X59748Y234774D01*
X59785Y234857D01*
X59818Y234942D01*
X59847Y235028D01*
X59873Y235116D01*
X59895Y235204D01*
X59912Y235293D01*
X59926Y235383D01*
X59936Y235474D01*
X59942Y235565D01*
X59944Y235656D01*
X59944Y237744D01*
X76969Y228078D02*
X81146Y228078D01*
X81247Y228080D01*
X81348Y228086D01*
X81449Y228096D01*
X81549Y228109D01*
X81649Y228127D01*
X81748Y228148D01*
X81846Y228174D01*
X81943Y228203D01*
X82039Y228235D01*
X82133Y228272D01*
X82226Y228312D01*
X82318Y228356D01*
X82407Y228403D01*
X82495Y228454D01*
X82581Y228508D01*
X82664Y228565D01*
X82746Y228625D01*
X82824Y228689D01*
X82901Y228755D01*
X82974Y228825D01*
X83045Y228897D01*
X83113Y228972D01*
X83178Y229050D01*
X83240Y229130D01*
X83299Y229212D01*
X83355Y229297D01*
X83407Y229383D01*
X83456Y229472D01*
X83502Y229563D01*
X83543Y229655D01*
X83582Y229749D01*
X83616Y229844D01*
X83647Y229940D01*
X83674Y230038D01*
X83698Y230136D01*
X83717Y230236D01*
X83733Y230336D01*
X83745Y230436D01*
X83753Y230537D01*
X83757Y230638D01*
X83757Y230740D01*
X83753Y230841D01*
X83745Y230942D01*
X83733Y231042D01*
X83717Y231142D01*
X83698Y231242D01*
X83674Y231340D01*
X83647Y231438D01*
X83616Y231534D01*
X83582Y231629D01*
X83543Y231723D01*
X83502Y231815D01*
X83456Y231906D01*
X83407Y231994D01*
X83355Y232081D01*
X83299Y232166D01*
X83240Y232248D01*
X83178Y232328D01*
X83113Y232406D01*
X83045Y232481D01*
X82974Y232553D01*
X82901Y232623D01*
X82824Y232689D01*
X82746Y232753D01*
X82664Y232813D01*
X82581Y232870D01*
X82495Y232924D01*
X82407Y232975D01*
X82318Y233022D01*
X82226Y233066D01*
X82133Y233106D01*
X82039Y233143D01*
X81943Y233175D01*
X81846Y233204D01*
X81748Y233230D01*
X81649Y233251D01*
X81549Y233269D01*
X81449Y233282D01*
X81348Y233292D01*
X81247Y233298D01*
X81146Y233300D01*
X81146Y233299D02*
X76969Y233299D01*
X76969Y233300D02*
X76868Y233298D01*
X76767Y233292D01*
X76666Y233282D01*
X76566Y233269D01*
X76466Y233251D01*
X76367Y233230D01*
X76269Y233204D01*
X76172Y233175D01*
X76076Y233143D01*
X75982Y233106D01*
X75889Y233066D01*
X75797Y233022D01*
X75708Y232975D01*
X75620Y232924D01*
X75534Y232870D01*
X75451Y232813D01*
X75369Y232753D01*
X75291Y232689D01*
X75214Y232623D01*
X75141Y232553D01*
X75070Y232481D01*
X75002Y232406D01*
X74937Y232328D01*
X74875Y232248D01*
X74816Y232166D01*
X74760Y232081D01*
X74708Y231995D01*
X74659Y231906D01*
X74613Y231815D01*
X74572Y231723D01*
X74533Y231629D01*
X74499Y231534D01*
X74468Y231438D01*
X74441Y231340D01*
X74417Y231242D01*
X74398Y231142D01*
X74382Y231042D01*
X74370Y230942D01*
X74362Y230841D01*
X74358Y230740D01*
X74358Y230638D01*
X74362Y230537D01*
X74370Y230436D01*
X74382Y230336D01*
X74398Y230236D01*
X74417Y230136D01*
X74441Y230038D01*
X74468Y229940D01*
X74499Y229844D01*
X74533Y229749D01*
X74572Y229655D01*
X74613Y229563D01*
X74659Y229472D01*
X74708Y229384D01*
X74760Y229297D01*
X74816Y229212D01*
X74875Y229130D01*
X74937Y229050D01*
X75002Y228972D01*
X75070Y228897D01*
X75141Y228825D01*
X75214Y228755D01*
X75291Y228689D01*
X75369Y228625D01*
X75451Y228565D01*
X75534Y228508D01*
X75620Y228454D01*
X75708Y228403D01*
X75797Y228356D01*
X75889Y228312D01*
X75982Y228272D01*
X76076Y228235D01*
X76172Y228203D01*
X76269Y228174D01*
X76367Y228148D01*
X76466Y228127D01*
X76566Y228109D01*
X76666Y228096D01*
X76767Y228086D01*
X76868Y228080D01*
X76969Y228078D01*
X76969Y237527D02*
X83757Y237527D01*
X76969Y237526D02*
X76868Y237528D01*
X76767Y237534D01*
X76666Y237544D01*
X76566Y237557D01*
X76466Y237575D01*
X76367Y237596D01*
X76269Y237622D01*
X76172Y237651D01*
X76076Y237683D01*
X75982Y237720D01*
X75889Y237760D01*
X75797Y237804D01*
X75708Y237851D01*
X75620Y237902D01*
X75534Y237956D01*
X75451Y238013D01*
X75369Y238073D01*
X75291Y238137D01*
X75214Y238203D01*
X75141Y238273D01*
X75070Y238345D01*
X75002Y238420D01*
X74937Y238498D01*
X74875Y238578D01*
X74816Y238660D01*
X74760Y238745D01*
X74708Y238832D01*
X74659Y238920D01*
X74613Y239011D01*
X74572Y239103D01*
X74533Y239197D01*
X74499Y239292D01*
X74468Y239388D01*
X74441Y239486D01*
X74417Y239584D01*
X74398Y239684D01*
X74382Y239784D01*
X74370Y239884D01*
X74362Y239985D01*
X74358Y240086D01*
X74358Y240188D01*
X74362Y240289D01*
X74370Y240390D01*
X74382Y240490D01*
X74398Y240590D01*
X74417Y240690D01*
X74441Y240788D01*
X74468Y240886D01*
X74499Y240982D01*
X74533Y241077D01*
X74572Y241171D01*
X74613Y241263D01*
X74659Y241354D01*
X74708Y241443D01*
X74760Y241529D01*
X74816Y241614D01*
X74875Y241696D01*
X74937Y241776D01*
X75002Y241854D01*
X75070Y241929D01*
X75141Y242001D01*
X75214Y242071D01*
X75291Y242137D01*
X75369Y242201D01*
X75451Y242261D01*
X75534Y242318D01*
X75620Y242372D01*
X75708Y242423D01*
X75797Y242470D01*
X75889Y242514D01*
X75982Y242554D01*
X76076Y242591D01*
X76172Y242623D01*
X76269Y242652D01*
X76367Y242678D01*
X76466Y242699D01*
X76566Y242717D01*
X76666Y242730D01*
X76767Y242740D01*
X76868Y242746D01*
X76969Y242748D01*
X83757Y242748D01*
X83757Y248977D02*
X74359Y248977D01*
X83757Y246366D02*
X83757Y251587D01*
X78013Y254988D02*
X78013Y261253D01*
X74359Y268091D02*
X74361Y268180D01*
X74367Y268268D01*
X74376Y268356D01*
X74389Y268444D01*
X74406Y268531D01*
X74426Y268617D01*
X74451Y268702D01*
X74478Y268787D01*
X74510Y268870D01*
X74544Y268951D01*
X74583Y269031D01*
X74624Y269109D01*
X74669Y269186D01*
X74717Y269260D01*
X74768Y269333D01*
X74822Y269403D01*
X74880Y269470D01*
X74940Y269536D01*
X75002Y269598D01*
X75068Y269658D01*
X75135Y269716D01*
X75205Y269770D01*
X75278Y269821D01*
X75352Y269869D01*
X75429Y269914D01*
X75507Y269955D01*
X75587Y269994D01*
X75668Y270028D01*
X75751Y270060D01*
X75836Y270087D01*
X75921Y270112D01*
X76007Y270132D01*
X76094Y270149D01*
X76182Y270162D01*
X76270Y270171D01*
X76358Y270177D01*
X76447Y270179D01*
X74358Y268091D02*
X74360Y267962D01*
X74366Y267833D01*
X74375Y267704D01*
X74388Y267576D01*
X74405Y267448D01*
X74426Y267321D01*
X74450Y267194D01*
X74478Y267068D01*
X74510Y266943D01*
X74545Y266819D01*
X74584Y266696D01*
X74627Y266574D01*
X74673Y266454D01*
X74723Y266335D01*
X74776Y266217D01*
X74832Y266101D01*
X74892Y265987D01*
X74955Y265874D01*
X75022Y265764D01*
X75091Y265655D01*
X75164Y265549D01*
X75240Y265444D01*
X75319Y265342D01*
X75401Y265243D01*
X75485Y265145D01*
X75573Y265050D01*
X75663Y264958D01*
X81668Y265220D02*
X81757Y265222D01*
X81845Y265228D01*
X81933Y265237D01*
X82021Y265250D01*
X82108Y265267D01*
X82194Y265287D01*
X82279Y265312D01*
X82364Y265339D01*
X82447Y265371D01*
X82528Y265405D01*
X82608Y265444D01*
X82686Y265485D01*
X82763Y265530D01*
X82837Y265578D01*
X82910Y265629D01*
X82980Y265683D01*
X83047Y265741D01*
X83113Y265801D01*
X83175Y265863D01*
X83235Y265929D01*
X83293Y265996D01*
X83347Y266066D01*
X83398Y266139D01*
X83446Y266213D01*
X83491Y266290D01*
X83532Y266368D01*
X83571Y266448D01*
X83605Y266529D01*
X83637Y266612D01*
X83664Y266697D01*
X83689Y266782D01*
X83709Y266868D01*
X83726Y266955D01*
X83739Y267043D01*
X83748Y267131D01*
X83754Y267219D01*
X83756Y267308D01*
X83757Y267308D02*
X83755Y267428D01*
X83750Y267548D01*
X83740Y267668D01*
X83728Y267787D01*
X83711Y267906D01*
X83691Y268024D01*
X83667Y268142D01*
X83640Y268258D01*
X83609Y268374D01*
X83575Y268489D01*
X83537Y268603D01*
X83495Y268716D01*
X83450Y268827D01*
X83402Y268937D01*
X83351Y269045D01*
X83296Y269152D01*
X83238Y269257D01*
X83176Y269360D01*
X83112Y269461D01*
X83044Y269561D01*
X82974Y269658D01*
X79841Y266264D02*
X79889Y266186D01*
X79941Y266110D01*
X79995Y266037D01*
X80053Y265966D01*
X80114Y265897D01*
X80178Y265831D01*
X80245Y265768D01*
X80314Y265708D01*
X80386Y265651D01*
X80460Y265597D01*
X80537Y265547D01*
X80616Y265499D01*
X80696Y265456D01*
X80779Y265415D01*
X80863Y265379D01*
X80948Y265346D01*
X81035Y265317D01*
X81124Y265291D01*
X81213Y265269D01*
X81303Y265252D01*
X81393Y265238D01*
X81485Y265228D01*
X81576Y265222D01*
X81668Y265220D01*
X78274Y269136D02*
X78226Y269214D01*
X78174Y269290D01*
X78120Y269363D01*
X78062Y269434D01*
X78001Y269503D01*
X77937Y269569D01*
X77870Y269632D01*
X77801Y269692D01*
X77729Y269749D01*
X77655Y269803D01*
X77578Y269853D01*
X77499Y269901D01*
X77419Y269944D01*
X77336Y269985D01*
X77252Y270021D01*
X77167Y270054D01*
X77080Y270083D01*
X76991Y270109D01*
X76902Y270131D01*
X76812Y270148D01*
X76722Y270162D01*
X76630Y270172D01*
X76539Y270178D01*
X76447Y270180D01*
X78274Y269136D02*
X79841Y266264D01*
X79058Y273798D02*
X79243Y273800D01*
X79428Y273807D01*
X79612Y273818D01*
X79796Y273833D01*
X79980Y273853D01*
X80164Y273877D01*
X80346Y273906D01*
X80528Y273939D01*
X80709Y273976D01*
X80889Y274018D01*
X81069Y274064D01*
X81247Y274114D01*
X81423Y274168D01*
X81599Y274227D01*
X81773Y274289D01*
X81945Y274356D01*
X82116Y274427D01*
X82285Y274502D01*
X82452Y274581D01*
X82452Y274580D02*
X82532Y274610D01*
X82611Y274643D01*
X82688Y274680D01*
X82764Y274720D01*
X82838Y274763D01*
X82910Y274809D01*
X82979Y274859D01*
X83047Y274911D01*
X83112Y274967D01*
X83175Y275025D01*
X83234Y275087D01*
X83292Y275150D01*
X83346Y275217D01*
X83397Y275285D01*
X83445Y275356D01*
X83490Y275429D01*
X83532Y275503D01*
X83570Y275580D01*
X83605Y275658D01*
X83637Y275737D01*
X83665Y275818D01*
X83689Y275900D01*
X83710Y275984D01*
X83727Y276067D01*
X83740Y276152D01*
X83749Y276237D01*
X83755Y276322D01*
X83757Y276408D01*
X83755Y276494D01*
X83749Y276579D01*
X83740Y276664D01*
X83727Y276749D01*
X83710Y276832D01*
X83689Y276916D01*
X83665Y276998D01*
X83637Y277079D01*
X83605Y277158D01*
X83570Y277236D01*
X83532Y277313D01*
X83490Y277387D01*
X83445Y277460D01*
X83397Y277531D01*
X83346Y277599D01*
X83292Y277666D01*
X83234Y277729D01*
X83175Y277791D01*
X83112Y277849D01*
X83047Y277905D01*
X82979Y277957D01*
X82910Y278007D01*
X82838Y278053D01*
X82764Y278096D01*
X82688Y278136D01*
X82611Y278173D01*
X82532Y278206D01*
X82452Y278236D01*
X82285Y278315D01*
X82116Y278390D01*
X81945Y278461D01*
X81773Y278528D01*
X81599Y278590D01*
X81423Y278649D01*
X81247Y278703D01*
X81069Y278753D01*
X80889Y278799D01*
X80709Y278841D01*
X80528Y278878D01*
X80346Y278911D01*
X80164Y278940D01*
X79980Y278964D01*
X79796Y278984D01*
X79612Y278999D01*
X79428Y279010D01*
X79243Y279017D01*
X79058Y279019D01*
X79058Y273798D02*
X78873Y273800D01*
X78688Y273807D01*
X78504Y273818D01*
X78320Y273833D01*
X78136Y273853D01*
X77952Y273877D01*
X77770Y273906D01*
X77588Y273939D01*
X77407Y273976D01*
X77227Y274018D01*
X77047Y274064D01*
X76869Y274114D01*
X76693Y274168D01*
X76517Y274227D01*
X76343Y274289D01*
X76171Y274356D01*
X76000Y274427D01*
X75831Y274502D01*
X75664Y274581D01*
X75663Y274580D02*
X75583Y274610D01*
X75504Y274643D01*
X75427Y274680D01*
X75351Y274720D01*
X75277Y274763D01*
X75205Y274809D01*
X75136Y274859D01*
X75068Y274912D01*
X75003Y274967D01*
X74940Y275026D01*
X74881Y275087D01*
X74823Y275150D01*
X74769Y275217D01*
X74718Y275285D01*
X74670Y275356D01*
X74625Y275429D01*
X74583Y275503D01*
X74545Y275580D01*
X74510Y275658D01*
X74478Y275737D01*
X74450Y275818D01*
X74426Y275900D01*
X74405Y275984D01*
X74388Y276067D01*
X74375Y276152D01*
X74366Y276237D01*
X74360Y276322D01*
X74358Y276408D01*
X75664Y278236D02*
X75831Y278315D01*
X76000Y278390D01*
X76171Y278461D01*
X76343Y278528D01*
X76517Y278590D01*
X76693Y278649D01*
X76869Y278703D01*
X77047Y278753D01*
X77227Y278799D01*
X77407Y278841D01*
X77588Y278878D01*
X77770Y278911D01*
X77952Y278940D01*
X78136Y278964D01*
X78320Y278984D01*
X78504Y278999D01*
X78688Y279010D01*
X78873Y279017D01*
X79058Y279019D01*
X75663Y278236D02*
X75583Y278206D01*
X75504Y278173D01*
X75427Y278136D01*
X75351Y278096D01*
X75277Y278053D01*
X75205Y278007D01*
X75136Y277957D01*
X75068Y277905D01*
X75003Y277849D01*
X74940Y277791D01*
X74881Y277729D01*
X74823Y277666D01*
X74769Y277599D01*
X74718Y277531D01*
X74670Y277460D01*
X74625Y277387D01*
X74583Y277313D01*
X74545Y277236D01*
X74510Y277158D01*
X74478Y277079D01*
X74450Y276998D01*
X74426Y276916D01*
X74405Y276832D01*
X74388Y276749D01*
X74375Y276664D01*
X74366Y276579D01*
X74360Y276494D01*
X74358Y276408D01*
X76447Y274320D02*
X81668Y278497D01*
X50546Y204407D02*
X50546Y200230D01*
X59944Y200230D01*
X59944Y204407D01*
X55767Y203362D02*
X55767Y200230D01*
X50546Y166307D02*
X50546Y164218D01*
X50548Y164129D01*
X50554Y164041D01*
X50563Y163953D01*
X50576Y163865D01*
X50593Y163778D01*
X50613Y163692D01*
X50638Y163607D01*
X50665Y163522D01*
X50697Y163439D01*
X50731Y163358D01*
X50770Y163278D01*
X50811Y163200D01*
X50856Y163123D01*
X50904Y163049D01*
X50955Y162976D01*
X51009Y162906D01*
X51067Y162839D01*
X51127Y162773D01*
X51189Y162711D01*
X51255Y162651D01*
X51322Y162593D01*
X51392Y162539D01*
X51465Y162488D01*
X51539Y162440D01*
X51616Y162395D01*
X51694Y162354D01*
X51774Y162315D01*
X51855Y162281D01*
X51938Y162249D01*
X52023Y162222D01*
X52108Y162197D01*
X52194Y162177D01*
X52281Y162160D01*
X52369Y162147D01*
X52457Y162138D01*
X52545Y162132D01*
X52634Y162130D01*
X57856Y162130D01*
X57947Y162132D01*
X58038Y162138D01*
X58129Y162148D01*
X58219Y162162D01*
X58308Y162179D01*
X58396Y162201D01*
X58484Y162227D01*
X58570Y162256D01*
X58655Y162289D01*
X58738Y162326D01*
X58820Y162366D01*
X58900Y162410D01*
X58978Y162457D01*
X59054Y162508D01*
X59127Y162561D01*
X59198Y162618D01*
X59267Y162679D01*
X59332Y162742D01*
X59395Y162807D01*
X59455Y162876D01*
X59513Y162947D01*
X59566Y163020D01*
X59617Y163096D01*
X59664Y163174D01*
X59708Y163254D01*
X59748Y163336D01*
X59785Y163419D01*
X59818Y163504D01*
X59847Y163590D01*
X59873Y163678D01*
X59895Y163766D01*
X59912Y163855D01*
X59926Y163945D01*
X59936Y164036D01*
X59942Y164127D01*
X59944Y164218D01*
X59944Y166307D01*
X50546Y131382D02*
X50546Y127205D01*
X59944Y127205D01*
X59944Y131382D01*
X55767Y130337D02*
X55767Y127205D01*
X50546Y99632D02*
X50546Y97543D01*
X50548Y97454D01*
X50554Y97366D01*
X50563Y97278D01*
X50576Y97190D01*
X50593Y97103D01*
X50613Y97017D01*
X50638Y96932D01*
X50665Y96847D01*
X50697Y96764D01*
X50731Y96683D01*
X50770Y96603D01*
X50811Y96525D01*
X50856Y96448D01*
X50904Y96374D01*
X50955Y96301D01*
X51009Y96231D01*
X51067Y96164D01*
X51127Y96098D01*
X51189Y96036D01*
X51255Y95976D01*
X51322Y95918D01*
X51392Y95864D01*
X51465Y95813D01*
X51539Y95765D01*
X51616Y95720D01*
X51694Y95679D01*
X51774Y95640D01*
X51855Y95606D01*
X51938Y95574D01*
X52023Y95547D01*
X52108Y95522D01*
X52194Y95502D01*
X52281Y95485D01*
X52369Y95472D01*
X52457Y95463D01*
X52545Y95457D01*
X52634Y95455D01*
X57856Y95455D01*
X57947Y95457D01*
X58038Y95463D01*
X58129Y95473D01*
X58219Y95487D01*
X58308Y95504D01*
X58396Y95526D01*
X58484Y95552D01*
X58570Y95581D01*
X58655Y95614D01*
X58738Y95651D01*
X58820Y95691D01*
X58900Y95735D01*
X58978Y95782D01*
X59054Y95833D01*
X59127Y95886D01*
X59198Y95943D01*
X59267Y96004D01*
X59332Y96067D01*
X59395Y96132D01*
X59455Y96201D01*
X59513Y96272D01*
X59566Y96345D01*
X59617Y96421D01*
X59664Y96499D01*
X59708Y96579D01*
X59748Y96661D01*
X59785Y96744D01*
X59818Y96829D01*
X59847Y96915D01*
X59873Y97003D01*
X59895Y97091D01*
X59912Y97180D01*
X59926Y97270D01*
X59936Y97361D01*
X59942Y97452D01*
X59944Y97543D01*
X59944Y99632D01*
X50546Y63119D02*
X50546Y58942D01*
X59944Y58942D01*
X59944Y63119D01*
X55767Y62075D02*
X55767Y58942D01*
X50546Y25019D02*
X50546Y22931D01*
X50548Y22842D01*
X50554Y22754D01*
X50563Y22666D01*
X50576Y22578D01*
X50593Y22491D01*
X50613Y22405D01*
X50638Y22320D01*
X50665Y22235D01*
X50697Y22152D01*
X50731Y22071D01*
X50770Y21991D01*
X50811Y21913D01*
X50856Y21836D01*
X50904Y21762D01*
X50955Y21689D01*
X51009Y21619D01*
X51067Y21552D01*
X51127Y21486D01*
X51189Y21424D01*
X51255Y21364D01*
X51322Y21306D01*
X51392Y21252D01*
X51465Y21201D01*
X51539Y21153D01*
X51616Y21108D01*
X51694Y21067D01*
X51774Y21028D01*
X51855Y20994D01*
X51938Y20962D01*
X52023Y20935D01*
X52108Y20910D01*
X52194Y20890D01*
X52281Y20873D01*
X52369Y20860D01*
X52457Y20851D01*
X52545Y20845D01*
X52634Y20843D01*
X52634Y20842D02*
X57856Y20842D01*
X57856Y20843D02*
X57947Y20845D01*
X58038Y20851D01*
X58129Y20861D01*
X58219Y20875D01*
X58308Y20892D01*
X58396Y20914D01*
X58484Y20940D01*
X58570Y20969D01*
X58655Y21002D01*
X58738Y21039D01*
X58820Y21079D01*
X58900Y21123D01*
X58978Y21170D01*
X59054Y21221D01*
X59127Y21274D01*
X59198Y21331D01*
X59267Y21392D01*
X59332Y21455D01*
X59395Y21520D01*
X59455Y21589D01*
X59513Y21660D01*
X59566Y21733D01*
X59617Y21809D01*
X59664Y21887D01*
X59708Y21967D01*
X59748Y22049D01*
X59785Y22132D01*
X59818Y22217D01*
X59847Y22303D01*
X59873Y22391D01*
X59895Y22479D01*
X59912Y22568D01*
X59926Y22658D01*
X59936Y22749D01*
X59942Y22840D01*
X59944Y22931D01*
X59944Y25019D01*
X76969Y159816D02*
X81146Y159816D01*
X81146Y159815D02*
X81247Y159817D01*
X81348Y159823D01*
X81449Y159833D01*
X81549Y159846D01*
X81649Y159864D01*
X81748Y159885D01*
X81846Y159911D01*
X81943Y159940D01*
X82039Y159972D01*
X82133Y160009D01*
X82226Y160049D01*
X82318Y160093D01*
X82407Y160140D01*
X82495Y160191D01*
X82581Y160245D01*
X82664Y160302D01*
X82746Y160362D01*
X82824Y160426D01*
X82901Y160492D01*
X82974Y160562D01*
X83045Y160634D01*
X83113Y160709D01*
X83178Y160787D01*
X83240Y160867D01*
X83299Y160949D01*
X83355Y161034D01*
X83407Y161120D01*
X83456Y161209D01*
X83502Y161300D01*
X83543Y161392D01*
X83582Y161486D01*
X83616Y161581D01*
X83647Y161677D01*
X83674Y161775D01*
X83698Y161873D01*
X83717Y161973D01*
X83733Y162073D01*
X83745Y162173D01*
X83753Y162274D01*
X83757Y162375D01*
X83757Y162477D01*
X83753Y162578D01*
X83745Y162679D01*
X83733Y162779D01*
X83717Y162879D01*
X83698Y162979D01*
X83674Y163077D01*
X83647Y163175D01*
X83616Y163271D01*
X83582Y163366D01*
X83543Y163460D01*
X83502Y163552D01*
X83456Y163643D01*
X83407Y163731D01*
X83355Y163818D01*
X83299Y163903D01*
X83240Y163985D01*
X83178Y164065D01*
X83113Y164143D01*
X83045Y164218D01*
X82974Y164290D01*
X82901Y164360D01*
X82824Y164426D01*
X82746Y164490D01*
X82664Y164550D01*
X82581Y164607D01*
X82495Y164661D01*
X82407Y164712D01*
X82318Y164759D01*
X82226Y164803D01*
X82133Y164843D01*
X82039Y164880D01*
X81943Y164912D01*
X81846Y164941D01*
X81748Y164967D01*
X81649Y164988D01*
X81549Y165006D01*
X81449Y165019D01*
X81348Y165029D01*
X81247Y165035D01*
X81146Y165037D01*
X76969Y165037D01*
X76868Y165035D01*
X76767Y165029D01*
X76666Y165019D01*
X76566Y165006D01*
X76466Y164988D01*
X76367Y164967D01*
X76269Y164941D01*
X76172Y164912D01*
X76076Y164880D01*
X75982Y164843D01*
X75889Y164803D01*
X75797Y164759D01*
X75708Y164712D01*
X75620Y164661D01*
X75534Y164607D01*
X75451Y164550D01*
X75369Y164490D01*
X75291Y164426D01*
X75214Y164360D01*
X75141Y164290D01*
X75070Y164218D01*
X75002Y164143D01*
X74937Y164065D01*
X74875Y163985D01*
X74816Y163903D01*
X74760Y163818D01*
X74708Y163732D01*
X74659Y163643D01*
X74613Y163552D01*
X74572Y163460D01*
X74533Y163366D01*
X74499Y163271D01*
X74468Y163175D01*
X74441Y163077D01*
X74417Y162979D01*
X74398Y162879D01*
X74382Y162779D01*
X74370Y162679D01*
X74362Y162578D01*
X74358Y162477D01*
X74358Y162375D01*
X74362Y162274D01*
X74370Y162173D01*
X74382Y162073D01*
X74398Y161973D01*
X74417Y161873D01*
X74441Y161775D01*
X74468Y161677D01*
X74499Y161581D01*
X74533Y161486D01*
X74572Y161392D01*
X74613Y161300D01*
X74659Y161209D01*
X74708Y161121D01*
X74760Y161034D01*
X74816Y160949D01*
X74875Y160867D01*
X74937Y160787D01*
X75002Y160709D01*
X75070Y160634D01*
X75141Y160562D01*
X75214Y160492D01*
X75291Y160426D01*
X75369Y160362D01*
X75451Y160302D01*
X75534Y160245D01*
X75620Y160191D01*
X75708Y160140D01*
X75797Y160093D01*
X75889Y160049D01*
X75982Y160009D01*
X76076Y159972D01*
X76172Y159940D01*
X76269Y159911D01*
X76367Y159885D01*
X76466Y159864D01*
X76566Y159846D01*
X76666Y159833D01*
X76767Y159823D01*
X76868Y159817D01*
X76969Y159815D01*
X76969Y169264D02*
X83757Y169264D01*
X76969Y169264D02*
X76868Y169266D01*
X76767Y169272D01*
X76666Y169282D01*
X76566Y169295D01*
X76466Y169313D01*
X76367Y169334D01*
X76269Y169360D01*
X76172Y169389D01*
X76076Y169421D01*
X75982Y169458D01*
X75889Y169498D01*
X75797Y169542D01*
X75708Y169589D01*
X75620Y169640D01*
X75534Y169694D01*
X75451Y169751D01*
X75369Y169811D01*
X75291Y169875D01*
X75214Y169941D01*
X75141Y170011D01*
X75070Y170083D01*
X75002Y170158D01*
X74937Y170236D01*
X74875Y170316D01*
X74816Y170398D01*
X74760Y170483D01*
X74708Y170570D01*
X74659Y170658D01*
X74613Y170749D01*
X74572Y170841D01*
X74533Y170935D01*
X74499Y171030D01*
X74468Y171126D01*
X74441Y171224D01*
X74417Y171322D01*
X74398Y171422D01*
X74382Y171522D01*
X74370Y171622D01*
X74362Y171723D01*
X74358Y171824D01*
X74358Y171926D01*
X74362Y172027D01*
X74370Y172128D01*
X74382Y172228D01*
X74398Y172328D01*
X74417Y172428D01*
X74441Y172526D01*
X74468Y172624D01*
X74499Y172720D01*
X74533Y172815D01*
X74572Y172909D01*
X74613Y173001D01*
X74659Y173092D01*
X74708Y173181D01*
X74760Y173267D01*
X74816Y173352D01*
X74875Y173434D01*
X74937Y173514D01*
X75002Y173592D01*
X75070Y173667D01*
X75141Y173739D01*
X75214Y173809D01*
X75291Y173875D01*
X75369Y173939D01*
X75451Y173999D01*
X75534Y174056D01*
X75620Y174110D01*
X75708Y174161D01*
X75797Y174208D01*
X75889Y174252D01*
X75982Y174292D01*
X76076Y174329D01*
X76172Y174361D01*
X76269Y174390D01*
X76367Y174416D01*
X76466Y174437D01*
X76566Y174455D01*
X76666Y174468D01*
X76767Y174478D01*
X76868Y174484D01*
X76969Y174486D01*
X76969Y174485D02*
X83757Y174485D01*
X83757Y180714D02*
X74359Y180714D01*
X83757Y178104D02*
X83757Y183325D01*
X78013Y186725D02*
X78013Y192991D01*
X74359Y199829D02*
X74361Y199918D01*
X74367Y200006D01*
X74376Y200094D01*
X74389Y200182D01*
X74406Y200269D01*
X74426Y200355D01*
X74451Y200440D01*
X74478Y200525D01*
X74510Y200608D01*
X74544Y200689D01*
X74583Y200769D01*
X74624Y200847D01*
X74669Y200924D01*
X74717Y200998D01*
X74768Y201071D01*
X74822Y201141D01*
X74880Y201208D01*
X74940Y201274D01*
X75002Y201336D01*
X75068Y201396D01*
X75135Y201454D01*
X75205Y201508D01*
X75278Y201559D01*
X75352Y201607D01*
X75429Y201652D01*
X75507Y201693D01*
X75587Y201732D01*
X75668Y201766D01*
X75751Y201798D01*
X75836Y201825D01*
X75921Y201850D01*
X76007Y201870D01*
X76094Y201887D01*
X76182Y201900D01*
X76270Y201909D01*
X76358Y201915D01*
X76447Y201917D01*
X74358Y199829D02*
X74360Y199700D01*
X74366Y199571D01*
X74375Y199442D01*
X74388Y199314D01*
X74405Y199186D01*
X74426Y199059D01*
X74450Y198932D01*
X74478Y198806D01*
X74510Y198681D01*
X74545Y198557D01*
X74584Y198434D01*
X74627Y198312D01*
X74673Y198192D01*
X74723Y198073D01*
X74776Y197955D01*
X74832Y197839D01*
X74892Y197725D01*
X74955Y197612D01*
X75022Y197502D01*
X75091Y197393D01*
X75164Y197287D01*
X75240Y197182D01*
X75319Y197080D01*
X75401Y196981D01*
X75485Y196883D01*
X75573Y196788D01*
X75663Y196696D01*
X81668Y196958D02*
X81757Y196960D01*
X81845Y196966D01*
X81933Y196975D01*
X82021Y196988D01*
X82108Y197005D01*
X82194Y197025D01*
X82279Y197050D01*
X82364Y197077D01*
X82447Y197109D01*
X82528Y197143D01*
X82608Y197182D01*
X82686Y197223D01*
X82763Y197268D01*
X82837Y197316D01*
X82910Y197367D01*
X82980Y197421D01*
X83047Y197479D01*
X83113Y197539D01*
X83175Y197601D01*
X83235Y197667D01*
X83293Y197734D01*
X83347Y197804D01*
X83398Y197877D01*
X83446Y197951D01*
X83491Y198028D01*
X83532Y198106D01*
X83571Y198186D01*
X83605Y198267D01*
X83637Y198350D01*
X83664Y198435D01*
X83689Y198520D01*
X83709Y198606D01*
X83726Y198693D01*
X83739Y198781D01*
X83748Y198869D01*
X83754Y198957D01*
X83756Y199046D01*
X83757Y199046D02*
X83755Y199166D01*
X83750Y199286D01*
X83740Y199406D01*
X83728Y199525D01*
X83711Y199644D01*
X83691Y199762D01*
X83667Y199880D01*
X83640Y199996D01*
X83609Y200112D01*
X83575Y200227D01*
X83537Y200341D01*
X83495Y200454D01*
X83450Y200565D01*
X83402Y200675D01*
X83351Y200783D01*
X83296Y200890D01*
X83238Y200995D01*
X83176Y201098D01*
X83112Y201199D01*
X83044Y201299D01*
X82974Y201396D01*
X79841Y198001D02*
X79889Y197923D01*
X79941Y197847D01*
X79995Y197774D01*
X80053Y197703D01*
X80114Y197634D01*
X80178Y197568D01*
X80245Y197505D01*
X80314Y197445D01*
X80386Y197388D01*
X80460Y197334D01*
X80537Y197284D01*
X80616Y197236D01*
X80696Y197193D01*
X80779Y197152D01*
X80863Y197116D01*
X80948Y197083D01*
X81035Y197054D01*
X81124Y197028D01*
X81213Y197006D01*
X81303Y196989D01*
X81393Y196975D01*
X81485Y196965D01*
X81576Y196959D01*
X81668Y196957D01*
X78274Y200873D02*
X78226Y200951D01*
X78174Y201027D01*
X78120Y201100D01*
X78062Y201171D01*
X78001Y201240D01*
X77937Y201306D01*
X77870Y201369D01*
X77801Y201429D01*
X77729Y201486D01*
X77655Y201540D01*
X77578Y201590D01*
X77499Y201638D01*
X77419Y201681D01*
X77336Y201722D01*
X77252Y201758D01*
X77167Y201791D01*
X77080Y201820D01*
X76991Y201846D01*
X76902Y201868D01*
X76812Y201885D01*
X76722Y201899D01*
X76630Y201909D01*
X76539Y201915D01*
X76447Y201917D01*
X78274Y200873D02*
X79841Y198002D01*
X81668Y205535D02*
X83757Y208146D01*
X74359Y208146D01*
X74359Y205535D02*
X74359Y210757D01*
X76969Y88378D02*
X81146Y88378D01*
X81247Y88380D01*
X81348Y88386D01*
X81449Y88396D01*
X81549Y88409D01*
X81649Y88427D01*
X81748Y88448D01*
X81846Y88474D01*
X81943Y88503D01*
X82039Y88535D01*
X82133Y88572D01*
X82226Y88612D01*
X82318Y88656D01*
X82407Y88703D01*
X82495Y88754D01*
X82581Y88808D01*
X82664Y88865D01*
X82746Y88925D01*
X82824Y88989D01*
X82901Y89055D01*
X82974Y89125D01*
X83045Y89197D01*
X83113Y89272D01*
X83178Y89350D01*
X83240Y89430D01*
X83299Y89512D01*
X83355Y89597D01*
X83407Y89683D01*
X83456Y89772D01*
X83502Y89863D01*
X83543Y89955D01*
X83582Y90049D01*
X83616Y90144D01*
X83647Y90240D01*
X83674Y90338D01*
X83698Y90436D01*
X83717Y90536D01*
X83733Y90636D01*
X83745Y90736D01*
X83753Y90837D01*
X83757Y90938D01*
X83757Y91040D01*
X83753Y91141D01*
X83745Y91242D01*
X83733Y91342D01*
X83717Y91442D01*
X83698Y91542D01*
X83674Y91640D01*
X83647Y91738D01*
X83616Y91834D01*
X83582Y91929D01*
X83543Y92023D01*
X83502Y92115D01*
X83456Y92206D01*
X83407Y92294D01*
X83355Y92381D01*
X83299Y92466D01*
X83240Y92548D01*
X83178Y92628D01*
X83113Y92706D01*
X83045Y92781D01*
X82974Y92853D01*
X82901Y92923D01*
X82824Y92989D01*
X82746Y93053D01*
X82664Y93113D01*
X82581Y93170D01*
X82495Y93224D01*
X82407Y93275D01*
X82318Y93322D01*
X82226Y93366D01*
X82133Y93406D01*
X82039Y93443D01*
X81943Y93475D01*
X81846Y93504D01*
X81748Y93530D01*
X81649Y93551D01*
X81549Y93569D01*
X81449Y93582D01*
X81348Y93592D01*
X81247Y93598D01*
X81146Y93600D01*
X81146Y93599D02*
X76969Y93599D01*
X76969Y93600D02*
X76868Y93598D01*
X76767Y93592D01*
X76666Y93582D01*
X76566Y93569D01*
X76466Y93551D01*
X76367Y93530D01*
X76269Y93504D01*
X76172Y93475D01*
X76076Y93443D01*
X75982Y93406D01*
X75889Y93366D01*
X75797Y93322D01*
X75708Y93275D01*
X75620Y93224D01*
X75534Y93170D01*
X75451Y93113D01*
X75369Y93053D01*
X75291Y92989D01*
X75214Y92923D01*
X75141Y92853D01*
X75070Y92781D01*
X75002Y92706D01*
X74937Y92628D01*
X74875Y92548D01*
X74816Y92466D01*
X74760Y92381D01*
X74708Y92295D01*
X74659Y92206D01*
X74613Y92115D01*
X74572Y92023D01*
X74533Y91929D01*
X74499Y91834D01*
X74468Y91738D01*
X74441Y91640D01*
X74417Y91542D01*
X74398Y91442D01*
X74382Y91342D01*
X74370Y91242D01*
X74362Y91141D01*
X74358Y91040D01*
X74358Y90938D01*
X74362Y90837D01*
X74370Y90736D01*
X74382Y90636D01*
X74398Y90536D01*
X74417Y90436D01*
X74441Y90338D01*
X74468Y90240D01*
X74499Y90144D01*
X74533Y90049D01*
X74572Y89955D01*
X74613Y89863D01*
X74659Y89772D01*
X74708Y89684D01*
X74760Y89597D01*
X74816Y89512D01*
X74875Y89430D01*
X74937Y89350D01*
X75002Y89272D01*
X75070Y89197D01*
X75141Y89125D01*
X75214Y89055D01*
X75291Y88989D01*
X75369Y88925D01*
X75451Y88865D01*
X75534Y88808D01*
X75620Y88754D01*
X75708Y88703D01*
X75797Y88656D01*
X75889Y88612D01*
X75982Y88572D01*
X76076Y88535D01*
X76172Y88503D01*
X76269Y88474D01*
X76367Y88448D01*
X76466Y88427D01*
X76566Y88409D01*
X76666Y88396D01*
X76767Y88386D01*
X76868Y88380D01*
X76969Y88378D01*
X76969Y97827D02*
X83757Y97827D01*
X76969Y97826D02*
X76868Y97828D01*
X76767Y97834D01*
X76666Y97844D01*
X76566Y97857D01*
X76466Y97875D01*
X76367Y97896D01*
X76269Y97922D01*
X76172Y97951D01*
X76076Y97983D01*
X75982Y98020D01*
X75889Y98060D01*
X75797Y98104D01*
X75708Y98151D01*
X75620Y98202D01*
X75534Y98256D01*
X75451Y98313D01*
X75369Y98373D01*
X75291Y98437D01*
X75214Y98503D01*
X75141Y98573D01*
X75070Y98645D01*
X75002Y98720D01*
X74937Y98798D01*
X74875Y98878D01*
X74816Y98960D01*
X74760Y99045D01*
X74708Y99132D01*
X74659Y99220D01*
X74613Y99311D01*
X74572Y99403D01*
X74533Y99497D01*
X74499Y99592D01*
X74468Y99688D01*
X74441Y99786D01*
X74417Y99884D01*
X74398Y99984D01*
X74382Y100084D01*
X74370Y100184D01*
X74362Y100285D01*
X74358Y100386D01*
X74358Y100488D01*
X74362Y100589D01*
X74370Y100690D01*
X74382Y100790D01*
X74398Y100890D01*
X74417Y100990D01*
X74441Y101088D01*
X74468Y101186D01*
X74499Y101282D01*
X74533Y101377D01*
X74572Y101471D01*
X74613Y101563D01*
X74659Y101654D01*
X74708Y101743D01*
X74760Y101829D01*
X74816Y101914D01*
X74875Y101996D01*
X74937Y102076D01*
X75002Y102154D01*
X75070Y102229D01*
X75141Y102301D01*
X75214Y102371D01*
X75291Y102437D01*
X75369Y102501D01*
X75451Y102561D01*
X75534Y102618D01*
X75620Y102672D01*
X75708Y102723D01*
X75797Y102770D01*
X75889Y102814D01*
X75982Y102854D01*
X76076Y102891D01*
X76172Y102923D01*
X76269Y102952D01*
X76367Y102978D01*
X76466Y102999D01*
X76566Y103017D01*
X76666Y103030D01*
X76767Y103040D01*
X76868Y103046D01*
X76969Y103048D01*
X83757Y103048D01*
X83757Y109277D02*
X74359Y109277D01*
X83757Y106666D02*
X83757Y111887D01*
X78013Y115288D02*
X78013Y121553D01*
X74359Y128391D02*
X74361Y128480D01*
X74367Y128568D01*
X74376Y128656D01*
X74389Y128744D01*
X74406Y128831D01*
X74426Y128917D01*
X74451Y129002D01*
X74478Y129087D01*
X74510Y129170D01*
X74544Y129251D01*
X74583Y129331D01*
X74624Y129409D01*
X74669Y129486D01*
X74717Y129560D01*
X74768Y129633D01*
X74822Y129703D01*
X74880Y129770D01*
X74940Y129836D01*
X75002Y129898D01*
X75068Y129958D01*
X75135Y130016D01*
X75205Y130070D01*
X75278Y130121D01*
X75352Y130169D01*
X75429Y130214D01*
X75507Y130255D01*
X75587Y130294D01*
X75668Y130328D01*
X75751Y130360D01*
X75836Y130387D01*
X75921Y130412D01*
X76007Y130432D01*
X76094Y130449D01*
X76182Y130462D01*
X76270Y130471D01*
X76358Y130477D01*
X76447Y130479D01*
X74358Y128391D02*
X74360Y128262D01*
X74366Y128133D01*
X74375Y128004D01*
X74388Y127876D01*
X74405Y127748D01*
X74426Y127621D01*
X74450Y127494D01*
X74478Y127368D01*
X74510Y127243D01*
X74545Y127119D01*
X74584Y126996D01*
X74627Y126874D01*
X74673Y126754D01*
X74723Y126635D01*
X74776Y126517D01*
X74832Y126401D01*
X74892Y126287D01*
X74955Y126174D01*
X75022Y126064D01*
X75091Y125955D01*
X75164Y125849D01*
X75240Y125744D01*
X75319Y125642D01*
X75401Y125543D01*
X75485Y125445D01*
X75573Y125350D01*
X75663Y125258D01*
X81668Y125520D02*
X81757Y125522D01*
X81845Y125528D01*
X81933Y125537D01*
X82021Y125550D01*
X82108Y125567D01*
X82194Y125587D01*
X82279Y125612D01*
X82364Y125639D01*
X82447Y125671D01*
X82528Y125705D01*
X82608Y125744D01*
X82686Y125785D01*
X82763Y125830D01*
X82837Y125878D01*
X82910Y125929D01*
X82980Y125983D01*
X83047Y126041D01*
X83113Y126101D01*
X83175Y126163D01*
X83235Y126229D01*
X83293Y126296D01*
X83347Y126366D01*
X83398Y126439D01*
X83446Y126513D01*
X83491Y126590D01*
X83532Y126668D01*
X83571Y126748D01*
X83605Y126829D01*
X83637Y126912D01*
X83664Y126997D01*
X83689Y127082D01*
X83709Y127168D01*
X83726Y127255D01*
X83739Y127343D01*
X83748Y127431D01*
X83754Y127519D01*
X83756Y127608D01*
X83757Y127608D02*
X83755Y127728D01*
X83750Y127848D01*
X83740Y127968D01*
X83728Y128087D01*
X83711Y128206D01*
X83691Y128324D01*
X83667Y128442D01*
X83640Y128558D01*
X83609Y128674D01*
X83575Y128789D01*
X83537Y128903D01*
X83495Y129016D01*
X83450Y129127D01*
X83402Y129237D01*
X83351Y129345D01*
X83296Y129452D01*
X83238Y129557D01*
X83176Y129660D01*
X83112Y129761D01*
X83044Y129861D01*
X82974Y129958D01*
X79841Y126564D02*
X79889Y126486D01*
X79941Y126410D01*
X79995Y126337D01*
X80053Y126266D01*
X80114Y126197D01*
X80178Y126131D01*
X80245Y126068D01*
X80314Y126008D01*
X80386Y125951D01*
X80460Y125897D01*
X80537Y125847D01*
X80616Y125799D01*
X80696Y125756D01*
X80779Y125715D01*
X80863Y125679D01*
X80948Y125646D01*
X81035Y125617D01*
X81124Y125591D01*
X81213Y125569D01*
X81303Y125552D01*
X81393Y125538D01*
X81485Y125528D01*
X81576Y125522D01*
X81668Y125520D01*
X78274Y129436D02*
X78226Y129514D01*
X78174Y129590D01*
X78120Y129663D01*
X78062Y129734D01*
X78001Y129803D01*
X77937Y129869D01*
X77870Y129932D01*
X77801Y129992D01*
X77729Y130049D01*
X77655Y130103D01*
X77578Y130153D01*
X77499Y130201D01*
X77419Y130244D01*
X77336Y130285D01*
X77252Y130321D01*
X77167Y130354D01*
X77080Y130383D01*
X76991Y130409D01*
X76902Y130431D01*
X76812Y130448D01*
X76722Y130462D01*
X76630Y130472D01*
X76539Y130478D01*
X76447Y130480D01*
X78274Y129436D02*
X79841Y126564D01*
X83757Y136970D02*
X83755Y137065D01*
X83749Y137159D01*
X83740Y137253D01*
X83727Y137347D01*
X83710Y137440D01*
X83689Y137532D01*
X83664Y137624D01*
X83636Y137714D01*
X83604Y137803D01*
X83569Y137891D01*
X83530Y137977D01*
X83488Y138062D01*
X83442Y138145D01*
X83393Y138226D01*
X83341Y138305D01*
X83286Y138382D01*
X83227Y138456D01*
X83166Y138528D01*
X83102Y138598D01*
X83035Y138665D01*
X82965Y138729D01*
X82893Y138790D01*
X82819Y138849D01*
X82742Y138904D01*
X82663Y138956D01*
X82582Y139005D01*
X82499Y139051D01*
X82414Y139093D01*
X82328Y139132D01*
X82240Y139167D01*
X82151Y139199D01*
X82061Y139227D01*
X81969Y139252D01*
X81877Y139273D01*
X81784Y139290D01*
X81690Y139303D01*
X81596Y139312D01*
X81502Y139318D01*
X81407Y139320D01*
X83756Y136970D02*
X83754Y136862D01*
X83748Y136753D01*
X83738Y136645D01*
X83725Y136538D01*
X83707Y136431D01*
X83686Y136324D01*
X83661Y136219D01*
X83632Y136114D01*
X83600Y136011D01*
X83563Y135909D01*
X83523Y135808D01*
X83480Y135709D01*
X83433Y135611D01*
X83382Y135515D01*
X83328Y135421D01*
X83271Y135329D01*
X83210Y135239D01*
X83146Y135151D01*
X83080Y135066D01*
X83010Y134983D01*
X82937Y134903D01*
X82861Y134825D01*
X82783Y134750D01*
X82702Y134678D01*
X82618Y134609D01*
X82532Y134543D01*
X82444Y134480D01*
X82353Y134421D01*
X82261Y134364D01*
X82166Y134311D01*
X82070Y134262D01*
X81971Y134216D01*
X81872Y134173D01*
X81770Y134134D01*
X81668Y134099D01*
X79579Y138536D02*
X79648Y138605D01*
X79719Y138671D01*
X79792Y138735D01*
X79868Y138796D01*
X79947Y138854D01*
X80027Y138908D01*
X80110Y138960D01*
X80194Y139008D01*
X80280Y139054D01*
X80368Y139095D01*
X80458Y139134D01*
X80549Y139169D01*
X80641Y139200D01*
X80734Y139228D01*
X80828Y139252D01*
X80923Y139272D01*
X81019Y139289D01*
X81116Y139302D01*
X81213Y139311D01*
X81310Y139317D01*
X81407Y139319D01*
X79580Y138536D02*
X74359Y134098D01*
X74359Y139319D01*
X76969Y18528D02*
X81146Y18528D01*
X81247Y18530D01*
X81348Y18536D01*
X81449Y18546D01*
X81549Y18559D01*
X81649Y18577D01*
X81748Y18598D01*
X81846Y18624D01*
X81943Y18653D01*
X82039Y18685D01*
X82133Y18722D01*
X82226Y18762D01*
X82318Y18806D01*
X82407Y18853D01*
X82495Y18904D01*
X82581Y18958D01*
X82664Y19015D01*
X82746Y19075D01*
X82824Y19139D01*
X82901Y19205D01*
X82974Y19275D01*
X83045Y19347D01*
X83113Y19422D01*
X83178Y19500D01*
X83240Y19580D01*
X83299Y19662D01*
X83355Y19747D01*
X83407Y19833D01*
X83456Y19922D01*
X83502Y20013D01*
X83543Y20105D01*
X83582Y20199D01*
X83616Y20294D01*
X83647Y20390D01*
X83674Y20488D01*
X83698Y20586D01*
X83717Y20686D01*
X83733Y20786D01*
X83745Y20886D01*
X83753Y20987D01*
X83757Y21088D01*
X83757Y21190D01*
X83753Y21291D01*
X83745Y21392D01*
X83733Y21492D01*
X83717Y21592D01*
X83698Y21692D01*
X83674Y21790D01*
X83647Y21888D01*
X83616Y21984D01*
X83582Y22079D01*
X83543Y22173D01*
X83502Y22265D01*
X83456Y22356D01*
X83407Y22444D01*
X83355Y22531D01*
X83299Y22616D01*
X83240Y22698D01*
X83178Y22778D01*
X83113Y22856D01*
X83045Y22931D01*
X82974Y23003D01*
X82901Y23073D01*
X82824Y23139D01*
X82746Y23203D01*
X82664Y23263D01*
X82581Y23320D01*
X82495Y23374D01*
X82407Y23425D01*
X82318Y23472D01*
X82226Y23516D01*
X82133Y23556D01*
X82039Y23593D01*
X81943Y23625D01*
X81846Y23654D01*
X81748Y23680D01*
X81649Y23701D01*
X81549Y23719D01*
X81449Y23732D01*
X81348Y23742D01*
X81247Y23748D01*
X81146Y23750D01*
X81146Y23749D02*
X76969Y23749D01*
X76969Y23750D02*
X76868Y23748D01*
X76767Y23742D01*
X76666Y23732D01*
X76566Y23719D01*
X76466Y23701D01*
X76367Y23680D01*
X76269Y23654D01*
X76172Y23625D01*
X76076Y23593D01*
X75982Y23556D01*
X75889Y23516D01*
X75797Y23472D01*
X75708Y23425D01*
X75620Y23374D01*
X75534Y23320D01*
X75451Y23263D01*
X75369Y23203D01*
X75291Y23139D01*
X75214Y23073D01*
X75141Y23003D01*
X75070Y22931D01*
X75002Y22856D01*
X74937Y22778D01*
X74875Y22698D01*
X74816Y22616D01*
X74760Y22531D01*
X74708Y22445D01*
X74659Y22356D01*
X74613Y22265D01*
X74572Y22173D01*
X74533Y22079D01*
X74499Y21984D01*
X74468Y21888D01*
X74441Y21790D01*
X74417Y21692D01*
X74398Y21592D01*
X74382Y21492D01*
X74370Y21392D01*
X74362Y21291D01*
X74358Y21190D01*
X74358Y21088D01*
X74362Y20987D01*
X74370Y20886D01*
X74382Y20786D01*
X74398Y20686D01*
X74417Y20586D01*
X74441Y20488D01*
X74468Y20390D01*
X74499Y20294D01*
X74533Y20199D01*
X74572Y20105D01*
X74613Y20013D01*
X74659Y19922D01*
X74708Y19834D01*
X74760Y19747D01*
X74816Y19662D01*
X74875Y19580D01*
X74937Y19500D01*
X75002Y19422D01*
X75070Y19347D01*
X75141Y19275D01*
X75214Y19205D01*
X75291Y19139D01*
X75369Y19075D01*
X75451Y19015D01*
X75534Y18958D01*
X75620Y18904D01*
X75708Y18853D01*
X75797Y18806D01*
X75889Y18762D01*
X75982Y18722D01*
X76076Y18685D01*
X76172Y18653D01*
X76269Y18624D01*
X76367Y18598D01*
X76466Y18577D01*
X76566Y18559D01*
X76666Y18546D01*
X76767Y18536D01*
X76868Y18530D01*
X76969Y18528D01*
X76969Y27977D02*
X83757Y27977D01*
X76969Y27976D02*
X76868Y27978D01*
X76767Y27984D01*
X76666Y27994D01*
X76566Y28007D01*
X76466Y28025D01*
X76367Y28046D01*
X76269Y28072D01*
X76172Y28101D01*
X76076Y28133D01*
X75982Y28170D01*
X75889Y28210D01*
X75797Y28254D01*
X75708Y28301D01*
X75620Y28352D01*
X75534Y28406D01*
X75451Y28463D01*
X75369Y28523D01*
X75291Y28587D01*
X75214Y28653D01*
X75141Y28723D01*
X75070Y28795D01*
X75002Y28870D01*
X74937Y28948D01*
X74875Y29028D01*
X74816Y29110D01*
X74760Y29195D01*
X74708Y29282D01*
X74659Y29370D01*
X74613Y29461D01*
X74572Y29553D01*
X74533Y29647D01*
X74499Y29742D01*
X74468Y29838D01*
X74441Y29936D01*
X74417Y30034D01*
X74398Y30134D01*
X74382Y30234D01*
X74370Y30334D01*
X74362Y30435D01*
X74358Y30536D01*
X74358Y30638D01*
X74362Y30739D01*
X74370Y30840D01*
X74382Y30940D01*
X74398Y31040D01*
X74417Y31140D01*
X74441Y31238D01*
X74468Y31336D01*
X74499Y31432D01*
X74533Y31527D01*
X74572Y31621D01*
X74613Y31713D01*
X74659Y31804D01*
X74708Y31893D01*
X74760Y31979D01*
X74816Y32064D01*
X74875Y32146D01*
X74937Y32226D01*
X75002Y32304D01*
X75070Y32379D01*
X75141Y32451D01*
X75214Y32521D01*
X75291Y32587D01*
X75369Y32651D01*
X75451Y32711D01*
X75534Y32768D01*
X75620Y32822D01*
X75708Y32873D01*
X75797Y32920D01*
X75889Y32964D01*
X75982Y33004D01*
X76076Y33041D01*
X76172Y33073D01*
X76269Y33102D01*
X76367Y33128D01*
X76466Y33149D01*
X76566Y33167D01*
X76666Y33180D01*
X76767Y33190D01*
X76868Y33196D01*
X76969Y33198D01*
X83757Y33198D01*
X83757Y39427D02*
X74359Y39427D01*
X83757Y36816D02*
X83757Y42037D01*
X78013Y45438D02*
X78013Y51703D01*
X74359Y58541D02*
X74361Y58630D01*
X74367Y58718D01*
X74376Y58806D01*
X74389Y58894D01*
X74406Y58981D01*
X74426Y59067D01*
X74451Y59152D01*
X74478Y59237D01*
X74510Y59320D01*
X74544Y59401D01*
X74583Y59481D01*
X74624Y59559D01*
X74669Y59636D01*
X74717Y59710D01*
X74768Y59783D01*
X74822Y59853D01*
X74880Y59920D01*
X74940Y59986D01*
X75002Y60048D01*
X75068Y60108D01*
X75135Y60166D01*
X75205Y60220D01*
X75278Y60271D01*
X75352Y60319D01*
X75429Y60364D01*
X75507Y60405D01*
X75587Y60444D01*
X75668Y60478D01*
X75751Y60510D01*
X75836Y60537D01*
X75921Y60562D01*
X76007Y60582D01*
X76094Y60599D01*
X76182Y60612D01*
X76270Y60621D01*
X76358Y60627D01*
X76447Y60629D01*
X74358Y58541D02*
X74360Y58412D01*
X74366Y58283D01*
X74375Y58154D01*
X74388Y58026D01*
X74405Y57898D01*
X74426Y57771D01*
X74450Y57644D01*
X74478Y57518D01*
X74510Y57393D01*
X74545Y57269D01*
X74584Y57146D01*
X74627Y57024D01*
X74673Y56904D01*
X74723Y56785D01*
X74776Y56667D01*
X74832Y56551D01*
X74892Y56437D01*
X74955Y56324D01*
X75022Y56214D01*
X75091Y56105D01*
X75164Y55999D01*
X75240Y55894D01*
X75319Y55792D01*
X75401Y55693D01*
X75485Y55595D01*
X75573Y55500D01*
X75663Y55408D01*
X81668Y55670D02*
X81757Y55672D01*
X81845Y55678D01*
X81933Y55687D01*
X82021Y55700D01*
X82108Y55717D01*
X82194Y55737D01*
X82279Y55762D01*
X82364Y55789D01*
X82447Y55821D01*
X82528Y55855D01*
X82608Y55894D01*
X82686Y55935D01*
X82763Y55980D01*
X82837Y56028D01*
X82910Y56079D01*
X82980Y56133D01*
X83047Y56191D01*
X83113Y56251D01*
X83175Y56313D01*
X83235Y56379D01*
X83293Y56446D01*
X83347Y56516D01*
X83398Y56589D01*
X83446Y56663D01*
X83491Y56740D01*
X83532Y56818D01*
X83571Y56898D01*
X83605Y56979D01*
X83637Y57062D01*
X83664Y57147D01*
X83689Y57232D01*
X83709Y57318D01*
X83726Y57405D01*
X83739Y57493D01*
X83748Y57581D01*
X83754Y57669D01*
X83756Y57758D01*
X83757Y57758D02*
X83755Y57878D01*
X83750Y57998D01*
X83740Y58118D01*
X83728Y58237D01*
X83711Y58356D01*
X83691Y58474D01*
X83667Y58592D01*
X83640Y58708D01*
X83609Y58824D01*
X83575Y58939D01*
X83537Y59053D01*
X83495Y59166D01*
X83450Y59277D01*
X83402Y59387D01*
X83351Y59495D01*
X83296Y59602D01*
X83238Y59707D01*
X83176Y59810D01*
X83112Y59911D01*
X83044Y60011D01*
X82974Y60108D01*
X79841Y56714D02*
X79889Y56636D01*
X79941Y56560D01*
X79995Y56487D01*
X80053Y56416D01*
X80114Y56347D01*
X80178Y56281D01*
X80245Y56218D01*
X80314Y56158D01*
X80386Y56101D01*
X80460Y56047D01*
X80537Y55997D01*
X80616Y55949D01*
X80696Y55906D01*
X80779Y55865D01*
X80863Y55829D01*
X80948Y55796D01*
X81035Y55767D01*
X81124Y55741D01*
X81213Y55719D01*
X81303Y55702D01*
X81393Y55688D01*
X81485Y55678D01*
X81576Y55672D01*
X81668Y55670D01*
X78274Y59586D02*
X78226Y59664D01*
X78174Y59740D01*
X78120Y59813D01*
X78062Y59884D01*
X78001Y59953D01*
X77937Y60019D01*
X77870Y60082D01*
X77801Y60142D01*
X77729Y60199D01*
X77655Y60253D01*
X77578Y60303D01*
X77499Y60351D01*
X77419Y60394D01*
X77336Y60435D01*
X77252Y60471D01*
X77167Y60504D01*
X77080Y60533D01*
X76991Y60559D01*
X76902Y60581D01*
X76812Y60598D01*
X76722Y60612D01*
X76630Y60622D01*
X76539Y60628D01*
X76447Y60630D01*
X78274Y59586D02*
X79841Y56714D01*
X74359Y64248D02*
X74359Y66858D01*
X74358Y66858D02*
X74360Y66959D01*
X74366Y67060D01*
X74376Y67161D01*
X74389Y67261D01*
X74407Y67361D01*
X74428Y67460D01*
X74454Y67558D01*
X74483Y67655D01*
X74515Y67751D01*
X74552Y67845D01*
X74592Y67938D01*
X74636Y68030D01*
X74683Y68119D01*
X74734Y68207D01*
X74788Y68293D01*
X74845Y68376D01*
X74905Y68458D01*
X74969Y68536D01*
X75035Y68613D01*
X75105Y68686D01*
X75177Y68757D01*
X75252Y68825D01*
X75330Y68890D01*
X75410Y68952D01*
X75492Y69011D01*
X75577Y69067D01*
X75664Y69119D01*
X75752Y69168D01*
X75843Y69214D01*
X75935Y69255D01*
X76029Y69294D01*
X76124Y69328D01*
X76220Y69359D01*
X76318Y69386D01*
X76416Y69410D01*
X76516Y69429D01*
X76616Y69445D01*
X76716Y69457D01*
X76817Y69465D01*
X76918Y69469D01*
X77020Y69469D01*
X77121Y69465D01*
X77222Y69457D01*
X77322Y69445D01*
X77422Y69429D01*
X77522Y69410D01*
X77620Y69386D01*
X77718Y69359D01*
X77814Y69328D01*
X77909Y69294D01*
X78003Y69255D01*
X78095Y69214D01*
X78186Y69168D01*
X78275Y69119D01*
X78361Y69067D01*
X78446Y69011D01*
X78528Y68952D01*
X78608Y68890D01*
X78686Y68825D01*
X78761Y68757D01*
X78833Y68686D01*
X78903Y68613D01*
X78969Y68536D01*
X79033Y68458D01*
X79093Y68376D01*
X79150Y68293D01*
X79204Y68207D01*
X79255Y68119D01*
X79302Y68030D01*
X79346Y67938D01*
X79386Y67845D01*
X79423Y67751D01*
X79455Y67655D01*
X79484Y67558D01*
X79510Y67460D01*
X79531Y67361D01*
X79549Y67261D01*
X79562Y67161D01*
X79572Y67060D01*
X79578Y66959D01*
X79580Y66858D01*
X83757Y67381D02*
X83757Y64248D01*
X83756Y67381D02*
X83754Y67471D01*
X83748Y67560D01*
X83739Y67650D01*
X83725Y67739D01*
X83708Y67827D01*
X83687Y67914D01*
X83662Y68001D01*
X83633Y68086D01*
X83601Y68170D01*
X83566Y68252D01*
X83526Y68333D01*
X83484Y68412D01*
X83438Y68489D01*
X83388Y68564D01*
X83336Y68637D01*
X83280Y68708D01*
X83222Y68776D01*
X83160Y68841D01*
X83096Y68904D01*
X83029Y68964D01*
X82960Y69021D01*
X82888Y69075D01*
X82814Y69126D01*
X82738Y69174D01*
X82660Y69218D01*
X82580Y69259D01*
X82498Y69297D01*
X82415Y69331D01*
X82330Y69361D01*
X82244Y69388D01*
X82158Y69411D01*
X82070Y69430D01*
X81981Y69445D01*
X81892Y69457D01*
X81803Y69465D01*
X81713Y69469D01*
X81623Y69469D01*
X81533Y69465D01*
X81444Y69457D01*
X81355Y69445D01*
X81266Y69430D01*
X81178Y69411D01*
X81092Y69388D01*
X81006Y69361D01*
X80921Y69331D01*
X80838Y69297D01*
X80756Y69259D01*
X80676Y69218D01*
X80598Y69174D01*
X80522Y69126D01*
X80448Y69075D01*
X80376Y69021D01*
X80307Y68964D01*
X80240Y68904D01*
X80176Y68841D01*
X80114Y68776D01*
X80056Y68708D01*
X80000Y68637D01*
X79948Y68564D01*
X79898Y68489D01*
X79852Y68412D01*
X79810Y68333D01*
X79770Y68252D01*
X79735Y68170D01*
X79703Y68086D01*
X79674Y68001D01*
X79649Y67914D01*
X79628Y67827D01*
X79611Y67739D01*
X79597Y67650D01*
X79588Y67560D01*
X79582Y67471D01*
X79580Y67381D01*
X79580Y65292D01*
D12*
X68263Y7938D02*
X68263Y287338D01*
X68263Y420688D02*
X14288Y420688D01*
X68263Y420688D02*
X90488Y420688D01*
X90488Y487363D01*
X68263Y487363D01*
X14288Y487363D01*
X14288Y420688D01*
X68263Y420688D02*
X68263Y487363D01*
D11*
X74359Y432927D02*
X83757Y432927D01*
X83757Y435538D01*
X83755Y435639D01*
X83749Y435740D01*
X83739Y435841D01*
X83726Y435941D01*
X83708Y436041D01*
X83687Y436140D01*
X83661Y436238D01*
X83632Y436335D01*
X83600Y436431D01*
X83563Y436525D01*
X83523Y436618D01*
X83479Y436710D01*
X83432Y436799D01*
X83381Y436887D01*
X83327Y436973D01*
X83270Y437056D01*
X83210Y437138D01*
X83146Y437216D01*
X83080Y437293D01*
X83010Y437366D01*
X82938Y437437D01*
X82863Y437505D01*
X82785Y437570D01*
X82705Y437632D01*
X82623Y437691D01*
X82538Y437747D01*
X82452Y437799D01*
X82363Y437848D01*
X82272Y437894D01*
X82180Y437935D01*
X82086Y437974D01*
X81991Y438008D01*
X81895Y438039D01*
X81797Y438066D01*
X81699Y438090D01*
X81599Y438109D01*
X81499Y438125D01*
X81399Y438137D01*
X81298Y438145D01*
X81197Y438149D01*
X81095Y438149D01*
X80994Y438145D01*
X80893Y438137D01*
X80793Y438125D01*
X80693Y438109D01*
X80593Y438090D01*
X80495Y438066D01*
X80397Y438039D01*
X80301Y438008D01*
X80206Y437974D01*
X80112Y437935D01*
X80020Y437894D01*
X79929Y437848D01*
X79841Y437799D01*
X79754Y437747D01*
X79669Y437691D01*
X79587Y437632D01*
X79507Y437570D01*
X79429Y437505D01*
X79354Y437437D01*
X79282Y437366D01*
X79212Y437293D01*
X79146Y437216D01*
X79082Y437138D01*
X79022Y437056D01*
X78965Y436973D01*
X78911Y436887D01*
X78860Y436799D01*
X78813Y436710D01*
X78769Y436618D01*
X78729Y436525D01*
X78692Y436431D01*
X78660Y436335D01*
X78631Y436238D01*
X78605Y436140D01*
X78584Y436041D01*
X78566Y435941D01*
X78553Y435841D01*
X78543Y435740D01*
X78537Y435639D01*
X78535Y435538D01*
X78535Y432927D01*
X76969Y441635D02*
X81146Y441635D01*
X81247Y441637D01*
X81348Y441643D01*
X81449Y441653D01*
X81549Y441666D01*
X81649Y441684D01*
X81748Y441705D01*
X81846Y441731D01*
X81943Y441760D01*
X82039Y441792D01*
X82133Y441829D01*
X82226Y441869D01*
X82318Y441913D01*
X82407Y441960D01*
X82495Y442011D01*
X82581Y442065D01*
X82664Y442122D01*
X82746Y442182D01*
X82824Y442246D01*
X82901Y442312D01*
X82974Y442382D01*
X83045Y442454D01*
X83113Y442529D01*
X83178Y442607D01*
X83240Y442687D01*
X83299Y442769D01*
X83355Y442854D01*
X83407Y442941D01*
X83456Y443029D01*
X83502Y443120D01*
X83543Y443212D01*
X83582Y443306D01*
X83616Y443401D01*
X83647Y443497D01*
X83674Y443595D01*
X83698Y443693D01*
X83717Y443793D01*
X83733Y443893D01*
X83745Y443993D01*
X83753Y444094D01*
X83757Y444195D01*
X83757Y444297D01*
X83753Y444398D01*
X83745Y444499D01*
X83733Y444599D01*
X83717Y444699D01*
X83698Y444799D01*
X83674Y444897D01*
X83647Y444995D01*
X83616Y445091D01*
X83582Y445186D01*
X83543Y445280D01*
X83502Y445372D01*
X83456Y445463D01*
X83407Y445551D01*
X83355Y445638D01*
X83299Y445723D01*
X83240Y445805D01*
X83178Y445885D01*
X83113Y445963D01*
X83045Y446038D01*
X82974Y446110D01*
X82901Y446180D01*
X82824Y446246D01*
X82746Y446310D01*
X82664Y446370D01*
X82581Y446427D01*
X82495Y446481D01*
X82407Y446532D01*
X82318Y446579D01*
X82226Y446623D01*
X82133Y446663D01*
X82039Y446700D01*
X81943Y446732D01*
X81846Y446761D01*
X81748Y446787D01*
X81649Y446808D01*
X81549Y446826D01*
X81449Y446839D01*
X81348Y446849D01*
X81247Y446855D01*
X81146Y446857D01*
X81146Y446856D02*
X76969Y446856D01*
X76969Y446857D02*
X76868Y446855D01*
X76767Y446849D01*
X76666Y446839D01*
X76566Y446826D01*
X76466Y446808D01*
X76367Y446787D01*
X76269Y446761D01*
X76172Y446732D01*
X76076Y446700D01*
X75982Y446663D01*
X75889Y446623D01*
X75797Y446579D01*
X75708Y446532D01*
X75620Y446481D01*
X75534Y446427D01*
X75451Y446370D01*
X75369Y446310D01*
X75291Y446246D01*
X75214Y446180D01*
X75141Y446110D01*
X75070Y446038D01*
X75002Y445963D01*
X74937Y445885D01*
X74875Y445805D01*
X74816Y445723D01*
X74760Y445638D01*
X74708Y445552D01*
X74659Y445463D01*
X74613Y445372D01*
X74572Y445280D01*
X74533Y445186D01*
X74499Y445091D01*
X74468Y444995D01*
X74441Y444897D01*
X74417Y444799D01*
X74398Y444699D01*
X74382Y444599D01*
X74370Y444499D01*
X74362Y444398D01*
X74358Y444297D01*
X74358Y444195D01*
X74362Y444094D01*
X74370Y443993D01*
X74382Y443893D01*
X74398Y443793D01*
X74417Y443693D01*
X74441Y443595D01*
X74468Y443497D01*
X74499Y443401D01*
X74533Y443306D01*
X74572Y443212D01*
X74613Y443120D01*
X74659Y443029D01*
X74708Y442941D01*
X74760Y442854D01*
X74816Y442769D01*
X74875Y442687D01*
X74937Y442607D01*
X75002Y442529D01*
X75070Y442454D01*
X75141Y442382D01*
X75214Y442312D01*
X75291Y442246D01*
X75369Y442182D01*
X75451Y442122D01*
X75534Y442065D01*
X75620Y442011D01*
X75708Y441960D01*
X75797Y441913D01*
X75889Y441869D01*
X75982Y441829D01*
X76076Y441792D01*
X76172Y441760D01*
X76269Y441731D01*
X76367Y441705D01*
X76466Y441684D01*
X76566Y441666D01*
X76666Y441653D01*
X76767Y441643D01*
X76868Y441637D01*
X76969Y441635D01*
X83757Y450432D02*
X74359Y452520D01*
X80624Y454609D01*
X74359Y456697D01*
X83757Y458786D01*
X74359Y462684D02*
X74359Y466860D01*
X74359Y462684D02*
X83757Y462684D01*
X83757Y466860D01*
X79580Y465816D02*
X79580Y462684D01*
X83757Y470648D02*
X74359Y470648D01*
X83757Y470648D02*
X83757Y473258D01*
X83755Y473359D01*
X83749Y473460D01*
X83739Y473561D01*
X83726Y473661D01*
X83708Y473761D01*
X83687Y473860D01*
X83661Y473958D01*
X83632Y474055D01*
X83600Y474151D01*
X83563Y474245D01*
X83523Y474338D01*
X83479Y474430D01*
X83432Y474519D01*
X83381Y474607D01*
X83327Y474693D01*
X83270Y474776D01*
X83210Y474858D01*
X83146Y474936D01*
X83080Y475013D01*
X83010Y475086D01*
X82938Y475157D01*
X82863Y475225D01*
X82785Y475290D01*
X82705Y475352D01*
X82623Y475411D01*
X82538Y475467D01*
X82452Y475519D01*
X82363Y475568D01*
X82272Y475614D01*
X82180Y475655D01*
X82086Y475694D01*
X81991Y475728D01*
X81895Y475759D01*
X81797Y475786D01*
X81699Y475810D01*
X81599Y475829D01*
X81499Y475845D01*
X81399Y475857D01*
X81298Y475865D01*
X81197Y475869D01*
X81095Y475869D01*
X80994Y475865D01*
X80893Y475857D01*
X80793Y475845D01*
X80693Y475829D01*
X80593Y475810D01*
X80495Y475786D01*
X80397Y475759D01*
X80301Y475728D01*
X80206Y475694D01*
X80112Y475655D01*
X80020Y475614D01*
X79929Y475568D01*
X79841Y475519D01*
X79754Y475467D01*
X79669Y475411D01*
X79587Y475352D01*
X79507Y475290D01*
X79429Y475225D01*
X79354Y475157D01*
X79282Y475086D01*
X79212Y475013D01*
X79146Y474936D01*
X79082Y474858D01*
X79022Y474776D01*
X78965Y474693D01*
X78911Y474607D01*
X78860Y474519D01*
X78813Y474430D01*
X78769Y474338D01*
X78729Y474245D01*
X78692Y474151D01*
X78660Y474055D01*
X78631Y473958D01*
X78605Y473860D01*
X78584Y473761D01*
X78566Y473661D01*
X78553Y473561D01*
X78543Y473460D01*
X78537Y473359D01*
X78535Y473258D01*
X78535Y470648D01*
X78535Y473781D02*
X74359Y475869D01*
X88515Y408735D02*
X91648Y408735D01*
X91648Y408736D02*
X91737Y408738D01*
X91825Y408744D01*
X91913Y408753D01*
X92001Y408766D01*
X92088Y408783D01*
X92174Y408803D01*
X92259Y408828D01*
X92344Y408855D01*
X92427Y408887D01*
X92508Y408921D01*
X92588Y408960D01*
X92666Y409001D01*
X92743Y409046D01*
X92817Y409094D01*
X92890Y409145D01*
X92960Y409199D01*
X93027Y409257D01*
X93093Y409317D01*
X93155Y409379D01*
X93215Y409445D01*
X93273Y409512D01*
X93327Y409582D01*
X93378Y409655D01*
X93426Y409729D01*
X93471Y409806D01*
X93512Y409884D01*
X93551Y409964D01*
X93585Y410045D01*
X93617Y410128D01*
X93644Y410213D01*
X93669Y410298D01*
X93689Y410384D01*
X93706Y410471D01*
X93719Y410559D01*
X93728Y410647D01*
X93734Y410735D01*
X93736Y410824D01*
X93737Y410824D02*
X93737Y411346D01*
X93735Y411447D01*
X93729Y411548D01*
X93719Y411649D01*
X93706Y411749D01*
X93688Y411849D01*
X93667Y411948D01*
X93641Y412046D01*
X93612Y412143D01*
X93580Y412239D01*
X93543Y412333D01*
X93503Y412426D01*
X93459Y412518D01*
X93412Y412607D01*
X93361Y412695D01*
X93307Y412781D01*
X93250Y412864D01*
X93190Y412946D01*
X93126Y413024D01*
X93060Y413101D01*
X92990Y413174D01*
X92918Y413245D01*
X92843Y413313D01*
X92765Y413378D01*
X92685Y413440D01*
X92603Y413499D01*
X92518Y413555D01*
X92432Y413607D01*
X92343Y413656D01*
X92252Y413702D01*
X92160Y413743D01*
X92066Y413782D01*
X91971Y413816D01*
X91875Y413847D01*
X91777Y413874D01*
X91679Y413898D01*
X91579Y413917D01*
X91479Y413933D01*
X91379Y413945D01*
X91278Y413953D01*
X91177Y413957D01*
X91075Y413957D01*
X90974Y413953D01*
X90873Y413945D01*
X90773Y413933D01*
X90673Y413917D01*
X90573Y413898D01*
X90475Y413874D01*
X90377Y413847D01*
X90281Y413816D01*
X90186Y413782D01*
X90092Y413743D01*
X90000Y413702D01*
X89909Y413656D01*
X89821Y413607D01*
X89734Y413555D01*
X89649Y413499D01*
X89567Y413440D01*
X89487Y413378D01*
X89409Y413313D01*
X89334Y413245D01*
X89262Y413174D01*
X89192Y413101D01*
X89126Y413024D01*
X89062Y412946D01*
X89002Y412864D01*
X88945Y412781D01*
X88891Y412695D01*
X88840Y412607D01*
X88793Y412518D01*
X88749Y412426D01*
X88709Y412333D01*
X88672Y412239D01*
X88640Y412143D01*
X88611Y412046D01*
X88585Y411948D01*
X88564Y411849D01*
X88546Y411749D01*
X88533Y411649D01*
X88523Y411548D01*
X88517Y411447D01*
X88515Y411346D01*
X88515Y408735D01*
X88517Y408609D01*
X88523Y408483D01*
X88532Y408357D01*
X88545Y408232D01*
X88563Y408107D01*
X88583Y407982D01*
X88608Y407858D01*
X88636Y407735D01*
X88668Y407613D01*
X88704Y407492D01*
X88743Y407372D01*
X88786Y407254D01*
X88833Y407137D01*
X88883Y407021D01*
X88937Y406906D01*
X88993Y406794D01*
X89054Y406683D01*
X89117Y406574D01*
X89184Y406467D01*
X89254Y406362D01*
X89328Y406259D01*
X89404Y406159D01*
X89483Y406061D01*
X89565Y405965D01*
X89651Y405872D01*
X89738Y405781D01*
X89829Y405694D01*
X89922Y405608D01*
X90018Y405526D01*
X90116Y405447D01*
X90216Y405371D01*
X90319Y405297D01*
X90424Y405227D01*
X90531Y405160D01*
X90640Y405097D01*
X90751Y405036D01*
X90863Y404980D01*
X90978Y404926D01*
X91094Y404876D01*
X91211Y404829D01*
X91329Y404786D01*
X91449Y404747D01*
X91570Y404711D01*
X91692Y404679D01*
X91815Y404651D01*
X91939Y404626D01*
X92064Y404606D01*
X92189Y404588D01*
X92314Y404575D01*
X92440Y404566D01*
X92566Y404560D01*
X92692Y404558D01*
X84505Y408213D02*
X78240Y408213D01*
X71358Y413957D02*
X71263Y413955D01*
X71169Y413949D01*
X71075Y413940D01*
X70981Y413927D01*
X70888Y413910D01*
X70796Y413889D01*
X70704Y413864D01*
X70614Y413836D01*
X70525Y413804D01*
X70437Y413769D01*
X70351Y413730D01*
X70266Y413688D01*
X70183Y413642D01*
X70102Y413593D01*
X70023Y413541D01*
X69946Y413486D01*
X69872Y413427D01*
X69800Y413366D01*
X69730Y413302D01*
X69663Y413235D01*
X69599Y413165D01*
X69538Y413093D01*
X69479Y413019D01*
X69424Y412942D01*
X69372Y412863D01*
X69323Y412782D01*
X69277Y412699D01*
X69235Y412614D01*
X69196Y412528D01*
X69161Y412440D01*
X69129Y412351D01*
X69101Y412261D01*
X69076Y412169D01*
X69055Y412077D01*
X69038Y411984D01*
X69025Y411890D01*
X69016Y411796D01*
X69010Y411702D01*
X69008Y411607D01*
X71358Y413956D02*
X71466Y413954D01*
X71575Y413948D01*
X71683Y413938D01*
X71790Y413925D01*
X71897Y413907D01*
X72004Y413886D01*
X72109Y413861D01*
X72214Y413832D01*
X72317Y413800D01*
X72419Y413763D01*
X72520Y413723D01*
X72619Y413680D01*
X72717Y413633D01*
X72813Y413582D01*
X72907Y413528D01*
X72999Y413471D01*
X73089Y413410D01*
X73177Y413346D01*
X73262Y413280D01*
X73345Y413210D01*
X73425Y413137D01*
X73503Y413061D01*
X73578Y412983D01*
X73650Y412902D01*
X73719Y412818D01*
X73785Y412732D01*
X73848Y412644D01*
X73907Y412553D01*
X73964Y412461D01*
X74017Y412366D01*
X74066Y412269D01*
X74112Y412171D01*
X74155Y412072D01*
X74194Y411970D01*
X74229Y411868D01*
X69791Y409779D02*
X69722Y409848D01*
X69656Y409919D01*
X69592Y409992D01*
X69531Y410068D01*
X69473Y410147D01*
X69419Y410227D01*
X69367Y410310D01*
X69319Y410394D01*
X69273Y410480D01*
X69232Y410568D01*
X69193Y410658D01*
X69158Y410749D01*
X69127Y410841D01*
X69099Y410934D01*
X69075Y411028D01*
X69055Y411123D01*
X69038Y411219D01*
X69025Y411316D01*
X69016Y411413D01*
X69010Y411510D01*
X69008Y411607D01*
X69791Y409780D02*
X74229Y404559D01*
X69008Y404559D01*
X65085Y406647D02*
X62997Y413957D01*
X65085Y406647D02*
X59864Y406647D01*
X61431Y408735D02*
X61431Y404559D01*
X51587Y404559D02*
X48454Y413957D01*
X45322Y404559D01*
X46105Y406908D02*
X50804Y406908D01*
X39858Y404559D02*
X37770Y404559D01*
X39858Y404559D02*
X39947Y404561D01*
X40035Y404567D01*
X40123Y404576D01*
X40211Y404589D01*
X40298Y404606D01*
X40384Y404626D01*
X40469Y404651D01*
X40554Y404678D01*
X40637Y404710D01*
X40718Y404744D01*
X40798Y404783D01*
X40876Y404824D01*
X40953Y404869D01*
X41027Y404917D01*
X41100Y404968D01*
X41170Y405022D01*
X41237Y405080D01*
X41303Y405140D01*
X41365Y405202D01*
X41425Y405268D01*
X41483Y405335D01*
X41537Y405405D01*
X41588Y405478D01*
X41636Y405552D01*
X41681Y405629D01*
X41722Y405707D01*
X41761Y405787D01*
X41795Y405868D01*
X41827Y405951D01*
X41854Y406036D01*
X41879Y406121D01*
X41899Y406207D01*
X41916Y406294D01*
X41929Y406382D01*
X41938Y406470D01*
X41944Y406558D01*
X41946Y406647D01*
X41947Y406647D02*
X41947Y411868D01*
X41946Y411868D02*
X41944Y411957D01*
X41938Y412045D01*
X41929Y412133D01*
X41916Y412221D01*
X41899Y412308D01*
X41879Y412394D01*
X41854Y412479D01*
X41827Y412564D01*
X41795Y412647D01*
X41761Y412728D01*
X41722Y412808D01*
X41681Y412886D01*
X41636Y412963D01*
X41588Y413037D01*
X41537Y413110D01*
X41483Y413180D01*
X41425Y413247D01*
X41365Y413313D01*
X41303Y413375D01*
X41237Y413435D01*
X41170Y413493D01*
X41100Y413547D01*
X41027Y413598D01*
X40953Y413646D01*
X40876Y413691D01*
X40798Y413732D01*
X40718Y413771D01*
X40637Y413805D01*
X40554Y413837D01*
X40469Y413864D01*
X40384Y413889D01*
X40298Y413909D01*
X40211Y413926D01*
X40123Y413939D01*
X40035Y413948D01*
X39947Y413954D01*
X39858Y413956D01*
X39858Y413957D02*
X37770Y413957D01*
X30516Y415001D02*
X34693Y403514D01*
X26681Y404559D02*
X26681Y413957D01*
X24070Y413957D01*
X23970Y413955D01*
X23870Y413949D01*
X23771Y413940D01*
X23671Y413926D01*
X23573Y413909D01*
X23475Y413888D01*
X23378Y413864D01*
X23282Y413835D01*
X23187Y413803D01*
X23094Y413768D01*
X23002Y413729D01*
X22911Y413686D01*
X22823Y413640D01*
X22736Y413590D01*
X22651Y413538D01*
X22568Y413482D01*
X22487Y413423D01*
X22409Y413360D01*
X22333Y413295D01*
X22259Y413227D01*
X22189Y413157D01*
X22121Y413083D01*
X22056Y413007D01*
X21993Y412929D01*
X21934Y412848D01*
X21878Y412765D01*
X21826Y412680D01*
X21776Y412593D01*
X21730Y412505D01*
X21687Y412414D01*
X21648Y412322D01*
X21613Y412229D01*
X21581Y412134D01*
X21552Y412038D01*
X21528Y411941D01*
X21507Y411843D01*
X21490Y411745D01*
X21476Y411645D01*
X21467Y411546D01*
X21461Y411446D01*
X21459Y411346D01*
X21460Y411346D02*
X21460Y407169D01*
X21459Y407169D02*
X21461Y407069D01*
X21467Y406969D01*
X21476Y406870D01*
X21490Y406770D01*
X21507Y406672D01*
X21528Y406574D01*
X21552Y406477D01*
X21581Y406381D01*
X21613Y406286D01*
X21648Y406193D01*
X21687Y406101D01*
X21730Y406010D01*
X21776Y405922D01*
X21826Y405835D01*
X21878Y405750D01*
X21934Y405667D01*
X21993Y405586D01*
X22056Y405508D01*
X22121Y405432D01*
X22189Y405358D01*
X22259Y405288D01*
X22333Y405220D01*
X22409Y405155D01*
X22487Y405092D01*
X22568Y405033D01*
X22651Y404977D01*
X22736Y404925D01*
X22823Y404875D01*
X22911Y404829D01*
X23002Y404786D01*
X23094Y404747D01*
X23187Y404712D01*
X23282Y404680D01*
X23378Y404651D01*
X23475Y404627D01*
X23573Y404606D01*
X23671Y404589D01*
X23771Y404575D01*
X23870Y404566D01*
X23970Y404560D01*
X24070Y404558D01*
X24070Y404559D02*
X26681Y404559D01*
X15169Y404559D02*
X13081Y404559D01*
X15169Y404559D02*
X15258Y404561D01*
X15346Y404567D01*
X15434Y404576D01*
X15522Y404589D01*
X15609Y404606D01*
X15695Y404626D01*
X15780Y404651D01*
X15865Y404678D01*
X15948Y404710D01*
X16029Y404744D01*
X16109Y404783D01*
X16187Y404824D01*
X16264Y404869D01*
X16338Y404917D01*
X16411Y404968D01*
X16481Y405022D01*
X16548Y405080D01*
X16614Y405140D01*
X16676Y405202D01*
X16736Y405268D01*
X16794Y405335D01*
X16848Y405405D01*
X16899Y405478D01*
X16947Y405552D01*
X16992Y405629D01*
X17033Y405707D01*
X17072Y405787D01*
X17106Y405868D01*
X17138Y405951D01*
X17165Y406036D01*
X17190Y406121D01*
X17210Y406207D01*
X17227Y406294D01*
X17240Y406382D01*
X17249Y406470D01*
X17255Y406558D01*
X17257Y406647D01*
X17258Y406647D02*
X17258Y411868D01*
X17257Y411868D02*
X17255Y411957D01*
X17249Y412045D01*
X17240Y412133D01*
X17227Y412221D01*
X17210Y412308D01*
X17190Y412394D01*
X17165Y412479D01*
X17138Y412564D01*
X17106Y412647D01*
X17072Y412728D01*
X17033Y412808D01*
X16992Y412886D01*
X16947Y412963D01*
X16899Y413037D01*
X16848Y413110D01*
X16794Y413180D01*
X16736Y413247D01*
X16676Y413313D01*
X16614Y413375D01*
X16548Y413435D01*
X16481Y413493D01*
X16411Y413547D01*
X16338Y413598D01*
X16264Y413646D01*
X16187Y413691D01*
X16109Y413732D01*
X16029Y413771D01*
X15948Y413805D01*
X15865Y413837D01*
X15780Y413864D01*
X15695Y413889D01*
X15609Y413909D01*
X15522Y413926D01*
X15434Y413939D01*
X15346Y413948D01*
X15258Y413954D01*
X15169Y413956D01*
X15169Y413957D02*
X13081Y413957D01*
D13*
X192024Y439167D03*
D14*
X192468Y439294D03*
D15*
X193611Y439421D03*
D16*
X192659Y439421D03*
D15*
X184467Y439421D03*
D17*
X193103Y439548D03*
D18*
X184213Y439548D03*
D15*
X183705Y439548D03*
D19*
X193294Y439675D03*
D20*
X183896Y439675D03*
D15*
X183070Y439675D03*
D21*
X193548Y439802D03*
D22*
X183705Y439802D03*
D15*
X182689Y439802D03*
D23*
X193802Y439929D03*
D17*
X183451Y439929D03*
D24*
X194056Y440056D03*
D25*
X183197Y440056D03*
D26*
X194183Y440183D03*
D27*
X182943Y440183D03*
D28*
X194373Y440310D03*
D29*
X182816Y440310D03*
D30*
X194564Y440437D03*
D15*
X190944Y440437D03*
D23*
X182626Y440437D03*
D31*
X194818Y440564D03*
D32*
X182435Y440564D03*
D33*
X194754Y440691D03*
D34*
X182308Y440691D03*
D15*
X179895Y440691D03*
D33*
X194754Y440818D03*
D35*
X182118Y440818D03*
D33*
X194754Y440945D03*
D15*
X190944Y440945D03*
D36*
X181991Y440945D03*
D31*
X194691Y441072D03*
D15*
X190944Y441072D03*
D30*
X181737Y441072D03*
D37*
X194564Y441199D03*
D38*
X191071Y441199D03*
D31*
X181610Y441199D03*
D39*
X194183Y441326D03*
D40*
X181546Y441326D03*
D41*
X194246Y441453D03*
D37*
X181356Y441453D03*
D41*
X194246Y441580D03*
D42*
X181292Y441580D03*
D39*
X194183Y441707D03*
D43*
X181102Y441707D03*
D42*
X194246Y441834D03*
D43*
X180975Y441834D03*
D41*
X194246Y441961D03*
D44*
X180911Y441961D03*
D39*
X194183Y442088D03*
D45*
X180721Y442088D03*
D39*
X194183Y442215D03*
D46*
X180657Y442215D03*
D39*
X194183Y442342D03*
D46*
X180276Y442342D03*
D42*
X194119Y442469D03*
D44*
X180022Y442469D03*
D42*
X194119Y442596D03*
D44*
X179768Y442596D03*
D47*
X194056Y442723D03*
D45*
X179705Y442723D03*
D47*
X194056Y442850D03*
D48*
X179451Y442850D03*
D42*
X194119Y442977D03*
D49*
X179514Y442977D03*
D47*
X194056Y443104D03*
D50*
X179324Y443104D03*
D47*
X194056Y443231D03*
D51*
X179197Y443231D03*
D47*
X194056Y443358D03*
D52*
X179133Y443358D03*
D47*
X194056Y443485D03*
D53*
X179070Y443485D03*
D42*
X193992Y443612D03*
D54*
X178943Y443612D03*
D47*
X194056Y443739D03*
D55*
X178879Y443739D03*
D39*
X193929Y443866D03*
D15*
X190436Y443866D03*
X190182Y443866D03*
D56*
X178752Y443866D03*
D15*
X203771Y443993D03*
D45*
X193421Y443993D03*
D57*
X178689Y443993D03*
D38*
X203771Y444120D03*
D46*
X193484Y444120D03*
D58*
X178498Y444120D03*
D38*
X203898Y444247D03*
D46*
X193484Y444247D03*
D58*
X178498Y444247D03*
D59*
X203962Y444374D03*
D46*
X193484Y444374D03*
D60*
X178371Y444374D03*
D59*
X204089Y444501D03*
D46*
X193357Y444501D03*
D61*
X178308Y444501D03*
D62*
X204089Y444628D03*
D48*
X193421Y444628D03*
D63*
X178181Y444628D03*
D64*
X204152Y444755D03*
D48*
X193421Y444755D03*
D63*
X178181Y444755D03*
D20*
X204216Y444882D03*
D48*
X193421Y444882D03*
D65*
X178054Y444882D03*
D66*
X204406Y445009D03*
D48*
X193421Y445009D03*
D13*
X182753Y445009D03*
D15*
X182435Y445009D03*
D67*
X177546Y445009D03*
D22*
X204406Y445136D03*
D46*
X193357Y445136D03*
D67*
X177419Y445136D03*
D68*
X204470Y445263D03*
D48*
X193421Y445263D03*
D61*
X177292Y445263D03*
D69*
X204533Y445390D03*
D48*
X193421Y445390D03*
D61*
X177292Y445390D03*
D70*
X204597Y445517D03*
D48*
X193421Y445517D03*
D61*
X177165Y445517D03*
D17*
X204660Y445644D03*
D45*
X193421Y445644D03*
D63*
X177038Y445644D03*
D17*
X204787Y445771D03*
D46*
X193484Y445771D03*
D63*
X177038Y445771D03*
D71*
X204787Y445898D03*
D46*
X193484Y445898D03*
D65*
X176911Y445898D03*
D72*
X204851Y446025D03*
D46*
X193357Y446025D03*
D65*
X176911Y446025D03*
D25*
X204914Y446152D03*
D44*
X193357Y446152D03*
D73*
X176847Y446152D03*
D19*
X204978Y446279D03*
D15*
X196659Y446279D03*
X196278Y446279D03*
D42*
X192849Y446279D03*
D74*
X176784Y446279D03*
D75*
X205041Y446406D03*
D43*
X192659Y446406D03*
D15*
X189039Y446406D03*
D73*
X176593Y446406D03*
D76*
X205105Y446533D03*
D46*
X192341Y446533D03*
D77*
X176657Y446533D03*
D27*
X205168Y446660D03*
D45*
X192278Y446660D03*
D77*
X176530Y446660D03*
D21*
X205232Y446787D03*
D45*
X192278Y446787D03*
D78*
X176403Y446787D03*
D21*
X205359Y446914D03*
D46*
X192214Y446914D03*
D79*
X176339Y446914D03*
D80*
X205359Y447041D03*
D46*
X192214Y447041D03*
D81*
X176339Y447041D03*
D82*
X205422Y447168D03*
D46*
X192214Y447168D03*
D83*
X176276Y447168D03*
D23*
X205486Y447295D03*
D48*
X192151Y447295D03*
D84*
X176212Y447295D03*
D85*
X205549Y447422D03*
D46*
X192214Y447422D03*
D86*
X176149Y447422D03*
D87*
X205613Y447549D03*
D48*
X192151Y447549D03*
D83*
X175895Y447549D03*
D24*
X205486Y447676D03*
D88*
X202946Y447676D03*
D15*
X202501Y447676D03*
D48*
X192151Y447676D03*
D74*
X175514Y447676D03*
D30*
X205105Y447803D03*
D48*
X192151Y447803D03*
D77*
X175387Y447803D03*
D89*
X205168Y447930D03*
D46*
X192087Y447930D03*
D73*
X175323Y447930D03*
D33*
X205168Y448057D03*
D46*
X192214Y448057D03*
D79*
X175323Y448057D03*
D31*
X205232Y448184D03*
D45*
X192151Y448184D03*
D79*
X175196Y448184D03*
D31*
X205232Y448311D03*
D45*
X192151Y448311D03*
D78*
X175133Y448311D03*
D40*
X205295Y448438D03*
D46*
X192214Y448438D03*
D78*
X175133Y448438D03*
D37*
X205359Y448565D03*
D46*
X192087Y448565D03*
D83*
X175006Y448565D03*
D90*
X205422Y448692D03*
D45*
X192151Y448692D03*
D83*
X175133Y448692D03*
D90*
X205422Y448819D03*
D45*
X192024Y448819D03*
D86*
X175006Y448819D03*
D47*
X205486Y448946D03*
D44*
X191198Y448946D03*
D15*
X187388Y448946D03*
X180657Y448946D03*
X180403Y448946D03*
D77*
X174498Y448946D03*
D42*
X205549Y449073D03*
D48*
X191008Y449073D03*
D73*
X174434Y449073D03*
D39*
X205613Y449200D03*
D48*
X191008Y449200D03*
D73*
X174307Y449200D03*
D42*
X205676Y449327D03*
D46*
X190944Y449327D03*
D77*
X174244Y449327D03*
D41*
X205676Y449454D03*
D46*
X190944Y449454D03*
D77*
X174244Y449454D03*
D41*
X205803Y449581D03*
D46*
X190944Y449581D03*
D77*
X174117Y449581D03*
D43*
X205740Y449708D03*
D46*
X190944Y449708D03*
D79*
X174180Y449708D03*
D43*
X205867Y449835D03*
D46*
X190944Y449835D03*
D81*
X174053Y449835D03*
D91*
X205867Y449962D03*
D46*
X190944Y449962D03*
D81*
X174053Y449962D03*
D92*
X205930Y450089D03*
D48*
X190881Y450089D03*
D83*
X173990Y450089D03*
D49*
X205676Y450216D03*
D15*
X201612Y450216D03*
D93*
X190690Y450216D03*
D81*
X173926Y450216D03*
D53*
X205486Y450343D03*
D50*
X190627Y450343D03*
D81*
X173799Y450343D03*
D53*
X205486Y450470D03*
D93*
X190690Y450470D03*
D83*
X173736Y450470D03*
D54*
X205486Y450597D03*
D49*
X190690Y450597D03*
D81*
X173672Y450597D03*
D54*
X205613Y450724D03*
D49*
X190690Y450724D03*
D81*
X173545Y450724D03*
D55*
X205549Y450851D03*
D49*
X190690Y450851D03*
D83*
X173609Y450851D03*
D94*
X205613Y450978D03*
D50*
X190627Y450978D03*
D84*
X173545Y450978D03*
D94*
X205613Y451105D03*
D50*
X190627Y451105D03*
D86*
X173482Y451105D03*
D57*
X205613Y451232D03*
D51*
X190500Y451232D03*
D15*
X186118Y451232D03*
D86*
X173482Y451232D03*
D57*
X205613Y451359D03*
D95*
X190055Y451359D03*
D15*
X178879Y451359D03*
D81*
X173164Y451359D03*
D58*
X205676Y451486D03*
D48*
X189611Y451486D03*
D74*
X172847Y451486D03*
D67*
X205740Y451613D03*
D48*
X189611Y451613D03*
D73*
X172783Y451613D03*
D67*
X205740Y451740D03*
D48*
X189611Y451740D03*
D73*
X172656Y451740D03*
D67*
X205867Y451867D03*
D46*
X189547Y451867D03*
D73*
X172656Y451867D03*
D60*
X205803Y451994D03*
D46*
X189547Y451994D03*
D73*
X172656Y451994D03*
D61*
X205867Y452121D03*
D46*
X189547Y452121D03*
D77*
X172593Y452121D03*
D96*
X205930Y452248D03*
D46*
X189547Y452248D03*
D79*
X172529Y452248D03*
D96*
X205930Y452375D03*
D48*
X189611Y452375D03*
D79*
X172529Y452375D03*
D96*
X205930Y452502D03*
D48*
X189611Y452502D03*
D81*
X172529Y452502D03*
D63*
X205994Y452629D03*
D49*
X189420Y452629D03*
D15*
X184594Y452629D03*
X177736Y452629D03*
D73*
X172275Y452629D03*
D97*
X205803Y452756D03*
D38*
X200342Y452756D03*
D94*
X188976Y452756D03*
D98*
X171894Y452756D03*
D81*
X205549Y452883D03*
D54*
X188976Y452883D03*
D63*
X171831Y452883D03*
D81*
X205549Y453010D03*
D38*
X193103Y453010D03*
D51*
X188722Y453010D03*
D61*
X171704Y453010D03*
D81*
X205549Y453137D03*
D50*
X188722Y453137D03*
D63*
X171704Y453137D03*
D81*
X205549Y453264D03*
D49*
X188658Y453264D03*
D98*
X171640Y453264D03*
D81*
X205549Y453391D03*
D49*
X188658Y453391D03*
D63*
X171577Y453391D03*
D83*
X205486Y453518D03*
D49*
X188658Y453518D03*
D63*
X171577Y453518D03*
D83*
X205486Y453645D03*
D93*
X188658Y453645D03*
D65*
X171577Y453645D03*
D81*
X205422Y453772D03*
D51*
X188722Y453772D03*
D65*
X171577Y453772D03*
D15*
X210502Y453899D03*
D73*
X205041Y453899D03*
D93*
X188531Y453899D03*
D15*
X176593Y453899D03*
D63*
X171450Y453899D03*
D97*
X204787Y454026D03*
D95*
X187769Y454026D03*
D67*
X170942Y454026D03*
D97*
X204787Y454153D03*
D95*
X187769Y454153D03*
D57*
X170942Y454153D03*
D98*
X204787Y454280D03*
D95*
X187769Y454280D03*
D57*
X170815Y454280D03*
D65*
X204851Y454407D03*
D52*
X187769Y454407D03*
D56*
X170751Y454407D03*
D65*
X204724Y454534D03*
D52*
X187769Y454534D03*
D57*
X170688Y454534D03*
D65*
X204851Y454661D03*
D52*
X187769Y454661D03*
D57*
X170688Y454661D03*
D65*
X204851Y454788D03*
D53*
X187706Y454788D03*
D58*
X170624Y454788D03*
D97*
X204787Y454915D03*
D53*
X187706Y454915D03*
D67*
X170688Y454915D03*
D97*
X204787Y455042D03*
D95*
X187642Y455042D03*
D67*
X170688Y455042D03*
D97*
X204660Y455169D03*
D13*
X191643Y455169D03*
D51*
X187325Y455169D03*
D15*
X175323Y455169D03*
D58*
X170497Y455169D03*
D86*
X204216Y455296D03*
D53*
X186690Y455296D03*
D95*
X170116Y455296D03*
D86*
X204216Y455423D03*
D53*
X186563Y455423D03*
X170053Y455423D03*
D84*
X204279Y455550D03*
D52*
X186626Y455550D03*
D95*
X169989Y455550D03*
D83*
X204216Y455677D03*
D51*
X186690Y455677D03*
D53*
X169926Y455677D03*
D84*
X204279Y455804D03*
D51*
X186690Y455804D03*
D53*
X169926Y455804D03*
D83*
X204216Y455931D03*
D51*
X186563Y455931D03*
D95*
X169862Y455931D03*
D83*
X204216Y456058D03*
D52*
X186626Y456058D03*
D95*
X169862Y456058D03*
D83*
X204216Y456185D03*
D53*
X186563Y456185D03*
D95*
X169862Y456185D03*
D84*
X204152Y456312D03*
D95*
X186499Y456312D03*
D55*
X169862Y456312D03*
D13*
X209169Y456439D03*
D15*
X208851Y456439D03*
D65*
X203581Y456439D03*
D55*
X186499Y456439D03*
D13*
X173990Y456439D03*
D52*
X169608Y456439D03*
D97*
X203517Y456566D03*
D88*
X197993Y456566D03*
D15*
X197548Y456566D03*
D94*
X185420Y456566D03*
D48*
X169291Y456566D03*
D81*
X203009Y456693D03*
D54*
X185420Y456693D03*
D45*
X169164Y456693D03*
D81*
X203009Y456820D03*
D53*
X185420Y456820D03*
D46*
X169100Y456820D03*
D81*
X203009Y456947D03*
D53*
X185420Y456947D03*
D45*
X169037Y456947D03*
D81*
X203009Y457074D03*
D53*
X185420Y457074D03*
D45*
X169037Y457074D03*
D78*
X202946Y457201D03*
D53*
X185420Y457201D03*
D46*
X168973Y457201D03*
D78*
X202946Y457328D03*
D95*
X185356Y457328D03*
D46*
X168973Y457328D03*
D81*
X203009Y457455D03*
D95*
X185356Y457455D03*
D46*
X168973Y457455D03*
D83*
X202946Y457582D03*
D55*
X185229Y457582D03*
D48*
X169037Y457582D03*
D38*
X208216Y457709D03*
D77*
X202565Y457709D03*
D55*
X185229Y457709D03*
D15*
X172656Y457709D03*
D45*
X168783Y457709D03*
D78*
X202057Y457836D03*
D15*
X189293Y457836D03*
D57*
X184404Y457836D03*
D39*
X168402Y457836D03*
D79*
X201993Y457963D03*
D55*
X184213Y457963D03*
D47*
X168275Y457963D03*
D77*
X202057Y458090D03*
D95*
X184213Y458090D03*
D37*
X168148Y458090D03*
D74*
X202057Y458217D03*
D95*
X184213Y458217D03*
D37*
X168021Y458217D03*
D73*
X202120Y458344D03*
D95*
X184213Y458344D03*
D37*
X168021Y458344D03*
D73*
X201993Y458471D03*
D95*
X184213Y458471D03*
D37*
X168021Y458471D03*
D73*
X201993Y458598D03*
D95*
X184213Y458598D03*
D37*
X168021Y458598D03*
D77*
X202057Y458725D03*
D54*
X184150Y458725D03*
D37*
X168021Y458725D03*
D81*
X201866Y458852D03*
D55*
X184086Y458852D03*
D42*
X168084Y458852D03*
D84*
X201739Y458979D03*
D94*
X184023Y458979D03*
D13*
X171069Y458979D03*
D40*
X167830Y458979D03*
D99*
X201295Y459106D03*
D15*
X188150Y459106D03*
D60*
X183197Y459106D03*
D36*
X167386Y459106D03*
D99*
X201295Y459233D03*
D56*
X182943Y459233D03*
D100*
X167195Y459233D03*
D83*
X201041Y459360D03*
D94*
X182880Y459360D03*
D26*
X167132Y459360D03*
D78*
X201041Y459487D03*
D54*
X182880Y459487D03*
D26*
X167132Y459487D03*
D78*
X201041Y459614D03*
D54*
X182880Y459614D03*
D26*
X167005Y459614D03*
D79*
X200977Y459741D03*
D54*
X182880Y459741D03*
D26*
X167005Y459741D03*
D79*
X200977Y459868D03*
D55*
X182816Y459868D03*
D26*
X167005Y459868D03*
D83*
X200914Y459995D03*
D55*
X182816Y459995D03*
D100*
X167068Y459995D03*
D101*
X200850Y460122D03*
D56*
X182816Y460122D03*
D100*
X167068Y460122D03*
D101*
X200596Y460249D03*
D56*
X182689Y460249D03*
D15*
X169354Y460249D03*
D26*
X166878Y460249D03*
D99*
X200025Y460376D03*
D58*
X181546Y460376D03*
D21*
X166370Y460376D03*
D99*
X200025Y460503D03*
D57*
X181483Y460503D03*
D27*
X166179Y460503D03*
D102*
X200025Y460630D03*
D94*
X181356Y460630D03*
D27*
X166179Y460630D03*
D101*
X199961Y460757D03*
D55*
X181419Y460757D03*
D76*
X166116Y460757D03*
D84*
X199961Y460884D03*
D55*
X181419Y460884D03*
D76*
X166116Y460884D03*
D86*
X199898Y461011D03*
D55*
X181419Y461011D03*
D76*
X166116Y461011D03*
D101*
X199961Y461138D03*
D55*
X181419Y461138D03*
D76*
X166116Y461138D03*
D102*
X199898Y461265D03*
D94*
X181356Y461265D03*
D76*
X166116Y461265D03*
D103*
X199707Y461392D03*
D57*
X181356Y461392D03*
D21*
X166116Y461392D03*
D15*
X205676Y461519D03*
X205422Y461519D03*
D13*
X205105Y461519D03*
D84*
X199199Y461519D03*
D56*
X181165Y461519D03*
D13*
X167513Y461519D03*
D25*
X165925Y461519D03*
D59*
X212979Y461646D03*
D104*
X198945Y461646D03*
D15*
X192849Y461646D03*
D58*
X180022Y461646D03*
D15*
X175196Y461646D03*
D68*
X165354Y461646D03*
D62*
X212979Y461773D03*
D104*
X198818Y461773D03*
D57*
X179832Y461773D03*
D64*
X165163Y461773D03*
D59*
X212979Y461900D03*
D101*
X198818Y461900D03*
D56*
X179895Y461900D03*
D15*
X165290Y461900D03*
D18*
X164782Y461900D03*
D59*
X212979Y462027D03*
D84*
X198818Y462027D03*
D94*
X179832Y462027D03*
D13*
X164592Y462027D03*
D14*
X213042Y462154D03*
D86*
X198755Y462154D03*
D55*
X179895Y462154D03*
D13*
X164592Y462154D03*
D14*
X213042Y462281D03*
D84*
X198818Y462281D03*
D94*
X179832Y462281D03*
D15*
X164528Y462281D03*
D59*
X212979Y462408D03*
D86*
X198755Y462408D03*
D94*
X179832Y462408D03*
D15*
X164528Y462408D03*
D62*
X212979Y462535D03*
D101*
X198691Y462535D03*
D56*
X179768Y462535D03*
D38*
X164655Y462535D03*
D14*
X212915Y462662D03*
D99*
X198628Y462662D03*
D58*
X179768Y462662D03*
D14*
X164909Y462662D03*
D64*
X212915Y462789D03*
D105*
X198374Y462789D03*
D15*
X184340Y462789D03*
D60*
X179387Y462789D03*
D17*
X212407Y462916D03*
D99*
X197485Y462916D03*
D60*
X178498Y462916D03*
D88*
X173355Y462916D03*
D17*
X212407Y463043D03*
D99*
X197485Y463043D03*
D96*
X178117Y463043D03*
D17*
X212407Y463170D03*
D101*
X197548Y463170D03*
D60*
X177990Y463170D03*
D70*
X212471Y463297D03*
D86*
X197485Y463297D03*
D67*
X177927Y463297D03*
D17*
X212407Y463424D03*
D86*
X197485Y463424D03*
D58*
X177990Y463424D03*
D70*
X212471Y463551D03*
D86*
X197485Y463551D03*
D67*
X177927Y463551D03*
D17*
X212407Y463678D03*
D101*
X197421Y463678D03*
D67*
X177927Y463678D03*
D17*
X212407Y463805D03*
D101*
X197421Y463805D03*
D60*
X177990Y463805D03*
D106*
X212344Y463932D03*
D99*
X197358Y463932D03*
D96*
X177990Y463932D03*
D106*
X212344Y464059D03*
D15*
X203009Y464059D03*
D104*
X196913Y464059D03*
D15*
X182689Y464059D03*
X182435Y464059D03*
D67*
X177546Y464059D03*
D29*
X211772Y464186D03*
D105*
X196088Y464186D03*
D15*
X181546Y464186D03*
D98*
X176339Y464186D03*
D21*
X211709Y464313D03*
D105*
X196088Y464313D03*
D61*
X176149Y464313D03*
D29*
X211772Y464440D03*
D104*
X196024Y464440D03*
D67*
X176149Y464440D03*
D21*
X211836Y464567D03*
D104*
X196024Y464567D03*
D57*
X176149Y464567D03*
D21*
X211836Y464694D03*
D101*
X196024Y464694D03*
D57*
X176149Y464694D03*
D21*
X211709Y464821D03*
D104*
X196024Y464821D03*
D57*
X176149Y464821D03*
D21*
X211836Y464948D03*
D102*
X195961Y464948D03*
D58*
X176085Y464948D03*
D21*
X211709Y465075D03*
D99*
X195961Y465075D03*
D67*
X176022Y465075D03*
D80*
X211709Y465202D03*
D105*
X195961Y465202D03*
D61*
X176022Y465202D03*
D80*
X211582Y465329D03*
D15*
X201866Y465329D03*
D99*
X195707Y465329D03*
D15*
X180784Y465329D03*
D63*
X175641Y465329D03*
D26*
X211074Y465456D03*
D107*
X194564Y465456D03*
D74*
X174117Y465456D03*
D26*
X211074Y465583D03*
D108*
X194564Y465583D03*
D65*
X173990Y465583D03*
D26*
X211074Y465710D03*
D105*
X194437Y465710D03*
D98*
X174053Y465710D03*
D34*
X211137Y465837D03*
D103*
X194373Y465837D03*
D63*
X173990Y465837D03*
D26*
X211074Y465964D03*
D99*
X194437Y465964D03*
D96*
X174053Y465964D03*
D34*
X211137Y466091D03*
D99*
X194437Y466091D03*
D96*
X174053Y466091D03*
D26*
X211074Y466218D03*
D103*
X194373Y466218D03*
D96*
X174053Y466218D03*
D34*
X211010Y466345D03*
D105*
X194437Y466345D03*
D98*
X173926Y466345D03*
D100*
X211010Y466472D03*
D109*
X194373Y466472D03*
D97*
X173926Y466472D03*
D26*
X210947Y466599D03*
D15*
X200469Y466599D03*
X200215Y466599D03*
D103*
X193992Y466599D03*
D15*
X178879Y466599D03*
X178625Y466599D03*
D65*
X173355Y466599D03*
D33*
X210375Y466726D03*
D15*
X199326Y466726D03*
D110*
X192722Y466726D03*
D98*
X172148Y466726D03*
D88*
X166751Y466726D03*
D33*
X210375Y466853D03*
D108*
X192659Y466853D03*
D74*
X171831Y466853D03*
D111*
X210439Y466980D03*
D103*
X192595Y466980D03*
D65*
X171831Y466980D03*
D111*
X210439Y467107D03*
D103*
X192595Y467107D03*
D98*
X171767Y467107D03*
D89*
X210375Y467234D03*
D99*
X192659Y467234D03*
D98*
X171767Y467234D03*
D111*
X210439Y467361D03*
D103*
X192595Y467361D03*
D98*
X171767Y467361D03*
D89*
X210375Y467488D03*
D103*
X192595Y467488D03*
D98*
X171767Y467488D03*
D111*
X210312Y467615D03*
D105*
X192532Y467615D03*
D65*
X171704Y467615D03*
D111*
X210312Y467742D03*
D108*
X192532Y467742D03*
D73*
X171640Y467742D03*
D33*
X210248Y467869D03*
D15*
X198564Y467869D03*
X198310Y467869D03*
D105*
X192024Y467869D03*
D15*
X176720Y467869D03*
D13*
X176403Y467869D03*
D98*
X171132Y467869D03*
D13*
X165862Y467869D03*
D39*
X209804Y467996D03*
D13*
X206248Y467996D03*
D105*
X191262Y467996D03*
D38*
X184848Y467996D03*
D74*
X170180Y467996D03*
D43*
X209550Y468123D03*
D112*
X190944Y468123D03*
D98*
X169862Y468123D03*
D43*
X209550Y468250D03*
D105*
X190881Y468250D03*
D61*
X169799Y468250D03*
D41*
X209613Y468377D03*
D105*
X190881Y468377D03*
D61*
X169799Y468377D03*
D41*
X209613Y468504D03*
D105*
X190881Y468504D03*
D60*
X169735Y468504D03*
D39*
X209550Y468631D03*
D103*
X190817Y468631D03*
D60*
X169735Y468631D03*
D41*
X209613Y468758D03*
D105*
X190881Y468758D03*
D60*
X169735Y468758D03*
D41*
X209486Y468885D03*
D109*
X190817Y468885D03*
D60*
X169862Y468885D03*
D43*
X209423Y469012D03*
D108*
X190881Y469012D03*
D61*
X169926Y469012D03*
D41*
X209359Y469139D03*
D15*
X197040Y469139D03*
D13*
X196723Y469139D03*
D103*
X190436Y469139D03*
D13*
X174498Y469139D03*
X174117Y469139D03*
D55*
X169481Y469139D03*
D53*
X208661Y469266D03*
D112*
X189420Y469266D03*
D18*
X182689Y469266D03*
D48*
X168910Y469266D03*
D51*
X208661Y469393D03*
D113*
X188849Y469393D03*
D92*
X168719Y469393D03*
D93*
X208724Y469520D03*
D108*
X188849Y469520D03*
D41*
X168592Y469520D03*
D93*
X208724Y469647D03*
D109*
X188785Y469647D03*
D41*
X168592Y469647D03*
D50*
X208661Y469774D03*
D109*
X188785Y469774D03*
D41*
X168592Y469774D03*
D50*
X208661Y469901D03*
D109*
X188785Y469901D03*
D42*
X168592Y469901D03*
D50*
X208661Y470028D03*
D109*
X188785Y470028D03*
D42*
X168592Y470028D03*
D93*
X208597Y470155D03*
D108*
X188722Y470155D03*
D39*
X168656Y470155D03*
D93*
X208470Y470282D03*
D113*
X188595Y470282D03*
D41*
X168719Y470282D03*
D53*
X208280Y470409D03*
D15*
X203898Y470409D03*
X195008Y470409D03*
X194754Y470409D03*
D108*
X188341Y470409D03*
D88*
X171831Y470409D03*
D15*
X171386Y470409D03*
D33*
X168338Y470409D03*
D96*
X207581Y470536D03*
D15*
X202501Y470536D03*
D114*
X186753Y470536D03*
D87*
X167513Y470536D03*
D63*
X207391Y470663D03*
D115*
X186626Y470663D03*
D29*
X167195Y470663D03*
D96*
X207454Y470790D03*
D110*
X186626Y470790D03*
D75*
X167068Y470790D03*
D60*
X207581Y470917D03*
D112*
X186753Y470917D03*
D25*
X166941Y470917D03*
D60*
X207454Y471044D03*
D112*
X186626Y471044D03*
D25*
X166941Y471044D03*
D61*
X207391Y471171D03*
D112*
X186626Y471171D03*
D72*
X167005Y471171D03*
D61*
X207391Y471298D03*
D107*
X186563Y471298D03*
D72*
X167005Y471298D03*
D61*
X207391Y471425D03*
D113*
X186563Y471425D03*
D25*
X167068Y471425D03*
D61*
X207264Y471552D03*
D116*
X186436Y471552D03*
D19*
X167259Y471552D03*
D63*
X207137Y471679D03*
D15*
X192976Y471679D03*
X192722Y471679D03*
X192468Y471679D03*
D113*
X185801Y471679D03*
D88*
X168529Y471679D03*
D106*
X167005Y471679D03*
D73*
X206692Y471806D03*
D18*
X200977Y471806D03*
D114*
X184213Y471806D03*
D83*
X206375Y471933D03*
D116*
X184150Y471933D03*
D81*
X206438Y472060D03*
D117*
X184213Y472060D03*
D78*
X206375Y472187D03*
D110*
X184213Y472187D03*
D78*
X206375Y472314D03*
D113*
X184150Y472314D03*
D78*
X206375Y472441D03*
D110*
X184213Y472441D03*
D78*
X206248Y472568D03*
D113*
X184150Y472568D03*
D78*
X206248Y472695D03*
D117*
X184086Y472695D03*
D78*
X206121Y472822D03*
D116*
X184023Y472822D03*
D84*
X205930Y472949D03*
D15*
X200088Y472949D03*
X190690Y472949D03*
D13*
X190373Y472949D03*
D118*
X183515Y472949D03*
D113*
X204978Y473076D03*
D119*
X181419Y473076D03*
D110*
X205041Y473203D03*
D120*
X181483Y473203D03*
D107*
X205105Y473330D03*
D116*
X181356Y473330D03*
D112*
X205041Y473457D03*
D118*
X181483Y473457D03*
D112*
X205041Y473584D03*
D118*
X181356Y473584D03*
D108*
X204978Y473711D03*
D118*
X181356Y473711D03*
D108*
X204978Y473838D03*
D115*
X181292Y473838D03*
D108*
X204851Y473965D03*
D116*
X181356Y473965D03*
D112*
X204787Y474092D03*
D120*
X181356Y474092D03*
D110*
X204660Y474219D03*
D15*
X188150Y474219D03*
X187896Y474219D03*
X187642Y474219D03*
D118*
X180848Y474219D03*
D120*
X203962Y474346D03*
D18*
X196659Y474346D03*
D120*
X178943Y474346D03*
D18*
X171640Y474346D03*
D121*
X203708Y474473D03*
D122*
X178498Y474473D03*
D123*
X203708Y474600D03*
D120*
X178435Y474600D03*
D122*
X203644Y474727D03*
D120*
X178435Y474727D03*
D122*
X203644Y474854D03*
D120*
X178435Y474854D03*
D124*
X203581Y474981D03*
D114*
X178371Y474981D03*
D122*
X203517Y475108D03*
D114*
X178371Y475108D03*
D122*
X203517Y475235D03*
D119*
X178371Y475235D03*
D124*
X203327Y475362D03*
D123*
X178308Y475362D03*
X203200Y475489D03*
D15*
X185356Y475489D03*
X185102Y475489D03*
X184848Y475489D03*
X184594Y475489D03*
D114*
X177609Y475489D03*
D125*
X202438Y475616D03*
D38*
X194246Y475616D03*
D123*
X175768Y475616D03*
D15*
X168465Y475616D03*
D126*
X202120Y475743D03*
D121*
X175260Y475743D03*
D127*
X202184Y475870D03*
D123*
X175133Y475870D03*
D125*
X202184Y475997D03*
D122*
X175069Y475997D03*
D128*
X202120Y476124D03*
D124*
X175006Y476124D03*
D129*
X202057Y476251D03*
D124*
X175006Y476251D03*
D128*
X201993Y476378D03*
D119*
X175069Y476378D03*
D128*
X201993Y476505D03*
D124*
X175133Y476505D03*
D128*
X201866Y476632D03*
D124*
X175260Y476632D03*
D130*
X201612Y476759D03*
D15*
X182181Y476759D03*
D13*
X181864Y476759D03*
D15*
X181546Y476759D03*
D13*
X181229Y476759D03*
D112*
X174688Y476759D03*
D131*
X200215Y476886D03*
D79*
X173799Y476886D03*
D132*
X200279Y477013D03*
D98*
X173545Y477013D03*
D133*
X200342Y477140D03*
D60*
X173418Y477140D03*
D134*
X200406Y477267D03*
D94*
X173101Y477267D03*
D135*
X200406Y477394D03*
D95*
X173037Y477394D03*
D135*
X200279Y477521D03*
D52*
X173037Y477521D03*
D135*
X200152Y477648D03*
D53*
X173101Y477648D03*
D136*
X200088Y477775D03*
D15*
X177863Y477775D03*
X177609Y477775D03*
D53*
X173228Y477775D03*
D134*
X199898Y477902D03*
D57*
X173736Y477902D03*
D137*
X199644Y478029D03*
D38*
X177990Y478029D03*
D88*
X177419Y478029D03*
D13*
X176911Y478029D03*
D45*
X172974Y478029D03*
D138*
X198564Y478156D03*
D59*
X188087Y478156D03*
D15*
X174053Y478156D03*
X173799Y478156D03*
D24*
X171450Y478156D03*
D139*
X198183Y478283D03*
D19*
X170815Y478283D03*
D140*
X198247Y478410D03*
D106*
X170688Y478410D03*
D141*
X198183Y478537D03*
D70*
X170688Y478537D03*
D138*
X198183Y478664D03*
D70*
X170688Y478664D03*
D142*
X198120Y478791D03*
D68*
X170688Y478791D03*
D138*
X198056Y478918D03*
D68*
X170815Y478918D03*
D138*
X197929Y479045D03*
D22*
X170878Y479045D03*
D141*
X197675Y479172D03*
D68*
X171069Y479172D03*
D143*
X197358Y479299D03*
D38*
X171767Y479299D03*
D62*
X170942Y479299D03*
D15*
X170243Y479299D03*
D144*
X196532Y479426D03*
D16*
X184658Y479426D03*
D145*
X195770Y479553D03*
D146*
X195770Y479680D03*
D147*
X195770Y479807D03*
D148*
X195707Y479934D03*
D149*
X195643Y480061D03*
D150*
X195580Y480188D03*
D149*
X195389Y480315D03*
D147*
X195262Y480442D03*
X195008Y480569D03*
D151*
X193103Y480696D03*
D152*
X193040Y480823D03*
D153*
X193103Y480950D03*
D154*
X193040Y481077D03*
D155*
X193103Y481204D03*
D156*
X192976Y481331D03*
D157*
X192786Y481458D03*
D156*
X192722Y481585D03*
D157*
X192532Y481712D03*
D154*
X192151Y481839D03*
D158*
X190436Y481966D03*
D59*
X175260Y481966D03*
D15*
X174688Y481966D03*
D159*
X189674Y482093D03*
D160*
X189611Y482220D03*
D161*
X189484Y482347D03*
D162*
X189420Y482474D03*
D163*
X189357Y482601D03*
D164*
X189230Y482728D03*
D165*
X189166Y482855D03*
D166*
X189103Y482982D03*
D158*
X189039Y483109D03*
D167*
X188976Y483236D03*
D168*
X188976Y483363D03*
D169*
X188912Y483490D03*
D170*
X188976Y483617D03*
D171*
X188912Y483744D03*
D172*
X188976Y483871D03*
D173*
X188976Y483998D03*
D152*
X188976Y484125D03*
D153*
X188912Y484252D03*
D157*
X188976Y484379D03*
D174*
X188976Y484506D03*
D175*
X188912Y484633D03*
D176*
X188976Y484760D03*
D177*
X188976Y484887D03*
D178*
X188976Y485014D03*
D148*
X188976Y485141D03*
D150*
X188976Y485268D03*
D179*
X188976Y485395D03*
D180*
X188976Y485522D03*
D181*
X188912Y485649D03*
D140*
X188976Y485776D03*
D182*
X188976Y485903D03*
D183*
X188976Y486030D03*
D184*
X188976Y486157D03*
D137*
X188976Y486284D03*
D185*
X188976Y486411D03*
D186*
X188912Y486538D03*
D127*
X188976Y486665D03*
D187*
X189039Y486792D03*
D188*
X188912Y486919D03*
D116*
X188976Y487046D03*
D112*
X189039Y487173D03*
D86*
X188976Y487300D03*
D73*
X188912Y487427D03*
D58*
X188912Y487554D03*
D49*
X189039Y487681D03*
D15*
X184975Y487681D03*
X192087Y487808D03*
D31*
X188976Y487808D03*
D15*
X190690Y487935D03*
X190436Y487935D03*
D25*
X188912Y487935D03*
D15*
X187388Y487935D03*
X187134Y487935D03*
M02*
